<?xml version="1.0" standalone="no"?>
<!DOCTYPE svg PUBLIC "-//W3C//DTD SVG 1.1//EN" "http://www.w3.org/Graphics/SVG/1.1/DTD/svg11.dtd" >
<svg xmlns="http://www.w3.org/2000/svg" xmlns:xlink="http://www.w3.org/1999/xlink" version="1.1">
<metadata>
Created by FontForge 20200314 at Sat Sep  6 14:02:34 2014
 By Unknown
Copyright (c) 2014 by M-B Creative. All rights reserved.
</metadata>
<defs>
<font id="MBEmpireThinW01-Thin" horiz-adv-x="929" >
  <font-face 
    font-family="MBEmpireThinW01-Thin"
    font-weight="250"
    font-stretch="normal"
    units-per-em="1000"
    panose-1="2 0 0 0 0 0 0 0 0 0"
    ascent="800"
    descent="-200"
    x-height="500"
    cap-height="770"
    bbox="-40 -265 1242 1000"
    underline-thickness="50"
    underline-position="-175"
    unicode-range="U+0020-2122"
  />
<missing-glyph horiz-adv-x="275" 
 />
    <glyph glyph-name=".notdef" horiz-adv-x="275" 
 />
    <glyph glyph-name=".null" horiz-adv-x="0" 
 />
    <glyph glyph-name="nonmarkingreturn" horiz-adv-x="333" 
 />
    <glyph glyph-name="space" unicode=" " horiz-adv-x="275" 
 />
    <glyph glyph-name="exclam" unicode="!" horiz-adv-x="240" 
d="M133 200h-26v570h28v-270zM150 30q0 -13 -8.5 -21.5t-21.5 -8.5t-21.5 8.5t-8.5 21.5t8.5 21.5t21.5 8.5t21.5 -8.5t8.5 -21.5z" />
    <glyph glyph-name="quotedbl" unicode="&#x22;" horiz-adv-x="235" 
d="M52 500v293h26v-293h-26zM157 500v293h28v-293h-28z" />
    <glyph glyph-name="numbersign" unicode="#" horiz-adv-x="722" 
d="M657 220h-130v-220h-30v220h-271v-220h-30v220h-131v30h131v271h-131v30h131v219h30v-219h271v219h30v-219h130v-30h-130v-271h130v-30zM226 250h271v271h-271v-271z" />
    <glyph glyph-name="dollar" unicode="$" horiz-adv-x="604" 
d="M320 870v-90q55 -3 101 -21.5t93 -52.5l-18 -24q-44 32 -86 48.5t-90 19.5v-341q40 -14 77.5 -31.5t66.5 -42t47 -58.5t18 -82q0 -52 -16.5 -89.5t-44.5 -62.5t-66.5 -37.5t-81.5 -14.5v-91h-30v90q-61 2 -112.5 19.5t-102.5 54.5l18 24q47 -35 94 -51t103 -17v367
q-36 12 -71.5 27t-64.5 36.5t-47 51.5t-18 73q0 54 18.5 92.5t47.5 63t64.5 37t70.5 13.5v89h30zM499 195q0 40 -15.5 69t-40.5 50t-57 36t-66 27v-357q87 5 133 49.5t46 125.5zM119 575q0 -36 15.5 -60.5t40 -42t55 -30t60.5 -22.5v331q-31 -1 -61.5 -11.5t-55 -32
t-39.5 -54.5t-15 -78z" />
    <glyph glyph-name="percent" unicode="%" horiz-adv-x="920" 
d="M275 410q-38 0 -72 14.5t-59 39.5t-39.5 59t-14.5 72t14.5 72t39.5 59t59 39.5t72 14.5t72 -14.5t59 -39.5t39.5 -59t14.5 -72t-14.5 -72t-39.5 -59t-59 -39.5t-72 -14.5zM275 750q-32 0 -60 -12.5t-49 -33.5t-33.5 -49t-12.5 -60t12.5 -60t33.5 -49t49 -33.5t60 -12.5
t60 12.5t49 33.5t33.5 49t12.5 60t-12.5 60t-33.5 49t-49 33.5t-60 12.5zM645 -10q-38 0 -72 14.5t-59 39.5t-39.5 59t-14.5 72t14.5 72t39.5 59t59 39.5t72 14.5t72 -14.5t59 -39.5t39.5 -59t14.5 -72t-14.5 -72t-39.5 -59t-59 -39.5t-72 -14.5zM645 330q-32 0 -60 -12.5
t-49 -33.5t-33.5 -49t-12.5 -60t12.5 -60t33.5 -49t49 -33.5t60 -12.5t60 12.5t49 33.5t33.5 49t12.5 60t-12.5 60t-33.5 49t-49 33.5t-60 12.5zM140 0h-39l679 770h39z" />
    <glyph glyph-name="ampersand" unicode="&#x26;" horiz-adv-x="802" 
d="M683 0l-127 127q-38 -41 -73.5 -67t-68.5 -42t-63.5 -22t-60.5 -6q-44 0 -83.5 13.5t-68.5 38.5t-46 61.5t-17 81.5t17.5 78.5t46.5 59t65.5 45t75.5 36.5l-60 60q-26 26 -40.5 59.5t-14.5 71.5q0 36 14 69.5t38 59t57 41t71 15.5q39 0 72 -14t57 -38.5t37.5 -57.5
t13.5 -70q0 -40 -16 -71t-42.5 -56t-61.5 -44t-73 -35l222 -222q32 42 51.5 89t19.5 94h30q0 -50 -20.5 -102.5t-58.5 -101.5l151 -151h-44zM105 185q0 -42 16.5 -73.5t42.5 -51.5t59.5 -30t66.5 -10q32 0 65 9.5t65 26.5t61 40.5t54 51.5l-233 233q-38 -17 -73.5 -34.5
t-63 -40t-44 -52t-16.5 -69.5zM495 600q0 31 -11.5 58.5t-32 48t-48 32t-58.5 11.5q-30 0 -57.5 -12.5t-48 -33.5t-32.5 -49.5t-12 -59.5t12 -59t34 -50l69 -70q36 16 69.5 33t59 38.5t41 49t15.5 63.5z" />
    <glyph glyph-name="quotesingle" unicode="'" horiz-adv-x="130" 
d="M52 500v293h28v-293h-28z" />
    <glyph glyph-name="parenleft" unicode="(" horiz-adv-x="261" 
d="M197 -61q-65 96 -91 210.5t-26 238.5q0 61 6 121t20 117t36 110t55 100l24 -17q-54 -77 -82.5 -186t-28.5 -245t28.5 -245t82.5 -187z" />
    <glyph glyph-name="parenright" unicode=")" horiz-adv-x="261" 
d="M40 -44q54 78 82.5 187t28.5 245t-28.5 245t-82.5 186l24 17q33 -47 55 -100t36 -110t20 -117t6 -121q0 -124 -26 -238.5t-91 -210.5z" />
    <glyph glyph-name="asterisk" unicode="*" horiz-adv-x="438" 
d="M206 793h28v-84v-55l34 41l60 59l21 -21l-59 -60l-41 -37h55h84v-27h-84h-55l41 -34l59 -60l-21 -21l-60 59l-37 40v-54v-84h-27v84v54l-34 -40l-60 -59l-21 21l59 60l40 36h-54h-84v28h84h54l-40 34l-59 60l21 21l60 -59l36 -41v55v84z" />
    <glyph glyph-name="plus" unicode="+" horiz-adv-x="660" 
d="M590 370h-245v-245h-30v245h-245v30h245v245h30v-245h245v-30z" />
    <glyph glyph-name="comma" unicode="," horiz-adv-x="195" 
d="M50 -132q25 20 46.5 55.5t26.5 80.5q-2 -1 -5 -2q-6 -2 -13 -2q-17 0 -28.5 11.5t-11.5 28.5t11.5 28.5t28.5 11.5t28.5 -11.5t11.5 -28.5q0 -36 -7.5 -66.5t-20 -54t-27.5 -40.5t-30 -27z" />
    <glyph glyph-name="hyphen" unicode="-" horiz-adv-x="413" 
d="M363 264h-313v30h313v-30z" />
    <glyph glyph-name="period" unicode="." horiz-adv-x="180" 
d="M130 40q0 -17 -11.5 -28.5t-28.5 -11.5t-28.5 11.5t-11.5 28.5t11.5 28.5t28.5 11.5t28.5 -11.5t11.5 -28.5z" />
    <glyph glyph-name="slash" unicode="/" horiz-adv-x="354" 
d="M51 0h-31l283 770h31z" />
    <glyph glyph-name="zero" unicode="0" horiz-adv-x="710" 
d="M355 -10q-70 0 -123.5 32.5t-89.5 87.5t-54 127t-18 150q0 70 16.5 141t51 128t88.5 92.5t129 35.5t129 -35.5t88.5 -92.5t51 -128t16.5 -141q0 -78 -18.5 -150t-54.5 -127t-89 -87.5t-123 -32.5zM355 754q-67 0 -115 -32t-79 -83.5t-46 -117.5t-15 -134t15.5 -134
t47 -118t79.5 -83.5t113 -31.5t113 31.5t79.5 83.5t47 118t15.5 134t-15 134t-46 117.5t-79 83.5t-115 32z" />
    <glyph glyph-name="one" unicode="1" horiz-adv-x="190" 
d="M110 770v-770h-30v770h30z" />
    <glyph glyph-name="two" unicode="2" horiz-adv-x="622" 
d="M552 0h-482q73 91 143 175q30 36 61.5 74t61.5 74t57 68.5t48 57.5q56 65 56 130q0 47 -16 80t-41.5 54t-57 31t-62.5 10q-55 0 -103 -16.5t-97 -51.5l-18 24q51 37 103 55.5t115 18.5q35 0 72 -11.5t67 -36.5t49 -63.5t19 -93.5q0 -77 -63 -150q-23 -27 -52.5 -62
t-61 -73t-64 -77.5t-61 -74.5t-52.5 -64.5t-39 -47.5h418v-30z" />
    <glyph glyph-name="three" unicode="3" horiz-adv-x="594" 
d="M289 -10q-60 0 -113 18t-106 56l18 24q49 -35 97 -51.5t104 -16.5q40 0 77 12.5t65.5 38t45.5 64t17 90.5q0 63 -24 103t-59.5 62.5t-76 31t-74.5 8.5h-32l231 310h-330v30h390l-231 -311q51 -4 94.5 -20.5t75 -46t49 -71t17.5 -96.5q0 -54 -17 -97t-48 -74t-74.5 -47.5
t-95.5 -16.5z" />
    <glyph glyph-name="four" unicode="4" horiz-adv-x="621" 
d="M446 0h-30v275h-386l416 518v-488h125v-30h-125v-275zM92 305h324v402z" />
    <glyph glyph-name="five" unicode="5" horiz-adv-x="584" 
d="M279 -10q-65 0 -113.5 14.5t-95.5 48.5l18 24q22 -15 43 -26t43.5 -18t48 -10t55.5 -3q51 0 89.5 19t64.5 50.5t39 72t13 83.5q0 64 -24.5 105.5t-62 65t-84 32.5t-89.5 9q-30 0 -60 -3t-53 -8l55 324h293v-30h-267l-45 -257q19 2 38 3t39 1q54 0 106.5 -12t93 -40.5
t65.5 -75t25 -114.5q0 -49 -14.5 -95t-44 -81.5t-73.5 -57t-103 -21.5z" />
    <glyph glyph-name="six" unicode="6" horiz-adv-x="580" 
d="M295 -10q-49 0 -92 18.5t-74.5 50.5t-50 75t-18.5 91q0 60 14 115t38 105t55.5 95t66.5 85q32 35 62.5 63.5t55.5 48.5q29 23 55 41l16 -26q0 -2 -16.5 -13.5t-43.5 -32.5t-60.5 -52.5t-67.5 -72.5t-65.5 -91.5t-52.5 -110.5q41 45 85.5 63t92.5 18q49 0 92 -18.5
t74.5 -50.5t50 -75t18.5 -91t-18.5 -91t-50 -75t-74.5 -50.5t-92 -18.5zM295 430q-41 0 -78.5 -15.5t-65.5 -43t-44.5 -65t-16.5 -81.5q0 -42 16 -79.5t44 -65.5t65.5 -44t79.5 -16t79.5 16t65.5 44t44 65.5t16 79.5t-16 79.5t-44 65.5t-65.5 44t-79.5 16z" />
    <glyph glyph-name="seven" unicode="7" horiz-adv-x="554" 
d="M154 0h-33l355 740h-446v30h494z" />
    <glyph glyph-name="eight" unicode="8" horiz-adv-x="580" 
d="M290 -10q-46 0 -86 17.5t-70 47.5t-47 70t-17 85q0 34 10.5 67t30 60.5t47 48.5t60.5 32q-53 21 -85.5 68.5t-32.5 107.5q0 39 15 74t40.5 60.5t60.5 40.5t74 15t74 -15t60.5 -40.5t40.5 -60.5t15 -74q0 -60 -33 -107.5t-85 -68.5q33 -11 60 -31.5t46.5 -48t30.5 -60.5
t11 -68q0 -45 -17 -85t-47 -70t-70 -47.5t-86 -17.5zM290 400q-39 0 -74 -15t-60.5 -40.5t-40.5 -60.5t-15 -74t15 -74t40.5 -60.5t60.5 -40.5t74 -15t74 15t60.5 40.5t40.5 60.5t15 74t-15 74t-40.5 60.5t-60.5 40.5t-74 15zM290 754q-33 0 -62 -12.5t-51 -34.5t-34.5 -51
t-12.5 -62t12.5 -62t34.5 -51t51 -34.5t62 -12.5t62 12.5t51 34.5t34.5 51t12.5 62t-12.5 62t-34.5 51t-51 34.5t-62 12.5z" />
    <glyph glyph-name="nine" unicode="9" horiz-adv-x="580" 
d="M285 784q49 0 92 -18.5t74.5 -50.5t50 -75t18.5 -91q0 -60 -14 -115t-38 -105t-55.5 -95t-66.5 -85q-32 -36 -62.5 -65t-55.5 -49q-29 -24 -55 -43l-19 24q0 2 17 14.5t44.5 34.5t61.5 54t68 73.5t65 92t53 110.5q-41 -45 -85.5 -63t-92.5 -18q-49 0 -92 18.5t-74.5 50.5
t-50 75t-18.5 91t18.5 91t50 75t74.5 50.5t92 18.5zM285 344q41 0 78.5 15.5t65.5 43t44.5 65t16.5 81.5q0 42 -16 79.5t-44 65.5t-65.5 44t-79.5 16t-79.5 -16t-65.5 -44t-44 -65.5t-16 -79.5t16 -79.5t44 -65.5t65.5 -44t79.5 -16z" />
    <glyph glyph-name="colon" unicode=":" horiz-adv-x="180" 
d="M130 40q0 -17 -11.5 -28.5t-28.5 -11.5t-28.5 11.5t-11.5 28.5t11.5 28.5t28.5 11.5t28.5 -11.5t11.5 -28.5zM130 460q0 -17 -11.5 -28.5t-28.5 -11.5t-28.5 11.5t-11.5 28.5t11.5 28.5t28.5 11.5t28.5 -11.5t11.5 -28.5z" />
    <glyph glyph-name="semicolon" unicode=";" horiz-adv-x="195" 
d="M144 460q0 -17 -11.5 -28.5t-28.5 -11.5t-28.5 11.5t-11.5 28.5t11.5 28.5t28.5 11.5t28.5 -11.5t11.5 -28.5zM50 -132q25 20 46.5 55.5t26.5 80.5q-2 -1 -5 -2q-6 -2 -13 -2q-17 0 -28.5 11.5t-11.5 28.5t11.5 28.5t28.5 11.5t28.5 -11.5t11.5 -28.5q0 -36 -7.5 -66.5
t-20 -54t-27.5 -40.5t-30 -27z" />
    <glyph glyph-name="less" unicode="&#x3c;" horiz-adv-x="641" 
d="M558 141l-508 233l508 254l13 -27l-452 -226l452 -207z" />
    <glyph glyph-name="equal" unicode="=" horiz-adv-x="660" 
d="M590 520h-520v30h520v-30zM590 220h-520v30h520v-30z" />
    <glyph glyph-name="greater" unicode="&#x3e;" horiz-adv-x="641" 
d="M70 168l452 207l-452 226l13 27l508 -254l-508 -233z" />
    <glyph glyph-name="question" unicode="?" horiz-adv-x="605" 
d="M255 200q0 49 17 81t42.5 56t55.5 44t55.5 45t42.5 58.5t17 85.5q0 46 -16.5 79.5t-42.5 54.5t-57 31t-61 10q-55 0 -103 -16.5t-97 -51.5l-18 24q51 37 103 55.5t115 18.5q33 0 69.5 -11t67 -35.5t50.5 -63.5t20 -95q0 -39 -9.5 -69.5t-26 -55.5t-40 -45t-50.5 -39
q-21 -15 -40 -29t-33 -32t-22.5 -42t-8.5 -58h-30zM300 30q0 -13 -8.5 -21.5t-21.5 -8.5t-21.5 8.5t-8.5 21.5t8.5 21.5t21.5 8.5t21.5 -8.5t8.5 -21.5z" />
    <glyph glyph-name="at" unicode="@" horiz-adv-x="1110" 
d="M825 43q46 0 80.5 24t58 61.5t35 82.5t11.5 87q0 94 -36 177t-97.5 144.5t-144.5 97.5t-177 36t-177 -35.5t-144.5 -97t-97.5 -144t-36 -176.5q0 -95 36 -178t97.5 -145t144 -98t176.5 -36q70 0 136.5 21.5t125.5 63.5l18 -24q-63 -45 -134 -68t-146 -23
q-101 0 -189.5 39t-154 106t-103 155t-37.5 187q0 100 38 188t104 153.5t154.5 103.5t188.5 38q102 0 190.5 -38.5t154 -104.5t103 -154.5t37.5 -187.5q0 -50 -14 -100.5t-41 -91.5t-67 -67t-93 -26q-23 0 -41.5 10t-33 26.5t-23.5 37.5t-13 43q-26 -37 -75.5 -62
t-123.5 -25q-31 0 -60.5 9.5t-53 27.5t-37.5 43.5t-14 58.5q0 44 15.5 75t44 51t69 29t90.5 9q38 0 75 -4t66 -8v84q0 26 -12.5 48.5t-33.5 39.5t-49 27t-60 10q-45 0 -86 -17.5t-73 -49.5l-22 21q36 36 83 56t98 20q35 0 68 -11t59 -31.5t42 -49t16 -63.5v-240
q0 -24 5.5 -48.5t16.5 -43.5t26.5 -31t36.5 -12zM380 182q0 -27 12 -47t31 -34t43.5 -21t48.5 -7q46 0 82 11.5t60.5 29.5t37.5 41.5t15 47.5v100q-32 5 -69.5 9t-75.5 4q-36 0 -69.5 -6t-59 -21t-41 -41t-15.5 -66z" />
    <glyph glyph-name="A" unicode="A" horiz-adv-x="758" 
d="M63 0h-33l350 793l348 -793h-33l-119 271h-394zM195 301h368l-183 418z" />
    <glyph glyph-name="B" unicode="B" horiz-adv-x="635" 
d="M90 0v770h175q48 0 89 -13t71 -38.5t47.5 -62.5t17.5 -84q0 -62 -31.5 -103.5t-83.5 -64.5q38 -7 72 -23t59 -40t39.5 -56.5t14.5 -72.5q0 -51 -20.5 -90.5t-55.5 -66.5t-81 -41t-98 -14h-215zM120 30h185q42 0 82.5 10.5t72 33t51 57t19.5 81.5q0 41 -18.5 72.5
t-49 52.5t-69 32t-78.5 11h-195v-350zM120 410h125q40 0 79 9t69 28.5t48.5 50t18.5 74.5q0 77 -53 122.5t-142 45.5h-145v-330z" />
    <glyph glyph-name="C" unicode="C" horiz-adv-x="790" 
d="M476 -10q-83 0 -155.5 31.5t-127.5 85.5t-86.5 125.5t-31.5 152.5t32 153t86.5 125.5t127.5 85t155 31.5q59 0 120 -18t108 -49l-16 -25q-44 29 -100.5 45.5t-111.5 16.5q-77 0 -144.5 -29t-118 -78.5t-79.5 -116t-29 -141.5t29 -141.5t79.5 -116t118 -78.5t144.5 -29
q58 0 118.5 20t108.5 55l17 -25q-51 -37 -116 -58.5t-128 -21.5z" />
    <glyph glyph-name="D" unicode="D" horiz-adv-x="780" 
d="M90 0v770h224q85 0 157 -30t124 -82t81 -122t29 -150q0 -81 -29 -151t-81 -122.5t-124 -82.5t-157 -30h-224zM120 30h194q77 0 143 27t114.5 75t76 113t27.5 141t-27.5 140.5t-76 112t-114.5 74.5t-143 27h-194v-710z" />
    <glyph glyph-name="E" unicode="E" horiz-adv-x="590" 
d="M465 370h-345v-340h395v-30h-425v770h415v-30h-385v-340h345v-30z" />
    <glyph glyph-name="F" unicode="F" horiz-adv-x="570" 
d="M455 370h-335v-370h-30v770h405v-30h-375v-340h335v-30z" />
    <glyph glyph-name="G" unicode="G" horiz-adv-x="813" 
d="M476 -10q-88 0 -161.5 31t-127 84t-83 125t-29.5 154q0 85 30 157.5t83.5 125.5t127 83t160.5 30q59 0 121.5 -18t109.5 -49l-16 -25q-44 29 -102 45.5t-113 16.5q-81 0 -149 -27.5t-117.5 -76t-77 -116t-27.5 -146.5q0 -78 28 -144.5t78 -115t117.5 -76.5t147.5 -28
q27 0 57.5 5.5t61.5 15.5t60 23.5t53 30.5v213h-160v30h190v-258q-60 -43 -130 -66.5t-132 -23.5z" />
    <glyph glyph-name="H" unicode="H" horiz-adv-x="700" 
d="M610 0h-30v370h-460v-370h-30v770h30v-370h460v370h30v-770z" />
    <glyph glyph-name="I" unicode="I" horiz-adv-x="210" 
d="M120 770v-770h-30v770h30z" />
    <glyph glyph-name="J" unicode="J" horiz-adv-x="209" 
d="M-30 -224q41 10 64.5 27.5t35.5 39.5t15.5 47t3.5 51v829h30v-829q0 -83 -32.5 -129t-109.5 -66z" />
    <glyph glyph-name="K" unicode="K" horiz-adv-x="608" 
d="M534 0l-414 373v-373h-30v770h30v-385l384 385h44l-390 -389l420 -381h-44z" />
    <glyph glyph-name="L" unicode="L" horiz-adv-x="545" 
d="M515 0h-425v770h30v-740h395v-30z" />
    <glyph glyph-name="M" unicode="M" horiz-adv-x="851" 
d="M731 0v711l-305 -362l-306 362v-711h-30v793l336 -398l335 398v-793h-30z" />
    <glyph glyph-name="N" unicode="N" horiz-adv-x="810" 
d="M720 -31l-600 740v-709h-30v793l600 -740v717h30v-801z" />
    <glyph glyph-name="O" unicode="O" 
d="M465 -10q-82 0 -154 31t-125.5 85t-84.5 126t-31 154q0 81 31 152.5t84.5 125.5t125.5 85t154 31t154 -31.5t125.5 -85.5t84 -125.5t30.5 -151.5q0 -82 -31 -154t-84.5 -126t-125.5 -85t-153 -31zM465 750q-75 0 -141.5 -28.5t-116 -78t-78.5 -116t-29 -141.5
q0 -76 29 -142.5t78.5 -116t116 -78.5t141.5 -29t141.5 29t116 78.5t78 116t28.5 142.5q0 75 -28.5 141.5t-78 116t-116 78t-141.5 28.5z" />
    <glyph glyph-name="P" unicode="P" horiz-adv-x="630" 
d="M120 0h-30v770h215q51 0 97.5 -14t81.5 -41t55.5 -66.5t20.5 -90.5q0 -48 -20.5 -84.5t-54.5 -62t-78.5 -38.5t-91.5 -13h-195v-360zM120 390h195q40 0 78.5 11t69 32t49 52.5t18.5 72.5q0 47 -19.5 81.5t-51 57t-72 33t-82.5 10.5h-185v-350z" />
    <glyph glyph-name="Q" unicode="Q" 
d="M465 -10q-82 0 -154 31t-125.5 85t-84.5 126t-31 154q0 81 31 152.5t84.5 125.5t125.5 85t154 31t154 -31.5t125.5 -85.5t84 -125.5t30.5 -151.5q0 -59 -16.5 -113t-45.5 -100t-70 -82.5t-90 -60.5h213v-30h-297q-22 -5 -43.5 -7.5t-44.5 -2.5zM465 750
q-75 0 -141.5 -28.5t-116 -78t-78.5 -116t-29 -141.5q0 -76 29 -142.5t78.5 -116t116 -78.5t141.5 -29t141.5 29t116 78.5t78 116t28.5 142.5q0 75 -28.5 141.5t-78 116t-116 78t-141.5 28.5z" />
    <glyph glyph-name="R" unicode="R" horiz-adv-x="667" 
d="M120 0h-30v770h215q50 0 96 -13.5t81.5 -40.5t56.5 -66.5t21 -91.5q0 -44 -17.5 -78.5t-47 -59.5t-69 -40t-82.5 -19l273 -361h-37l-273 360h-187v-360zM120 390h195q40 0 78.5 11t69 32t49 52.5t18.5 72.5q0 47 -19.5 81.5t-51 57t-72 33t-82.5 10.5h-185v-350z" />
    <glyph glyph-name="S" unicode="S" horiz-adv-x="604" 
d="M298 -10q-64 0 -117 18t-106 56l18 24q49 -35 97.5 -51.5t107.5 -16.5q97 0 149 45t52 130q0 45 -17.5 75.5t-46.5 51.5t-66 36t-75 28t-75 27.5t-66 35.5t-46.5 51t-17.5 75q0 55 19 94t49 64t67 36.5t72 11.5q63 0 115 -18.5t103 -56.5l-18 -24q-49 35 -97 52t-103 17
q-31 0 -62.5 -10t-57 -31.5t-41.5 -55t-16 -79.5q0 -39 17.5 -65.5t46.5 -45t66 -32t75 -27t75 -30t66 -40t46.5 -57.5t17.5 -83q0 -55 -18.5 -94t-50 -63.5t-73.5 -36t-89 -11.5z" />
    <glyph glyph-name="T" unicode="T" horiz-adv-x="720" 
d="M670 740h-295v-740h-30v740h-295v30h620v-30z" />
    <glyph glyph-name="U" unicode="U" horiz-adv-x="792" 
d="M396 -10q-61 0 -116 24t-97 65.5t-67 96t-25 114.5v10v470h30v-470q0 -58 21.5 -109t59 -89t87.5 -60t107 -22t107 22t87.5 60t59 89t21.5 109v470h30v-470v-10q0 -60 -25 -114.5t-67 -96t-97 -65.5t-116 -24z" />
    <glyph glyph-name="V" unicode="V" horiz-adv-x="744" 
d="M371 -31l-341 801h33l308 -725l310 725h33z" />
    <glyph glyph-name="W" unicode="W" horiz-adv-x="1208" 
d="M874 -31l-270 705l-270 -705l-304 801h32l272 -717l270 705l270 -705l272 717h32z" />
    <glyph glyph-name="X" unicode="X" horiz-adv-x="696" 
d="M67 0h-37l299 395l-284 375h37l266 -350l266 350h37l-284 -375l299 -395h-37l-281 370z" />
    <glyph glyph-name="Y" unicode="Y" horiz-adv-x="690" 
d="M360 0h-30v337l-300 433h36l279 -404l279 404h36l-300 -433v-337z" />
    <glyph glyph-name="Z" unicode="Z" horiz-adv-x="763" 
d="M703 0h-643l566 740h-543v30h604l-567 -740h583v-30z" />
    <glyph glyph-name="bracketleft" unicode="[" horiz-adv-x="295" 
d="M255 -55h-175v890h175v-30h-145v-830h145v-30z" />
    <glyph glyph-name="backslash" unicode="\" horiz-adv-x="354" 
d="M20 770h31l283 -770h-31z" />
    <glyph glyph-name="bracketright" unicode="]" horiz-adv-x="295" 
d="M40 -25h145v830h-145v30h175v-890h-175v30z" />
    <glyph glyph-name="asciicircum" unicode="^" horiz-adv-x="526" 
d="M414 500l-151 237l-151 -237h-37l188 293l188 -293h-37z" />
    <glyph glyph-name="underscore" unicode="_" horiz-adv-x="620" 
d="M570 -59h-520v30h520v-30z" />
    <glyph glyph-name="grave" unicode="`" horiz-adv-x="380" 
d="M140 770l140 -170h-30l-150 170h40z" />
    <glyph glyph-name="a" unicode="a" horiz-adv-x="525" 
d="M450 0h-30v66q-27 -35 -76 -58t-119 -23q-32 0 -61.5 9.5t-52.5 27.5t-37 43.5t-14 58.5q0 46 17 77t46.5 50t70 27.5t87.5 8.5q38 0 74 -3.5t65 -7.5v74q0 37 -14 63t-36.5 42t-50 23.5t-54.5 7.5q-45 0 -86.5 -18t-73.5 -50l-21 21q36 36 83 56.5t98 20.5
q38 0 72 -11.5t59 -32.5t39.5 -52t14.5 -70v-350zM225 15q47 0 83.5 12t61 31t37.5 43t13 49v95q-32 5 -68 9t-74 4q-36 0 -70 -6t-60.5 -21t-42 -41t-15.5 -66q0 -27 12 -47t31 -34t43 -21t49 -7z" />
    <glyph glyph-name="b" unicode="b" horiz-adv-x="579" 
d="M105 0h-30v770h30v-313q35 28 77 43.5t88 15.5q55 0 101.5 -21.5t80.5 -57.5t53 -84.5t19 -102.5t-19 -102t-53 -84t-80.5 -57.5t-101.5 -21.5q-46 0 -88 15t-77 43v-43zM270 15q47 0 88 18.5t71 50t47.5 74.5t17.5 92t-17.5 92.5t-47.5 75t-71 50t-88 18.5
q-48 0 -90 -18.5t-75 -50.5v-333q33 -33 75 -51t90 -18z" />
    <glyph glyph-name="c" unicode="c" horiz-adv-x="529" 
d="M315 -15q-57 0 -104.5 21.5t-82 58.5t-54 85t-19.5 101q0 55 20 103t55 84t82.5 57t102.5 21q41 0 82 -11.5t71 -31.5l-16 -25q-27 17 -63.5 27.5t-73.5 10.5q-48 0 -90 -18t-73 -50t-49 -75t-18 -92t18 -92t49.5 -75t73 -50.5t89.5 -18.5q37 0 76 13t70 36l18 -24
q-35 -26 -78.5 -40.5t-85.5 -14.5z" />
    <glyph glyph-name="d" unicode="d" horiz-adv-x="579" 
d="M474 43q-35 -28 -77 -43t-88 -15q-55 0 -101.5 21.5t-80.5 57.5t-53 84t-19 102t19 102.5t53 84.5t80.5 57.5t101.5 21.5q46 0 88 -15.5t77 -43.5v313h30v-770h-30v43zM309 15q48 0 90 18t75 51v333q-33 32 -75 50.5t-90 18.5q-47 0 -88 -18.5t-71 -50t-47.5 -75
t-17.5 -92.5t17.5 -92t47.5 -74.5t71 -50t88 -18.5z" />
    <glyph glyph-name="e" unicode="e" horiz-adv-x="604" 
d="M320 -15q-55 0 -103 21t-84 57t-57 84.5t-21 102.5q0 55 19 103.5t53 84.5t80.5 57t101.5 21q48 0 92 -17.5t78 -49.5t54 -76t20 -97v-10h-468v-11q0 -53 19 -97t51 -75.5t74.5 -49.5t90.5 -18q56 0 101 12.5t77 36.5l18 -24q-35 -26 -85 -40.5t-111 -14.5zM522 296
q-3 35 -18.5 69t-43 61t-66 43.5t-85.5 16.5q-42 0 -78.5 -14.5t-66 -40t-49 -60t-26.5 -75.5h433z" />
    <glyph glyph-name="f" unicode="f" horiz-adv-x="313" 
d="M331 728q-41 27 -81 27q-42 0 -65 -16t-34 -41t-13.5 -56t-2.5 -61v-81h125v-30h-125v-470h-30v470h-65v30h65v81q0 39 4.5 76t19.5 65.5t44 45.5t77 17q49 0 98 -32z" />
    <glyph glyph-name="g" unicode="g" horiz-adv-x="560" 
d="M280 -265q-39 0 -80.5 8.5t-76 26t-56.5 45t-22 65.5q0 53 29.5 87t80.5 45q-19 7 -30.5 15.5t-18 17.5t-9 18t-2.5 17q0 18 7.5 31t19.5 22t27 15t30 9q-45 24 -72.5 68.5t-27.5 99.5q0 39 15 74t40.5 61t60.5 41t74 15q23 0 44 -5.5t41 -15.5h136v-30h-93
q29 -26 45.5 -62t16.5 -78q0 -39 -15 -74t-40.5 -60.5t-60 -40.5t-73.5 -15q-145 0 -145 -55q0 -18 17.5 -28.5t40.5 -16.5t46.5 -8t34.5 -2q128 0 189.5 -34t61.5 -111q0 -41 -25 -68.5t-61.5 -44.5t-77 -24.5t-71.5 -7.5zM269 486q-33 0 -62 -13t-51 -34.5t-34.5 -51
t-12.5 -62.5t12.5 -62t34.5 -51t51 -34.5t62 -12.5t62 12.5t51 34.5t34.5 51t12.5 62t-12.5 62.5t-34.5 51t-51 34.5t-62 13zM265 -5q-30 0 -63.5 -3t-61.5 -15t-46.5 -35t-18.5 -62q0 -29 19.5 -51t49.5 -36t66.5 -21t69.5 -7q23 0 58 5.5t67.5 19t56 35.5t23.5 55
q0 37 -19 60t-50 35t-70.5 16t-80.5 4z" />
    <glyph glyph-name="h" unicode="h" horiz-adv-x="540" 
d="M465 0h-30v340q0 30 -11.5 56.5t-31 46.5t-46 31.5t-56.5 11.5q-50 0 -85 -19t-57 -50t-32 -70t-11 -79v-268h-30v770h30v-370q26 54 74 85t111 31q36 0 68 -14t55.5 -38t37.5 -56t14 -68v-340z" />
    <glyph glyph-name="i" unicode="i" horiz-adv-x="200" 
d="M115 500v-500h-30v500h30zM127 733q0 -12 -7.5 -19.5t-19.5 -7.5t-19.5 7.5t-7.5 19.5t7.5 19.5t19.5 7.5t19.5 -7.5t7.5 -19.5z" />
    <glyph glyph-name="j" unicode="j" horiz-adv-x="234" 
d="M0 -236q41 10 65 28t36 40t15 47t3 51v570h30v-570q0 -33 -6 -63.5t-22 -56t-43.5 -45t-70.5 -30.5zM161 733q0 -12 -7.5 -19.5t-19.5 -7.5t-19.5 7.5t-7.5 19.5t7.5 19.5t19.5 7.5t19.5 -7.5t7.5 -19.5z" />
    <glyph glyph-name="k" unicode="k" horiz-adv-x="485" 
d="M418 0l-313 252v-252h-30v770h30v-504l269 234h47l-277 -240l321 -260h-47z" />
    <glyph glyph-name="l" unicode="l" horiz-adv-x="180" 
d="M105 770v-770h-30v770h30z" />
    <glyph glyph-name="m" unicode="m" horiz-adv-x="860" 
d="M785 0h-30v340q0 31 -11 57.5t-31.5 46t-49 31t-63.5 11.5q-30 0 -58 -11.5t-49.5 -31t-34.5 -44.5t-13 -53v-346h-30v362q0 25 -10 48t-27 39.5t-39.5 26.5t-48.5 10q-50 0 -85 -19t-57.5 -50t-32.5 -70t-10 -79v-268h-30v500h30v-100q26 54 74 85t111 31q47 0 87 -27.5
t57 -71.5q24 45 70 72t96 27q40 0 73.5 -13t58.5 -36.5t39 -56t14 -70.5v-340z" />
    <glyph glyph-name="n" unicode="n" horiz-adv-x="540" 
d="M465 0h-30v340q0 30 -11.5 56.5t-31 46.5t-46 31.5t-56.5 11.5q-50 0 -85 -19t-57 -50t-32 -70t-11 -79v-268h-30v500h30v-100q26 54 74 85t111 31q36 0 68 -14t55.5 -38t37.5 -56t14 -68v-340z" />
    <glyph glyph-name="o" unicode="o" horiz-adv-x="640" 
d="M320 -15q-57 0 -105.5 21.5t-84 58t-55.5 85t-20 101.5q0 54 21 102t57 84.5t84 57.5t103 21t103.5 -21t84.5 -57t56.5 -84.5t20.5 -102.5q0 -53 -20 -101.5t-55 -85t-83.5 -58t-106.5 -21.5zM320 486q-48 0 -91 -18.5t-75 -50.5t-50.5 -75t-18.5 -91q0 -49 18.5 -92
t50.5 -75t75 -50.5t91 -18.5q49 0 91.5 18.5t74.5 50.5t50.5 75t18.5 92q0 48 -18.5 91t-50.5 75t-74.5 50.5t-91.5 18.5z" />
    <glyph glyph-name="p" unicode="p" horiz-adv-x="579" 
d="M105 -250h-30v750h30v-43q35 28 77 43.5t88 15.5q55 0 101.5 -21.5t80.5 -57.5t53 -84.5t19 -102.5t-19 -102t-53 -84t-80.5 -57.5t-101.5 -21.5q-46 0 -88 15t-77 43v-293zM270 15q47 0 88 18.5t71 50t47.5 74.5t17.5 92t-17.5 92.5t-47.5 75t-71 50t-88 18.5
q-48 0 -90 -18.5t-75 -50.5v-333q33 -33 75 -51t90 -18z" />
    <glyph glyph-name="q" unicode="q" horiz-adv-x="579" 
d="M474 43q-35 -28 -77 -43t-88 -15q-55 0 -101.5 21.5t-80.5 57.5t-53 84t-19 102t19 102.5t53 84.5t80.5 57.5t101.5 21.5q46 0 88 -15.5t77 -43.5v43h30v-750h-30v293zM309 15q48 0 90 18t75 51v333q-33 32 -75 50.5t-90 18.5q-47 0 -88 -18.5t-71 -50t-47.5 -75
t-17.5 -92.5t17.5 -92t47.5 -74.5t71 -50t88 -18.5z" />
    <glyph glyph-name="r" unicode="r" horiz-adv-x="388" 
d="M341 459q-20 14 -35.5 20.5t-35.5 6.5q-45 0 -76 -20t-50.5 -51.5t-28.5 -70t-10 -76.5v-268h-30v500h30v-95q23 52 66 81.5t99 29.5q25 0 44.5 -8t43.5 -24z" />
    <glyph glyph-name="s" unicode="s" horiz-adv-x="466" 
d="M229 -15q-45 0 -88.5 13.5t-75.5 36.5l17 25q28 -20 68 -32.5t80 -12.5q64 0 102.5 27t38.5 84q0 38 -22 60t-55 36.5t-72 25t-72 25.5t-55 38.5t-22 64.5q0 33 13 59t35.5 44t51.5 27.5t62 9.5q85 0 153 -50l-17 -24q-61 44 -136 44q-26 0 -50 -7t-42 -21t-29 -34.5
t-11 -47.5q0 -31 22 -49.5t55 -31.5t72 -24.5t72 -29t55 -44.5t22 -71q0 -72 -47 -106.5t-125 -34.5z" />
    <glyph glyph-name="t" unicode="t" horiz-adv-x="373" 
d="M300 470h-155v-279q0 -32 2.5 -63.5t12 -56.5t28.5 -40.5t52 -15.5q39 0 81 28l17 -25q-50 -33 -98 -33q-42 0 -67 20.5t-38 51.5t-16.5 67t-3.5 67v279h-85v30h85v171h30v-171h155v-30z" />
    <glyph glyph-name="u" unicode="u" horiz-adv-x="540" 
d="M75 500h30v-339q0 -30 11.5 -56.5t31 -46.5t46 -31.5t56.5 -11.5q50 0 85 19t57 50t32 70t11 79v267h30v-500h-30v101q-26 -54 -74 -85t-111 -31q-36 0 -68 14t-55.5 38t-37.5 56t-14 68v339z" />
    <glyph glyph-name="v" unicode="v" horiz-adv-x="521" 
d="M261 -24l-231 524h32l199 -450l198 450h32z" />
    <glyph glyph-name="w" unicode="w" horiz-adv-x="820" 
d="M590 -24l-180 446l-180 -446l-200 524h32l168 -440l180 440l180 -440l168 440h32z" />
    <glyph glyph-name="x" unicode="x" horiz-adv-x="500" 
d="M67 0h-37l201 265l-178 235h37l160 -210l160 210h37l-178 -235l201 -265h-37l-183 240z" />
    <glyph glyph-name="y" unicode="y" horiz-adv-x="497" 
d="M112 -250h-33l146 309l-195 441h32l180 -405l193 405h32z" />
    <glyph glyph-name="z" unicode="z" horiz-adv-x="501" 
d="M460 0h-420l360 470h-340v30h401l-360 -470h359v-30z" />
    <glyph glyph-name="braceleft" unicode="{" horiz-adv-x="335" 
d="M295 -55q-29 0 -54.5 10.5t-44.5 28.5t-30 42.5t-11 53.5v210q-1 22 -4.5 38t-12 26.5t-22.5 15.5t-36 5v30q47 2 61 23t14 62v210q1 30 12.5 54.5t30.5 42.5t44 28t53 10v-30q-47 0 -78.5 -30t-31.5 -75v-210q-1 -29 -7.5 -57t-32.5 -43q25 -17 32.5 -45.5t7.5 -54.5
v-210q0 -45 31.5 -75t78.5 -30v-30z" />
    <glyph glyph-name="bar" unicode="|" horiz-adv-x="210" 
d="M120 870v-970h-30v970h30z" />
    <glyph glyph-name="braceright" unicode="}" horiz-adv-x="335" 
d="M40 -25q47 0 78.5 30t31.5 75v210q0 13 1.5 27t6 27.5t12 25t20.5 20.5q-26 15 -32.5 43t-7.5 57v210q0 45 -31.5 75t-78.5 30v30q28 0 53 -10t44 -28t30.5 -42.5t12.5 -54.5v-210q0 -41 14 -62t61 -23v-30q-22 0 -36 -5t-22.5 -15.5t-12 -26.5t-4.5 -38v-210
q0 -29 -11 -53.5t-30 -42.5t-44.5 -28.5t-54.5 -10.5v30z" />
    <glyph glyph-name="asciitilde" unicode="~" horiz-adv-x="722" 
d="M76 249q0 31 10 60t28.5 50.5t44.5 34.5t59 13q17 0 40.5 -9.5t50 -23.5t54.5 -30.5t54 -30.5t48.5 -23.5t38.5 -9.5q27 0 48 11t35.5 29t21.5 41t7 47h30q0 -31 -10 -59.5t-29 -50.5t-45 -35t-58 -13q-17 0 -40 9.5t-49.5 23.5t-54.5 30.5t-54 30.5t-49 23.5t-39 9.5
q-28 0 -49 -11t-35 -29t-21 -41t-7 -47h-30z" />
    <glyph glyph-name="exclamdown" unicode="&#xa1;" horiz-adv-x="240" 
d="M135 21v-270h-30v550h28zM150 471q0 -13 -8.5 -21.5t-21.5 -8.5t-21.5 8.5t-8.5 21.5t8.5 21.5t21.5 8.5t21.5 -8.5t8.5 -21.5z" />
    <glyph glyph-name="cent" unicode="&#xa2;" horiz-adv-x="529" 
d="M314 769l1 -122q41 0 82 -11t71 -31l-16 -25q-27 17 -63.5 27t-73.5 10l-1 -469h1q37 0 76 12.5t70 35.5l18 -24q-35 -26 -78.5 -40t-85.5 -14l-1 -118h-30v120q-51 6 -93 29t-72 59t-47 81t-17 94q0 51 17.5 96t48 80t72.5 57.5t91 28.5v124h30zM85 383q0 -45 15 -84.5
t42 -71t63.5 -51.5t78.5 -26v465q-43 -6 -79.5 -26t-63 -50.5t-41.5 -70.5t-15 -85z" />
    <glyph glyph-name="sterling" unicode="&#xa3;" horiz-adv-x="610" 
d="M408 340h-268v-310h395v-30h-460v30h35v310h-35v30h35v220q0 53 19.5 90t50 60.5t67 34t70.5 10.5q63 0 114 -17.5t104 -52.5l-17 -25q-50 34 -98 49.5t-103 15.5q-39 0 -71.5 -11.5t-56 -32.5t-36.5 -51.5t-13 -69.5v-220h268v-30z" />
    <glyph glyph-name="currency" unicode="&#xa4;" horiz-adv-x="680" 
d="M605 642l-68 -68q32 -35 50 -80t18 -96t-17.5 -96.5t-49.5 -80.5l67 -67l-21 -21l-67 66q-35 -31 -79.5 -48.5t-97.5 -17.5t-97.5 17.5t-79.5 49.5l-67 -67l-21 21l67 67q-32 35 -49.5 80.5t-17.5 96.5t18 96t50 80l-68 68l21 21l68 -68q35 32 80 50t96 18t96 -18t80 -50
l68 68zM340 633q-48 0 -91 -18.5t-75 -50.5t-50.5 -75t-18.5 -91q0 -49 18.5 -91.5t50.5 -74.5t75 -50.5t91 -18.5q49 0 91.5 18.5t74.5 50.5t50.5 74.5t18.5 91.5q0 48 -18.5 91t-50.5 75t-74.5 50.5t-91.5 18.5z" />
    <glyph glyph-name="yen" unicode="&#xa5;" horiz-adv-x="690" 
d="M478 307h-118v-57h118v-30h-118v-220h-30v220h-118v30h118v57h-118v30h118l-300 433h36l279 -404l279 404h36l-300 -433h118v-30z" />
    <glyph glyph-name="brokenbar" unicode="&#xa6;" horiz-adv-x="210" 
d="M120 326v-426h-30v426h30zM120 870v-426h-30v426h30z" />
    <glyph glyph-name="section" unicode="&#xa7;" horiz-adv-x="466" 
d="M229 -14q-45 0 -88.5 13t-75.5 36l17 25q28 -20 68 -32t80 -12q64 0 102.5 26.5t38.5 83.5q0 28 -12.5 47t-32.5 32.5t-46.5 22.5t-54.5 18q-47 14 -76.5 28.5t-46.5 30.5t-23 33.5t-6 37.5q0 33 13 59t35 44t50.5 27.5t59.5 9.5q-28 9 -56 19t-50.5 24.5t-37 35.5
t-14.5 52q0 33 13 59t35.5 44t51.5 27.5t62 9.5q85 0 153 -50l-17 -24q-61 44 -136 44q-26 0 -50 -7t-42 -21t-29 -34.5t-11 -47.5q0 -21 9 -36t26 -26t41.5 -20t54.5 -19q38 -12 76.5 -26t61.5 -43q19 -24 24 -42.5t5 -37.5q0 -60 -33 -93.5t-90 -43.5q24 -8 46 -19
t39.5 -26.5t27.5 -37t10 -51.5q0 -72 -47 -106t-125 -34zM235 486q-26 0 -50 -7t-42 -21t-29 -34.5t-11 -47.5q0 -34 32 -61.5t95 -27.5q64 0 102.5 26.5t38.5 83.5q0 29 -11.5 46.5t-30.5 27t-43.5 12.5t-50.5 3z" />
    <glyph glyph-name="dieresis" unicode="&#xa8;" horiz-adv-x="460" 
d="M180 730q0 -17 -11.5 -28.5t-28.5 -11.5t-28.5 11.5t-11.5 28.5t11.5 28.5t28.5 11.5t28.5 -11.5t11.5 -28.5zM360 730q0 -17 -11.5 -28.5t-28.5 -11.5t-28.5 11.5t-11.5 28.5t11.5 28.5t28.5 11.5t28.5 -11.5t11.5 -28.5z" />
    <glyph glyph-name="copyright" unicode="&#xa9;" 
d="M477 135q-56 0 -103.5 21t-82 56t-54 81t-19.5 96q0 52 20 98.5t55.5 81t82.5 55t101 20.5q38 0 77.5 -11t69.5 -31l-14 -21q-27 17 -62.5 27.5t-70.5 10.5q-48 0 -91 -18t-74.5 -49.5t-50 -73t-18.5 -89.5q0 -47 18.5 -89t50 -73t74.5 -49t91 -18q36 0 74.5 12.5
t68.5 34.5l14 -21q-33 -24 -75 -37.5t-82 -13.5zM465 -10q-82 0 -154 31t-125.5 85t-84.5 126t-31 154q0 81 31 152.5t84.5 125.5t125.5 85t154 31t154 -31.5t125.5 -85.5t84 -125.5t30.5 -151.5q0 -82 -31 -154t-84.5 -126t-125.5 -85t-153 -31zM465 750
q-75 0 -141.5 -28.5t-116 -78t-78.5 -116t-29 -141.5q0 -76 29 -142.5t78.5 -116t116 -78.5t141.5 -29t141.5 29t116 78.5t78 116t28.5 142.5q0 75 -28.5 141.5t-78 116t-116 78t-141.5 28.5z" />
    <glyph glyph-name="ordfeminine" unicode="&#xaa;" horiz-adv-x="451" 
d="M386 355h-25v56q-23 -29 -64.5 -48.5t-101.5 -19.5q-27 0 -52 8t-44.5 23t-31.5 37t-12 50q0 39 14.5 65.5t40 42.5t60.5 23t75 7q32 0 62 -3t54 -6v63q0 31 -12 53t-31 36t-42.5 20t-46.5 6q-38 0 -73 -15.5t-63 -41.5l-18 17q31 31 70.5 48t83.5 17q33 0 61.5 -9.5
t49.5 -27.5t33.5 -44t12.5 -59v-298zM195 368q40 0 71 10t52 26.5t32 37t11 41.5v81q-26 4 -57 7t-62 3q-32 0 -61 -5t-51.5 -17.5t-36 -34.5t-13.5 -56q0 -23 10 -40.5t26.5 -29t37 -17.5t41.5 -6z" />
    <glyph glyph-name="guillemotleft" unicode="&#xab;" horiz-adv-x="447" 
d="M225 0l-200 250l200 250h38l-200 -250l200 -250h-38zM359 0l-200 250l200 250h38l-200 -250l200 -250h-38z" />
    <glyph glyph-name="logicalnot" unicode="&#xac;" horiz-adv-x="660" 
d="M560 280v180h-490v30h520v-210h-30z" />
    <glyph glyph-name="registered" unicode="&#xae;" 
d="M465 -10q-82 0 -154 31t-125.5 85t-84.5 126t-31 154q0 81 31 152.5t84.5 125.5t125.5 85t154 31t154 -31.5t125.5 -85.5t84 -125.5t30.5 -151.5q0 -82 -31 -154t-84.5 -126t-125.5 -85t-153 -31zM465 750q-75 0 -141.5 -28.5t-116 -78t-78.5 -116t-29 -141.5
q0 -76 29 -142.5t78.5 -116t116 -78.5t141.5 -29t141.5 29t116 78.5t78 116t28.5 142.5q0 75 -28.5 141.5t-78 116t-116 78t-141.5 28.5zM350 156h-25v491h140q36 0 66.5 -10t52.5 -28.5t34.5 -44t12.5 -55.5q0 -25 -10 -47t-28 -39t-43 -28t-55 -14l170 -225h-31l-169 224
h-115v-224zM350 405h121q25 0 49.5 6.5t43.5 19.5t30.5 32.5t11.5 45.5q0 29 -12 50.5t-32 35.5t-45.5 20.5t-51.5 6.5h-115v-217z" />
    <glyph glyph-name="macron" unicode="&#xaf;" horiz-adv-x="526" 
d="M426 740h-326v30h326v-30z" />
    <glyph glyph-name="degree" unicode="&#xb0;" horiz-adv-x="315" 
d="M158 598q-41 0 -69.5 28.5t-28.5 69.5t28.5 69t69.5 28t69 -28t28 -69t-28 -69.5t-69 -28.5zM158 768q-30 0 -51.5 -21t-21.5 -51t21.5 -51.5t51.5 -21.5t51 21.5t21 51.5t-21 51t-51 21z" />
    <glyph glyph-name="plusminus" unicode="&#xb1;" horiz-adv-x="660" 
d="M590 412h-245v-245h-30v245h-245v30h245v245h30v-245h245v-30zM590 101h-520v30h520v-30z" />
    <glyph glyph-name="uni00B2" unicode="&#xb2;" horiz-adv-x="386" 
d="M326 396h-266q41 50 79 96q16 19 33 40t33.5 40.5t31.5 37t26 30.5q29 33 29 67q0 42 -26 65t-64 23q-29 0 -53.5 -8.5t-50.5 -26.5l-15 20q29 21 58 30.5t61 9.5q19 0 39 -6.5t37 -20t28 -35t11 -51.5q0 -44 -35 -83q-18 -20 -46.5 -54.5t-55.5 -67.5q-32 -39 -67 -81
h213v-25z" />
    <glyph glyph-name="uni00B3" unicode="&#xb3;" horiz-adv-x="370" 
d="M179 386q-32 0 -61 9.5t-58 30.5l14 20q26 -18 51 -26.5t54 -8.5q45 0 75 28t30 76q0 31 -12 51.5t-30 32.5t-39.5 16.5t-39.5 4.5h-25l123 165h-167v25h216l-123 -166q51 -5 86.5 -39t35.5 -90q0 -28 -9.5 -51.5t-26.5 -41t-41 -27t-53 -9.5z" />
    <glyph glyph-name="acute" unicode="&#xb4;" horiz-adv-x="380" 
d="M280 770l-150 -170h-30l140 170h40z" />
    <glyph glyph-name="mu" unicode="&#xb5;" horiz-adv-x="540" 
d="M105 500v-339q0 -30 11.5 -56.5t31 -46t46 -31t56.5 -11.5q50 0 85 19t57 49.5t32 69.5t11 79v267h30v-500h-30v101q-26 -54 -74 -84.5t-111 -30.5q-45 0 -83.5 21t-61.5 56v-312h-30v749h30z" />
    <glyph glyph-name="paragraph" unicode="&#xb6;" horiz-adv-x="647" 
d="M393 360h-73q-47 0 -91.5 13t-78.5 38.5t-54.5 62t-20.5 84.5q0 51 20.5 90.5t55.5 66.5t81.5 41t97.5 14h242v-30h-61v-740h-30v740h-58v-740h-30v360z" />
    <glyph glyph-name="periodcentered" unicode="&#xb7;" horiz-adv-x="180" 
d="M130 375q0 -17 -11.5 -28.5t-28.5 -11.5t-28.5 11.5t-11.5 28.5t11.5 28.5t28.5 11.5t28.5 -11.5t11.5 -28.5z" />
    <glyph glyph-name="cedilla" unicode="&#xb8;" horiz-adv-x="305" 
d="M100 -160q28 0 51.5 16.5t23.5 48.5q0 19 -12.5 46t-32.5 49h30l7.5 -10t15.5 -24.5t15 -31t7 -29.5q0 -21 -8.5 -38t-22.5 -30t-33.5 -20t-40.5 -7v30z" />
    <glyph glyph-name="uni00B9" unicode="&#xb9;" horiz-adv-x="165" 
d="M95 396h-25v414h25v-414z" />
    <glyph glyph-name="ordmasculine" unicode="&#xba;" horiz-adv-x="560" 
d="M280 342q-48 0 -89.5 18.5t-71.5 49t-47 71.5t-17 86q0 46 17.5 87t48.5 72t71.5 49t87.5 18t88 -18t71.5 -48.5t48 -72t17.5 -87.5q0 -45 -16.5 -86t-46.5 -71.5t-71.5 -49t-90.5 -18.5zM280 767q-41 0 -77.5 -16t-63.5 -43t-43 -63.5t-16 -77.5t16 -77.5t43 -63.5
t63.5 -42.5t77.5 -15.5t77.5 15.5t63.5 42.5t43 63.5t16 77.5t-16 77.5t-43 63.5t-63.5 43t-77.5 16z" />
    <glyph glyph-name="guillemotright" unicode="&#xbb;" horiz-adv-x="447" 
d="M184 0l200 250l-200 250h38l200 -250l-200 -250h-38zM50 0l200 250l-200 250h38l200 -250l-200 -250h-38z" />
    <glyph glyph-name="onequarter" unicode="&#xbc;" horiz-adv-x="608" 
d="M97 356h-25v414h25v-414zM96 0h1l256 770h26zM476 0h-25v131h-211l236 293v-268h62v-25h-62v-131zM292 156h159v197z" />
    <glyph glyph-name="onehalf" unicode="&#xbd;" horiz-adv-x="625" 
d="M97 356h-25v414h25v-414zM96 0h1l256 770h26zM555 0h-266q41 50 79 96q16 19 33 40t33.5 40.5t31.5 37t26 30.5q29 33 29 67q0 42 -26 65t-64 23q-29 0 -53.5 -8.5t-50.5 -26.5l-15 20q29 21 58 30.5t61 9.5q19 0 39 -6.5t37 -20t28 -35t11 -51.5q0 -44 -35 -83
q-18 -20 -46.5 -54.5t-55.5 -67.5q-32 -39 -67 -81h213v-25z" />
    <glyph glyph-name="threequarters" unicode="&#xbe;" horiz-adv-x="790" 
d="M278 0h-26l283 770h26zM658 0h-25v131h-211l236 293v-268h62v-25h-62v-131zM474 156h159v197zM189 346q-32 0 -61 9.5t-58 30.5l14 20q26 -18 51 -26.5t54 -8.5q45 0 75 28t30 76q0 31 -12 51.5t-30 32.5t-39.5 16.5t-39.5 4.5h-25l123 165h-167v25h216l-123 -166
q51 -5 86.5 -39t35.5 -90q0 -28 -9.5 -51.5t-26.5 -41t-41 -27t-53 -9.5z" />
    <glyph glyph-name="questiondown" unicode="&#xbf;" horiz-adv-x="605" 
d="M350 300q0 -35 -6 -55t-25 -43q-17 -21 -41 -34.5t-45 -27.5q-22 -15 -42.5 -30.5t-36 -36.5t-25 -49t-9.5 -68q0 -47 16.5 -80t42.5 -54t57 -31t61 -10q55 0 103 16.5t97 51.5l18 -24q-51 -37 -103 -55.5t-115 -18.5q-33 0 -69.5 11t-67 35.5t-50.5 63.5t-20 95
q0 39 9.5 69.5t26 55t40 45t50.5 39.5q21 14 40 24.5t33 23.5t22.5 33t8.5 54h30zM305 470q0 13 8.5 21.5t21.5 8.5t21.5 -8.5t8.5 -21.5t-8.5 -21.5t-21.5 -8.5t-21.5 8.5t-8.5 21.5z" />
    <glyph glyph-name="Agrave" unicode="&#xc0;" horiz-adv-x="758" 
d="M63 0h-33l350 793l348 -793h-33l-119 271h-394zM195 301h368l-183 418zM300 1000l140 -170h-30l-150 170h40z" />
    <glyph glyph-name="Aacute" unicode="&#xc1;" horiz-adv-x="758" 
d="M63 0h-33l350 793l348 -793h-33l-119 271h-394zM195 301h368l-183 418zM500 1000l-150 -170h-30l140 170h40z" />
    <glyph glyph-name="Acircumflex" unicode="&#xc2;" horiz-adv-x="758" 
d="M63 0h-33l350 793l348 -793h-33l-119 271h-394zM195 301h368l-183 418zM400 1000l130 -170h-30l-120 145l-120 -145h-30l130 170h40z" />
    <glyph glyph-name="Atilde" unicode="&#xc3;" horiz-adv-x="758" 
d="M63 0h-33l350 793l348 -793h-33l-119 271h-394zM195 301h368l-183 418zM470 850q-19 0 -43.5 12.5t-49 27.5t-47.5 27.5t-40 12.5q-32 0 -48.5 -23.5t-16.5 -51.5h-30q0 21 7 40t19.5 33.5t30 23t38.5 8.5q19 0 43 -12.5t49 -27.5t48 -27.5t40 -12.5q32 0 48.5 23.5
t16.5 51.5h30q0 -21 -7 -40t-19.5 -33.5t-30 -23t-38.5 -8.5z" />
    <glyph glyph-name="Adieresis" unicode="&#xc4;" horiz-adv-x="758" 
d="M63 0h-33l350 793l348 -793h-33l-119 271h-394zM195 301h368l-183 418zM330 890q0 -17 -11.5 -28.5t-28.5 -11.5t-28.5 11.5t-11.5 28.5t11.5 28.5t28.5 11.5t28.5 -11.5t11.5 -28.5zM510 890q0 -17 -11.5 -28.5t-28.5 -11.5t-28.5 11.5t-11.5 28.5t11.5 28.5t28.5 11.5
t28.5 -11.5t11.5 -28.5z" />
    <glyph glyph-name="Aring" unicode="&#xc5;" horiz-adv-x="758" 
d="M63 0h-33l330 748q-33 7 -55 33.5t-22 61.5q0 20 7.5 37.5t21 31t31 21t37.5 7.5t37.5 -7.5t31 -21t21 -31t7.5 -37.5q0 -35 -22.5 -61.5t-54.5 -33.5l328 -748h-33l-119 271h-394zM195 301h368l-183 418zM380 916q-30 0 -51.5 -21.5t-21.5 -51.5q0 -28 18 -48.5
t45 -24.5h20q26 4 44.5 24.5t18.5 48.5q0 30 -21.5 51.5t-51.5 21.5z" />
    <glyph glyph-name="AE" unicode="&#xc6;" horiz-adv-x="1052" 
d="M62 0h-37l514 770h428v-30h-385v-340h345v-30h-345v-340h395v-30h-425v370h-244zM552 400v335l-224 -335h224z" />
    <glyph glyph-name="Ccedilla" unicode="&#xc7;" horiz-adv-x="790" 
d="M408 -160q28 0 51.5 16.5t23.5 48.5q0 17 -10 41t-27 45q-77 6 -145 39t-118 86.5t-79 122.5t-29 146q0 81 32 153t86.5 125.5t127.5 85t155 31.5q59 0 120 -18t108 -49l-16 -25q-44 29 -100.5 45.5t-111.5 16.5q-77 0 -144.5 -29t-118 -78.5t-79.5 -116t-29 -141.5
t29 -141.5t79.5 -116t118 -78.5t144.5 -29q58 0 118.5 20t108.5 55l17 -25q-51 -37 -116 -58.5t-128 -21.5h-1q4 -7 10.5 -17t12.5 -22t10.5 -24t4.5 -22q0 -21 -8.5 -38t-22.5 -30t-33.5 -20t-40.5 -7v30z" />
    <glyph glyph-name="Egrave" unicode="&#xc8;" horiz-adv-x="590" 
d="M465 370h-345v-340h395v-30h-425v770h415v-30h-385v-340h345v-30zM251 1000l140 -170h-30l-150 170h40z" />
    <glyph glyph-name="Eacute" unicode="&#xc9;" horiz-adv-x="590" 
d="M465 370h-345v-340h395v-30h-425v770h415v-30h-385v-340h345v-30zM392 1000l-150 -170h-30l140 170h40z" />
    <glyph glyph-name="Ecircumflex" unicode="&#xca;" horiz-adv-x="590" 
d="M465 370h-345v-340h395v-30h-425v770h415v-30h-385v-340h345v-30zM322 1000l130 -170h-30l-120 145l-120 -145h-30l130 170h40z" />
    <glyph glyph-name="Edieresis" unicode="&#xcb;" horiz-adv-x="590" 
d="M465 370h-345v-340h395v-30h-425v770h415v-30h-385v-340h345v-30zM245 890q0 -17 -11.5 -28.5t-28.5 -11.5t-28.5 11.5t-11.5 28.5t11.5 28.5t28.5 11.5t28.5 -11.5t11.5 -28.5zM425 890q0 -17 -11.5 -28.5t-28.5 -11.5t-28.5 11.5t-11.5 28.5t11.5 28.5t28.5 11.5
t28.5 -11.5t11.5 -28.5z" />
    <glyph glyph-name="Igrave" unicode="&#xcc;" horiz-adv-x="215" 
d="M121 770v-770h-30v770h30zM25 1000l140 -170h-30l-150 170h40z" />
    <glyph glyph-name="Iacute" unicode="&#xcd;" horiz-adv-x="215" 
d="M125 770v-770h-30v770h30zM230 1000l-150 -170h-30l140 170h40z" />
    <glyph glyph-name="Icircumflex" unicode="&#xce;" horiz-adv-x="230" 
d="M130 770v-770h-30v770h30zM135 1000l130 -170h-30l-120 145l-120 -145h-30l130 170h40z" />
    <glyph glyph-name="Idieresis" unicode="&#xcf;" horiz-adv-x="230" 
d="M130 770v-770h-30v770h30zM65 890q0 -17 -11.5 -28.5t-28.5 -11.5t-28.5 11.5t-11.5 28.5t11.5 28.5t28.5 11.5t28.5 -11.5t11.5 -28.5zM245 890q0 -17 -11.5 -28.5t-28.5 -11.5t-28.5 11.5t-11.5 28.5t11.5 28.5t28.5 11.5t28.5 -11.5t11.5 -28.5z" />
    <glyph glyph-name="Eth" unicode="&#xd0;" horiz-adv-x="783" 
d="M93 0v250h-58v30h58v490h224q85 0 157 -30t124 -82t81 -122t29 -150q0 -81 -29 -151t-81 -122.5t-124 -82.5t-157 -30h-224zM361 250h-238v-220h194q77 0 143 27t114.5 75t76 113t27.5 141t-27.5 140.5t-76 112t-114.5 74.5t-143 27h-194v-460h238v-30z" />
    <glyph glyph-name="Ntilde" unicode="&#xd1;" horiz-adv-x="810" 
d="M720 -31l-600 740v-709h-30v793l600 -740v717h30v-801zM495 851q-19 0 -43.5 12.5t-49 27.5t-47.5 27.5t-40 12.5q-32 0 -48.5 -23.5t-16.5 -51.5h-30q0 21 7 40t19.5 33.5t30 23t38.5 8.5q19 0 43 -12.5t49 -27.5t48 -27.5t40 -12.5q32 0 48.5 23.5t16.5 51.5h30
q0 -21 -7 -40t-19.5 -33.5t-30 -23t-38.5 -8.5z" />
    <glyph glyph-name="Ograve" unicode="&#xd2;" 
d="M465 -10q-82 0 -154 31t-125.5 85t-84.5 126t-31 154q0 81 31 152.5t84.5 125.5t125.5 85t154 31t154 -31.5t125.5 -85.5t84 -125.5t30.5 -151.5q0 -82 -31 -154t-84.5 -126t-125.5 -85t-153 -31zM465 750q-75 0 -141.5 -28.5t-116 -78t-78.5 -116t-29 -141.5
q0 -76 29 -142.5t78.5 -116t116 -78.5t141.5 -29t141.5 29t116 78.5t78 116t28.5 142.5q0 75 -28.5 141.5t-78 116t-116 78t-141.5 28.5zM384 1000l140 -170h-30l-150 170h40z" />
    <glyph glyph-name="Oacute" unicode="&#xd3;" 
d="M465 -10q-82 0 -154 31t-125.5 85t-84.5 126t-31 154q0 81 31 152.5t84.5 125.5t125.5 85t154 31t154 -31.5t125.5 -85.5t84 -125.5t30.5 -151.5q0 -82 -31 -154t-84.5 -126t-125.5 -85t-153 -31zM465 750q-75 0 -141.5 -28.5t-116 -78t-78.5 -116t-29 -141.5
q0 -76 29 -142.5t78.5 -116t116 -78.5t141.5 -29t141.5 29t116 78.5t78 116t28.5 142.5q0 75 -28.5 141.5t-78 116t-116 78t-141.5 28.5zM584 1000l-150 -170h-30l140 170h40z" />
    <glyph glyph-name="Ocircumflex" unicode="&#xd4;" 
d="M465 -10q-82 0 -154 31t-125.5 85t-84.5 126t-31 154q0 81 31 152.5t84.5 125.5t125.5 85t154 31t154 -31.5t125.5 -85.5t84 -125.5t30.5 -151.5q0 -82 -31 -154t-84.5 -126t-125.5 -85t-153 -31zM465 750q-75 0 -141.5 -28.5t-116 -78t-78.5 -116t-29 -141.5
q0 -76 29 -142.5t78.5 -116t116 -78.5t141.5 -29t141.5 29t116 78.5t78 116t28.5 142.5q0 75 -28.5 141.5t-78 116t-116 78t-141.5 28.5zM484 1000l130 -170h-30l-120 145l-120 -145h-30l130 170h40z" />
    <glyph glyph-name="Otilde" unicode="&#xd5;" 
d="M465 -10q-82 0 -154 31t-125.5 85t-84.5 126t-31 154q0 81 31 152.5t84.5 125.5t125.5 85t154 31t154 -31.5t125.5 -85.5t84 -125.5t30.5 -151.5q0 -82 -31 -154t-84.5 -126t-125.5 -85t-153 -31zM465 750q-75 0 -141.5 -28.5t-116 -78t-78.5 -116t-29 -141.5
q0 -76 29 -142.5t78.5 -116t116 -78.5t141.5 -29t141.5 29t116 78.5t78 116t28.5 142.5q0 75 -28.5 141.5t-78 116t-116 78t-141.5 28.5zM554 851q-19 0 -43.5 12.5t-49 27.5t-47.5 27.5t-40 12.5q-32 0 -48.5 -23.5t-16.5 -51.5h-30q0 21 7 40t19.5 33.5t30 23t38.5 8.5
q19 0 43 -12.5t49 -27.5t48 -27.5t40 -12.5q32 0 48.5 23.5t16.5 51.5h30q0 -21 -7 -40t-19.5 -33.5t-30 -23t-38.5 -8.5z" />
    <glyph glyph-name="Odieresis" unicode="&#xd6;" 
d="M465 -10q-82 0 -154 31t-125.5 85t-84.5 126t-31 154q0 81 31 152.5t84.5 125.5t125.5 85t154 31t154 -31.5t125.5 -85.5t84 -125.5t30.5 -151.5q0 -82 -31 -154t-84.5 -126t-125.5 -85t-153 -31zM465 750q-75 0 -141.5 -28.5t-116 -78t-78.5 -116t-29 -141.5
q0 -76 29 -142.5t78.5 -116t116 -78.5t141.5 -29t141.5 29t116 78.5t78 116t28.5 142.5q0 75 -28.5 141.5t-78 116t-116 78t-141.5 28.5zM414 890q0 -17 -11.5 -28.5t-28.5 -11.5t-28.5 11.5t-11.5 28.5t11.5 28.5t28.5 11.5t28.5 -11.5t11.5 -28.5zM594 890
q0 -17 -11.5 -28.5t-28.5 -11.5t-28.5 11.5t-11.5 28.5t11.5 28.5t28.5 11.5t28.5 -11.5t11.5 -28.5z" />
    <glyph glyph-name="multiply" unicode="&#xd7;" horiz-adv-x="528" 
d="M458 558l-173 -173l173 -173l-21 -21l-173 173l-173 -173l-21 21l173 173l-173 173l21 21l173 -173l173 173z" />
    <glyph glyph-name="Oslash" unicode="&#xd8;" 
d="M859 770l-109 -113q51 -54 80 -123.5t29 -147.5q0 -82 -31 -154t-84.5 -126t-125.5 -85t-153 -31q-77 0 -144 26.5t-120 74.5l-89 -91h-42l109 112q-51 54 -80 123.5t-29 150.5t31 152.5t84.5 125.5t125.5 85t154 31q77 0 144 -27t119 -75l89 92h42zM465 750
q-75 0 -141.5 -28.5t-116 -78t-78.5 -116t-29 -141.5q0 -74 26.5 -138.5t73.5 -113.5l508 523q-49 44 -111 68.5t-132 24.5zM465 20q75 0 141.5 29t116 78.5t78 116t28.5 142.5q0 73 -26.5 137t-73.5 113l-507 -523q48 -44 110.5 -68.5t132.5 -24.5z" />
    <glyph glyph-name="Ugrave" unicode="&#xd9;" horiz-adv-x="792" 
d="M396 -10q-61 0 -116 24t-97 65.5t-67 96t-25 114.5v10v470h30v-470q0 -58 21.5 -109t59 -89t87.5 -60t107 -22t107 22t87.5 60t59 89t21.5 109v470h30v-470v-10q0 -60 -25 -114.5t-67 -96t-97 -65.5t-116 -24zM316 1000l140 -170h-30l-150 170h40z" />
    <glyph glyph-name="Uacute" unicode="&#xda;" horiz-adv-x="792" 
d="M396 -10q-61 0 -116 24t-97 65.5t-67 96t-25 114.5v10v470h30v-470q0 -58 21.5 -109t59 -89t87.5 -60t107 -22t107 22t87.5 60t59 89t21.5 109v470h30v-470v-10q0 -60 -25 -114.5t-67 -96t-97 -65.5t-116 -24zM516 1000l-150 -170h-30l140 170h40z" />
    <glyph glyph-name="Ucircumflex" unicode="&#xdb;" horiz-adv-x="792" 
d="M396 -10q-61 0 -116 24t-97 65.5t-67 96t-25 114.5v10v470h30v-470q0 -58 21.5 -109t59 -89t87.5 -60t107 -22t107 22t87.5 60t59 89t21.5 109v470h30v-470v-10q0 -60 -25 -114.5t-67 -96t-97 -65.5t-116 -24zM416 1000l130 -170h-30l-120 145l-120 -145h-30l130 170h40z
" />
    <glyph glyph-name="Udieresis" unicode="&#xdc;" horiz-adv-x="792" 
d="M396 -10q-61 0 -116 24t-97 65.5t-67 96t-25 114.5v10v470h30v-470q0 -58 21.5 -109t59 -89t87.5 -60t107 -22t107 22t87.5 60t59 89t21.5 109v470h30v-470v-10q0 -60 -25 -114.5t-67 -96t-97 -65.5t-116 -24zM346 890q0 -17 -11.5 -28.5t-28.5 -11.5t-28.5 11.5
t-11.5 28.5t11.5 28.5t28.5 11.5t28.5 -11.5t11.5 -28.5zM526 890q0 -17 -11.5 -28.5t-28.5 -11.5t-28.5 11.5t-11.5 28.5t11.5 28.5t28.5 11.5t28.5 -11.5t11.5 -28.5z" />
    <glyph glyph-name="Yacute" unicode="&#xdd;" horiz-adv-x="690" 
d="M360 0h-30v337l-300 433h36l279 -404l279 404h36l-300 -433v-337zM465 1000l-150 -170h-30l140 170h40z" />
    <glyph glyph-name="Thorn" unicode="&#xde;" horiz-adv-x="569" 
d="M120 770v-150h124q51 0 97.5 -14t81.5 -41t55.5 -66.5t20.5 -90.5q0 -48 -20.5 -84.5t-54.5 -62t-78.5 -38.5t-91.5 -13h-134v-210h-30v770h30zM120 240h134q40 0 78.5 11t69 32t49 52.5t18.5 72.5q0 47 -19.5 81.5t-51 57t-72 33t-82.5 10.5h-124v-350z" />
    <glyph glyph-name="germandbls" unicode="&#xdf;" horiz-adv-x="551" 
d="M259 30q103 0 154.5 41t51.5 129q0 87 -51.5 140t-148.5 53v29q31 11 60 22.5t51.5 29t35.5 42.5t13 62q0 42 -12.5 74.5t-34 55t-50 34t-60.5 11.5q-55 0 -87.5 -20t-49 -48t-21.5 -58t-5 -49v-578h-30v578q0 46 12.5 83.5t37.5 64.5t60.5 42t82.5 15q34 0 68 -12
t60 -37.5t42.5 -64t16.5 -91.5q0 -63 -33.5 -102t-87.5 -60q40 -8 70 -27.5t50 -48.5t30.5 -65.5t10.5 -77.5q0 -46 -12.5 -78.5t-32 -54.5t-44 -35t-49 -19.5t-46 -8.5t-35.5 -2h-13q-3 0 -4 1v30z" />
    <glyph glyph-name="agrave" unicode="&#xe0;" horiz-adv-x="525" 
d="M450 0h-30v66q-27 -35 -76 -58t-119 -23q-32 0 -61.5 9.5t-52.5 27.5t-37 43.5t-14 58.5q0 46 17 77t46.5 50t70 27.5t87.5 8.5q38 0 74 -3.5t65 -7.5v74q0 37 -14 63t-36.5 42t-50 23.5t-54.5 7.5q-45 0 -86.5 -18t-73.5 -50l-21 21q36 36 83 56.5t98 20.5
q38 0 72 -11.5t59 -32.5t39.5 -52t14.5 -70v-350zM225 15q47 0 83.5 12t61 31t37.5 43t13 49v95q-32 5 -68 9t-74 4q-36 0 -70 -6t-60.5 -21t-42 -41t-15.5 -66q0 -27 12 -47t31 -34t43 -21t49 -7zM192 770l140 -170h-30l-150 170h40z" />
    <glyph glyph-name="aacute" unicode="&#xe1;" horiz-adv-x="525" 
d="M450 0h-30v66q-27 -35 -76 -58t-119 -23q-32 0 -61.5 9.5t-52.5 27.5t-37 43.5t-14 58.5q0 46 17 77t46.5 50t70 27.5t87.5 8.5q38 0 74 -3.5t65 -7.5v74q0 37 -14 63t-36.5 42t-50 23.5t-54.5 7.5q-45 0 -86.5 -18t-73.5 -50l-21 21q36 36 83 56.5t98 20.5
q38 0 72 -11.5t59 -32.5t39.5 -52t14.5 -70v-350zM225 15q47 0 83.5 12t61 31t37.5 43t13 49v95q-32 5 -68 9t-74 4q-36 0 -70 -6t-60.5 -21t-42 -41t-15.5 -66q0 -27 12 -47t31 -34t43 -21t49 -7zM372 770l-150 -170h-30l140 170h40z" />
    <glyph glyph-name="acircumflex" unicode="&#xe2;" horiz-adv-x="525" 
d="M450 0h-30v66q-27 -35 -76 -58t-119 -23q-32 0 -61.5 9.5t-52.5 27.5t-37 43.5t-14 58.5q0 46 17 77t46.5 50t70 27.5t87.5 8.5q38 0 74 -3.5t65 -7.5v74q0 37 -14 63t-36.5 42t-50 23.5t-54.5 7.5q-45 0 -86.5 -18t-73.5 -50l-21 21q36 36 83 56.5t98 20.5
q38 0 72 -11.5t59 -32.5t39.5 -52t14.5 -70v-350zM225 15q47 0 83.5 12t61 31t37.5 43t13 49v95q-32 5 -68 9t-74 4q-36 0 -70 -6t-60.5 -21t-42 -41t-15.5 -66q0 -27 12 -47t31 -34t43 -21t49 -7zM288 770l130 -170h-30l-120 145l-120 -145h-30l130 170h40z" />
    <glyph glyph-name="atilde" unicode="&#xe3;" horiz-adv-x="525" 
d="M450 0h-30v66q-27 -35 -76 -58t-119 -23q-32 0 -61.5 9.5t-52.5 27.5t-37 43.5t-14 58.5q0 46 17 77t46.5 50t70 27.5t87.5 8.5q38 0 74 -3.5t65 -7.5v74q0 37 -14 63t-36.5 42t-50 23.5t-54.5 7.5q-45 0 -86.5 -18t-73.5 -50l-21 21q36 36 83 56.5t98 20.5
q38 0 72 -11.5t59 -32.5t39.5 -52t14.5 -70v-350zM225 15q47 0 83.5 12t61 31t37.5 43t13 49v95q-32 5 -68 9t-74 4q-36 0 -70 -6t-60.5 -21t-42 -41t-15.5 -66q0 -27 12 -47t31 -34t43 -21t49 -7zM353 640q-19 0 -43.5 12.5t-49 27.5t-47.5 27.5t-40 12.5
q-32 0 -48.5 -23.5t-16.5 -51.5h-30q0 21 7 40t19.5 33.5t30 23t38.5 8.5q19 0 43 -12.5t49 -27.5t48 -27.5t40 -12.5q32 0 48.5 23.5t16.5 51.5h30q0 -21 -7 -40t-19.5 -33.5t-30 -23t-38.5 -8.5z" />
    <glyph glyph-name="adieresis" unicode="&#xe4;" horiz-adv-x="525" 
d="M450 0h-30v66q-27 -35 -76 -58t-119 -23q-32 0 -61.5 9.5t-52.5 27.5t-37 43.5t-14 58.5q0 46 17 77t46.5 50t70 27.5t87.5 8.5q38 0 74 -3.5t65 -7.5v74q0 37 -14 63t-36.5 42t-50 23.5t-54.5 7.5q-45 0 -86.5 -18t-73.5 -50l-21 21q36 36 83 56.5t98 20.5
q38 0 72 -11.5t59 -32.5t39.5 -52t14.5 -70v-350zM225 15q47 0 83.5 12t61 31t37.5 43t13 49v95q-32 5 -68 9t-74 4q-36 0 -70 -6t-60.5 -21t-42 -41t-15.5 -66q0 -27 12 -47t31 -34t43 -21t49 -7zM212 710q0 -17 -11.5 -28.5t-28.5 -11.5t-28.5 11.5t-11.5 28.5t11.5 28.5
t28.5 11.5t28.5 -11.5t11.5 -28.5zM392 710q0 -17 -11.5 -28.5t-28.5 -11.5t-28.5 11.5t-11.5 28.5t11.5 28.5t28.5 11.5t28.5 -11.5t11.5 -28.5z" />
    <glyph glyph-name="aring" unicode="&#xe5;" horiz-adv-x="525" 
d="M450 0h-30v66q-27 -35 -76 -58t-119 -23q-32 0 -61.5 9.5t-52.5 27.5t-37 43.5t-14 58.5q0 46 17 77t46.5 50t70 27.5t87.5 8.5q38 0 74 -3.5t65 -7.5v74q0 37 -14 63t-36.5 42t-50 23.5t-54.5 7.5q-45 0 -86.5 -18t-73.5 -50l-21 21q36 36 83 56.5t98 20.5
q38 0 72 -11.5t59 -32.5t39.5 -52t14.5 -70v-350zM225 15q47 0 83.5 12t61 31t37.5 43t13 49v95q-32 5 -68 9t-74 4q-36 0 -70 -6t-60.5 -21t-42 -41t-15.5 -66q0 -27 12 -47t31 -34t43 -21t49 -7zM270 576q-20 0 -37.5 7.5t-31 21t-21 31t-7.5 37.5t7.5 37.5t21 31t31 21
t37.5 7.5t37.5 -7.5t31 -21t21 -31t7.5 -37.5t-7.5 -37.5t-21 -31t-31 -21t-37.5 -7.5zM270 746q-30 0 -51.5 -21.5t-21.5 -51.5t21.5 -51.5t51.5 -21.5t51.5 21.5t21.5 51.5t-21.5 51.5t-51.5 21.5z" />
    <glyph glyph-name="ae" unicode="&#xe6;" horiz-adv-x="969" 
d="M685 -15q-38 0 -73.5 10.5t-66 29.5t-55 45t-40.5 58v-128h-30v66q-27 -35 -76 -58t-119 -23q-32 0 -61.5 9.5t-52.5 27.5t-37 43.5t-14 58.5q0 46 17 77t46.5 50t70 27.5t87.5 8.5q38 0 74 -3.5t65 -7.5v74q0 37 -14 63t-36.5 42t-50 23.5t-54.5 7.5q-45 0 -86.5 -18
t-73.5 -50l-21 21q36 36 83 56.5t98 20.5q35 0 66.5 -9.5t56 -28t40.5 -45t20 -60.5q32 63 90.5 103t135.5 40q48 0 92 -17.5t78 -49.5t54 -76t20 -97v-10h-468v-11q0 -53 19 -97t51 -75.5t74.5 -49.5t90.5 -18q56 0 101 12.5t77 36.5l18 -24q-35 -26 -85 -40.5t-111 -14.5z
M225 15q47 0 83.5 12t61 31t37.5 43t13 49v95q-32 5 -68 9t-74 4q-36 0 -70 -6t-60.5 -21t-42 -41t-15.5 -66q0 -27 12 -47t31 -34t43 -21t49 -7zM887 296q-3 35 -18.5 69t-43 61t-66 43.5t-85.5 16.5q-42 0 -78.5 -14.5t-66 -40t-49 -60t-26.5 -75.5h433z" />
    <glyph glyph-name="ccedilla" unicode="&#xe7;" horiz-adv-x="529" 
d="M245 -160q28 0 51.5 16.5t23.5 48.5q0 17 -10 39t-25 43q-51 5 -93 28.5t-72.5 59.5t-47.5 81t-17 95q0 55 20 103t55 84t82.5 57t102.5 21q41 0 82 -11.5t71 -31.5l-16 -25q-27 17 -63.5 27.5t-73.5 10.5q-48 0 -90 -18t-73 -50t-49 -75t-18 -92t18 -92t49.5 -75
t73 -50.5t89.5 -18.5q37 0 76 13t70 36l18 -24q-35 -26 -78.5 -40.5t-85.5 -14.5q10 -15 22.5 -38t12.5 -42q0 -21 -8.5 -38t-22.5 -30t-33.5 -20t-40.5 -7v30z" />
    <glyph glyph-name="egrave" unicode="&#xe8;" horiz-adv-x="604" 
d="M320 -15q-55 0 -103 21t-84 57t-57 84.5t-21 102.5q0 55 19 103.5t53 84.5t80.5 57t101.5 21q48 0 92 -17.5t78 -49.5t54 -76t20 -97v-10h-468v-11q0 -53 19 -97t51 -75.5t74.5 -49.5t90.5 -18q56 0 101 12.5t77 36.5l18 -24q-35 -26 -85 -40.5t-111 -14.5zM89 296h433
q-3 35 -18.5 69t-43 61t-66 43.5t-85.5 16.5q-42 0 -78.5 -14.5t-66 -40t-49 -60t-26.5 -75.5zM222 770l140 -170h-30l-150 170h40z" />
    <glyph glyph-name="eacute" unicode="&#xe9;" horiz-adv-x="604" 
d="M320 -15q-55 0 -103 21t-84 57t-57 84.5t-21 102.5q0 55 19 103.5t53 84.5t80.5 57t101.5 21q48 0 92 -17.5t78 -49.5t54 -76t20 -97v-10h-468v-11q0 -53 19 -97t51 -75.5t74.5 -49.5t90.5 -18q56 0 101 12.5t77 36.5l18 -24q-35 -26 -85 -40.5t-111 -14.5zM89 296h433
q-3 35 -18.5 69t-43 61t-66 43.5t-85.5 16.5q-42 0 -78.5 -14.5t-66 -40t-49 -60t-26.5 -75.5zM422 770l-150 -170h-30l140 170h40z" />
    <glyph glyph-name="ecircumflex" unicode="&#xea;" horiz-adv-x="604" 
d="M320 -15q-55 0 -103 21t-84 57t-57 84.5t-21 102.5q0 55 19 103.5t53 84.5t80.5 57t101.5 21q48 0 92 -17.5t78 -49.5t54 -76t20 -97v-10h-468v-11q0 -53 19 -97t51 -75.5t74.5 -49.5t90.5 -18q56 0 101 12.5t77 36.5l18 -24q-35 -26 -85 -40.5t-111 -14.5zM522 296
q-3 35 -18.5 69t-43 61t-66 43.5t-85.5 16.5q-42 0 -78.5 -14.5t-66 -40t-49 -60t-26.5 -75.5h433zM327 770l130 -170h-30l-120 145l-120 -145h-30l130 170h40z" />
    <glyph glyph-name="edieresis" unicode="&#xeb;" horiz-adv-x="604" 
d="M320 -15q-55 0 -103 21t-84 57t-57 84.5t-21 102.5q0 55 19 103.5t53 84.5t80.5 57t101.5 21q48 0 92 -17.5t78 -49.5t54 -76t20 -97v-10h-468v-11q0 -53 19 -97t51 -75.5t74.5 -49.5t90.5 -18q56 0 101 12.5t77 36.5l18 -24q-35 -26 -85 -40.5t-111 -14.5zM522 296
q-3 35 -18.5 69t-43 61t-66 43.5t-85.5 16.5q-42 0 -78.5 -14.5t-66 -40t-49 -60t-26.5 -75.5h433zM258 710q0 -17 -11.5 -28.5t-28.5 -11.5t-28.5 11.5t-11.5 28.5t11.5 28.5t28.5 11.5t28.5 -11.5t11.5 -28.5zM438 710q0 -17 -11.5 -28.5t-28.5 -11.5t-28.5 11.5
t-11.5 28.5t11.5 28.5t28.5 11.5t28.5 -11.5t11.5 -28.5z" />
    <glyph glyph-name="igrave" unicode="&#xec;" horiz-adv-x="190" 
d="M115 500v-500h-30v500h30zM20 770l140 -170h-30l-150 170h40z" />
    <glyph glyph-name="iacute" unicode="&#xed;" horiz-adv-x="190" 
d="M105 500v-500h-30v500h30zM210 770l-150 -170h-30l140 170h40z" />
    <glyph glyph-name="icircumflex" unicode="&#xee;" horiz-adv-x="220" 
d="M125 500v-500h-30v500h30zM130 770l130 -170h-30l-120 145l-120 -145h-30l130 170h40z" />
    <glyph glyph-name="idieresis" unicode="&#xef;" horiz-adv-x="200" 
d="M115 500v-500h-30v500h30zM50 710q0 -17 -11.5 -28.5t-28.5 -11.5t-28.5 11.5t-11.5 28.5t11.5 28.5t28.5 11.5t28.5 -11.5t11.5 -28.5zM230 710q0 -17 -11.5 -28.5t-28.5 -11.5t-28.5 11.5t-11.5 28.5t11.5 28.5t28.5 11.5t28.5 -11.5t11.5 -28.5z" />
    <glyph glyph-name="eth" unicode="&#xf0;" horiz-adv-x="590" 
d="M471 684l-111 -64q34 -39 65 -84t54.5 -94.5t37 -103.5t13.5 -113q0 -48 -18.5 -91t-50 -75t-74.5 -50.5t-92 -18.5t-92 18.5t-74.5 50.5t-50 75t-18.5 91t18.5 91t50 75t74.5 50.5t92 18.5q48 0 92.5 -18t85.5 -63q-25 69 -63 126t-76 99q-1 0 -1 1l-145 -83l-15 26
l139 80q-28 29 -54 52t-46 39q-24 18 -45 33l16 26q22 -16 48 -36q22 -17 50 -42t58 -57l117 67zM295 430q-42 0 -79.5 -16t-65.5 -44t-44 -65.5t-16 -79.5t16 -79.5t44 -65.5t65.5 -44t79.5 -16t79.5 16t65.5 44t44 65.5t16 79.5q0 44 -16.5 81.5t-44.5 65t-65.5 43
t-78.5 15.5z" />
    <glyph glyph-name="ntilde" unicode="&#xf1;" horiz-adv-x="540" 
d="M465 0h-30v340q0 30 -11.5 56.5t-31 46.5t-46 31.5t-56.5 11.5q-50 0 -85 -19t-57 -50t-32 -70t-11 -79v-268h-30v500h30v-100q26 54 74 85t111 31q36 0 68 -14t55.5 -38t37.5 -56t14 -68v-340zM360 640q-19 0 -43.5 12.5t-49 27.5t-47.5 27.5t-40 12.5
q-32 0 -48.5 -23.5t-16.5 -51.5h-30q0 21 7 40t19.5 33.5t30 23t38.5 8.5q19 0 43 -12.5t49 -27.5t48 -27.5t40 -12.5q32 0 48.5 23.5t16.5 51.5h30q0 -21 -7 -40t-19.5 -33.5t-30 -23t-38.5 -8.5z" />
    <glyph glyph-name="ograve" unicode="&#xf2;" horiz-adv-x="640" 
d="M320 -15q-57 0 -105.5 21.5t-84 58t-55.5 85t-20 101.5q0 54 21 102t57 84.5t84 57.5t103 21t103.5 -21t84.5 -57t56.5 -84.5t20.5 -102.5q0 -53 -20 -101.5t-55 -85t-83.5 -58t-106.5 -21.5zM320 486q-48 0 -91 -18.5t-75 -50.5t-50.5 -75t-18.5 -91q0 -49 18.5 -92
t50.5 -75t75 -50.5t91 -18.5q49 0 91.5 18.5t74.5 50.5t50.5 75t18.5 92q0 48 -18.5 91t-50.5 75t-74.5 50.5t-91.5 18.5zM240 770l140 -170h-30l-150 170h40z" />
    <glyph glyph-name="oacute" unicode="&#xf3;" horiz-adv-x="640" 
d="M320 -15q-57 0 -105.5 21.5t-84 58t-55.5 85t-20 101.5q0 54 21 102t57 84.5t84 57.5t103 21t103.5 -21t84.5 -57t56.5 -84.5t20.5 -102.5q0 -53 -20 -101.5t-55 -85t-83.5 -58t-106.5 -21.5zM320 486q-48 0 -91 -18.5t-75 -50.5t-50.5 -75t-18.5 -91q0 -49 18.5 -92
t50.5 -75t75 -50.5t91 -18.5q49 0 91.5 18.5t74.5 50.5t50.5 75t18.5 92q0 48 -18.5 91t-50.5 75t-74.5 50.5t-91.5 18.5zM440 770l-150 -170h-30l140 170h40z" />
    <glyph glyph-name="ocircumflex" unicode="&#xf4;" horiz-adv-x="640" 
d="M320 -15q-57 0 -105.5 21.5t-84 58t-55.5 85t-20 101.5q0 54 21 102t57 84.5t84 57.5t103 21t103.5 -21t84.5 -57t56.5 -84.5t20.5 -102.5q0 -53 -20 -101.5t-55 -85t-83.5 -58t-106.5 -21.5zM320 486q-48 0 -91 -18.5t-75 -50.5t-50.5 -75t-18.5 -91q0 -49 18.5 -92
t50.5 -75t75 -50.5t91 -18.5q49 0 91.5 18.5t74.5 50.5t50.5 75t18.5 92q0 48 -18.5 91t-50.5 75t-74.5 50.5t-91.5 18.5zM340 770l130 -170h-30l-120 145l-120 -145h-30l130 170h40z" />
    <glyph glyph-name="otilde" unicode="&#xf5;" horiz-adv-x="640" 
d="M320 -15q-57 0 -105.5 21.5t-84 58t-55.5 85t-20 101.5q0 54 21 102t57 84.5t84 57.5t103 21t103.5 -21t84.5 -57t56.5 -84.5t20.5 -102.5q0 -53 -20 -101.5t-55 -85t-83.5 -58t-106.5 -21.5zM320 486q-48 0 -91 -18.5t-75 -50.5t-50.5 -75t-18.5 -91q0 -49 18.5 -92
t50.5 -75t75 -50.5t91 -18.5q49 0 91.5 18.5t74.5 50.5t50.5 75t18.5 92q0 48 -18.5 91t-50.5 75t-74.5 50.5t-91.5 18.5zM410 640q-19 0 -43.5 12.5t-49 27.5t-47.5 27.5t-40 12.5q-32 0 -48.5 -23.5t-16.5 -51.5h-30q0 21 7 40t19.5 33.5t30 23t38.5 8.5q19 0 43 -12.5
t49 -27.5t48 -27.5t40 -12.5q32 0 48.5 23.5t16.5 51.5h30q0 -21 -7 -40t-19.5 -33.5t-30 -23t-38.5 -8.5z" />
    <glyph glyph-name="odieresis" unicode="&#xf6;" horiz-adv-x="640" 
d="M320 -15q-57 0 -105.5 21.5t-84 58t-55.5 85t-20 101.5q0 54 21 102t57 84.5t84 57.5t103 21t103.5 -21t84.5 -57t56.5 -84.5t20.5 -102.5q0 -53 -20 -101.5t-55 -85t-83.5 -58t-106.5 -21.5zM320 486q-48 0 -91 -18.5t-75 -50.5t-50.5 -75t-18.5 -91q0 -49 18.5 -92
t50.5 -75t75 -50.5t91 -18.5q49 0 91.5 18.5t74.5 50.5t50.5 75t18.5 92q0 48 -18.5 91t-50.5 75t-74.5 50.5t-91.5 18.5zM270 710q0 -17 -11.5 -28.5t-28.5 -11.5t-28.5 11.5t-11.5 28.5t11.5 28.5t28.5 11.5t28.5 -11.5t11.5 -28.5zM450 710q0 -17 -11.5 -28.5
t-28.5 -11.5t-28.5 11.5t-11.5 28.5t11.5 28.5t28.5 11.5t28.5 -11.5t11.5 -28.5z" />
    <glyph glyph-name="divide" unicode="&#xf7;" horiz-adv-x="660" 
d="M590 370h-520v30h520v-30zM360 615q0 -13 -9 -21.5t-21 -8.5q-13 0 -21.5 8.5t-8.5 21.5q0 12 8.5 21t21.5 9q12 0 21 -9t9 -21zM360 155q0 -13 -9 -21.5t-21 -8.5q-13 0 -21.5 8.5t-8.5 21.5q0 12 8.5 21t21.5 9q12 0 21 -9t9 -21z" />
    <glyph glyph-name="oslash" unicode="&#xf8;" horiz-adv-x="640" 
d="M585 500l-69 -71q32 -35 50.5 -81t18.5 -97q0 -53 -20 -101.5t-55 -85t-83.5 -58t-106.5 -21.5q-51 0 -95.5 17.5t-78.5 47.5l-49 -50h-42l69 71q-32 36 -50.5 82.5t-18.5 97.5q0 54 21 102t57 84.5t84 57.5t103 21q51 0 95.5 -17.5t79.5 -48.5l48 50h42zM320 486
q-48 0 -91 -18.5t-75 -50.5t-50.5 -75t-18.5 -91q0 -46 16 -86t45 -72l327 335q-31 27 -70 42.5t-83 15.5zM320 15q49 0 91.5 18.5t74.5 50.5t50.5 75t18.5 92q0 45 -16 85t-44 71l-328 -335q31 -26 70 -41.5t83 -15.5z" />
    <glyph glyph-name="ugrave" unicode="&#xf9;" horiz-adv-x="540" 
d="M75 500h30v-339q0 -30 11.5 -56.5t31 -46.5t46 -31.5t56.5 -11.5q50 0 85 19t57 50t32 70t11 79v267h30v-500h-30v101q-26 -54 -74 -85t-111 -31q-36 0 -68 14t-55.5 38t-37.5 56t-14 68v339zM190 770l140 -170h-30l-150 170h40z" />
    <glyph glyph-name="uacute" unicode="&#xfa;" horiz-adv-x="540" 
d="M75 500h30v-339q0 -30 11.5 -56.5t31 -46.5t46 -31.5t56.5 -11.5q50 0 85 19t57 50t32 70t11 79v267h30v-500h-30v101q-26 -54 -74 -85t-111 -31q-36 0 -68 14t-55.5 38t-37.5 56t-14 68v339zM390 770l-150 -170h-30l140 170h40z" />
    <glyph glyph-name="ucircumflex" unicode="&#xfb;" horiz-adv-x="540" 
d="M75 500h30v-339q0 -30 11.5 -56.5t31 -46.5t46 -31.5t56.5 -11.5q50 0 85 19t57 50t32 70t11 79v267h30v-500h-30v101q-26 -54 -74 -85t-111 -31q-36 0 -68 14t-55.5 38t-37.5 56t-14 68v339zM290 770l130 -170h-30l-120 145l-120 -145h-30l130 170h40z" />
    <glyph glyph-name="udieresis" unicode="&#xfc;" horiz-adv-x="540" 
d="M75 500h30v-339q0 -30 11.5 -56.5t31 -46.5t46 -31.5t56.5 -11.5q50 0 85 19t57 50t32 70t11 79v267h30v-500h-30v101q-26 -54 -74 -85t-111 -31q-36 0 -68 14t-55.5 38t-37.5 56t-14 68v339zM220 710q0 -17 -11.5 -28.5t-28.5 -11.5t-28.5 11.5t-11.5 28.5t11.5 28.5
t28.5 11.5t28.5 -11.5t11.5 -28.5zM400 710q0 -17 -11.5 -28.5t-28.5 -11.5t-28.5 11.5t-11.5 28.5t11.5 28.5t28.5 11.5t28.5 -11.5t11.5 -28.5z" />
    <glyph glyph-name="yacute" unicode="&#xfd;" horiz-adv-x="497" 
d="M112 -250h-33l146 309l-195 441h32l180 -405l193 405h32zM368 770l-150 -170h-30l140 170h40z" />
    <glyph glyph-name="thorn" unicode="&#xfe;" horiz-adv-x="579" 
d="M105 770v-313q35 28 77 43.5t88 15.5q55 0 101.5 -21.5t80.5 -57.5t53 -84.5t19 -102.5t-19 -102t-53 -84t-80.5 -57.5t-101.5 -21.5q-46 0 -88 15t-77 43v-293h-30v1020h30zM270 15q47 0 88 18.5t71 50t47.5 74.5t17.5 92t-17.5 92.5t-47.5 75t-71 50t-88 18.5
q-48 0 -90 -18.5t-75 -50.5v-333q33 -33 75 -51t90 -18z" />
    <glyph glyph-name="ydieresis" unicode="&#xff;" horiz-adv-x="497" 
d="M112 -250h-33l146 309l-195 441h32l180 -405l193 405h32zM198 710q0 -17 -11.5 -28.5t-28.5 -11.5t-28.5 11.5t-11.5 28.5t11.5 28.5t28.5 11.5t28.5 -11.5t11.5 -28.5zM378 710q0 -17 -11.5 -28.5t-28.5 -11.5t-28.5 11.5t-11.5 28.5t11.5 28.5t28.5 11.5t28.5 -11.5
t11.5 -28.5z" />
    <glyph glyph-name="dotlessi" unicode="&#x131;" horiz-adv-x="180" 
d="M105 500v-500h-30v500h30z" />
    <glyph glyph-name="OE" unicode="&#x152;" horiz-adv-x="1027" 
d="M902 370h-345v-340h395v-30h-490q-83 0 -155 29.5t-124.5 81t-82.5 122t-30 152.5t30 152.5t82.5 122t124 81t155.5 29.5h480v-30h-385v-340h345v-30zM100 385q0 -76 27.5 -141t76 -112.5t115 -74.5t143.5 -27h65v710h-65q-77 0 -143.5 -27t-115 -74.5t-76 -112.5
t-27.5 -141z" />
    <glyph glyph-name="oe" unicode="&#x153;" horiz-adv-x="1104" 
d="M820 -15q-43 0 -82.5 13.5t-72 37t-57.5 56t-38 70.5q-13 -38 -37 -70.5t-56 -56t-72 -37t-85 -13.5q-57 0 -105.5 21.5t-84 58t-55.5 85t-20 101.5q0 54 21 102t57 84.5t84 57.5t103 21q43 0 82.5 -13t72 -36.5t56.5 -56t38 -70.5q13 38 36 70.5t54 56t69 36.5t81 13
q48 0 92 -17.5t78 -49.5t54 -76t20 -97v-10h-468q0 -59 19 -105.5t51 -79t74.5 -49.5t90.5 -17q56 0 101 12.5t77 36.5l18 -24q-35 -26 -85 -40.5t-111 -14.5zM320 486q-48 0 -91 -18.5t-75 -50.5t-50.5 -75t-18.5 -91q0 -49 18.5 -92t50.5 -75t75 -50.5t91 -18.5
q47 0 89.5 18t75 49.5t51.5 74.5t19 93q0 49 -18.5 92t-50.5 75t-74.5 50.5t-91.5 18.5zM1022 296q-3 35 -18.5 69t-43 61t-66 43.5t-85.5 16.5q-42 0 -78.5 -14.5t-66 -40t-49 -60t-26.5 -75.5h433z" />
    <glyph glyph-name="Scaron" unicode="&#x160;" horiz-adv-x="604" 
d="M298 -10q-64 0 -117 18t-106 56l18 24q49 -35 97.5 -51.5t107.5 -16.5q97 0 149 45t52 130q0 45 -17.5 75.5t-46.5 51.5t-66 36t-75 28t-75 27.5t-66 35.5t-46.5 51t-17.5 75q0 55 19 94t49 64t67 36.5t72 11.5q63 0 115 -18.5t103 -56.5l-18 -24q-49 35 -97 52t-103 17
q-31 0 -62.5 -10t-57 -31.5t-41.5 -55t-16 -79.5q0 -39 17.5 -65.5t46.5 -45t66 -32t75 -27t75 -30t66 -40t46.5 -57.5t17.5 -83q0 -55 -18.5 -94t-50 -63.5t-73.5 -36t-89 -11.5zM282 830l-130 170h30l120 -145l120 145h30l-130 -170h-40z" />
    <glyph glyph-name="scaron" unicode="&#x161;" horiz-adv-x="466" 
d="M229 -15q-45 0 -88.5 13.5t-75.5 36.5l17 25q28 -20 68 -32.5t80 -12.5q64 0 102.5 27t38.5 84q0 38 -22 60t-55 36.5t-72 25t-72 25.5t-55 38.5t-22 64.5q0 33 13 59t35.5 44t51.5 27.5t62 9.5q85 0 153 -50l-17 -24q-61 44 -136 44q-26 0 -50 -7t-42 -21t-29 -34.5
t-11 -47.5q0 -31 22 -49.5t55 -31.5t72 -24.5t72 -29t55 -44.5t22 -71q0 -72 -47 -106.5t-125 -34.5zM213 600l-130 170h30l120 -145l120 145h30l-130 -170h-40z" />
    <glyph glyph-name="Ydieresis" unicode="&#x178;" horiz-adv-x="690" 
d="M360 0h-30v337l-300 433h36l279 -404l279 404h36l-300 -433v-337zM295 890q0 -17 -11.5 -28.5t-28.5 -11.5t-28.5 11.5t-11.5 28.5t11.5 28.5t28.5 11.5t28.5 -11.5t11.5 -28.5zM475 890q0 -17 -11.5 -28.5t-28.5 -11.5t-28.5 11.5t-11.5 28.5t11.5 28.5t28.5 11.5
t28.5 -11.5t11.5 -28.5z" />
    <glyph glyph-name="Zcaron" unicode="&#x17d;" horiz-adv-x="763" 
d="M703 0h-643l566 740h-543v30h604l-567 -740h583v-30zM361 830l-130 170h30l120 -145l120 145h30l-130 -170h-40z" />
    <glyph glyph-name="zcaron" unicode="&#x17e;" horiz-adv-x="501" 
d="M460 0h-420l360 470h-340v30h401l-360 -470h359v-30zM230 600l-130 170h30l120 -145l120 145h30l-130 -170h-40z" />
    <glyph glyph-name="florin" unicode="&#x192;" horiz-adv-x="574" 
d="M427 275h-123l-41 -337q-5 -41 -14.5 -77.5t-28 -64.5t-49 -44t-76.5 -16q-49 0 -95 32l18 25q36 -27 77 -27q40 0 65.5 15t40 39.5t21.5 56.5t11 65l40 333h-66v30h70l34 277q4 41 14 77.5t29 64.5t49.5 44t75.5 16q49 0 95 -32l-18 -25q-36 27 -77 27t-66 -15
t-39.5 -39.5t-21.5 -56.5t-11 -65l-34 -273h120v-30z" />
    <glyph glyph-name="circumflex" unicode="&#x2c6;" horiz-adv-x="500" 
d="M270 770l130 -170h-30l-120 145l-120 -145h-30l130 170h40z" />
    <glyph glyph-name="tilde" unicode="&#x2dc;" horiz-adv-x="572" 
d="M376 660q-19 0 -43.5 12.5t-49 27.5t-47.5 27.5t-40 12.5q-32 0 -48.5 -23.5t-16.5 -51.5h-30q0 21 7 40t19.5 33.5t30 23t38.5 8.5q19 0 43 -12.5t49 -27.5t48 -27.5t40 -12.5q32 0 48.5 23.5t16.5 51.5h30q0 -21 -7 -40t-19.5 -33.5t-30 -23t-38.5 -8.5z" />
    <glyph glyph-name="endash" unicode="&#x2013;" horiz-adv-x="453" 
d="M403 264h-353v30h353v-30z" />
    <glyph glyph-name="emdash" unicode="&#x2014;" horiz-adv-x="493" 
d="M443 264h-393v30h393v-30z" />
    <glyph glyph-name="quoteleft" unicode="&#x2018;" horiz-adv-x="195" 
d="M145 777q-25 -20 -46.5 -55.5t-26.5 -80.5q2 1 5 2q6 2 13 2q17 0 28.5 -11.5t11.5 -28.5t-11.5 -28.5t-28.5 -11.5t-28.5 11.5t-11.5 28.5q0 36 7.5 66.5t20 54t27.5 40.5t30 27z" />
    <glyph glyph-name="quoteright" unicode="&#x2019;" horiz-adv-x="195" 
d="M50 581q25 20 46.5 55.5t26.5 80.5q-2 -1 -5 -2q-6 -2 -13 -2q-17 0 -28.5 11.5t-11.5 28.5t11.5 28.5t28.5 11.5t28.5 -11.5t11.5 -28.5q0 -36 -7.5 -66.5t-20 -54t-27.5 -40.5t-30 -27z" />
    <glyph glyph-name="quotesinglbase" unicode="&#x201a;" horiz-adv-x="195" 
d="M50 -132q25 20 46.5 55.5t26.5 80.5l-6 -2q-6 -2 -12 -2q-17 0 -28.5 11.5t-11.5 28.5t11.5 28.5t28.5 11.5t28.5 -11.5t11.5 -28.5q0 -36 -7.5 -66.5t-20 -54t-27.5 -40.5t-30 -27z" />
    <glyph glyph-name="quotedblleft" unicode="&#x201c;" horiz-adv-x="328" 
d="M278 777q-25 -20 -46.5 -55.5t-26.5 -80.5q2 1 5 2q6 2 13 2q17 0 28.5 -11.5t11.5 -28.5t-11.5 -28.5t-28.5 -11.5t-28.5 11.5t-11.5 28.5q0 36 7.5 66.5t20 54t27.5 40.5t30 27zM145 777q-25 -20 -46.5 -55.5t-26.5 -80.5q2 1 5 2q6 2 13 2q17 0 28.5 -11.5t11.5 -28.5
t-11.5 -28.5t-28.5 -11.5t-28.5 11.5t-11.5 28.5q0 36 7.5 66.5t20 54t27.5 40.5t30 27z" />
    <glyph glyph-name="quotedblright" unicode="&#x201d;" horiz-adv-x="328" 
d="M50 581q25 20 46.5 55.5t26.5 80.5q-2 -1 -5 -2q-6 -2 -13 -2q-17 0 -28.5 11.5t-11.5 28.5t11.5 28.5t28.5 11.5t28.5 -11.5t11.5 -28.5q0 -36 -7.5 -66.5t-20 -54t-27.5 -40.5t-30 -27zM183 581q25 20 46.5 55.5t26.5 80.5q-2 -1 -5 -2q-6 -2 -13 -2q-17 0 -28.5 11.5
t-11.5 28.5t11.5 28.5t28.5 11.5t28.5 -11.5t11.5 -28.5q0 -36 -7.5 -66.5t-20 -54t-27.5 -40.5t-30 -27z" />
    <glyph glyph-name="quotedblbase" unicode="&#x201e;" horiz-adv-x="328" 
d="M50 -132q25 20 46.5 55.5t26.5 80.5q-2 -1 -5 -2q-6 -2 -13 -2q-17 0 -28.5 11.5t-11.5 28.5t11.5 28.5t28.5 11.5t28.5 -11.5t11.5 -28.5q0 -36 -7.5 -66.5t-20 -54t-27.5 -40.5t-30 -27zM183 -132q25 20 46.5 55.5t26.5 80.5q-2 -1 -5 -2q-6 -2 -13 -2
q-17 0 -28.5 11.5t-11.5 28.5t11.5 28.5t28.5 11.5t28.5 -11.5t11.5 -28.5q0 -36 -7.5 -66.5t-20 -54t-27.5 -40.5t-30 -27z" />
    <glyph glyph-name="dagger" unicode="&#x2020;" horiz-adv-x="473" 
d="M249 870v-340h144v-30h-144v-600h-30v600h-139v30h139v340h30z" />
    <glyph glyph-name="daggerdbl" unicode="&#x2021;" horiz-adv-x="473" 
d="M219 -100v340h-139v30h139v230h-139v30h139v340h30v-340h144v-30h-144v-230h144v-30h-144v-340h-30z" />
    <glyph glyph-name="bullet" unicode="&#x2022;" horiz-adv-x="312" 
d="M212 319q0 -23 -16.5 -39.5t-39.5 -16.5t-39.5 16.5t-16.5 39.5t16.5 39.5t39.5 16.5t39.5 -16.5t16.5 -39.5z" />
    <glyph glyph-name="ellipsis" unicode="&#x2026;" horiz-adv-x="540" 
d="M130 40q0 -17 -11.5 -28.5t-28.5 -11.5t-28.5 11.5t-11.5 28.5t11.5 28.5t28.5 11.5t28.5 -11.5t11.5 -28.5zM310 40q0 -17 -11.5 -28.5t-28.5 -11.5t-28.5 11.5t-11.5 28.5t11.5 28.5t28.5 11.5t28.5 -11.5t11.5 -28.5zM490 40q0 -17 -11.5 -28.5t-28.5 -11.5
t-28.5 11.5t-11.5 28.5t11.5 28.5t28.5 11.5t28.5 -11.5t11.5 -28.5z" />
    <glyph glyph-name="perthousand" unicode="&#x2030;" horiz-adv-x="1332" 
d="M275 410q-38 0 -72 14.5t-59 39.5t-39.5 59t-14.5 72t14.5 72t39.5 59t59 39.5t72 14.5t72 -14.5t59 -39.5t39.5 -59t14.5 -72t-14.5 -72t-39.5 -59t-59 -39.5t-72 -14.5zM275 750q-32 0 -60 -12.5t-49 -33.5t-33.5 -49t-12.5 -60t12.5 -60t33.5 -49t49 -33.5t60 -12.5
t60 12.5t49 33.5t33.5 49t12.5 60t-12.5 60t-33.5 49t-49 33.5t-60 12.5zM645 -10q-38 0 -72 14.5t-59 39.5t-39.5 59t-14.5 72t14.5 72t39.5 59t59 39.5t72 14.5t72 -14.5t59 -39.5t39.5 -59t14.5 -72t-14.5 -72t-39.5 -59t-59 -39.5t-72 -14.5zM645 330q-32 0 -60 -12.5
t-49 -33.5t-33.5 -49t-12.5 -60t12.5 -60t33.5 -49t49 -33.5t60 -12.5t60 12.5t49 33.5t33.5 49t12.5 60t-12.5 60t-33.5 49t-49 33.5t-60 12.5zM140 0h-39l679 770h39zM1057 -10q-38 0 -72 14.5t-59 39.5t-39.5 59t-14.5 72t14.5 72t39.5 59t59 39.5t72 14.5t72 -14.5
t59 -39.5t39.5 -59t14.5 -72t-14.5 -72t-39.5 -59t-59 -39.5t-72 -14.5zM1057 330q-32 0 -60 -12.5t-49 -33.5t-33.5 -49t-12.5 -60t12.5 -60t33.5 -49t49 -33.5t60 -12.5t60 12.5t49 33.5t33.5 49t12.5 60t-12.5 60t-33.5 49t-49 33.5t-60 12.5z" />
    <glyph glyph-name="guilsinglleft" unicode="&#x2039;" horiz-adv-x="313" 
d="M225 0l-200 250l200 250h38l-200 -250l200 -250h-38z" />
    <glyph glyph-name="guilsinglright" unicode="&#x203a;" horiz-adv-x="313" 
d="M50 0l200 250l-200 250h38l200 -250l-200 -250h-38z" />
    <glyph glyph-name="Euro" unicode="&#x20ac;" horiz-adv-x="736" 
d="M376 445h-251q-2 -15 -3 -30t-1 -30q0 -16 1 -31t3 -29h251v-30h-246q13 -59 42 -109.5t71.5 -87.5t98 -57.5t120.5 -20.5q58 0 108.5 20t98.5 55l17 -25q-51 -37 -106 -58.5t-118 -21.5q-71 0 -131.5 23.5t-107.5 64.5t-78.5 96.5t-44.5 120.5h-50v30h45q-2 14 -3 29
t-1 31q0 15 1 30t3 30h-45v30h50q13 65 45 120.5t79 96.5t107 64.5t131 23.5q59 0 110 -18t98 -49l-16 -25q-44 29 -90.5 45.5t-101.5 16.5q-65 0 -120.5 -21t-98 -57.5t-71.5 -87t-42 -109.5h246v-30z" />
    <glyph glyph-name="trademark" unicode="&#x2122;" horiz-adv-x="838" 
d="M783 369v349l-153 -184l-154 184v-349h-25v418l179 -214l178 214v-418h-25zM389 746h-167v-377h-25v377h-167v25h359v-25z" />
    </font>
</defs>
</svg>
