<?xml version="1.0" standalone="no"?>
<!DOCTYPE svg PUBLIC "-//W3C//DTD SVG 1.1//EN" "http://www.w3.org/Graphics/SVG/1.1/DTD/svg11.dtd" >
<svg xmlns="http://www.w3.org/2000/svg" xmlns:xlink="http://www.w3.org/1999/xlink" version="1.1">
<metadata>
Created by FontForge 20200314 at Sat Sep  6 14:02:07 2014
 By Unknown
Copyright (c) 2014 by M-B Creative. All rights reserved.
</metadata>
<defs>
<font id="MBEmpireMediumW01-Medium" horiz-adv-x="547" >
  <font-face 
    font-family="MBEmpireMediumW01-Medium"
    font-weight="500"
    font-stretch="normal"
    units-per-em="1000"
    panose-1="2 0 0 0 0 0 0 0 0 0"
    ascent="800"
    descent="-200"
    x-height="500"
    cap-height="770"
    bbox="-40 -265 1378 1000"
    underline-thickness="50"
    underline-position="-175"
    unicode-range="U+0020-2122"
  />
<missing-glyph horiz-adv-x="275" 
 />
    <glyph glyph-name=".notdef" horiz-adv-x="275" 
 />
    <glyph glyph-name=".null" horiz-adv-x="0" 
 />
    <glyph glyph-name="nonmarkingreturn" horiz-adv-x="333" 
 />
    <glyph glyph-name="space" unicode=" " horiz-adv-x="275" 
 />
    <glyph glyph-name="exclam" unicode="!" horiz-adv-x="316" 
d="M198 200h-80v293v277h94v-278zM226 67q0 -29 -20 -48t-49 -19t-48 19t-19 48t19 49t48 20t49 -20t20 -49z" />
    <glyph glyph-name="quotedbl" unicode="&#x22;" horiz-adv-x="293" 
d="M72 500l-22 159v134h70v-134l-22 -159h-26zM195 500l-22 159v134h70v-134l-22 -159h-26z" />
    <glyph glyph-name="numbersign" unicode="#" horiz-adv-x="747" 
d="M682 216h-118v-216h-92v216h-196v-216h-92v216h-119v84h119v171h-119v84h119v215h92v-215h196v215h92v-215h118v-84h-118v-171h118v-84zM276 300h196v171h-196v-171z" />
    <glyph glyph-name="dollar" unicode="$" horiz-adv-x="641" 
d="M365 870v-92q47 -6 89.5 -26t96.5 -59l-57 -77q-39 28 -69.5 42t-59.5 19v-236q38 -15 74 -34.5t64.5 -47.5t45.5 -65.5t17 -88.5q0 -54 -15.5 -92t-42.5 -63.5t-64 -39t-79 -17.5v-93h-80v91q-26 2 -50.5 7t-49.5 15t-52 25.5t-58 38.5l57 78q47 -33 82.5 -47t70.5 -17
v260q-36 13 -71 31t-62.5 44t-45 61.5t-17.5 83.5q0 54 17 92t45 63t63 37.5t71 15.5v91h80zM453 205q0 42 -25.5 69t-62.5 45v-225q88 19 88 111zM202 571q0 -33 25 -57t58 -41v205q-34 -7 -58.5 -32t-24.5 -75z" />
    <glyph glyph-name="percent" unicode="%" horiz-adv-x="1020" 
d="M289 380q-41 0 -77 16t-63 43t-43 63t-16 77t16 77.5t43 64t63 43.5t77 16t77.5 -16t64 -43.5t43.5 -64t16 -77.5t-16 -77t-43.5 -63t-64 -43t-77.5 -16zM289 680q-20 0 -37.5 -8t-31 -22t-21.5 -32.5t-8 -39.5q0 -20 8 -37.5t21.5 -31t31 -21.5t37.5 -8t38.5 8t32 21.5
t21.5 31t8 37.5q0 21 -8 39.5t-21.5 32.5t-32 22t-38.5 8zM244 0h-131l657 770h132zM730 -10q-41 0 -77.5 16t-63.5 43t-42.5 63.5t-15.5 77.5t15.5 77.5t42.5 63.5t63.5 43t77.5 16t77.5 -16t63.5 -43t43 -63.5t16 -77.5t-16 -77.5t-43 -63.5t-63.5 -43t-77.5 -16zM730 290
q-20 0 -38 -8t-31.5 -22t-21 -32t-7.5 -39q0 -20 7.5 -38t21 -31.5t31.5 -21.5t38 -8t38 8t31.5 21.5t21.5 31.5t8 38q0 21 -8 39t-21.5 32t-31.5 22t-38 8z" />
    <glyph glyph-name="ampersand" unicode="&#x26;" horiz-adv-x="860" 
d="M635 0l-92 96q-51 -45 -110.5 -75.5t-123.5 -30.5q-48 0 -90.5 15t-74.5 43t-50.5 68t-18.5 90q0 40 12.5 71t34 56t49.5 44t58 35q-40 43 -58.5 78.5t-18.5 81.5q0 40 16.5 78t44.5 66.5t65.5 46t79.5 17.5q43 0 80.5 -16t65 -44t43 -64.5t15.5 -78.5q0 -38 -12 -67
t-33 -52t-49 -41t-60 -34l129 -130q13 17 20 45t7 57h110q0 -57 -18 -98t-43 -79l172 -178h-150zM185 206q0 -27 11 -48.5t28.5 -36.5t39.5 -23t45 -8q40 0 83 22t80 57l-166 167q-51 -23 -86 -53.5t-35 -76.5zM454 577q0 47 -26.5 75t-69.5 28q-42 0 -70 -30t-28 -78
q0 -29 22 -58.5t50 -53.5q23 11 45 23t39 26.5t27.5 31t10.5 36.5z" />
    <glyph glyph-name="quotesingle" unicode="'" horiz-adv-x="170" 
d="M72 500l-22 159v134h70v-134l-22 -159h-26z" />
    <glyph glyph-name="parenleft" unicode="(" horiz-adv-x="345" 
d="M227 -104q-36 55 -63.5 116.5t-46 124.5t-28 126.5t-9.5 122.5q0 60 9.5 123.5t28 127t46 125t63.5 117.5l78 -58q-27 -40 -48.5 -90.5t-36.5 -107.5t-22.5 -117.5t-7.5 -119.5t7.5 -119t22.5 -116.5t36 -107t48 -90.5z" />
    <glyph glyph-name="parenright" unicode=")" horiz-adv-x="345" 
d="M41 -47q27 40 48 90.5t36 107t22.5 116.5t7.5 119t-7.5 119.5t-22.5 117.5t-36.5 107.5t-48.5 90.5l78 58q36 -56 63.5 -117.5t46 -125t28 -127t9.5 -123.5q0 -59 -9.5 -122.5t-28 -126.5t-46 -124.5t-63.5 -116.5z" />
    <glyph glyph-name="asterisk" unicode="*" horiz-adv-x="438" 
d="M388 651v-57h-83l-52 14l45 -25l62 -57l-43 -43l-57 62l-25 45l11 -52v-83h-57v83l14 53l-25 -46l-57 -62l-43 43l62 57l45 25l-52 -11h-83v57h83l51 -14l-44 25l-62 57l43 43l57 -62l25 -44l-11 51v83h57v-83l-14 -52l25 45l57 62l43 -43l-62 -57l-46 -25l53 11h83z" />
    <glyph glyph-name="plus" unicode="+" horiz-adv-x="660" 
d="M590 345h-220v-220h-80v220h-220v80h220v220h80v-220h220v-80z" />
    <glyph glyph-name="comma" unicode="," horiz-adv-x="221" 
d="M51 -115q24 19 44 48.5t26 67.5q-3 -1 -5.5 -1h-4.5q-26 0 -43.5 17.5t-17.5 43.5q0 24 17.5 42t43.5 18q25 0 42.5 -18t17.5 -42q0 -41 -8.5 -73.5t-22 -58t-31.5 -44.5t-37 -33z" />
    <glyph glyph-name="hyphen" unicode="-" horiz-adv-x="433" 
d="M383 237h-333v80h333v-80z" />
    <glyph glyph-name="period" unicode="." horiz-adv-x="220" 
d="M170 60q0 -25 -17 -42.5t-43 -17.5q-25 0 -42.5 17.5t-17.5 42.5q0 26 17.5 43.5t42.5 17.5q26 0 43 -17.5t17 -43.5z" />
    <glyph glyph-name="slash" unicode="/" horiz-adv-x="414" 
d="M111 0h-91l283 770h91z" />
    <glyph glyph-name="zero" unicode="0" horiz-adv-x="728" 
d="M363 -10q-72 0 -127 32.5t-91.5 87.5t-55.5 126.5t-19 149.5q0 70 17 141t52.5 128t91 92.5t132.5 35.5q78 0 133.5 -35.5t91.5 -92.5t53 -128t17 -141q0 -78 -19.5 -149.5t-57 -126.5t-92.5 -87.5t-126 -32.5zM363 683q-48 0 -82 -26.5t-56 -69t-32.5 -95.5t-10.5 -106
t10.5 -106t32.5 -95t56.5 -68.5t81.5 -26.5q46 0 80.5 26.5t57.5 68.5t34 95t11 106t-10.5 106t-33 95.5t-57 69t-82.5 26.5z" />
    <glyph glyph-name="one" unicode="1" horiz-adv-x="272" 
d="M192 770v-770h-112v770h112z" />
    <glyph glyph-name="two" unicode="2" horiz-adv-x="662" 
d="M592 0h-522l359 461q18 23 24.5 50t6.5 50q0 30 -10 52.5t-26.5 38.5t-36.5 24t-39 8q-42 0 -85.5 -14.5t-98.5 -53.5l-56 79q66 50 122 69.5t118 19.5q38 0 77.5 -12.5t72 -39.5t53.5 -69.5t21 -101.5q0 -42 -19.5 -86.5t-46.5 -79.5q-16 -20 -34 -43.5t-37.5 -48
t-39 -49.5t-37.5 -47q-42 -53 -85 -107h319v-100z" />
    <glyph glyph-name="three" unicode="3" horiz-adv-x="651" 
d="M314 -10q-59 0 -116 22.5t-128 73.5l63 78q55 -39 97 -56.5t84 -17.5q26 0 51.5 10.5t45.5 30t32 48t12 64.5q0 44 -17.5 73t-43 46.5t-54.5 25t-52 7.5h-97l197 275h-256v100h449l-215 -293q41 -8 77.5 -27.5t64 -49.5t43.5 -69.5t16 -87.5q0 -57 -19 -104t-53 -80
t-80 -51t-101 -18z" />
    <glyph glyph-name="four" unicode="4" horiz-adv-x="667" 
d="M508 0h-112v244h-366l478 549v-449h109v-100h-109v-244zM237 344h159v183z" />
    <glyph glyph-name="five" unicode="5" horiz-adv-x="613" 
d="M293 -10q-32 0 -57.5 4t-51 13t-53 24.5t-61.5 39.5l60 79q26 -18 46 -29.5t38.5 -18.5t37 -9.5t40.5 -2.5q34 0 60 14.5t43.5 38t26.5 53t9 59.5q0 40 -15.5 69t-41.5 47.5t-59.5 27.5t-69.5 9q-21 0 -58 -4t-81 -14l66 380h322v-100h-242l-27 -163l20 1q63 0 117 -15
t94.5 -45.5t63.5 -78.5t23 -114q0 -51 -15.5 -99t-47 -85t-78.5 -59t-109 -22z" />
    <glyph glyph-name="six" unicode="6" horiz-adv-x="605" 
d="M308 -10q-51 0 -96.5 20t-79 53.5t-53 78.5t-19.5 96q0 74 25 142.5t62.5 128t82 108.5t83.5 84t67 55t33 22l53 -78q-44 -32 -77.5 -60t-61 -55t-49.5 -55t-42 -61q17 6 36.5 8.5t35.5 2.5q51 0 96 -19t78.5 -51.5t53 -76.5t19.5 -95t-19.5 -96t-53 -78.5t-78.5 -53.5
t-96 -20zM308 380q-28 0 -52.5 -11t-43 -30.5t-29.5 -45t-11 -55.5q0 -29 10 -55.5t28 -47t43 -33t55 -12.5q31 0 56 12.5t43 33t28 47t10 55.5t-10.5 54.5t-29.5 45t-44 31t-53 11.5z" />
    <glyph glyph-name="seven" unicode="7" horiz-adv-x="600" 
d="M202 0h-112l317 670h-377v100h540z" />
    <glyph glyph-name="eight" unicode="8" horiz-adv-x="620" 
d="M310 -10q-50 0 -93.5 19t-76 51.5t-51.5 76t-19 92.5q0 27 9.5 54.5t26 53t37 46.5t43.5 35q-15 9 -31 24.5t-28.5 35t-21 43t-8.5 50.5q0 43 17 82t46 67.5t67.5 45.5t82.5 17q43 0 82 -17t68 -45.5t46 -67.5t17 -82q0 -27 -8 -51t-21 -43.5t-29 -34.5t-32 -24
q24 -14 45 -34.5t37 -45t25.5 -53t9.5 -56.5q0 -49 -19 -92.5t-51.5 -76t-76.5 -51.5t-93 -19zM310 363q-29 0 -52.5 -11.5t-40.5 -30.5t-26.5 -43.5t-9.5 -51.5t9 -51.5t26 -43t41 -30t53 -11.5t53 11.5t41 30t26.5 43t9.5 51.5t-9.5 51.5t-27 43.5t-41.5 30.5t-52 11.5z
M310 683q-24 0 -43 -9t-32 -24t-20 -35t-7 -41t7 -41t20.5 -35t32.5 -24.5t42 -9.5q22 0 41 9.5t33 24.5t21.5 35t7.5 41t-7.5 41t-21 35t-32.5 24t-42 9z" />
    <glyph glyph-name="nine" unicode="9" horiz-adv-x="605" 
d="M297 784q51 0 96.5 -20t79 -53.5t53 -78.5t19.5 -96q0 -74 -25 -142.5t-63 -128.5t-82.5 -109t-84 -85t-67.5 -56.5t-33 -22.5l-53 78q43 32 77.5 60.5t62 56.5t50 56.5t42.5 61.5q-17 -6 -36.5 -8.5t-35.5 -2.5q-51 0 -96 19t-78.5 51.5t-53 76.5t-19.5 95t19.5 96
t53 78.5t78.5 53.5t96 20zM297 394q28 0 52.5 11t43 30.5t29.5 45t11 55.5q0 29 -10 55.5t-28 47t-43 33t-55 12.5q-31 0 -56 -12.5t-43 -33t-28 -47t-10 -55.5t10.5 -54.5t29.5 -45t43.5 -31t53.5 -11.5z" />
    <glyph glyph-name="colon" unicode=":" horiz-adv-x="220" 
d="M170 439q0 -25 -17 -42.5t-43 -17.5q-25 0 -42.5 17.5t-17.5 42.5q0 26 17.5 43.5t42.5 17.5q26 0 43 -17.5t17 -43.5zM170 60q0 -25 -17 -42.5t-43 -17.5q-25 0 -42.5 17.5t-17.5 42.5q0 26 17.5 43.5t42.5 17.5q26 0 43 -17.5t17 -43.5z" />
    <glyph glyph-name="semicolon" unicode=";" horiz-adv-x="221" 
d="M51 -115q24 19 44 48.5t26 67.5q-3 -1 -5.5 -1h-4.5q-26 0 -43.5 17.5t-17.5 43.5q0 24 17.5 42t43.5 18q25 0 42.5 -18t17.5 -42q0 -41 -8.5 -73.5t-22 -58t-31.5 -44.5t-37 -33zM170 439q0 -25 -17 -42.5t-43 -17.5q-25 0 -42.5 17.5t-17.5 42.5q0 26 17.5 43.5
t42.5 17.5q26 0 43 -17.5t17 -43.5z" />
    <glyph glyph-name="less" unicode="&#x3c;" horiz-adv-x="665" 
d="M558 141l-508 233l508 254l36 -75l-370 -177l371 -160z" />
    <glyph glyph-name="equal" unicode="=" horiz-adv-x="660" 
d="M590 475h-520v80h520v-80zM590 215h-520v80h520v-80z" />
    <glyph glyph-name="greater" unicode="&#x3e;" horiz-adv-x="665" 
d="M70 216l371 160l-370 177l36 75l508 -254l-508 -233z" />
    <glyph glyph-name="question" unicode="?" horiz-adv-x="624" 
d="M224 200q1 49 7.5 83.5t20 59.5t34.5 45t51 41q38 26 63 55.5t25 77.5q0 30 -11 51.5t-27.5 35t-36.5 20t-39 6.5q-20 0 -38 -1.5t-37 -7t-41 -16.5t-49 -31l-56 77q33 23 60.5 38t53 24t51.5 13t56 4q36 0 75 -10.5t72 -35.5t54.5 -65.5t21.5 -101.5q0 -43 -10 -74.5
t-28 -56t-44 -45.5t-58 -43q-14 -9 -25 -18.5t-19 -24.5t-12.5 -38.5t-4.5 -61.5h-109zM347 67q0 -29 -20 -48t-48 -19q-30 0 -49 19t-19 48t19 49t49 20q28 0 48 -20t20 -49z" />
    <glyph glyph-name="at" unicode="@" horiz-adv-x="1106" 
d="M829 88q34 0 58 20.5t39.5 52t22.5 69.5t7 73q0 76 -31.5 148.5t-86.5 129.5t-128 92t-156 35t-156.5 -34.5t-128.5 -91.5t-87 -129.5t-32 -147.5q0 -76 31.5 -150.5t86 -134t128 -96t157.5 -36.5q60 0 121 17t127 62l42 -57q-40 -27 -75.5 -46t-70 -30t-70 -16t-74.5 -5
q-101 0 -189.5 40.5t-153.5 109t-102.5 157.5t-37.5 185q0 97 39 184t105 152.5t154 103.5t186 38q99 0 186.5 -38.5t153.5 -104.5t104 -153t38 -184q0 -51 -12.5 -103.5t-39 -94.5t-67.5 -69t-99 -27q-26 0 -50.5 10t-44.5 25.5t-34 34.5t-19 38q-9 -14 -24 -28t-35 -26
t-44 -19.5t-52 -7.5q-36 0 -69.5 11t-58.5 32t-40 51t-15 69q0 89 57.5 125.5t173.5 36.5q23 0 44.5 -2t41.5 -4v49q0 15 -8 30t-21.5 27.5t-31.5 20t-38 7.5q-38 0 -73 -15t-71 -48l-57 53q96 97 201 97q39 0 75.5 -11.5t64.5 -33.5t45 -54t17 -73v-207q0 -20 6 -39.5
t16.5 -35t24.5 -25t30 -9.5zM436 200q0 -28 24.5 -47t54.5 -19q31 0 55.5 8.5t41.5 21t26.5 28t10.5 30.5v50q-24 3 -47 4.5t-43 1.5q-24 0 -46 -3.5t-39 -12t-27.5 -23.5t-10.5 -39z" />
    <glyph glyph-name="A" unicode="A" horiz-adv-x="794" 
d="M151 0h-121l368 793l366 -793h-121l-89 201h-314zM281 301h232l-115 253z" />
    <glyph glyph-name="B" unicode="B" horiz-adv-x="671" 
d="M90 0v770h206q52 0 95.5 -14t75 -41t49 -67t17.5 -92q0 -22 -7.5 -44t-19.5 -42t-28 -36t-33 -25q30 -9 57 -27t48 -42.5t33.5 -54t12.5 -61.5q0 -56 -19 -97.5t-53 -70t-80.5 -42.5t-101.5 -14h-252zM204 100h138q61 0 100 30.5t39 93.5q0 26 -11 48t-30.5 38t-45.5 25
t-55 9h-135v-244zM204 444h68q31 0 58 7t46.5 21t31 35t11.5 49q0 49 -29 81.5t-92 32.5h-94v-226z" />
    <glyph glyph-name="C" unicode="C" horiz-adv-x="816" 
d="M473 -10q-82 0 -154.5 31.5t-126.5 85.5t-85.5 125.5t-31.5 152.5t31.5 153t86 125.5t127 85t153.5 31.5q63 0 128.5 -20.5t128.5 -62.5l-54 -82q-51 34 -103 49.5t-100 15.5q-60 0 -111 -24.5t-89 -65t-59.5 -94t-21.5 -111.5t21.5 -111.5t59.5 -94t89 -65t111 -24.5
q50 0 107.5 19.5t111.5 58.5l54 -80q-63 -48 -134.5 -73t-138.5 -25z" />
    <glyph glyph-name="D" unicode="D" horiz-adv-x="798" 
d="M90 0v770h242q85 0 157 -30t124 -82t81 -122t29 -150q0 -81 -29 -151t-81 -122.5t-124 -82.5t-157 -30h-242zM332 100q60 0 110 22.5t86.5 61.5t57 91t20.5 111q0 58 -20.5 110t-57 90.5t-86.5 61t-110 22.5h-128v-570h128z" />
    <glyph glyph-name="E" unicode="E" horiz-adv-x="630" 
d="M505 335h-301v-235h351v-100h-465v770h455v-100h-341v-235h301v-100z" />
    <glyph glyph-name="F" unicode="F" horiz-adv-x="612" 
d="M497 335h-293v-335h-114v770h447v-100h-333v-235h293v-100z" />
    <glyph glyph-name="G" unicode="G" horiz-adv-x="824" 
d="M473 -10q-88 0 -161 31t-125.5 84.5t-82 125.5t-29.5 153q0 85 30 157.5t83 125.5t126 83t159 30q57 0 125.5 -19t132.5 -62l-53 -82q-51 34 -106 48.5t-99 14.5q-62 0 -114 -23t-89 -63t-57.5 -94t-20.5 -116q0 -60 21 -113.5t58.5 -93.5t89 -63.5t112.5 -23.5
q39 0 83.5 13t82.5 35v145h-144v100h254v-296q-60 -43 -130.5 -70t-145.5 -27z" />
    <glyph glyph-name="H" unicode="H" horiz-adv-x="731" 
d="M641 0h-114v335h-323v-335h-114v770h114v-335h323v335h114v-770z" />
    <glyph glyph-name="I" unicode="I" horiz-adv-x="294" 
d="M204 770v-770h-114v770h114z" />
    <glyph glyph-name="J" unicode="J" horiz-adv-x="270" 
d="M-30 -153q33 8 52.5 20t29 26t12 29t2.5 30v22v796h114v-800q0 -45 -8.5 -80t-29.5 -62t-57 -47t-91 -35z" />
    <glyph glyph-name="K" unicode="K" horiz-adv-x="737" 
d="M557 0l-353 332v-332h-114v770h114v-348l330 348h143l-374 -387l404 -383h-150z" />
    <glyph glyph-name="L" unicode="L" horiz-adv-x="585" 
d="M90 0v770h114v-670h351v-100h-465z" />
    <glyph glyph-name="M" unicode="M" horiz-adv-x="865" 
d="M661 517l-228 -236l-229 236v-517h-114v793l344 -356l341 356v-793h-114v517z" />
    <glyph glyph-name="N" unicode="N" horiz-adv-x="829" 
d="M204 510v-510h-114v793l535 -542v519h114v-801z" />
    <glyph glyph-name="O" unicode="O" horiz-adv-x="930" 
d="M466 -10q-81 0 -153 31t-126 85t-85.5 126t-31.5 154q0 81 31 152.5t85 125.5t126 85t154 31t154 -31.5t125 -85.5t84 -125.5t31 -151.5q0 -82 -31 -154t-85 -126t-125.5 -85t-152.5 -31zM466 680q-60 0 -111 -24t-88.5 -64.5t-58.5 -94t-21 -111.5q0 -59 21 -112.5
t58.5 -94t88.5 -65t111 -24.5q59 0 110 24.5t88 65t58 94t21 112.5q0 58 -21 111.5t-58 94t-88 64.5t-110 24z" />
    <glyph glyph-name="P" unicode="P" horiz-adv-x="665" 
d="M90 0v770h246q54 0 101.5 -15t82.5 -44t55 -72t20 -98q0 -52 -20.5 -93t-55 -69t-80.5 -43t-96 -15h-139v-321h-114zM340 421q27 0 52.5 8.5t45 24.5t31 38t11.5 49q0 31 -12.5 55.5t-33 40.5t-47.5 24.5t-56 8.5h-127v-249h136z" />
    <glyph glyph-name="Q" unicode="Q" horiz-adv-x="930" 
d="M466 -10q-81 0 -153 31t-126 85t-85.5 126t-31.5 154q0 81 31 152.5t85 125.5t126 85t154 31t154 -31.5t125 -85.5t84 -125.5t31 -151.5q0 -91 -38 -169.5t-102 -132.5h130v-84h-297q-21 -5 -42.5 -7.5t-44.5 -2.5zM466 680q-60 0 -111 -24t-88.5 -64.5t-58.5 -94
t-21 -111.5q0 -59 21 -112.5t58.5 -94t88.5 -65t111 -24.5q59 0 110 24.5t88 65t58 94t21 112.5q0 58 -21 111.5t-58 94t-88 64.5t-110 24z" />
    <glyph glyph-name="R" unicode="R" horiz-adv-x="701" 
d="M204 0h-114v770h242q53 0 101 -15t84 -44t57.5 -72t21.5 -100q0 -41 -13.5 -74t-37 -58.5t-54.5 -44t-66 -28.5l226 -334h-130l-213 321h-104v-321zM204 421h130q28 0 55 8.5t47.5 23.5t33 37t12.5 49q0 31 -12.5 55.5t-33.5 41.5t-48 25.5t-56 8.5h-128v-249z" />
    <glyph glyph-name="S" unicode="S" horiz-adv-x="641" 
d="M317 -10q-32 0 -60 4t-56.5 13.5t-59 26.5t-66.5 43l57 78q28 -20 52.5 -33t46.5 -20t43 -9.5t43 -2.5q71 0 103.5 29.5t32.5 85.5q0 45 -27 71.5t-67.5 46t-87.5 36.5t-87.5 42.5t-67.5 65t-27 104.5q0 60 21 100.5t53.5 65t72.5 34.5t79 10q33 0 61 -4.5t56 -15t57 -27
t62 -41.5l-57 -77q-28 20 -51.5 33t-45 20t-41.5 9.5t-41 2.5t-41.5 -6t-36 -19t-25.5 -34t-10 -51q0 -23 13 -41.5t33 -33t44 -26t46 -19.5q41 -15 82 -34.5t73.5 -48t52.5 -68.5t20 -95q0 -61 -20 -102t-53.5 -66t-79 -36t-96.5 -11z" />
    <glyph glyph-name="T" unicode="T" horiz-adv-x="739" 
d="M689 670h-263v-670h-114v670h-262v100h639v-100z" />
    <glyph glyph-name="U" unicode="U" horiz-adv-x="812" 
d="M406 -10q-62 0 -119 25t-100.5 67t-69.5 98t-26 119v10v461h114v-461q0 -43 15.5 -82.5t42.5 -70t63.5 -48.5t79.5 -18t79.5 18t63.5 48.5t42.5 70t15.5 82.5v461h114v-459q0 -64 -25 -122t-68 -102.5t-100.5 -70.5t-121.5 -26z" />
    <glyph glyph-name="V" unicode="V" horiz-adv-x="791" 
d="M30 770h122l243 -544l243 544h123l-366 -801z" />
    <glyph glyph-name="W" unicode="W" horiz-adv-x="1208" 
d="M604 502l-254 -533l-320 801h119l210 -519l245 507l244 -506l211 518h119l-319 -801z" />
    <glyph glyph-name="X" unicode="X" horiz-adv-x="767" 
d="M164 0h-134l294 395l-280 375h131l208 -287l208 287h132l-277 -375l291 -395h-134l-220 304z" />
    <glyph glyph-name="Y" unicode="Y" horiz-adv-x="758" 
d="M437 0h-114v332l-293 438h128l222 -335l221 335h127l-291 -438v-332z" />
    <glyph glyph-name="Z" unicode="Z" horiz-adv-x="791" 
d="M60 0l470 670h-436v100h637l-471 -670h470v-100h-670z" />
    <glyph glyph-name="bracketleft" unicode="[" horiz-adv-x="356" 
d="M80 -113v1007h236v-88h-133v-830h133v-89h-236z" />
    <glyph glyph-name="backslash" unicode="\" horiz-adv-x="414" 
d="M20 770h91l283 -770h-91z" />
    <glyph glyph-name="bracketright" unicode="]" horiz-adv-x="356" 
d="M40 -113v89h133v830h-133v88h236v-1007h-236z" />
    <glyph glyph-name="asciicircum" unicode="^" horiz-adv-x="568" 
d="M285 635l-75 -135h-135l210 293l208 -293h-136z" />
    <glyph glyph-name="underscore" unicode="_" horiz-adv-x="636" 
d="M586 -109h-536v80h536v-80z" />
    <glyph glyph-name="grave" unicode="`" horiz-adv-x="439" 
d="M199 770l140 -170h-78l-161 170h99z" />
    <glyph glyph-name="a" unicode="a" 
d="M472 0h-106v48q-8 -10 -21.5 -21t-31 -20.5t-39.5 -15.5t-48 -6q-35 0 -65 11t-52.5 32t-35.5 50.5t-13 65.5q0 46 18 76t49 48t72 25t88 7q21 0 41.5 -1.5t37.5 -3.5v39q0 21 -8.5 37.5t-21 27.5t-28.5 17t-31 6t-30.5 -1t-32 -6t-33.5 -15t-35 -27l-63 63q48 46 94 63
t100 17q40 0 75.5 -13t62 -36.5t42 -57t15.5 -75.5v-334zM243 81q30 0 52.5 8t38.5 20.5t24 27.5t8 29v45q-20 2 -40 3.5t-39 1.5q-23 0 -44.5 -3t-38.5 -11t-27.5 -22t-10.5 -36q0 -13 7 -24.5t18 -20t24.5 -13.5t27.5 -5z" />
    <glyph glyph-name="b" unicode="b" horiz-adv-x="594" 
d="M181 0h-106v770h106v-300q16 15 45 30.5t79 15.5q48 0 91 -21.5t74.5 -58t50 -85t18.5 -101.5t-18.5 -101t-50 -84.5t-74.5 -58t-91 -21.5q-50 0 -78.5 14.5t-45.5 30.5v-30zM282 79q31 0 58 14t47 38t31.5 55t11.5 64q0 34 -11.5 65t-31.5 55t-47 38t-58 14
q-28 0 -54 -14.5t-47 -32.5v-247q22 -20 48 -34.5t53 -14.5z" />
    <glyph glyph-name="c" unicode="c" 
d="M312 -15q-57 0 -104 21.5t-81 58.5t-53 85t-19 101q0 54 20 102t55 84t81.5 57.5t100.5 21.5q41 0 84 -12t90 -41l-47 -79q-35 23 -64 30.5t-63 7.5q-32 0 -59.5 -14t-47 -37.5t-30.5 -54.5t-11 -65q0 -33 11 -64t31 -55t47 -38.5t59 -14.5q29 0 62 8.5t71 36.5l52 -73
q-52 -37 -98.5 -51.5t-86.5 -14.5z" />
    <glyph glyph-name="d" unicode="d" horiz-adv-x="594" 
d="M413 30q-17 -16 -45.5 -30.5t-78.5 -14.5q-48 0 -91 21.5t-74.5 58t-50 84.5t-18.5 101t18.5 101.5t50 85t74.5 58t91 21.5q25 0 44.5 -4.5t34.5 -11t26 -15t19 -15.5v300h106v-770h-106v30zM312 79q27 0 53 14.5t48 34.5v247q-21 18 -47 32.5t-54 14.5q-31 0 -58 -14
t-47 -38t-31.5 -55t-11.5 -65q0 -33 11.5 -64t31.5 -55t47 -38t58 -14z" />
    <glyph glyph-name="e" unicode="e" horiz-adv-x="603" 
d="M317 -15q-54 0 -101.5 21.5t-83 58t-56.5 84.5t-21 101q0 54 18.5 102t52.5 84.5t80.5 58t102.5 21.5q48 0 91.5 -17t77.5 -49t54 -79.5t20 -108.5v-14h-388q2 -30 14.5 -60t34 -54.5t50 -39.5t63.5 -15q29 0 67.5 7t85.5 39l52 -75q-52 -40 -104.5 -52.5t-109.5 -12.5z
M442 329q-11 41 -44.5 67t-88.5 26q-54 0 -88 -24.5t-48 -68.5h269z" />
    <glyph glyph-name="f" unicode="f" horiz-adv-x="353" 
d="M341 662q-30 20 -48.5 24.5t-29.5 4.5q-19 0 -29.5 -8.5t-15.5 -22t-6 -30.5t-1 -34v-96h103v-81h-103v-419h-106v419h-65v81h65v73q0 41 3 79.5t18 68t45.5 47t85.5 17.5q30 0 65.5 -16.5t65.5 -39.5z" />
    <glyph glyph-name="g" unicode="g" horiz-adv-x="566" 
d="M283 -265q-42 0 -84.5 9.5t-76.5 29.5t-55.5 50.5t-21.5 72.5q0 21 8 39.5t20.5 33.5t28 26t30.5 17q-12 6 -28 22.5t-16 47.5q0 16 6.5 29t16.5 23t21.5 17t20.5 10q-12 7 -26 22t-25.5 35t-19.5 45t-8 52q0 41 16 77.5t43 63.5t63.5 43t78.5 16q18 0 41 -5.5t43 -15.5
h140v-80h-51q9 -15 17.5 -42t8.5 -57q0 -42 -16 -77t-43 -60.5t-63.5 -40t-76.5 -14.5q-51 0 -74 -13t-23 -27q0 -10 8 -15.5t21 -8.5t29.5 -4t33.5 -1q122 0 186.5 -36t64.5 -122q0 -45 -22 -76t-56.5 -50t-77 -27.5t-82.5 -8.5zM275 422q-23 0 -40.5 -9.5t-29.5 -24.5
t-18.5 -34t-6.5 -38q0 -40 25 -69t70 -29q43 0 68 29t25 69q0 19 -6 38t-18 34t-29.5 24.5t-39.5 9.5zM271 -39q-21 0 -42 -2.5t-37.5 -9.5t-27 -19.5t-10.5 -32.5q0 -15 9.5 -27.5t27 -21.5t41 -14t51.5 -5q25 0 48 4.5t41 13t29 21t11 29.5q0 19 -11.5 31t-30.5 19.5
t-45 10.5t-54 3z" />
    <glyph glyph-name="h" unicode="h" horiz-adv-x="565" 
d="M490 0h-106v325q0 18 -6.5 35t-17.5 31t-26.5 22.5t-33.5 8.5q-31 0 -53.5 -14.5t-37 -37.5t-21.5 -50.5t-7 -54.5v-265h-106v770h106v-332q8 13 21.5 26.5t31.5 25t40.5 19t48.5 7.5q39 0 70 -15.5t52.5 -42t33 -61t11.5 -72.5v-325z" />
    <glyph glyph-name="i" unicode="i" horiz-adv-x="253" 
d="M67 0v500h106v-500h-106zM180 700q0 -26 -17 -43t-44 -17q-26 0 -42.5 17t-16.5 43q0 27 16.5 43.5t42.5 16.5q27 0 44 -16.5t17 -43.5z" />
    <glyph glyph-name="j" unicode="j" horiz-adv-x="285" 
d="M0 -176q36 9 56 22.5t29.5 29.5t11.5 33t2 32v559h106v-552q0 -39 -9.5 -73t-31 -61.5t-56.5 -47.5t-85 -31zM212 700q0 -26 -17 -43t-44 -17q-26 0 -42.5 17t-16.5 43q0 27 16.5 43.5t42.5 16.5q27 0 44 -16.5t17 -43.5z" />
    <glyph glyph-name="k" unicode="k" horiz-adv-x="598" 
d="M443 0l-262 227v-227h-106v770h106v-478l220 208h133l-257 -236l301 -264h-135z" />
    <glyph glyph-name="l" unicode="l" horiz-adv-x="256" 
d="M181 770v-770h-106v770h106z" />
    <glyph glyph-name="m" unicode="m" horiz-adv-x="862" 
d="M787 0h-106v325q0 18 -6.5 35t-18.5 31t-29.5 22.5t-38.5 8.5q-25 0 -44.5 -9.5t-33 -26t-20.5 -38t-7 -45.5v-303h-106v325q0 18 -4.5 35t-14 31t-24 22.5t-34.5 8.5q-31 0 -53.5 -14.5t-37 -37.5t-21.5 -50.5t-7 -54.5v-265h-106v500h106v-62q8 13 21.5 26.5t31.5 25
t40.5 19t48.5 7.5q45 0 77.5 -20.5t52.5 -53.5q9 12 24 25.5t35 24t45 17.5t54 7q39 0 71.5 -15.5t55.5 -42t36 -61t13 -72.5v-325z" />
    <glyph glyph-name="n" unicode="n" horiz-adv-x="565" 
d="M490 0h-106v325q0 18 -6.5 35t-17.5 31t-26.5 22.5t-33.5 8.5q-31 0 -53.5 -14.5t-37 -37.5t-21.5 -50.5t-7 -54.5v-265h-106v500h106v-62q8 13 21.5 26.5t31.5 25t40.5 19t48.5 7.5q39 0 70 -15.5t52.5 -42t33 -61t11.5 -72.5v-325z" />
    <glyph glyph-name="o" unicode="o" horiz-adv-x="640" 
d="M320 -15q-57 0 -105.5 21.5t-84 58t-55.5 85t-20 101.5t21 101t57 84.5t84.5 58t102.5 21.5q55 0 103.5 -21.5t84.5 -58t56.5 -84.5t20.5 -101t-20 -101.5t-55 -85t-83.5 -58t-106.5 -21.5zM320 422q-34 0 -63 -14.5t-50 -38.5t-32.5 -54.5t-11.5 -63.5t11.5 -64
t32.5 -55t50 -38.5t63 -14.5t63 14.5t50 38.5t32.5 55t11.5 64t-11.5 63.5t-32.5 54.5t-50 38.5t-63 14.5z" />
    <glyph glyph-name="p" unicode="p" horiz-adv-x="594" 
d="M181 -250h-106v750h106v-30q16 15 45 30.5t79 15.5q48 0 91 -21.5t74.5 -58t50 -85t18.5 -101.5t-18.5 -101t-50 -84.5t-74.5 -58t-91 -21.5q-50 0 -78.5 14.5t-45.5 30.5v-280zM282 79q31 0 58 14t47 38t31.5 55t11.5 64q0 34 -11.5 65t-31.5 55t-47 38t-58 14
q-28 0 -54 -14.5t-47 -32.5v-247q22 -20 48 -34.5t53 -14.5z" />
    <glyph glyph-name="q" unicode="q" horiz-adv-x="594" 
d="M413 30q-17 -16 -45.5 -30.5t-78.5 -14.5q-48 0 -91 21.5t-74.5 58t-50 84.5t-18.5 101t18.5 101.5t50 85t74.5 58t91 21.5q25 0 44.5 -4.5t34.5 -11t26 -15t19 -15.5v30h106v-750h-106v280zM312 79q27 0 53 14.5t48 34.5v247q-21 18 -47 32.5t-54 14.5q-31 0 -58 -14
t-47 -38t-31.5 -55t-11.5 -65q0 -33 11.5 -64t31.5 -55t47 -38t58 -14z" />
    <glyph glyph-name="r" unicode="r" horiz-adv-x="434" 
d="M353 394q-29 21 -46 24.5t-28 3.5q-26 0 -44.5 -16t-30.5 -39.5t-17.5 -51t-5.5 -50.5v-265h-106v500h106v-56q6 10 17.5 22.5t27.5 23.5t35.5 18.5t41.5 7.5q29 0 52 -12t49 -32z" />
    <glyph glyph-name="s" unicode="s" horiz-adv-x="494" 
d="M246 -15q-43 0 -89.5 13.5t-91.5 45.5l51 73q35 -25 69 -31.5t61 -6.5q38 0 57.5 16.5t19.5 44.5q0 22 -18 35.5t-45.5 25t-59.5 23t-59.5 29.5t-45.5 44.5t-18 68.5q0 38 14 66t38 47t56 28t68 9q40 0 79 -12.5t87 -47.5l-50 -73q-39 28 -65.5 33.5t-50.5 5.5
q-32 0 -51 -15.5t-19 -40.5q0 -19 18 -31t45.5 -22.5t59.5 -22.5t59.5 -31t45.5 -47.5t18 -71.5q0 -41 -13 -70.5t-37 -48t-58 -27.5t-75 -9z" />
    <glyph glyph-name="t" unicode="t" horiz-adv-x="409" 
d="M342 419h-121v-220q0 -55 4.5 -87.5t31.5 -32.5q11 0 29 5t48 25l40 -68q-41 -26 -69.5 -41t-54.5 -15q-47 0 -73.5 16t-40.5 44.5t-17.5 68t-3.5 85.5v220h-85v81h85v171h106v-171h121v-81z" />
    <glyph glyph-name="u" unicode="u" horiz-adv-x="565" 
d="M75 500h106v-325q0 -18 6.5 -35t17.5 -31t26.5 -22.5t33.5 -8.5q31 0 53.5 14.5t37 37.5t21.5 50.5t7 54.5v265h106v-500h-106v62q-8 -13 -21.5 -26.5t-31.5 -25t-40.5 -19t-48.5 -7.5q-39 0 -70 15.5t-52.5 41.5t-33 61t-11.5 73v325z" />
    <glyph glyph-name="v" unicode="v" horiz-adv-x="550" 
d="M30 500h109l137 -305l135 305h109l-244 -524z" />
    <glyph glyph-name="w" unicode="w" horiz-adv-x="820" 
d="M582 -24l-172 319l-171 -319l-209 524h106l120 -297l154 297l155 -299l118 299h107z" />
    <glyph glyph-name="x" unicode="x" horiz-adv-x="560" 
d="M152 0h-122l195 262l-175 238h120l111 -158l109 158h121l-176 -238l195 -262h-120l-129 182z" />
    <glyph glyph-name="y" unicode="y" horiz-adv-x="545" 
d="M161 -250h-108l159 340l-182 410h114l124 -296l136 296h111z" />
    <glyph glyph-name="z" unicode="z" horiz-adv-x="539" 
d="M40 0l274 406h-241v94h426l-273 -406h263v-94h-449z" />
    <glyph glyph-name="braceleft" unicode="{" horiz-adv-x="359" 
d="M319 -117q-96 1 -146 43.5t-50 112.5v243q0 9 -1.5 18.5t-6 17.5t-13 13t-22.5 5v106q14 0 22.5 5t13 12.5t6 16t1.5 15.5v249q0 35 15 63.5t41.5 49t62 31.5t77.5 11v-91q-20 0 -37.5 -6.5t-30.5 -17t-20 -22.5t-7 -23v-258q0 -14 -4.5 -28t-11.5 -26t-15 -20.5
t-15 -12.5q7 -4 15 -13.5t15 -21.5t11.5 -26t4.5 -26v-259q0 -11 7 -23.5t20 -23t30.5 -17t37.5 -6.5v-91z" />
    <glyph glyph-name="bar" unicode="|" horiz-adv-x="260" 
d="M170 870v-970h-80v970h80z" />
    <glyph glyph-name="braceright" unicode="}" horiz-adv-x="359" 
d="M40 -26q20 0 37.5 6.5t30 17t20 23t7.5 23.5v259q0 12 4.5 26t11.5 26t15 21.5t15 13.5q-7 4 -15 12.5t-15 20.5t-11.5 26t-4.5 28v258q0 11 -7.5 23t-20 22.5t-30 17t-37.5 6.5v91q42 0 77.5 -11t62 -31.5t41.5 -49t15 -63.5v-249q0 -7 1.5 -15.5t6 -16t13 -12.5
t22.5 -5v-106q-14 0 -22.5 -5t-13 -13t-6 -17.5t-1.5 -18.5v-243q0 -70 -50 -112.5t-146 -43.5v91z" />
    <glyph glyph-name="asciitilde" unicode="~" horiz-adv-x="746" 
d="M75 221q0 44 11.5 83.5t33 69t51.5 47t67 17.5q36 0 72.5 -17.5t71 -38.5t66 -38.5t59.5 -17.5q16 0 28 10.5t20 27t12 37.5t4 42h100q0 -44 -12 -83t-34 -69t-52 -47.5t-66 -17.5q-37 0 -73.5 17.5t-71 38.5t-66 38.5t-58.5 17.5q-16 0 -28 -10.5t-19.5 -27t-11.5 -37.5
t-4 -42h-100z" />
    <glyph glyph-name="exclamdown" unicode="&#xa1;" horiz-adv-x="316" 
d="M212 49v-278h-109v277v252h95zM226 433q0 -29 -20 -49t-49 -20t-48 20t-19 49t19 48t48 19t49 -19t20 -48z" />
    <glyph glyph-name="cent" unicode="&#xa2;" 
d="M344 770v-124q34 -4 69 -16t73 -35l-47 -79q-27 17 -49.5 25.5t-45.5 10.5v-339q23 3 47.5 13t53.5 30l52 -73q-42 -30 -80.5 -44.5t-72.5 -19.5v-119h-80v121q-47 9 -85.5 33t-66 59.5t-42.5 79t-15 90.5t16 90.5t43.5 78t66 58.5t83.5 33v127h80zM164 383
q0 -54 27.5 -99t72.5 -64v325q-45 -18 -72.5 -63t-27.5 -99z" />
    <glyph glyph-name="sterling" unicode="&#xa3;" horiz-adv-x="647" 
d="M451 315h-235v-215h346v-100h-487v100h31v215h-31v100h31v157q0 58 20 98t51 65t69.5 36.5t75.5 11.5q63 0 123 -19.5t127 -63.5l-52 -84q-58 40 -106.5 53.5t-91.5 13.5q-50 0 -78 -31.5t-28 -79.5v-157h235v-100z" />
    <glyph glyph-name="currency" unicode="&#xa4;" horiz-adv-x="681" 
d="M75 178l56 56q-27 35 -41.5 76.5t-14.5 87.5q0 45 15 86t42 76l-57 57l46 46l57 -57q34 26 75 41.5t87 15.5t87.5 -15.5t75.5 -41.5l57 57l46 -46l-57 -57q26 -35 41 -76t15 -86q0 -46 -15 -87.5t-41 -76.5l56 -56l-46 -46l-56 55q-33 -26 -74 -40.5t-89 -14.5t-89 15
t-74 41l-56 -56zM340 569q-34 0 -63 -14.5t-50 -38.5t-32.5 -54.5t-11.5 -63.5t11.5 -64t32.5 -55t50 -38.5t63 -14.5t63 14.5t50 38.5t32.5 55t11.5 64t-11.5 63.5t-32.5 54.5t-50 38.5t-63 14.5z" />
    <glyph glyph-name="yen" unicode="&#xa5;" horiz-adv-x="758" 
d="M521 272h-84v-34h84v-65h-84v-173h-114v173h-84v65h84v34h-84v65h81l-290 433h128l222 -335l221 335h127l-289 -433h82v-65z" />
    <glyph glyph-name="brokenbar" unicode="&#xa6;" horiz-adv-x="260" 
d="M170 326v-426h-80v426h80zM170 870v-426h-80v426h80z" />
    <glyph glyph-name="section" unicode="&#xa7;" horiz-adv-x="494" 
d="M246 -15q-43 0 -89.5 13.5t-91.5 45.5l51 73q35 -25 69 -31.5t61 -6.5q38 0 57.5 16.5t19.5 44.5q0 22 -18 35.5t-45.5 25t-59.5 23t-59.5 29.5t-45.5 44.5t-18 68.5q0 54 27.5 88.5t71.5 49.5q-20 9 -37.5 21.5t-31.5 28.5t-22 36.5t-8 46.5q0 38 14 66t38 47t56 28
t68 9q40 0 79 -12.5t87 -47.5l-50 -73q-39 28 -65.5 33.5t-50.5 5.5q-32 0 -51 -15.5t-19 -40.5q0 -19 18 -31t45.5 -22.5t59.5 -22.5t59.5 -31t45.5 -47.5t18 -71.5q0 -54 -22.5 -88t-62.5 -51q35 -19 60 -49.5t25 -82.5q0 -41 -13 -70.5t-37 -48t-58 -27.5t-75 -9z
M253 452q-16 0 -29 -7t-22 -17.5t-14 -24t-5 -25.5q0 -7 3.5 -16t11 -17.5t19.5 -14t29 -5.5q38 0 57.5 23t19.5 51q0 21 -16 37t-54 16z" />
    <glyph glyph-name="dieresis" unicode="&#xa8;" horiz-adv-x="476" 
d="M200 719q0 -20 -14.5 -34.5t-36.5 -14.5q-20 0 -34.5 14.5t-14.5 34.5q0 22 14.5 36.5t34.5 14.5q22 0 36.5 -14.5t14.5 -36.5zM376 719q0 -20 -15 -34.5t-36 -14.5q-20 0 -35 14.5t-15 34.5q0 22 15 36.5t35 14.5q21 0 36 -14.5t15 -36.5z" />
    <glyph glyph-name="copyright" unicode="&#xa9;" horiz-adv-x="929" 
d="M478 134q-57 0 -105 21t-82.5 56t-54 81t-19.5 97t20.5 97.5t56 81.5t83 56t101.5 21q36 0 78.5 -13t87.5 -41l-53 -82q-35 24 -63 31.5t-50 7.5q-33 0 -62 -13t-50 -34.5t-33.5 -50.5t-12.5 -61t12.5 -61t33.5 -50.5t50 -34t62 -12.5q23 0 52.5 10t67.5 39l53 -84
q-48 -32 -91.5 -47t-81.5 -15zM465 -10q-81 0 -153 31t-125.5 85t-85 126t-31.5 154q0 81 31 152.5t85 125.5t126 85t153 31q82 0 154 -31.5t125 -85.5t84 -125.5t31 -151.5q0 -82 -31 -154t-85 -126t-125.5 -85t-152.5 -31zM467 728q-71 0 -134 -27t-110 -73t-74 -107.5
t-27 -131.5q0 -72 27 -135t73.5 -110t109.5 -74.5t135 -27.5t134 27.5t107.5 74.5t72 110t26.5 135q0 70 -26.5 131.5t-73 107.5t-108.5 73t-132 27z" />
    <glyph glyph-name="ordfeminine" unicode="&#xaa;" horiz-adv-x="468" 
d="M403 356h-90v40q-7 -8 -18 -17t-26 -17t-33.5 -13.5t-40.5 -5.5q-29 0 -54.5 9.5t-44.5 27t-30 42.5t-11 56q0 38 15 63.5t41.5 40.5t61.5 21.5t74 6.5q17 0 35 -1t31 -3v33q0 18 -7 31.5t-18 23.5t-24 15t-26 5q-26 0 -52.5 -7t-58.5 -36l-53 54q41 39 80 53.5t84 14.5
q34 0 64 -11t52.5 -31t35.5 -48.5t13 -63.5v-283zM209 425q25 0 44.5 6.5t32.5 17t20 23.5t7 25v38q-17 2 -33.5 3t-33.5 1q-19 0 -37 -2.5t-32.5 -9.5t-23.5 -18.5t-9 -30.5q0 -23 21 -38t44 -15z" />
    <glyph glyph-name="guillemotleft" unicode="&#xab;" horiz-adv-x="525" 
d="M225 0l-200 250l200 250h96l-200 -250l200 -250h-96zM379 0l-200 250l200 250h96l-200 -250l200 -250h-96z" />
    <glyph glyph-name="logicalnot" unicode="&#xac;" horiz-adv-x="680" 
d="M530 261v156h-460v80h540v-236h-80z" />
    <glyph glyph-name="registered" unicode="&#xae;" horiz-adv-x="929" 
d="M410 156h-101v492h157q39 0 72 -10.5t56.5 -31t37 -49.5t13.5 -65q0 -21 -7 -41t-20 -37.5t-31 -30t-40 -18.5l144 -209h-117l-119 187h-45v-187zM410 441h60q28 0 52.5 12.5t24.5 38.5q0 16 -7 27.5t-18.5 18.5t-26 10t-29.5 3h-56v-110zM465 -10q-81 0 -153 31
t-125.5 85t-85 126t-31.5 154q0 81 31 152.5t85 125.5t126 85t153 31q82 0 154 -31.5t125 -85.5t84 -125.5t31 -151.5q0 -82 -31 -154t-85 -126t-125.5 -85t-152.5 -31zM467 728q-71 0 -134 -27t-110 -73t-74 -107.5t-27 -131.5q0 -72 27 -135t73.5 -110t109.5 -74.5
t135 -27.5t134 27.5t107.5 74.5t72 110t26.5 135q0 70 -26.5 131.5t-73 107.5t-108.5 73t-132 27z" />
    <glyph glyph-name="macron" unicode="&#xaf;" horiz-adv-x="550" 
d="M450 705h-350v65h350v-65z" />
    <glyph glyph-name="degree" unicode="&#xb0;" horiz-adv-x="315" 
d="M157 746q-18 0 -33.5 -15t-15.5 -35q0 -19 15.5 -34.5t33.5 -15.5q20 0 35.5 15.5t15.5 34.5q0 20 -15.5 35t-35.5 15zM158 598q-41 0 -69.5 28.5t-28.5 69.5t28.5 69t69.5 28t69 -28t28 -69t-28 -69.5t-69 -28.5z" />
    <glyph glyph-name="plusminus" unicode="&#xb1;" horiz-adv-x="660" 
d="M590 51h-520v80h520v-80zM590 397h-220v-220h-80v220h-220v80h220v220h80v-220h220v-80z" />
    <glyph glyph-name="uni00B2" unicode="&#xb2;" horiz-adv-x="405" 
d="M60 396q43 58 81 109q16 22 32.5 44t31.5 41.5t26.5 35t18.5 24.5q8 11 12 24.5t4 23.5q0 26 -16.5 41t-39.5 15q-22 0 -41.5 -7t-48.5 -27l-38 51q40 28 68 38.5t60 10.5q21 0 43.5 -6.5t41 -21t30.5 -38t12 -56.5q0 -23 -10 -46t-27 -45q-15 -19 -34.5 -43.5
t-36.5 -47.5q-20 -26 -41 -54h157v-66h-285z" />
    <glyph glyph-name="uni00B3" unicode="&#xb3;" horiz-adv-x="399" 
d="M188 386q-16 0 -30.5 2.5t-29.5 8.5t-31.5 16t-36.5 24l37 52q30 -21 49 -29.5t42 -8.5q28 0 48 20.5t20 51.5q0 21 -8 35t-20.5 22.5t-27 12t-27.5 3.5h-58l105 150h-128v64h247l-110 -154q40 -14 69 -48t29 -85q0 -29 -10 -54t-28.5 -43.5t-44 -29t-56.5 -10.5z" />
    <glyph glyph-name="acute" unicode="&#xb4;" horiz-adv-x="439" 
d="M339 770l-161 -170h-78l140 170h99z" />
    <glyph glyph-name="mu" unicode="&#xb5;" horiz-adv-x="565" 
d="M75 -229v729h106v-329q0 -17 6.5 -34t18 -30t26.5 -21t33 -8q31 0 53.5 14.5t37 37.5t21.5 50.5t7 54.5v265h106v-500h-106v62q-8 -13 -21.5 -26.5t-31.5 -25t-40.5 -19t-48.5 -7.5q-34 0 -61 12v-225h-106z" />
    <glyph glyph-name="paragraph" unicode="&#xb6;" horiz-adv-x="736" 
d="M359 333h-29q-49 0 -95 14t-81.5 41t-57 67t-21.5 91q0 54 21.5 95.5t58 70t84.5 43.5t101 15h321v-90h-56v-680h-98v680h-50v-680h-98v333z" />
    <glyph glyph-name="periodcentered" unicode="&#xb7;" horiz-adv-x="220" 
d="M170 371q0 -24 -17 -42t-43 -18q-25 0 -42.5 18t-17.5 42q0 26 17.5 43.5t42.5 17.5q26 0 43 -17.5t17 -43.5z" />
    <glyph glyph-name="cedilla" unicode="&#xb8;" horiz-adv-x="310" 
d="M100 -126q28 0 47.5 7t19.5 31q0 7 -4 18t-10 23.5t-14 25t-16 21.5h37l8 -9t17.5 -22.5t17 -30t7.5 -33.5q0 -24 -9 -42t-24 -29.5t-35 -17.5t-42 -6v64z" />
    <glyph glyph-name="uni00B9" unicode="&#xb9;" horiz-adv-x="211" 
d="M70 396v414h71v-414h-71z" />
    <glyph glyph-name="ordmasculine" unicode="&#xba;" horiz-adv-x="560" 
d="M280 342q-48 0 -89.5 18.5t-71.5 49.5t-47 72t-17 86t18 86t48.5 71.5t71.5 49t87 18.5q47 0 88 -18.5t71.5 -49t48 -71.5t17.5 -86t-16.5 -86t-46.5 -72t-71.5 -49.5t-90.5 -18.5zM280 713q-29 0 -53.5 -12.5t-42.5 -32.5t-28 -46.5t-10 -53.5q0 -28 10 -54.5t28 -46.5
t42.5 -32.5t53.5 -12.5q30 0 54.5 12.5t42 32.5t27.5 46.5t10 54.5q0 27 -10 53.5t-27.5 46.5t-42 32.5t-54.5 12.5z" />
    <glyph glyph-name="guillemotright" unicode="&#xbb;" horiz-adv-x="525" 
d="M204 0l200 250l-200 250h96l200 -250l-200 -250h-96zM50 0l200 250l-200 250h96l200 -250l-200 -250h-96z" />
    <glyph glyph-name="onequarter" unicode="&#xbc;" horiz-adv-x="685" 
d="M70 356v414h71v-414h-71zM494 0v116h-193l261 310v-248h53v-62h-53v-116h-68zM494 178v82l-70 -82h70zM170 0h-66l283 770h66z" />
    <glyph glyph-name="onehalf" unicode="&#xbd;" horiz-adv-x="708" 
d="M70 356v414h71v-414h-71zM170 0h-66l283 770h66zM353 0q43 58 81 109q16 22 32.5 44t31.5 41.5t26.5 35t18.5 24.5q8 11 12 24.5t4 23.5q0 26 -16.5 41t-39.5 15q-22 0 -41.5 -7t-48.5 -27l-38 51q40 28 68 38.5t60 10.5q21 0 43.5 -6.5t41 -21t30.5 -38t12 -56.5
q0 -23 -10 -46t-27 -45q-15 -19 -34.5 -43.5t-36.5 -47.5q-20 -26 -41 -54h157v-66h-285z" />
    <glyph glyph-name="threequarters" unicode="&#xbe;" horiz-adv-x="847" 
d="M656 0v116h-193l261 310v-248h53v-62h-53v-116h-68zM656 178v82l-70 -82h70zM332 0h-66l283 770h66zM198 346q-16 0 -30.5 2.5t-29.5 8.5t-31.5 16t-36.5 24l37 52q30 -21 49 -29.5t42 -8.5q28 0 48 20.5t20 51.5q0 21 -8 35t-20.5 22.5t-27 12t-27.5 3.5h-58l105 150
h-128v64h247l-110 -154q40 -14 69 -48t29 -85q0 -29 -10 -54t-28.5 -43.5t-44 -29t-56.5 -10.5z" />
    <glyph glyph-name="questiondown" unicode="&#xbf;" horiz-adv-x="624" 
d="M400 300q-1 -50 -7.5 -83t-20 -57t-34.5 -42.5t-51 -39.5q-19 -13 -35 -23.5t-28 -23t-18.5 -28.5t-6.5 -40q0 -30 11 -51.5t27.5 -35t36.5 -20t39 -6.5q20 0 38 1.5t37 7t41 16.5t49 31l56 -77q-33 -23 -60.5 -38t-53 -24t-51.5 -13t-56 -4q-36 0 -75 10.5t-72 35
t-54.5 65.5t-21.5 102q0 43 11 72t30 51t44.5 40t54.5 38q15 10 26 19t19 23.5t12 36t4 57.5h109zM277 433q0 29 20 48t48 19q30 0 49 -19t19 -48t-19 -49t-49 -20q-28 0 -48 20t-20 49z" />
    <glyph glyph-name="Agrave" unicode="&#xc0;" horiz-adv-x="794" 
d="M151 0h-121l368 793l366 -793h-121l-89 201h-314zM281 301h232l-115 253zM329 1000l140 -170h-78l-161 170h99z" />
    <glyph glyph-name="Aacute" unicode="&#xc1;" horiz-adv-x="794" 
d="M151 0h-121l368 793l366 -793h-121l-89 201h-314zM281 301h232l-115 253zM573 1000l-161 -170h-78l140 170h99z" />
    <glyph glyph-name="Acircumflex" unicode="&#xc2;" horiz-adv-x="794" 
d="M151 0h-121l368 793l366 -793h-121l-89 201h-314zM281 301h232l-115 253zM436 1000l131 -170h-52l-117 103l-117 -103h-52l131 170h76z" />
    <glyph glyph-name="Atilde" unicode="&#xc3;" horiz-adv-x="794" 
d="M151 0h-121l368 793l366 -793h-121l-89 201h-314zM281 301h232l-115 253zM491 841q-26 0 -49 11t-45 24t-43.5 24t-44.5 11q-32 0 -44.5 -20t-12.5 -48h-42q0 25 7.5 50t21 44t31.5 31t39 12q25 0 47.5 -11t44.5 -24t43.5 -24t44.5 -11q32 0 44.5 20t12.5 48h42
q0 -24 -7.5 -48.5t-20.5 -44t-31 -32t-38 -12.5z" />
    <glyph glyph-name="Adieresis" unicode="&#xc4;" horiz-adv-x="794" 
d="M151 0h-121l368 793l366 -793h-121l-89 201h-314zM281 301h232l-115 253zM360 879q0 -20 -14.5 -34.5t-36.5 -14.5q-20 0 -34.5 14.5t-14.5 34.5q0 22 14.5 36.5t34.5 14.5q22 0 36.5 -14.5t14.5 -36.5zM536 879q0 -20 -15 -34.5t-36 -14.5q-20 0 -35 14.5t-15 34.5
q0 22 15 36.5t35 14.5q21 0 36 -14.5t15 -36.5z" />
    <glyph glyph-name="Aring" unicode="&#xc5;" horiz-adv-x="794" 
d="M151 0h-121l348 748q-33 7 -55 33.5t-22 61.5q0 20 7.5 37.5t21 31t31 21t37.5 7.5t37.5 -7.5t31 -21t21 -31t7.5 -37.5q0 -35 -22.5 -61.5t-55.5 -33.5l347 -748h-121l-108 246h-275zM301 346h192l-95 208zM398 896q-20 0 -36 -16.5t-16 -36.5t16 -36t36 -16t36.5 16
t16.5 36t-16.5 36.5t-36.5 16.5z" />
    <glyph glyph-name="AE" unicode="&#xc6;" horiz-adv-x="1063" 
d="M149 0h-124l514 770h439v-100h-341v-247h303v-100h-303v-223h351v-100h-463v323h-166zM525 423v152l-98 -152h98z" />
    <glyph glyph-name="Ccedilla" unicode="&#xc7;" horiz-adv-x="816" 
d="M408 -126q28 0 47.5 7t19.5 31q0 13 -11.5 37t-26.5 43q-75 7 -141 40.5t-115 86.5t-77.5 121.5t-28.5 144.5q0 81 31.5 153t86 125.5t127 85t153.5 31.5q63 0 128.5 -20.5t128.5 -62.5l-54 -82q-51 34 -103 49.5t-100 15.5q-60 0 -111 -24.5t-89 -65t-59.5 -94
t-21.5 -111.5t21.5 -111.5t59.5 -94t89 -65t111 -24.5q50 0 107.5 19.5t111.5 58.5l54 -80q-62 -48 -132.5 -72.5t-136.5 -25.5q5 -6 12 -15.5t13.5 -21t11 -24t4.5 -24.5q0 -24 -9 -42t-24 -29.5t-35 -17.5t-42 -6v64z" />
    <glyph glyph-name="Egrave" unicode="&#xc8;" horiz-adv-x="630" 
d="M505 335h-301v-235h351v-100h-465v770h455v-100h-341v-235h301v-100zM284 1000l140 -170h-78l-161 170h99z" />
    <glyph glyph-name="Eacute" unicode="&#xc9;" horiz-adv-x="630" 
d="M505 335h-301v-235h351v-100h-465v770h455v-100h-341v-235h301v-100zM451 1000l-161 -170h-78l140 170h99z" />
    <glyph glyph-name="Ecircumflex" unicode="&#xca;" horiz-adv-x="630" 
d="M505 335h-301v-235h351v-100h-465v770h455v-100h-341v-235h301v-100zM359 1000l131 -170h-52l-117 103l-117 -103h-52l131 170h76z" />
    <glyph glyph-name="Edieresis" unicode="&#xcb;" horiz-adv-x="630" 
d="M505 335h-301v-235h351v-100h-465v770h455v-100h-341v-235h301v-100zM282 879q0 -20 -14.5 -34.5t-36.5 -14.5q-20 0 -34.5 14.5t-14.5 34.5q0 22 14.5 36.5t34.5 14.5q22 0 36.5 -14.5t14.5 -36.5zM458 879q0 -20 -15 -34.5t-36 -14.5q-20 0 -35 14.5t-15 34.5
q0 22 15 36.5t35 14.5q21 0 36 -14.5t15 -36.5z" />
    <glyph glyph-name="Igrave" unicode="&#xcc;" horiz-adv-x="274" 
d="M167 770v-770h-114v770h114zM84 1000l140 -170h-78l-161 170h99z" />
    <glyph glyph-name="Iacute" unicode="&#xcd;" horiz-adv-x="274" 
d="M182 770v-770h-114v770h114zM289 1000l-161 -170h-78l140 170h99z" />
    <glyph glyph-name="Icircumflex" unicode="&#xce;" horiz-adv-x="268" 
d="M191 770v-770h-114v770h114zM172 1000l131 -170h-52l-117 103l-117 -103h-52l131 170h76z" />
    <glyph glyph-name="Idieresis" unicode="&#xcf;" horiz-adv-x="246" 
d="M181 770v-770h-114v770h114zM85 879q0 -20 -14.5 -34.5t-36.5 -14.5q-20 0 -34.5 14.5t-14.5 34.5q0 22 14.5 36.5t34.5 14.5q22 0 36.5 -14.5t14.5 -36.5zM261 879q0 -20 -15 -34.5t-36 -14.5q-20 0 -35 14.5t-15 34.5q0 22 15 36.5t35 14.5q21 0 36 -14.5t15 -36.5z
" />
    <glyph glyph-name="Eth" unicode="&#xd0;" horiz-adv-x="792" 
d="M84 0v236h-49v65h49v469h242q85 0 157 -30t124 -82t81 -122t29 -150q0 -81 -29 -151t-81 -122.5t-124 -82.5t-157 -30h-242zM369 236h-171v-136h128q60 0 110 22.5t86.5 61.5t57 91t20.5 111q0 58 -20.5 110t-57 90.5t-86.5 61t-110 22.5h-128v-369h171v-65z" />
    <glyph glyph-name="Ntilde" unicode="&#xd1;" horiz-adv-x="829" 
d="M204 510v-510h-114v793l535 -542v519h114v-801zM500 842q-26 0 -49 11t-45 24t-43.5 24t-44.5 11q-32 0 -44.5 -20t-12.5 -48h-42q0 25 7.5 50t21 44t31.5 31t39 12q25 0 47.5 -11t44.5 -24t43.5 -24t44.5 -11q32 0 44.5 20t12.5 48h42q0 -24 -7.5 -48.5t-20.5 -44
t-31 -32t-38 -12.5z" />
    <glyph glyph-name="Ograve" unicode="&#xd2;" horiz-adv-x="930" 
d="M466 -10q-81 0 -153 31t-126 85t-85.5 126t-31.5 154q0 81 31 152.5t85 125.5t126 85t154 31t154 -31.5t125 -85.5t84 -125.5t31 -151.5q0 -82 -31 -154t-85 -126t-125.5 -85t-152.5 -31zM466 680q-60 0 -111 -24t-88.5 -64.5t-58.5 -94t-21 -111.5q0 -59 21 -112.5
t58.5 -94t88.5 -65t111 -24.5q59 0 110 24.5t88 65t58 94t21 112.5q0 58 -21 111.5t-58 94t-88 64.5t-110 24zM409 1000l140 -170h-78l-161 170h99z" />
    <glyph glyph-name="Oacute" unicode="&#xd3;" horiz-adv-x="930" 
d="M466 -10q-81 0 -153 31t-126 85t-85.5 126t-31.5 154q0 81 31 152.5t85 125.5t126 85t154 31t154 -31.5t125 -85.5t84 -125.5t31 -151.5q0 -82 -31 -154t-85 -126t-125.5 -85t-152.5 -31zM466 680q-60 0 -111 -24t-88.5 -64.5t-58.5 -94t-21 -111.5q0 -59 21 -112.5
t58.5 -94t88.5 -65t111 -24.5q59 0 110 24.5t88 65t58 94t21 112.5q0 58 -21 111.5t-58 94t-88 64.5t-110 24zM643 1000l-161 -170h-78l140 170h99z" />
    <glyph glyph-name="Ocircumflex" unicode="&#xd4;" horiz-adv-x="930" 
d="M466 -10q-81 0 -153 31t-126 85t-85.5 126t-31.5 154q0 81 31 152.5t85 125.5t126 85t154 31t154 -31.5t125 -85.5t84 -125.5t31 -151.5q0 -82 -31 -154t-85 -126t-125.5 -85t-152.5 -31zM466 680q-60 0 -111 -24t-88.5 -64.5t-58.5 -94t-21 -111.5q0 -59 21 -112.5
t58.5 -94t88.5 -65t111 -24.5q59 0 110 24.5t88 65t58 94t21 112.5q0 58 -21 111.5t-58 94t-88 64.5t-110 24zM503 1000l131 -170h-52l-117 103l-117 -103h-52l131 170h76z" />
    <glyph glyph-name="Otilde" unicode="&#xd5;" horiz-adv-x="930" 
d="M466 -10q-81 0 -153 31t-126 85t-85.5 126t-31.5 154q0 81 31 152.5t85 125.5t126 85t154 31t154 -31.5t125 -85.5t84 -125.5t31 -151.5q0 -82 -31 -154t-85 -126t-125.5 -85t-152.5 -31zM466 680q-60 0 -111 -24t-88.5 -64.5t-58.5 -94t-21 -111.5q0 -59 21 -112.5
t58.5 -94t88.5 -65t111 -24.5q59 0 110 24.5t88 65t58 94t21 112.5q0 58 -21 111.5t-58 94t-88 64.5t-110 24zM558 842q-26 0 -49 11t-45 24t-43.5 24t-44.5 11q-32 0 -44.5 -20t-12.5 -48h-42q0 25 7.5 50t21 44t31.5 31t39 12q25 0 47.5 -11t44.5 -24t43.5 -24t44.5 -11
q32 0 44.5 20t12.5 48h42q0 -24 -7.5 -48.5t-20.5 -44t-31 -32t-38 -12.5z" />
    <glyph glyph-name="Odieresis" unicode="&#xd6;" horiz-adv-x="930" 
d="M466 -10q-81 0 -153 31t-126 85t-85.5 126t-31.5 154q0 81 31 152.5t85 125.5t126 85t154 31t154 -31.5t125 -85.5t84 -125.5t31 -151.5q0 -82 -31 -154t-85 -126t-125.5 -85t-152.5 -31zM466 680q-60 0 -111 -24t-88.5 -64.5t-58.5 -94t-21 -111.5q0 -59 21 -112.5
t58.5 -94t88.5 -65t111 -24.5q59 0 110 24.5t88 65t58 94t21 112.5q0 58 -21 111.5t-58 94t-88 64.5t-110 24zM426 879q0 -20 -14.5 -34.5t-36.5 -14.5q-20 0 -34.5 14.5t-14.5 34.5q0 22 14.5 36.5t34.5 14.5q22 0 36.5 -14.5t14.5 -36.5zM602 879q0 -20 -15 -34.5
t-36 -14.5q-20 0 -35 14.5t-15 34.5q0 22 15 36.5t35 14.5q21 0 36 -14.5t15 -36.5z" />
    <glyph glyph-name="multiply" unicode="&#xd7;" horiz-adv-x="564" 
d="M494 541l-155 -156l155 -156l-56 -56l-156 155l-156 -155l-56 56l155 156l-155 156l56 56l156 -155l156 155z" />
    <glyph glyph-name="Oslash" unicode="&#xd8;" horiz-adv-x="930" 
d="M860 770l-106 -117q50 -54 78 -122t28 -145q0 -82 -31 -154t-85 -126t-125.5 -85t-152.5 -31q-68 0 -129 21.5t-112 60.5l-65 -72h-90l106 117q-50 53 -78 122t-28 147q0 81 31 152.5t85 125.5t126 85t154 31q68 0 128.5 -22t110.5 -60l65 72h90zM466 90q59 0 110 24.5
t88 65t58 94t21 112.5q0 51 -17 99t-46 87l-383 -421q35 -29 77.5 -45t91.5 -16zM466 680q-60 0 -111 -24t-88.5 -64.5t-58.5 -94t-21 -111.5q0 -52 16.5 -100t46.5 -87l383 421q-35 28 -77 44t-90 16z" />
    <glyph glyph-name="Ugrave" unicode="&#xd9;" horiz-adv-x="812" 
d="M406 -10q-62 0 -119 25t-100.5 67t-69.5 98t-26 119v10v461h114v-461q0 -43 15.5 -82.5t42.5 -70t63.5 -48.5t79.5 -18t79.5 18t63.5 48.5t42.5 70t15.5 82.5v461h114v-459q0 -64 -25 -122t-68 -102.5t-100.5 -70.5t-121.5 -26zM345 1000l140 -170h-78l-161 170h99z" />
    <glyph glyph-name="Uacute" unicode="&#xda;" horiz-adv-x="812" 
d="M406 -10q-62 0 -119 25t-100.5 67t-69.5 98t-26 119v10v461h114v-461q0 -43 15.5 -82.5t42.5 -70t63.5 -48.5t79.5 -18t79.5 18t63.5 48.5t42.5 70t15.5 82.5v461h114v-459q0 -64 -25 -122t-68 -102.5t-100.5 -70.5t-121.5 -26zM583 1000l-161 -170h-78l140 170h99z" />
    <glyph glyph-name="Ucircumflex" unicode="&#xdb;" horiz-adv-x="812" 
d="M406 -10q-62 0 -119 25t-100.5 67t-69.5 98t-26 119v10v461h114v-461q0 -43 15.5 -82.5t42.5 -70t63.5 -48.5t79.5 -18t79.5 18t63.5 48.5t42.5 70t15.5 82.5v461h114v-459q0 -64 -25 -122t-68 -102.5t-100.5 -70.5t-121.5 -26zM444 1000l131 -170h-52l-117 103
l-117 -103h-52l131 170h76z" />
    <glyph glyph-name="Udieresis" unicode="&#xdc;" horiz-adv-x="812" 
d="M406 -10q-62 0 -119 25t-100.5 67t-69.5 98t-26 119v10v461h114v-461q0 -43 15.5 -82.5t42.5 -70t63.5 -48.5t79.5 -18t79.5 18t63.5 48.5t42.5 70t15.5 82.5v461h114v-459q0 -64 -25 -122t-68 -102.5t-100.5 -70.5t-121.5 -26zM368 879q0 -20 -14.5 -34.5t-36.5 -14.5
q-20 0 -34.5 14.5t-14.5 34.5q0 22 14.5 36.5t34.5 14.5q22 0 36.5 -14.5t14.5 -36.5zM544 879q0 -20 -15 -34.5t-36 -14.5q-20 0 -35 14.5t-15 34.5q0 22 15 36.5t35 14.5q21 0 36 -14.5t15 -36.5z" />
    <glyph glyph-name="Yacute" unicode="&#xdd;" horiz-adv-x="758" 
d="M437 0h-114v332l-293 438h128l222 -335l221 335h127l-291 -438v-332zM544 1000l-161 -170h-78l140 170h99z" />
    <glyph glyph-name="Thorn" unicode="&#xde;" horiz-adv-x="613" 
d="M203 770v-139h70q54 0 103 -14t86 -42.5t59 -71t22 -98.5q0 -53 -22 -92.5t-58.5 -66t-83.5 -39.5t-97 -13h-79v-194h-113v770h113zM203 294h79q30 0 56.5 7.5t47 21.5t32.5 35t12 47q0 31 -12.5 55t-33.5 39.5t-49.5 23.5t-61.5 8h-70v-237z" />
    <glyph glyph-name="germandbls" unicode="&#xdf;" horiz-adv-x="566" 
d="M269 94q43 0 69 9.5t40.5 26.5t19.5 40.5t5 51.5t-5.5 53t-20.5 44t-41 30.5t-66 11.5v86q53 18 76 49t23 75q0 26 -7.5 47.5t-20 37.5t-29.5 24.5t-35 8.5q-33 0 -52 -13.5t-29 -32t-13 -39t-3 -33.5v-571h-105v571q0 47 13 86t38.5 67t63 43.5t87.5 15.5
q36 0 71.5 -12.5t64 -39t46.5 -66.5t18 -94q0 -26 -8 -49t-21 -43t-29.5 -35.5t-33.5 -25.5q25 -12 48 -32t40.5 -45.5t27.5 -56t10 -62.5q0 -56 -15.5 -94.5t-39 -63t-52 -38t-55.5 -19.5t-49 -6.5t-31 -0.5v94z" />
    <glyph glyph-name="agrave" unicode="&#xe0;" 
d="M472 0h-106v48q-8 -10 -21.5 -21t-31 -20.5t-39.5 -15.5t-48 -6q-35 0 -65 11t-52.5 32t-35.5 50.5t-13 65.5q0 46 18 76t49 48t72 25t88 7q21 0 41.5 -1.5t37.5 -3.5v39q0 21 -8.5 37.5t-21 27.5t-28.5 17t-31 6t-30.5 -1t-32 -6t-33.5 -15t-35 -27l-63 63q48 46 94 63
t100 17q40 0 75.5 -13t62 -36.5t42 -57t15.5 -75.5v-334zM243 81q30 0 52.5 8t38.5 20.5t24 27.5t8 29v45q-20 2 -40 3.5t-39 1.5q-23 0 -44.5 -3t-38.5 -11t-27.5 -22t-10.5 -36q0 -13 7 -24.5t18 -20t24.5 -13.5t27.5 -5zM226 770l140 -170h-78l-161 170h99z" />
    <glyph glyph-name="aacute" unicode="&#xe1;" 
d="M472 0h-106v48q-8 -10 -21.5 -21t-31 -20.5t-39.5 -15.5t-48 -6q-35 0 -65 11t-52.5 32t-35.5 50.5t-13 65.5q0 46 18 76t49 48t72 25t88 7q21 0 41.5 -1.5t37.5 -3.5v39q0 21 -8.5 37.5t-21 27.5t-28.5 17t-31 6t-30.5 -1t-32 -6t-33.5 -15t-35 -27l-63 63q48 46 94 63
t100 17q40 0 75.5 -13t62 -36.5t42 -57t15.5 -75.5v-334zM243 81q30 0 52.5 8t38.5 20.5t24 27.5t8 29v45q-20 2 -40 3.5t-39 1.5q-23 0 -44.5 -3t-38.5 -11t-27.5 -22t-10.5 -36q0 -13 7 -24.5t18 -20t24.5 -13.5t27.5 -5zM434 770l-161 -170h-78l140 170h99z" />
    <glyph glyph-name="acircumflex" unicode="&#xe2;" 
d="M472 0h-106v48q-8 -10 -21.5 -21t-31 -20.5t-39.5 -15.5t-48 -6q-35 0 -65 11t-52.5 32t-35.5 50.5t-13 65.5q0 46 18 76t49 48t72 25t88 7q21 0 41.5 -1.5t37.5 -3.5v39q0 21 -8.5 37.5t-21 27.5t-28.5 17t-31 6t-30.5 -1t-32 -6t-33.5 -15t-35 -27l-63 63q48 46 94 63
t100 17q40 0 75.5 -13t62 -36.5t42 -57t15.5 -75.5v-334zM243 81q30 0 52.5 8t38.5 20.5t24 27.5t8 29v45q-20 2 -40 3.5t-39 1.5q-23 0 -44.5 -3t-38.5 -11t-27.5 -22t-10.5 -36q0 -13 7 -24.5t18 -20t24.5 -13.5t27.5 -5zM316 770l131 -170h-52l-117 103l-117 -103h-52
l131 170h76z" />
    <glyph glyph-name="atilde" unicode="&#xe3;" 
d="M472 0h-106v48q-8 -10 -21.5 -21t-31 -20.5t-39.5 -15.5t-48 -6q-35 0 -65 11t-52.5 32t-35.5 50.5t-13 65.5q0 46 18 76t49 48t72 25t88 7q21 0 41.5 -1.5t37.5 -3.5v39q0 21 -8.5 37.5t-21 27.5t-28.5 17t-31 6t-30.5 -1t-32 -6t-33.5 -15t-35 -27l-63 63q48 46 94 63
t100 17q40 0 75.5 -13t62 -36.5t42 -57t15.5 -75.5v-334zM243 81q30 0 52.5 8t38.5 20.5t24 27.5t8 29v45q-20 2 -40 3.5t-39 1.5q-23 0 -44.5 -3t-38.5 -11t-27.5 -22t-10.5 -36q0 -13 7 -24.5t18 -20t24.5 -13.5t27.5 -5zM359 631q-26 0 -49 11t-45 24t-43.5 24t-44.5 11
q-32 0 -44.5 -20t-12.5 -48h-42q0 25 7.5 50t21 44t31.5 31t39 12q25 0 47.5 -11t44.5 -24t43.5 -24t44.5 -11q32 0 44.5 20t12.5 48h42q0 -24 -7.5 -48.5t-20.5 -44t-31 -32t-38 -12.5z" />
    <glyph glyph-name="adieresis" unicode="&#xe4;" 
d="M472 0h-106v48q-8 -10 -21.5 -21t-31 -20.5t-39.5 -15.5t-48 -6q-35 0 -65 11t-52.5 32t-35.5 50.5t-13 65.5q0 46 18 76t49 48t72 25t88 7q21 0 41.5 -1.5t37.5 -3.5v39q0 21 -8.5 37.5t-21 27.5t-28.5 17t-31 6t-30.5 -1t-32 -6t-33.5 -15t-35 -27l-63 63q48 46 94 63
t100 17q40 0 75.5 -13t62 -36.5t42 -57t15.5 -75.5v-334zM243 81q30 0 52.5 8t38.5 20.5t24 27.5t8 29v45q-20 2 -40 3.5t-39 1.5q-23 0 -44.5 -3t-38.5 -11t-27.5 -22t-10.5 -36q0 -13 7 -24.5t18 -20t24.5 -13.5t27.5 -5zM232 699q0 -20 -14.5 -34.5t-36.5 -14.5
q-20 0 -34.5 14.5t-14.5 34.5q0 22 14.5 36.5t34.5 14.5q22 0 36.5 -14.5t14.5 -36.5zM408 699q0 -20 -15 -34.5t-36 -14.5q-20 0 -35 14.5t-15 34.5q0 22 15 36.5t35 14.5q21 0 36 -14.5t15 -36.5z" />
    <glyph glyph-name="aring" unicode="&#xe5;" 
d="M472 0h-106v48q-8 -10 -21.5 -21t-31 -20.5t-39.5 -15.5t-48 -6q-35 0 -65 11t-52.5 32t-35.5 50.5t-13 65.5q0 46 18 76t49 48t72 25t88 7q21 0 41.5 -1.5t37.5 -3.5v39q0 21 -8.5 37.5t-21 27.5t-28.5 17t-31 6t-30.5 -1t-32 -6t-33.5 -15t-35 -27l-63 63q48 46 94 63
t100 17q40 0 75.5 -13t62 -36.5t42 -57t15.5 -75.5v-334zM243 81q30 0 52.5 8t38.5 20.5t24 27.5t8 29v45q-20 2 -40 3.5t-39 1.5q-23 0 -44.5 -3t-38.5 -11t-27.5 -22t-10.5 -36q0 -13 7 -24.5t18 -20t24.5 -13.5t27.5 -5zM270 576q-20 0 -37.5 7.5t-31 21t-21 31
t-7.5 37.5t7.5 37.5t21 31t31 21t37.5 7.5t37.5 -7.5t31 -21t21 -31t7.5 -37.5t-7.5 -37.5t-21 -31t-31 -21t-37.5 -7.5zM270 726q-20 0 -36 -16.5t-16 -36.5t16 -36t36 -16t36.5 16t16.5 36t-16.5 36.5t-36.5 16.5z" />
    <glyph glyph-name="ae" unicode="&#xe6;" horiz-adv-x="931" 
d="M645 -15q-50 0 -94 18t-79 50v-53h-106v48q-8 -10 -21.5 -21t-31 -20.5t-39.5 -15.5t-48 -6q-35 0 -65 11t-52.5 32t-35.5 50.5t-13 65.5q0 46 18 76t49 48t72 25t88 7q21 0 41.5 -1.5t37.5 -3.5v39q0 21 -8.5 37.5t-21 27.5t-28.5 17t-31 6t-30.5 -1t-32 -6t-33.5 -15
t-35 -27l-63 63q48 46 94 63t100 17t98.5 -23t70.5 -65q34 40 82.5 64t108.5 24q48 0 91.5 -17t77.5 -49t54 -79.5t20 -108.5v-14h-388q2 -30 14.5 -60t34 -54.5t50 -39.5t63.5 -15q29 0 67.5 7t85.5 39l52 -75q-52 -40 -104.5 -52.5t-109.5 -12.5zM243 81q30 0 52.5 8
t38.5 20.5t24 27.5t8 29v45q-20 2 -40 3.5t-39 1.5q-23 0 -44.5 -3t-38.5 -11t-27.5 -22t-10.5 -36q0 -13 7 -24.5t18 -20t24.5 -13.5t27.5 -5zM770 329q-11 41 -44.5 67t-88.5 26q-54 0 -88 -24.5t-48 -68.5h269z" />
    <glyph glyph-name="ccedilla" unicode="&#xe7;" 
d="M246 -126q28 0 47.5 7t19.5 31q0 12 -10 34t-24 41q-50 6 -91 29.5t-70.5 59.5t-46 81t-16.5 94q0 54 20 102t55 84t81.5 57.5t100.5 21.5q41 0 84 -12t90 -41l-47 -79q-35 23 -64 30.5t-63 7.5q-32 0 -59.5 -14t-47 -37.5t-30.5 -54.5t-11 -65q0 -33 11 -64t31 -55
t47 -38.5t59 -14.5q29 0 62 8.5t71 36.5l52 -73q-50 -35 -94.5 -49.5t-83.5 -16.5q11 -14 24 -35.5t13 -44.5q0 -24 -9 -42t-24 -29.5t-35 -17.5t-42 -6v64z" />
    <glyph glyph-name="egrave" unicode="&#xe8;" horiz-adv-x="603" 
d="M317 -15q-54 0 -101.5 21.5t-83 58t-56.5 84.5t-21 101q0 54 18.5 102t52.5 84.5t80.5 58t102.5 21.5q48 0 91.5 -17t77.5 -49t54 -79.5t20 -108.5v-14h-388q2 -30 14.5 -60t34 -54.5t50 -39.5t63.5 -15q29 0 67.5 7t85.5 39l52 -75q-52 -40 -104.5 -52.5t-109.5 -12.5z
M442 329q-11 41 -44.5 67t-88.5 26q-54 0 -88 -24.5t-48 -68.5h269zM252 770l140 -170h-78l-161 170h99z" />
    <glyph glyph-name="eacute" unicode="&#xe9;" horiz-adv-x="603" 
d="M317 -15q-54 0 -101.5 21.5t-83 58t-56.5 84.5t-21 101q0 54 18.5 102t52.5 84.5t80.5 58t102.5 21.5q48 0 91.5 -17t77.5 -49t54 -79.5t20 -108.5v-14h-388q2 -30 14.5 -60t34 -54.5t50 -39.5t63.5 -15q29 0 67.5 7t85.5 39l52 -75q-52 -40 -104.5 -52.5t-109.5 -12.5z
M442 329q-11 41 -44.5 67t-88.5 26q-54 0 -88 -24.5t-48 -68.5h269zM487 770l-161 -170h-78l140 170h99z" />
    <glyph glyph-name="ecircumflex" unicode="&#xea;" horiz-adv-x="603" 
d="M317 -15q-54 0 -101.5 21.5t-83 58t-56.5 84.5t-21 101q0 54 18.5 102t52.5 84.5t80.5 58t102.5 21.5q48 0 91.5 -17t77.5 -49t54 -79.5t20 -108.5v-14h-388q2 -30 14.5 -60t34 -54.5t50 -39.5t63.5 -15q29 0 67.5 7t85.5 39l52 -75q-52 -40 -104.5 -52.5t-109.5 -12.5z
M442 329q-11 41 -44.5 67t-88.5 26q-54 0 -88 -24.5t-48 -68.5h269zM343 770l131 -170h-52l-117 103l-117 -103h-52l131 170h76z" />
    <glyph glyph-name="edieresis" unicode="&#xeb;" horiz-adv-x="603" 
d="M317 -15q-54 0 -101.5 21.5t-83 58t-56.5 84.5t-21 101q0 54 18.5 102t52.5 84.5t80.5 58t102.5 21.5q48 0 91.5 -17t77.5 -49t54 -79.5t20 -108.5v-14h-388q2 -30 14.5 -60t34 -54.5t50 -39.5t63.5 -15q29 0 67.5 7t85.5 39l52 -75q-52 -40 -104.5 -52.5t-109.5 -12.5z
M442 329q-11 41 -44.5 67t-88.5 26q-54 0 -88 -24.5t-48 -68.5h269zM269 699q0 -20 -14.5 -34.5t-36.5 -14.5q-20 0 -34.5 14.5t-14.5 34.5q0 22 14.5 36.5t34.5 14.5q22 0 36.5 -14.5t14.5 -36.5zM445 699q0 -20 -15 -34.5t-36 -14.5q-20 0 -35 14.5t-15 34.5q0 22 15 36.5
t35 14.5q21 0 36 -14.5t15 -36.5z" />
    <glyph glyph-name="igrave" unicode="&#xec;" horiz-adv-x="249" 
d="M55 0v500h106v-500h-106zM79 770l140 -170h-78l-161 170h99z" />
    <glyph glyph-name="iacute" unicode="&#xed;" horiz-adv-x="249" 
d="M56 0v500h106v-500h-106zM269 770l-161 -170h-78l140 170h99z" />
    <glyph glyph-name="icircumflex" unicode="&#xee;" horiz-adv-x="258" 
d="M76 0v500h106v-500h-106zM167 770l131 -170h-52l-117 103l-117 -103h-52l131 170h76z" />
    <glyph glyph-name="idieresis" unicode="&#xef;" horiz-adv-x="216" 
d="M56 0v500h106v-500h-106zM70 699q0 -20 -14.5 -34.5t-36.5 -14.5q-20 0 -34.5 14.5t-14.5 34.5q0 22 14.5 36.5t34.5 14.5q22 0 36.5 -14.5t14.5 -36.5zM246 699q0 -20 -15 -34.5t-36 -14.5q-20 0 -35 14.5t-15 34.5q0 22 15 36.5t35 14.5q21 0 36 -14.5t15 -36.5z" />
    <glyph glyph-name="eth" unicode="&#xf0;" horiz-adv-x="598" 
d="M490 665l-113 -64q71 -83 116 -177t45 -196q0 -48 -19 -91.5t-51.5 -76t-76 -51.5t-92.5 -19t-92.5 19t-76 51.5t-51.5 76t-19 91.5q0 49 19 92t51.5 74.5t76 49.5t92.5 18q15 0 37 -3.5t39 -8.5q-20 28 -39 54t-40 51l-110 -62l-33 56l99 56q-25 25 -53.5 48t-63.5 45
l52 80q38 -28 74.5 -60t71.5 -67l125 71zM299 368q-29 0 -53.5 -11.5t-42 -31t-27 -44.5t-9.5 -53q0 -27 9 -53t26.5 -46t42 -32.5t54.5 -12.5q31 0 55.5 12.5t41.5 32.5t26 46t9 53q0 29 -10 54.5t-27.5 44.5t-42 30t-52.5 11z" />
    <glyph glyph-name="ntilde" unicode="&#xf1;" horiz-adv-x="565" 
d="M490 0h-106v325q0 18 -6.5 35t-17.5 31t-26.5 22.5t-33.5 8.5q-31 0 -53.5 -14.5t-37 -37.5t-21.5 -50.5t-7 -54.5v-265h-106v500h106v-62q8 13 21.5 26.5t31.5 25t40.5 19t48.5 7.5q39 0 70 -15.5t52.5 -42t33 -61t11.5 -72.5v-325zM375 631q-26 0 -49 11t-45 24
t-43.5 24t-44.5 11q-32 0 -44.5 -20t-12.5 -48h-42q0 25 7.5 50t21 44t31.5 31t39 12q25 0 47.5 -11t44.5 -24t43.5 -24t44.5 -11q32 0 44.5 20t12.5 48h42q0 -24 -7.5 -48.5t-20.5 -44t-31 -32t-38 -12.5z" />
    <glyph glyph-name="ograve" unicode="&#xf2;" horiz-adv-x="640" 
d="M320 -15q-57 0 -105.5 21.5t-84 58t-55.5 85t-20 101.5t21 101t57 84.5t84.5 58t102.5 21.5q55 0 103.5 -21.5t84.5 -58t56.5 -84.5t20.5 -101t-20 -101.5t-55 -85t-83.5 -58t-106.5 -21.5zM320 422q-34 0 -63 -14.5t-50 -38.5t-32.5 -54.5t-11.5 -63.5t11.5 -64
t32.5 -55t50 -38.5t63 -14.5t63 14.5t50 38.5t32.5 55t11.5 64t-11.5 63.5t-32.5 54.5t-50 38.5t-63 14.5zM249 770l140 -170h-78l-161 170h99z" />
    <glyph glyph-name="oacute" unicode="&#xf3;" horiz-adv-x="640" 
d="M320 -15q-57 0 -105.5 21.5t-84 58t-55.5 85t-20 101.5t21 101t57 84.5t84.5 58t102.5 21.5q55 0 103.5 -21.5t84.5 -58t56.5 -84.5t20.5 -101t-20 -101.5t-55 -85t-83.5 -58t-106.5 -21.5zM320 422q-34 0 -63 -14.5t-50 -38.5t-32.5 -54.5t-11.5 -63.5t11.5 -64
t32.5 -55t50 -38.5t63 -14.5t63 14.5t50 38.5t32.5 55t11.5 64t-11.5 63.5t-32.5 54.5t-50 38.5t-63 14.5zM505 770l-161 -170h-78l140 170h99z" />
    <glyph glyph-name="ocircumflex" unicode="&#xf4;" horiz-adv-x="640" 
d="M320 -15q-57 0 -105.5 21.5t-84 58t-55.5 85t-20 101.5t21 101t57 84.5t84.5 58t102.5 21.5q55 0 103.5 -21.5t84.5 -58t56.5 -84.5t20.5 -101t-20 -101.5t-55 -85t-83.5 -58t-106.5 -21.5zM320 422q-34 0 -63 -14.5t-50 -38.5t-32.5 -54.5t-11.5 -63.5t11.5 -64
t32.5 -55t50 -38.5t63 -14.5t63 14.5t50 38.5t32.5 55t11.5 64t-11.5 63.5t-32.5 54.5t-50 38.5t-63 14.5zM359 770l131 -170h-52l-117 103l-117 -103h-52l131 170h76z" />
    <glyph glyph-name="otilde" unicode="&#xf5;" horiz-adv-x="640" 
d="M320 -15q-57 0 -105.5 21.5t-84 58t-55.5 85t-20 101.5t21 101t57 84.5t84.5 58t102.5 21.5q55 0 103.5 -21.5t84.5 -58t56.5 -84.5t20.5 -101t-20 -101.5t-55 -85t-83.5 -58t-106.5 -21.5zM320 422q-34 0 -63 -14.5t-50 -38.5t-32.5 -54.5t-11.5 -63.5t11.5 -64
t32.5 -55t50 -38.5t63 -14.5t63 14.5t50 38.5t32.5 55t11.5 64t-11.5 63.5t-32.5 54.5t-50 38.5t-63 14.5zM413 631q-26 0 -49 11t-45 24t-43.5 24t-44.5 11q-32 0 -44.5 -20t-12.5 -48h-42q0 25 7.5 50t21 44t31.5 31t39 12q25 0 47.5 -11t44.5 -24t43.5 -24t44.5 -11
q32 0 44.5 20t12.5 48h42q0 -24 -7.5 -48.5t-20.5 -44t-31 -32t-38 -12.5z" />
    <glyph glyph-name="odieresis" unicode="&#xf6;" horiz-adv-x="640" 
d="M320 -15q-57 0 -105.5 21.5t-84 58t-55.5 85t-20 101.5t21 101t57 84.5t84.5 58t102.5 21.5q55 0 103.5 -21.5t84.5 -58t56.5 -84.5t20.5 -101t-20 -101.5t-55 -85t-83.5 -58t-106.5 -21.5zM320 422q-34 0 -63 -14.5t-50 -38.5t-32.5 -54.5t-11.5 -63.5t11.5 -64
t32.5 -55t50 -38.5t63 -14.5t63 14.5t50 38.5t32.5 55t11.5 64t-11.5 63.5t-32.5 54.5t-50 38.5t-63 14.5zM279 699q0 -20 -14.5 -34.5t-36.5 -14.5q-20 0 -34.5 14.5t-14.5 34.5q0 22 14.5 36.5t34.5 14.5q22 0 36.5 -14.5t14.5 -36.5zM455 699q0 -20 -15 -34.5t-36 -14.5
q-20 0 -35 14.5t-15 34.5q0 22 15 36.5t35 14.5q21 0 36 -14.5t15 -36.5z" />
    <glyph glyph-name="divide" unicode="&#xf7;" horiz-adv-x="660" 
d="M590 345h-520v80h520v-80zM386 589q0 -24 -16 -39.5t-40 -15.5t-39.5 15.5t-15.5 39.5t15.5 40t39.5 16t40 -16t16 -40zM386 180q0 -24 -16 -39.5t-40 -15.5t-39.5 15.5t-15.5 39.5t15.5 40t39.5 16t40 -16t16 -40z" />
    <glyph glyph-name="oslash" unicode="&#xf8;" horiz-adv-x="640" 
d="M320 -15q-84 0 -149 45l-26 -30h-90l66 75q-32 35 -49 80.5t-17 95.5q0 53 21 101t57 84.5t84.5 58t102.5 21.5q42 0 79 -12.5t69 -34.5l27 31h90l-67 -75q32 -35 49.5 -80t17.5 -94q0 -53 -20 -101.5t-55 -85t-83.5 -58t-106.5 -21.5zM320 422q-34 0 -63 -14.5
t-50 -38.5t-32.5 -54.5t-11.5 -63.5q0 -52 28 -97l212 241q-17 13 -38.5 20t-44.5 7zM320 79q34 0 63 14.5t50 38.5t32.5 55t11.5 64q0 51 -28 95l-212 -241q37 -26 83 -26z" />
    <glyph glyph-name="ugrave" unicode="&#xf9;" horiz-adv-x="565" 
d="M75 500h106v-325q0 -18 6.5 -35t17.5 -31t26.5 -22.5t33.5 -8.5q31 0 53.5 14.5t37 37.5t21.5 50.5t7 54.5v265h106v-500h-106v62q-8 -13 -21.5 -26.5t-31.5 -25t-40.5 -19t-48.5 -7.5q-39 0 -70 15.5t-52.5 41.5t-33 61t-11.5 73v325zM222 770l140 -170h-78l-161 170h99
z" />
    <glyph glyph-name="uacute" unicode="&#xfa;" horiz-adv-x="565" 
d="M75 500h106v-325q0 -18 6.5 -35t17.5 -31t26.5 -22.5t33.5 -8.5q31 0 53.5 14.5t37 37.5t21.5 50.5t7 54.5v265h106v-500h-106v62q-8 -13 -21.5 -26.5t-31.5 -25t-40.5 -19t-48.5 -7.5q-39 0 -70 15.5t-52.5 41.5t-33 61t-11.5 73v325zM456 770l-161 -170h-78l140 170h99
z" />
    <glyph glyph-name="ucircumflex" unicode="&#xfb;" horiz-adv-x="565" 
d="M75 500h106v-325q0 -18 6.5 -35t17.5 -31t26.5 -22.5t33.5 -8.5q31 0 53.5 14.5t37 37.5t21.5 50.5t7 54.5v265h106v-500h-106v62q-8 -13 -21.5 -26.5t-31.5 -25t-40.5 -19t-48.5 -7.5q-39 0 -70 15.5t-52.5 41.5t-33 61t-11.5 73v325zM321 770l131 -170h-52l-117 103
l-117 -103h-52l131 170h76z" />
    <glyph glyph-name="udieresis" unicode="&#xfc;" horiz-adv-x="565" 
d="M75 500h106v-325q0 -18 6.5 -35t17.5 -31t26.5 -22.5t33.5 -8.5q31 0 53.5 14.5t37 37.5t21.5 50.5t7 54.5v265h106v-500h-106v62q-8 -13 -21.5 -26.5t-31.5 -25t-40.5 -19t-48.5 -7.5q-39 0 -70 15.5t-52.5 41.5t-33 61t-11.5 73v325zM243 699q0 -20 -14.5 -34.5
t-36.5 -14.5q-20 0 -34.5 14.5t-14.5 34.5q0 22 14.5 36.5t34.5 14.5q22 0 36.5 -14.5t14.5 -36.5zM419 699q0 -20 -15 -34.5t-36 -14.5q-20 0 -35 14.5t-15 34.5q0 22 15 36.5t35 14.5q21 0 36 -14.5t15 -36.5z" />
    <glyph glyph-name="yacute" unicode="&#xfd;" horiz-adv-x="545" 
d="M161 -250h-108l159 340l-182 410h114l124 -296l136 296h111zM443 770l-161 -170h-78l140 170h99z" />
    <glyph glyph-name="thorn" unicode="&#xfe;" horiz-adv-x="594" 
d="M181 -250h-106v1020h106v-300q16 15 45 30.5t79 15.5q48 0 91 -21.5t74.5 -58t50 -85t18.5 -101.5t-18.5 -101t-50 -84.5t-74.5 -58t-91 -21.5q-50 0 -78.5 14.5t-45.5 30.5v-280zM282 79q31 0 58 14t47 38t31.5 55t11.5 64q0 34 -11.5 65t-31.5 55t-47 38t-58 14
q-28 0 -54 -14.5t-47 -32.5v-247q22 -20 48 -34.5t53 -14.5z" />
    <glyph glyph-name="ydieresis" unicode="&#xff;" horiz-adv-x="545" 
d="M161 -250h-108l159 340l-182 410h114l124 -296l136 296h111zM231 699q0 -20 -14.5 -34.5t-36.5 -14.5q-20 0 -34.5 14.5t-14.5 34.5q0 22 14.5 36.5t34.5 14.5q22 0 36.5 -14.5t14.5 -36.5zM407 699q0 -20 -15 -34.5t-36 -14.5q-20 0 -35 14.5t-15 34.5q0 22 15 36.5
t35 14.5q21 0 36 -14.5t15 -36.5z" />
    <glyph glyph-name="dotlessi" unicode="&#x131;" horiz-adv-x="256" 
d="M75 0v500h106v-500h-106z" />
    <glyph glyph-name="OE" unicode="&#x152;" horiz-adv-x="1035" 
d="M464 0q-86 0 -158 30t-124.5 82.5t-82 122.5t-29.5 151q0 80 29.5 150t82 122t124.5 82t158 30h486v-100h-342v-235h302v-100h-302v-235h352v-100h-496zM496 100v570h-32q-60 0 -111.5 -22.5t-89 -61t-58.5 -90.5t-21 -110q0 -59 21 -111t58.5 -91t89 -61.5t111.5 -22.5
h32z" />
    <glyph glyph-name="oe" unicode="&#x153;" horiz-adv-x="1103" 
d="M817 -15q-42 0 -81 13.5t-71.5 37.5t-57 56.5t-37.5 70.5q-13 -38 -37 -70.5t-56 -56.5t-72 -37.5t-85 -13.5q-57 0 -105.5 21.5t-84 58t-55.5 85t-20 101.5t21 101t57 84.5t84.5 58t102.5 21.5q43 0 82.5 -13.5t72 -37t56.5 -56t38 -70.5q13 38 35.5 70.5t53.5 56t69 37
t82 13.5q48 0 91.5 -17t77.5 -49t54 -79.5t20 -108.5v-14h-388q2 -30 14.5 -60t34 -54.5t50 -39.5t63.5 -15q29 0 67.5 7t85.5 39l52 -75q-52 -40 -104.5 -52.5t-109.5 -12.5zM320 422q-34 0 -63 -14.5t-50 -38.5t-32.5 -54.5t-11.5 -63.5t11.5 -64t32.5 -55t50 -38.5
t63 -14.5t63 14.5t50 38.5t32.5 55t11.5 64t-11.5 63.5t-32.5 54.5t-50 38.5t-63 14.5zM942 329q-11 41 -44.5 67t-88.5 26q-54 0 -88 -24.5t-48 -68.5h269z" />
    <glyph glyph-name="Scaron" unicode="&#x160;" horiz-adv-x="641" 
d="M317 -10q-32 0 -60 4t-56.5 13.5t-59 26.5t-66.5 43l57 78q28 -20 52.5 -33t46.5 -20t43 -9.5t43 -2.5q71 0 103.5 29.5t32.5 85.5q0 45 -27 71.5t-67.5 46t-87.5 36.5t-87.5 42.5t-67.5 65t-27 104.5q0 60 21 100.5t53.5 65t72.5 34.5t79 10q33 0 61 -4.5t56 -15t57 -27
t62 -41.5l-57 -77q-28 20 -51.5 33t-45 20t-41.5 9.5t-41 2.5t-41.5 -6t-36 -19t-25.5 -34t-10 -51q0 -23 13 -41.5t33 -33t44 -26t46 -19.5q41 -15 82 -34.5t73.5 -48t52.5 -68.5t20 -95q0 -61 -20 -102t-53.5 -66t-79 -36t-96.5 -11zM281 830l-131 170h52l117 -103
l117 103h52l-131 -170h-76z" />
    <glyph glyph-name="scaron" unicode="&#x161;" horiz-adv-x="494" 
d="M246 -15q-43 0 -89.5 13.5t-91.5 45.5l51 73q35 -25 69 -31.5t61 -6.5q38 0 57.5 16.5t19.5 44.5q0 22 -18 35.5t-45.5 25t-59.5 23t-59.5 29.5t-45.5 44.5t-18 68.5q0 38 14 66t38 47t56 28t68 9q40 0 79 -12.5t87 -47.5l-50 -73q-39 28 -65.5 33.5t-50.5 5.5
q-32 0 -51 -15.5t-19 -40.5q0 -19 18 -31t45.5 -22.5t59.5 -22.5t59.5 -31t45.5 -47.5t18 -71.5q0 -41 -13 -70.5t-37 -48t-58 -27.5t-75 -9zM209 600l-131 170h52l117 -103l117 103h52l-131 -170h-76z" />
    <glyph glyph-name="Ydieresis" unicode="&#x178;" horiz-adv-x="758" 
d="M437 0h-114v332l-293 438h128l222 -335l221 335h127l-291 -438v-332zM342 879q0 -20 -14.5 -34.5t-36.5 -14.5q-20 0 -34.5 14.5t-14.5 34.5q0 22 14.5 36.5t34.5 14.5q22 0 36.5 -14.5t14.5 -36.5zM518 879q0 -20 -15 -34.5t-36 -14.5q-20 0 -35 14.5t-15 34.5
q0 22 15 36.5t35 14.5q21 0 36 -14.5t15 -36.5z" />
    <glyph glyph-name="Zcaron" unicode="&#x17d;" horiz-adv-x="791" 
d="M60 0l470 670h-436v100h637l-471 -670h470v-100h-670zM364 830l-131 170h52l117 -103l117 103h52l-131 -170h-76z" />
    <glyph glyph-name="zcaron" unicode="&#x17e;" horiz-adv-x="539" 
d="M40 0l274 406h-241v94h426l-273 -406h263v-94h-449zM246 600l-131 170h52l117 -103l117 103h52l-131 -170h-76z" />
    <glyph glyph-name="florin" unicode="&#x192;" horiz-adv-x="608" 
d="M462 242h-113l-2 -16t-5.5 -41.5t-7.5 -58.5t-7.5 -66.5t-7.5 -64.5t-6 -54q-5 -41 -15.5 -78.5t-30.5 -66t-52.5 -45t-81.5 -16.5q-26 0 -58.5 11.5t-74.5 39.5l53 76q26 -20 47.5 -26.5t32.5 -6.5q19 0 32.5 12t22 30.5t13 40.5t7.5 42q2 17 5 39t6 45.5t6.5 47.5
t6.5 47q7 53 15 109h-50v90h60l32 245q5 40 17.5 77.5t35 66t56.5 45.5t81 17q27 0 57.5 -8t71.5 -39l-54 -73q-27 20 -45.5 23t-29.5 3q-21 0 -36 -12t-25 -30t-15.5 -40t-8.5 -43l-29 -232h97v-90z" />
    <glyph glyph-name="circumflex" unicode="&#x2c6;" horiz-adv-x="538" 
d="M307 770l131 -170h-52l-117 103l-117 -103h-52l131 170h76z" />
    <glyph glyph-name="tilde" unicode="&#x2dc;" horiz-adv-x="578" 
d="M381 651q-26 0 -49 11t-45 24t-43.5 24t-44.5 11q-32 0 -44.5 -20t-12.5 -48h-42q0 25 7.5 50t21 44t31.5 31t39 12q25 0 47.5 -11t44.5 -24t43.5 -24t44.5 -11q32 0 44.5 20t12.5 48h42q0 -24 -7.5 -48.5t-20.5 -44t-31 -32t-38 -12.5z" />
    <glyph glyph-name="endash" unicode="&#x2013;" horiz-adv-x="473" 
d="M423 235h-373v80h373v-80z" />
    <glyph glyph-name="emdash" unicode="&#x2014;" horiz-adv-x="513" 
d="M463 235h-413v80h413v-80z" />
    <glyph glyph-name="quoteleft" unicode="&#x2018;" horiz-adv-x="221" 
d="M170 760q-24 -19 -44 -48.5t-26 -67.5q3 1 5.5 1h4.5q26 0 43.5 -17.5t17.5 -43.5q0 -24 -17.5 -42t-43.5 -18q-25 0 -42.5 18t-17.5 42q0 41 8.5 73.5t22 58t31.5 44.5t37 33z" />
    <glyph glyph-name="quoteright" unicode="&#x2019;" horiz-adv-x="221" 
d="M51 557q24 19 44 48.5t26 67.5q-3 -1 -5.5 -1h-4.5q-26 0 -43.5 17.5t-17.5 43.5q0 24 17.5 42t43.5 18q25 0 42.5 -18t17.5 -42q0 -41 -8.5 -73.5t-22 -58t-31.5 -44.5t-37 -33z" />
    <glyph glyph-name="quotesinglbase" unicode="&#x201a;" horiz-adv-x="221" 
d="M51 -115q24 19 44 48.5t26 67.5q-3 -1 -5.5 -1h-4.5q-26 0 -43.5 17.5t-17.5 43.5q0 24 17.5 42t43.5 18q25 0 42.5 -18t17.5 -42q0 -41 -8.5 -73.5t-22 -58t-31.5 -44.5t-37 -33z" />
    <glyph glyph-name="quotedblleft" unicode="&#x201c;" horiz-adv-x="397" 
d="M346 760q-24 -19 -44 -48.5t-26 -67.5q3 1 5.5 1h4.5q26 0 43.5 -17.5t17.5 -43.5q0 -24 -17.5 -42t-43.5 -18q-25 0 -42.5 18t-17.5 42q0 41 8.5 73.5t22 58t31.5 44.5t37 33zM170 760q-24 -19 -44 -48.5t-26 -67.5q3 1 5.5 1h4.5q26 0 43.5 -17.5t17.5 -43.5
q0 -24 -17.5 -42t-43.5 -18q-25 0 -42.5 18t-17.5 42q0 41 8.5 73.5t22 58t31.5 44.5t37 33z" />
    <glyph glyph-name="quotedblright" unicode="&#x201d;" horiz-adv-x="397" 
d="M51 557q24 19 44 48.5t26 67.5q-3 -1 -5.5 -1h-4.5q-26 0 -43.5 17.5t-17.5 43.5q0 24 17.5 42t43.5 18q25 0 42.5 -18t17.5 -42q0 -41 -8.5 -73.5t-22 -58t-31.5 -44.5t-37 -33zM227 557q24 19 44 48.5t26 67.5q-3 -1 -5.5 -1h-4.5q-26 0 -43.5 17.5t-17.5 43.5
q0 24 17.5 42t43.5 18q25 0 42.5 -18t17.5 -42q0 -41 -8.5 -73.5t-22 -58t-31.5 -44.5t-37 -33z" />
    <glyph glyph-name="quotedblbase" unicode="&#x201e;" horiz-adv-x="397" 
d="M51 -115q24 19 44 48.5t26 67.5q-3 -1 -5.5 -1h-4.5q-26 0 -43.5 17.5t-17.5 43.5q0 24 17.5 42t43.5 18q25 0 42.5 -18t17.5 -42q0 -41 -8.5 -73.5t-22 -58t-31.5 -44.5t-37 -33zM227 -115q24 19 44 48.5t26 67.5q-3 -1 -5.5 -1h-4.5q-26 0 -43.5 17.5t-17.5 43.5
q0 24 17.5 42t43.5 18q25 0 42.5 -18t17.5 -42q0 -41 -8.5 -73.5t-22 -58t-31.5 -44.5t-37 -33z" />
    <glyph glyph-name="dagger" unicode="&#x2020;" horiz-adv-x="490" 
d="M286 870v-340h124v-71h-124v-558h-86v558h-120v71h120v340h86z" />
    <glyph glyph-name="daggerdbl" unicode="&#x2021;" horiz-adv-x="490" 
d="M200 -99v339h-120v71h120v148h-120v71h120v340h86v-340h124v-71h-124v-148h124v-71h-124v-339h-86z" />
    <glyph glyph-name="bullet" unicode="&#x2022;" horiz-adv-x="334" 
d="M234 315q0 -27 -19.5 -46.5t-47.5 -19.5q-27 0 -47 19.5t-20 46.5q0 28 20 47.5t47 19.5q28 0 47.5 -19.5t19.5 -47.5z" />
    <glyph glyph-name="ellipsis" unicode="&#x2026;" horiz-adv-x="690" 
d="M170 60q0 -25 -17 -42.5t-43 -17.5q-25 0 -42.5 17.5t-17.5 42.5q0 26 17.5 43.5t42.5 17.5q26 0 43 -17.5t17 -43.5zM405 60q0 -25 -17 -42.5t-43 -17.5q-25 0 -42.5 17.5t-17.5 42.5q0 26 17.5 43.5t42.5 17.5q26 0 43 -17.5t17 -43.5zM640 60q0 -25 -17 -42.5
t-43 -17.5q-25 0 -42.5 17.5t-17.5 42.5q0 26 17.5 43.5t42.5 17.5q26 0 43 -17.5t17 -43.5z" />
    <glyph glyph-name="perthousand" unicode="&#x2030;" horiz-adv-x="1468" 
d="M289 380q-41 0 -77 16t-63 43t-43 63t-16 77t16 77.5t43 64t63 43.5t77 16t77.5 -16t64 -43.5t43.5 -64t16 -77.5t-16 -77t-43.5 -63t-64 -43t-77.5 -16zM289 680q-20 0 -37.5 -8t-31 -22t-21.5 -32.5t-8 -39.5q0 -20 8 -37.5t21.5 -31t31 -21.5t37.5 -8t38.5 8t32 21.5
t21.5 31t8 37.5q0 21 -8 39.5t-21.5 32.5t-32 22t-38.5 8zM244 0h-131l657 770h132zM730 -10q-41 0 -77.5 16t-63.5 43t-42.5 63.5t-15.5 77.5t15.5 77.5t42.5 63.5t63.5 43t77.5 16t77.5 -16t63.5 -43t43 -63.5t16 -77.5t-16 -77.5t-43 -63.5t-63.5 -43t-77.5 -16zM730 290
q-20 0 -38 -8t-31.5 -22t-21 -32t-7.5 -39q0 -20 7.5 -38t21 -31.5t31.5 -21.5t38 -8t38 8t31.5 21.5t21.5 31.5t8 38q0 21 -8 39t-21.5 32t-31.5 22t-38 8zM1178 -10q-41 0 -77.5 16t-63.5 43t-42.5 63.5t-15.5 77.5t15.5 77.5t42.5 63.5t63.5 43t77.5 16t77.5 -16
t63.5 -43t43 -63.5t16 -77.5t-16 -77.5t-43 -63.5t-63.5 -43t-77.5 -16zM1178 290q-20 0 -38 -8t-31.5 -22t-21 -32t-7.5 -39q0 -20 7.5 -38t21 -31.5t31.5 -21.5t38 -8t38 8t31.5 21.5t21.5 31.5t8 38q0 21 -8 39t-21.5 32t-31.5 22t-38 8z" />
    <glyph glyph-name="guilsinglleft" unicode="&#x2039;" horiz-adv-x="371" 
d="M225 0l-200 250l200 250h96l-200 -250l200 -250h-96z" />
    <glyph glyph-name="guilsinglright" unicode="&#x203a;" horiz-adv-x="371" 
d="M50 0l200 250l-200 250h96l200 -250l-200 -250h-96z" />
    <glyph glyph-name="Euro" unicode="&#x20ac;" horiz-adv-x="769" 
d="M400 422h-193q-2 -9 -2 -18.5v-18.5v-19t2 -18h193v-65h-180q13 -41 35.5 -76.5t54 -61.5t71 -40.5t85.5 -14.5q50 0 97.5 19.5t101.5 58.5l54 -80q-63 -48 -124.5 -73t-128.5 -25q-69 0 -128.5 22.5t-107 61.5t-81 92.5t-49.5 116.5h-50v65h39q-1 9 -1 18v19v18.5
t1 18.5h-39v65h50q16 63 49.5 116.5t81 92.5t107.5 61.5t128 22.5q63 0 118.5 -20.5t118.5 -62.5l-54 -82q-51 34 -93 49.5t-90 15.5q-46 0 -85.5 -15t-71 -41t-54 -61t-35.5 -76h180v-65z" />
    <glyph glyph-name="trademark" unicode="&#x2122;" horiz-adv-x="853" 
d="M745 369v222l-106 -115l-110 116v-223h-78v418l188 -192l184 193v-419h-78zM404 700h-148v-331h-78v331h-148v70h374v-70z" />
    </font>
</defs>
</svg>
