<?xml version="1.0" standalone="no"?>
<!DOCTYPE svg PUBLIC "-//W3C//DTD SVG 1.1//EN" "http://www.w3.org/Graphics/SVG/1.1/DTD/svg11.dtd" >
<svg xmlns="http://www.w3.org/2000/svg" xmlns:xlink="http://www.w3.org/1999/xlink" version="1.1">
<metadata>
Created by FontForge 20200314 at Sat Sep  6 14:01:43 2014
 By Unknown
Copyright (c) 2014 by M-B Creative. All rights reserved.
</metadata>
<defs>
<font id="MBEmpireLightW01-Light" horiz-adv-x="929" >
  <font-face 
    font-family="MBEmpireLightW01-Light"
    font-weight="300"
    font-stretch="normal"
    units-per-em="1000"
    panose-1="2 0 0 0 0 0 0 0 0 0"
    ascent="800"
    descent="-200"
    x-height="500"
    cap-height="770"
    bbox="-40 -265 1247 1000"
    underline-thickness="50"
    underline-position="-175"
    unicode-range="U+0020-2122"
  />
<missing-glyph horiz-adv-x="275" 
 />
    <glyph glyph-name=".notdef" horiz-adv-x="275" 
 />
    <glyph glyph-name=".null" horiz-adv-x="0" 
 />
    <glyph glyph-name="nonmarkingreturn" horiz-adv-x="333" 
 />
    <glyph glyph-name="space" unicode=" " horiz-adv-x="275" 
 />
    <glyph glyph-name="exclam" unicode="!" horiz-adv-x="265" 
d="M154 200h-43v301v269h50v-269zM175 42q0 -18 -12.5 -30t-30.5 -12t-30 12t-12 30t12 30.5t30 12.5t30.5 -12.5t12.5 -30.5z" />
    <glyph glyph-name="quotedbl" unicode="&#x22;" horiz-adv-x="247" 
d="M58 500v159v134h34v-134v-159h-34zM163 500v159v134h34v-134v-159h-34z" />
    <glyph glyph-name="numbersign" unicode="#" horiz-adv-x="722" 
d="M657 220h-122v-220h-46v220h-255v-220h-46v220h-123v43h123v245h-123v43h123v219h46v-219h255v219h46v-219h122v-43h-122v-245h122v-43zM234 263h255v245h-255v-245z" />
    <glyph glyph-name="dollar" unicode="$" horiz-adv-x="616" 
d="M327 870v-90q55 -4 102 -23t97 -55l-32 -42q-45 32 -85 47t-82 18v-302q40 -14 78.5 -31.5t68.5 -43t48.5 -61t18.5 -86.5q0 -54 -16.5 -92.5t-45.5 -64t-68 -38.5t-84 -15v-92h-42v92q-57 2 -106 20t-104 57l31 42q48 -34 89.5 -48.5t89.5 -16.5v330q-36 12 -71 28
t-63 39t-45.5 55t-17.5 76q0 53 17.5 91.5t46 63t63.5 37.5t70 15v90h42zM481 201q0 34 -13 59t-34.5 43.5t-49 32t-57.5 24.5v-314q79 5 116.5 45t37.5 110zM148 573q0 -28 12 -49t31 -36.5t43.5 -27.5t50.5 -22v287q-27 -2 -52 -12t-43.5 -28.5t-30 -46t-11.5 -65.5z" />
    <glyph glyph-name="percent" unicode="%" horiz-adv-x="928" 
d="M280 410q-38 0 -72 14.5t-59 39.5t-39.5 59t-14.5 72t14.5 72t39.5 59t59 39.5t72 14.5t72 -14.5t59 -39.5t39.5 -59t14.5 -72t-14.5 -72t-39.5 -59t-59 -39.5t-72 -14.5zM280 725q-27 0 -50.5 -10.5t-41 -28t-28 -41t-10.5 -50.5t10.5 -50.5t28 -41t41 -28t50.5 -10.5
t50.5 10.5t41 28t28 41t10.5 50.5t-10.5 50.5t-28 41t-41 28t-50.5 10.5zM159 0h-69l679 770h69zM651 -10q-38 0 -72 14.5t-59 39.5t-39.5 59t-14.5 72t14.5 72t39.5 59t59 39.5t72 14.5t72 -14.5t59 -39.5t39.5 -59t14.5 -72t-14.5 -72t-39.5 -59t-59 -39.5t-72 -14.5z
M651 305q-27 0 -50.5 -10.5t-41 -28t-28 -41t-10.5 -50.5t10.5 -50.5t28 -41t41 -28t50.5 -10.5t50.5 10.5t41 28t28 41t10.5 50.5t-10.5 50.5t-28 41t-41 28t-50.5 10.5z" />
    <glyph glyph-name="ampersand" unicode="&#x26;" horiz-adv-x="828" 
d="M668 0l-117 117q-54 -56 -118.5 -91.5t-135.5 -35.5q-45 0 -85.5 14t-71 40t-48 63.5t-17.5 84.5q0 43 16 76.5t42 59t59.5 45t68.5 35.5q-22 21 -40 41t-31 41t-20.5 44.5t-7.5 52.5q0 38 14.5 73t40 61.5t60 42.5t73.5 16q40 0 74.5 -15t59.5 -40.5t39 -59.5t14 -73
t-14 -69.5t-37.5 -55t-55 -43.5t-67.5 -35l187 -187q26 37 39.5 72.5t13.5 80.5h58q0 -51 -19.5 -100.5t-50.5 -92.5l162 -162h-85zM133 192q0 -37 14.5 -65t38 -46.5t52.5 -28t59 -9.5q57 0 113 31.5t102 81.5l-207 208q-34 -15 -65 -31t-55 -36t-38 -45.5t-14 -59.5z
M479 592q0 27 -10 51.5t-27 43t-41 29.5t-51 11q-26 0 -49.5 -11.5t-41.5 -31t-28.5 -45t-10.5 -52.5q0 -26 10.5 -50.5t29.5 -43.5l60 -61q33 15 61.5 30t50.5 34t34.5 42t12.5 54z" />
    <glyph glyph-name="quotesingle" unicode="'" horiz-adv-x="142" 
d="M58 500v159v134h34v-134v-159h-34z" />
    <glyph glyph-name="parenleft" unicode="(" horiz-adv-x="289" 
d="M214 -71q-68 104 -101 218.5t-33 238.5q0 125 33 241t101 219l35 -27q-55 -80 -84 -190.5t-29 -242.5q0 -131 29 -240.5t83 -189.5z" />
    <glyph glyph-name="parenright" unicode=")" horiz-adv-x="289" 
d="M41 -44q54 80 83 189.5t29 240.5q0 132 -29 242.5t-84 190.5l35 27q68 -103 101 -219t33 -241q0 -124 -33 -238.5t-101 -218.5z" />
    <glyph glyph-name="asterisk" unicode="*" horiz-adv-x="438" 
d="M325 757l27 -27l-59 -59l-44 -34l55 6h84v-38h-84l-55 6l44 -34l59 -59l-27 -27l-59 59l-35 44l7 -55v-84h-38v84l6 55l-34 -44l-59 -59l-27 27l59 59l43 34l-54 -6h-84v38h84l54 -6l-43 34l-59 59l27 27l59 -59l34 -44l-6 55v84h38v-84l-7 -55l35 44z" />
    <glyph glyph-name="plus" unicode="+" horiz-adv-x="660" 
d="M590 363h-238v-238h-44v238h-238v44h238v238h44v-238h238v-44z" />
    <glyph glyph-name="comma" unicode="," horiz-adv-x="197" 
d="M50 -131q29 23 50.5 60.5t21.5 75.5q-2 -2 -6 -3q-8 -2 -15 -2q-20 0 -33.5 13.5t-13.5 33.5q0 19 13.5 32.5t33.5 13.5q19 0 32.5 -13.5t13.5 -32.5q0 -41 -7.5 -72t-19.5 -54t-27.5 -40t-31.5 -29z" />
    <glyph glyph-name="hyphen" unicode="-" horiz-adv-x="419" 
d="M369 255h-319v45h319v-45z" />
    <glyph glyph-name="period" unicode="." horiz-adv-x="193" 
d="M143 46q0 -19 -13.5 -32.5t-33.5 -13.5q-19 0 -32.5 13.5t-13.5 32.5q0 20 13.5 33.5t32.5 13.5q20 0 33.5 -13.5t13.5 -33.5z" />
    <glyph glyph-name="slash" unicode="/" horiz-adv-x="372" 
d="M69 0h-49l283 770h49z" />
    <glyph glyph-name="zero" unicode="0" horiz-adv-x="710" 
d="M354 -10q-70 0 -123 32.5t-89 87.5t-54 126.5t-18 149.5q0 70 16 141t50.5 128t88.5 93t129 36t129.5 -36t89 -93t51 -128t16.5 -141q0 -78 -18.5 -149.5t-54.5 -126.5t-89.5 -87.5t-123.5 -32.5zM354 730q-60 0 -102.5 -30.5t-70 -79t-40.5 -110t-13 -124.5t13.5 -124.5
t41.5 -109.5t70.5 -78t100.5 -30t101 30t71 78t42 109.5t14 124.5t-13.5 124.5t-41 110t-70.5 79t-103 30.5z" />
    <glyph glyph-name="one" unicode="1" horiz-adv-x="218" 
d="M138 770v-770h-58v770h58z" />
    <glyph glyph-name="two" unicode="2" horiz-adv-x="633" 
d="M563 0h-493l368 463q24 30 33.5 59.5t9.5 58.5q0 40 -13.5 68.5t-35.5 46.5t-48.5 26t-53.5 8q-50 0 -96.5 -15.5t-97.5 -51.5l-31 42q55 41 109 60t116 19q36 0 73 -11t67 -35t49.5 -63t19.5 -94q0 -39 -16.5 -78.5t-46.5 -77.5l-293 -372h380v-53z" />
    <glyph glyph-name="three" unicode="3" horiz-adv-x="606" 
d="M298 -10q-59 0 -114.5 19t-113.5 61l34 42q51 -36 97 -52t97 -16q34 0 66.5 12t57 35.5t39.5 58.5t15 81q0 57 -21 93.5t-52 57.5t-67 29.5t-66 8.5h-55l218 297h-301v53h404l-221 -303q46 -5 86.5 -23t69.5 -48t46 -71.5t17 -93.5q0 -55 -17 -99.5t-48.5 -76t-75 -48.5
t-95.5 -17z" />
    <glyph glyph-name="four" unicode="4" horiz-adv-x="637" 
d="M466 0h-58v263h-378l436 530v-477h121v-53h-121v-263zM141 316h267v327z" />
    <glyph glyph-name="five" unicode="5" horiz-adv-x="588" 
d="M281 -10q-32 0 -59 3t-52 10.5t-49 20.5t-51 32l34 44q23 -16 43 -27t40.5 -17.5t43 -9t49.5 -2.5q44 0 78 17t56.5 45.5t34 64.5t11.5 74q0 52 -19.5 88t-51.5 58.5t-73.5 32.5t-86.5 10q-27 0 -59.5 -4t-61.5 -10l60 350h299v-53h-256l-39 -231q10 1 29.5 1.5t27.5 0.5
q61 0 114 -14t92 -44t61 -76t22 -109q0 -49 -15 -95t-44.5 -81.5t-74 -57t-103.5 -21.5z" />
    <glyph glyph-name="six" unicode="6" horiz-adv-x="584" 
d="M297 -10q-49 0 -92 18.5t-75.5 51t-51 75.5t-18.5 91q0 77 25 147.5t63 132t82.5 111.5t83.5 86t65.5 55.5t29.5 19.5l29 -46l-29.5 -21t-72.5 -61t-91.5 -99t-86.5 -136q29 24 65.5 35.5t73.5 11.5q49 0 92 -18.5t75.5 -50.5t51 -75t18.5 -92q0 -48 -18.5 -91t-51 -75.5
t-75.5 -51t-92 -18.5zM297 408q-36 0 -68.5 -14t-57 -38.5t-39 -58t-14.5 -71.5q0 -37 14 -70t38.5 -58t57 -39.5t69.5 -14.5t69.5 14.5t57 39.5t38.5 58t14 70t-14 70t-38.5 58t-57 39.5t-69.5 14.5z" />
    <glyph glyph-name="seven" unicode="7" horiz-adv-x="563" 
d="M164 0h-59l341 717h-416v53h503z" />
    <glyph glyph-name="eight" unicode="8" horiz-adv-x="593" 
d="M296 -10q-47 0 -88.5 18t-72 48.5t-48 72t-17.5 88.5q0 31 8.5 60.5t24 56t38 48t50.5 36.5q-44 25 -68 69.5t-24 98.5q0 41 15.5 77t42 63t62.5 42.5t77 15.5t77 -15.5t63 -42.5t42.5 -63t15.5 -77q0 -54 -24.5 -98.5t-68.5 -69.5q55 -29 88.5 -83t33.5 -118
q0 -47 -18 -88.5t-48.5 -72t-72 -48.5t-88.5 -18zM296 387q-35 0 -65.5 -13.5t-53.5 -36.5t-36 -54t-13 -66t13 -66.5t36 -55t53.5 -37.5t65.5 -14t65.5 14t53.5 37.5t36.5 55t13.5 66.5t-13.5 66t-36.5 54t-53.5 36.5t-65.5 13.5zM296 730q-29 0 -54.5 -11.5t-44 -31.5
t-29.5 -46t-11 -55t11 -54.5t29.5 -45t44 -30.5t54.5 -11t54.5 11t44.5 30.5t30 45t11 54.5t-11 55t-30 46t-44.5 31.5t-54.5 11.5z" />
    <glyph glyph-name="nine" unicode="9" horiz-adv-x="584" 
d="M287 784q49 0 92 -18.5t75.5 -51t51 -75.5t18.5 -91q0 -77 -25 -147.5t-63.5 -132t-83 -112.5t-83 -87t-65.5 -56t-29 -21l-29 46q0 1 13.5 11t36.5 28.5t52.5 45.5t60.5 62.5t61.5 79t55.5 94.5q-29 -24 -65.5 -35.5t-73.5 -11.5q-49 0 -92 18.5t-75.5 50.5t-51 75
t-18.5 92q0 48 18.5 91t51 75.5t75.5 51t92 18.5zM287 366q36 0 68.5 14t57 38.5t39 58t14.5 71.5q0 37 -14 70t-38.5 58t-57 39.5t-69.5 14.5t-69.5 -14.5t-57 -39.5t-38.5 -58t-14 -70t14 -70t38.5 -58t57 -39.5t69.5 -14.5z" />
    <glyph glyph-name="colon" unicode=":" horiz-adv-x="193" 
d="M143 453q0 -19 -13.5 -32.5t-33.5 -13.5q-19 0 -32.5 13.5t-13.5 32.5q0 20 13.5 33.5t32.5 13.5q20 0 33.5 -13.5t13.5 -33.5zM143 46q0 -19 -13.5 -32.5t-33.5 -13.5q-19 0 -32.5 13.5t-13.5 32.5q0 20 13.5 33.5t32.5 13.5q20 0 33.5 -13.5t13.5 -33.5z" />
    <glyph glyph-name="semicolon" unicode=";" horiz-adv-x="197" 
d="M50 -131q29 23 50.5 60.5t21.5 75.5q-2 -2 -6 -3q-8 -2 -15 -2q-20 0 -33.5 13.5t-13.5 33.5q0 19 13.5 32.5t33.5 13.5q19 0 32.5 -13.5t13.5 -32.5q0 -41 -7.5 -72t-19.5 -54t-27.5 -40t-31.5 -29zM147 453q0 -19 -13.5 -32.5t-33.5 -13.5q-19 0 -32.5 13.5t-13.5 32.5
q0 20 13.5 33.5t32.5 13.5q20 0 33.5 -13.5t13.5 -33.5z" />
    <glyph glyph-name="less" unicode="&#x3c;" horiz-adv-x="649" 
d="M558 141l-508 233l508 254l20 -42l-421 -210l422 -193z" />
    <glyph glyph-name="equal" unicode="=" horiz-adv-x="660" 
d="M590 506h-520v44h520v-44zM590 220h-520v44h520v-44z" />
    <glyph glyph-name="greater" unicode="&#x3e;" horiz-adv-x="649" 
d="M70 183l422 193l-421 210l20 42l508 -254l-508 -233z" />
    <glyph glyph-name="question" unicode="?" horiz-adv-x="609" 
d="M246 200q1 39 5.5 67t16 50.5t31 41t49.5 39.5q19 13 39.5 28t37 35t27.5 46t11 61q0 40 -14.5 69t-36.5 48t-49.5 28t-52.5 9q-50 0 -95 -14t-95 -50l-30 41q55 40 106.5 58t113.5 18q33 0 70 -11t68 -35.5t51 -64t20 -96.5q0 -42 -10 -73t-28.5 -56t-44.5 -46t-57 -42
q-18 -12 -32.5 -24.5t-24.5 -29t-15 -40t-5 -57.5h-56zM317 42q0 -18 -12.5 -30t-30.5 -12t-30 12t-12 30t12 30.5t30 12.5t30.5 -12.5t12.5 -30.5z" />
    <glyph glyph-name="at" unicode="@" horiz-adv-x="1110" 
d="M822 61q45 0 76 22.5t49.5 57.5t27 76.5t8.5 79.5q0 88 -34 166.5t-92.5 138t-136.5 94.5t-165 35q-88 0 -165.5 -34.5t-136 -94t-92.5 -138t-34 -165.5q0 -88 34 -167t92 -138t136 -94t165 -35q65 0 128.5 17.5t123.5 59.5l28 -38q-68 -48 -137 -69.5t-143 -21.5
q-101 0 -189 39t-153.5 106t-103.5 155t-38 186q0 99 38.5 187t104.5 154t154.5 104.5t187.5 38.5q100 0 188.5 -39t154.5 -105.5t104 -154.5t38 -187q0 -50 -13.5 -101.5t-40.5 -93t-68 -67.5t-96 -26q-31 0 -54 11.5t-38 29t-22.5 39t-7.5 41.5q-25 -37 -71 -65t-113 -28
q-33 0 -64 10t-55 29.5t-39 47t-15 62.5q0 46 16 77t45 50t71 27t93 8q32 0 63.5 -3.5t57.5 -7.5v76q0 22 -10.5 42t-28.5 35.5t-42.5 24.5t-52.5 9q-40 0 -80.5 -17.5t-73.5 -50.5l-36 34q42 42 90 64t100 22q36 0 70.5 -11.5t61.5 -33t43.5 -51.5t16.5 -67v-231
q0 -21 3.5 -42.5t12.5 -39t23.5 -28.5t35.5 -11zM401 186q0 -22 10 -40t26.5 -30.5t37 -19.5t41.5 -7q42 0 73.5 10.5t53.5 27.5t33.5 38t12.5 42v83q-28 3 -61 6.5t-64 3.5q-32 0 -61 -5t-52 -17.5t-36.5 -35t-13.5 -56.5z" />
    <glyph glyph-name="A" unicode="A" horiz-adv-x="771" 
d="M97 0h-67l356 793l355 -793h-67l-107 248h-362zM228 301h314l-156 359z" />
    <glyph glyph-name="B" unicode="B" horiz-adv-x="647" 
d="M90 0v770h186q49 0 91 -13.5t72.5 -39t48 -63t17.5 -86.5q0 -54 -28.5 -97.5t-69.5 -64.5q33 -7 62.5 -24.5t52.5 -42.5t36.5 -57t13.5 -68q0 -53 -20 -93t-54.5 -67t-80.5 -40.5t-99 -13.5h-228zM150 53h168q39 0 74 9.5t61.5 29.5t42.5 50t16 72q0 36 -16 64.5
t-42 48.5t-61 30.5t-72 10.5h-171v-315zM150 421h104q40 0 75 9t60.5 27t40.5 45.5t15 65.5q0 66 -42 107.5t-127 41.5h-126v-296z" />
    <glyph glyph-name="C" unicode="C" horiz-adv-x="801" 
d="M475 -10q-83 0 -155.5 31.5t-127 85.5t-86 125.5t-31.5 152.5t31.5 153t86 125.5t127.5 85t155 31.5q63 0 124 -18.5t113 -53.5l-29 -45q-46 30 -100 46t-108 16q-71 0 -132.5 -27.5t-108 -74t-73 -108t-26.5 -130.5t26.5 -131t73 -108.5t108 -73.5t132.5 -27
q58 0 117 21t109 57l30 -45q-26 -20 -57 -36.5t-64 -28t-67.5 -17.5t-67.5 -6z" />
    <glyph glyph-name="D" unicode="D" horiz-adv-x="786" 
d="M90 0v770h230q85 0 157 -30t124 -82t81 -122t29 -150q0 -81 -29 -151t-81 -122.5t-124 -82.5t-157 -30h-230zM320 53q71 0 132 26t105.5 71t69.5 105.5t25 130.5q0 69 -25 129.5t-69.5 105.5t-105.5 70.5t-132 25.5h-170v-664h170z" />
    <glyph glyph-name="E" unicode="E" horiz-adv-x="604" 
d="M479 359h-329v-306h379v-53h-439v770h429v-53h-369v-305h329v-53z" />
    <glyph glyph-name="F" unicode="F" horiz-adv-x="585" 
d="M470 359h-320v-359h-60v770h420v-53h-360v-305h320v-53z" />
    <glyph glyph-name="G" unicode="G" horiz-adv-x="817" 
d="M475 -10q-88 0 -161.5 31t-126.5 84t-82.5 125t-29.5 154q0 85 30 157.5t83.5 125.5t127 83t159.5 30q59 0 122 -17.5t115 -52.5l-29 -45q-46 30 -101.5 45t-106.5 15q-74 0 -136.5 -26t-107.5 -71.5t-70.5 -108t-25.5 -135.5q0 -71 25.5 -133t71 -108t108 -72t135.5 -26
q24 0 51 5t54.5 13t53.5 19.5t48 25.5v194h-153v53h213v-272q-56 -40 -124 -66.5t-143 -26.5z" />
    <glyph glyph-name="H" unicode="H" horiz-adv-x="710" 
d="M620 0h-60v359h-410v-359h-60v770h60v-358h410v358h60v-770z" />
    <glyph glyph-name="I" unicode="I" horiz-adv-x="240" 
d="M150 770v-770h-60v770h60z" />
    <glyph glyph-name="J" unicode="J" horiz-adv-x="230" 
d="M-30 -200q40 10 62.5 26.5t33 37t12.5 43t2 45.5v818h60v-818q0 -43 -8 -76t-26.5 -58t-48.5 -42.5t-74 -29.5z" />
    <glyph glyph-name="K" unicode="K" horiz-adv-x="658" 
d="M548 0l-398 358v-358h-60v770h60v-372l371 372h77l-388 -388l418 -382h-80z" />
    <glyph glyph-name="L" unicode="L" horiz-adv-x="559" 
d="M90 0v770h60v-717h379v-53h-439z" />
    <glyph glyph-name="M" unicode="M" horiz-adv-x="855" 
d="M705 637l-277 -304l-278 304v-637h-60v793l338 -375l337 375v-793h-60v637z" />
    <glyph glyph-name="N" unicode="N" horiz-adv-x="816" 
d="M150 633v-633h-60v793l576 -665v642h60v-801z" />
    <glyph glyph-name="O" unicode="O" 
d="M466 -10q-82 0 -154 31t-126 85t-85 126t-31 154q0 81 31 152.5t85 125.5t126 85t154 31t154 -31.5t125 -85.5t83.5 -125.5t30.5 -151.5q0 -82 -31 -154t-84 -126t-125 -85t-153 -31zM466 725q-69 0 -130.5 -27t-107 -73.5t-72 -108t-26.5 -130.5t26.5 -131t72 -108.5
t107 -74t130.5 -27.5t129.5 27.5t106 74t71.5 108.5t26 131t-26 130.5t-71.5 108t-106 73.5t-129.5 27z" />
    <glyph glyph-name="P" unicode="P" horiz-adv-x="642" 
d="M90 0v770h228q52 0 98.5 -14t81 -42t54.5 -68.5t20 -92.5q0 -49 -20 -87.5t-54 -65t-78.5 -40.5t-92.5 -14h-177v-346h-60zM327 399q36 0 69 10.5t59 30.5t41.5 48.5t15.5 64.5q0 42 -16.5 72.5t-43.5 51t-62 30.5t-72 10h-168v-318h177z" />
    <glyph glyph-name="Q" unicode="Q" 
d="M466 -10q-82 0 -154 31t-126 85t-85 126t-31 154q0 81 31 152.5t85 125.5t126 85t154 31t154 -31.5t125 -85.5t83.5 -125.5t30.5 -151.5q0 -106 -49.5 -193t-131.5 -140h172v-53h-296q-22 -5 -43.5 -7.5t-44.5 -2.5zM466 725q-69 0 -130.5 -27t-107 -73.5t-72 -108
t-26.5 -130.5t26.5 -131t72 -108.5t107 -74t130.5 -27.5t129.5 27.5t106 74t71.5 108.5t26 131t-26 130.5t-71.5 108t-106 73.5t-129.5 27z" />
    <glyph glyph-name="R" unicode="R" horiz-adv-x="680" 
d="M150 0h-60v770h229q51 0 97 -14t80.5 -42t55 -68.5t20.5 -94.5q0 -43 -16 -77.5t-43 -59.5t-63 -41t-76 -23l256 -350h-72l-252 346h-156v-346zM150 399h171q37 0 71.5 10t61 29.5t42.5 48t16 64.5q0 42 -16 73t-43 51.5t-62 31t-72 10.5h-169v-318z" />
    <glyph glyph-name="S" unicode="S" horiz-adv-x="616" 
d="M304 -10q-64 0 -117 18t-112 60l31 42q52 -37 98 -51t100 -14q91 0 134 40.5t43 115.5q0 41 -17 68.5t-44.5 46.5t-63 33t-72 27t-72 28.5t-63 37.5t-44.5 53.5t-17 77.5q0 57 20 96.5t51 64t69 36t74 11.5q64 0 116.5 -19t107.5 -60l-32 -42q-51 37 -96 51.5t-96 14.5
q-29 0 -57 -8.5t-49.5 -27t-34.5 -47.5t-13 -70q0 -47 29 -74.5t73 -47t94.5 -36.5t94.5 -42.5t73 -65.5t29 -106q0 -57 -19 -97t-51 -65.5t-75 -37t-92 -11.5z" />
    <glyph glyph-name="T" unicode="T" horiz-adv-x="726" 
d="M676 717h-284v-717h-59v717h-283v53h626v-53z" />
    <glyph glyph-name="U" unicode="U" horiz-adv-x="798" 
d="M399 -10q-62 0 -117.5 24.5t-98 66t-67.5 96.5t-25 116v10v467h60v-467q0 -52 19 -99t52 -82t78.5 -56t98.5 -21t98.5 21t79 56t52.5 82t19 99v467h59v-466v-10q0 -61 -25 -116t-67.5 -97t-98.5 -66.5t-117 -24.5z" />
    <glyph glyph-name="V" unicode="V" horiz-adv-x="756" 
d="M30 770h65l282 -659l283 659h66l-349 -801z" />
    <glyph glyph-name="W" unicode="W" horiz-adv-x="1208" 
d="M604 600l-264 -631l-310 801h64l248 -640l262 628l262 -628l248 640h64l-310 -801z" />
    <glyph glyph-name="X" unicode="X" horiz-adv-x="722" 
d="M101 0h-71l299 395l-283 375h69l246 -326l246 326h69l-282 -375l298 -395h-71l-260 346z" />
    <glyph glyph-name="Y" unicode="Y" horiz-adv-x="710" 
d="M385 0h-60v334l-295 436h67l258 -381l258 381h67l-295 -436v-334z" />
    <glyph glyph-name="Z" unicode="Z" horiz-adv-x="780" 
d="M60 0l543 717h-509v53h623l-544 -717h547v-53h-660z" />
    <glyph glyph-name="bracketleft" unicode="[" horiz-adv-x="315" 
d="M275 -70h-195v920h195v-45h-145v-830h145v-45z" />
    <glyph glyph-name="backslash" unicode="\" horiz-adv-x="372" 
d="M20 770h49l283 -770h-49z" />
    <glyph glyph-name="bracketright" unicode="]" horiz-adv-x="315" 
d="M40 -25h145v830h-145v45h195v-920h-195v45z" />
    <glyph glyph-name="asciicircum" unicode="^" horiz-adv-x="538" 
d="M270 693l-125 -192h-70l195 291l193 -291h-70z" />
    <glyph glyph-name="underscore" unicode="_" horiz-adv-x="626" 
d="M576 -74h-526v45h526v-45z" />
    <glyph glyph-name="grave" unicode="`" horiz-adv-x="396" 
d="M156 770l140 -170h-38l-158 170h56z" />
    <glyph glyph-name="a" unicode="a" horiz-adv-x="532" 
d="M457 0h-57v66q-11 -14 -26.5 -28.5t-36.5 -26t-47.5 -19t-59.5 -7.5t-63.5 10t-54 29t-38 46t-14.5 61q0 46 17 77.5t46.5 50t69.5 26.5t87 8q32 0 63.5 -3.5t56.5 -7.5v62q0 31 -12 53.5t-31.5 37.5t-43 22t-45.5 7q-40 0 -77.5 -14.5t-70.5 -46.5l-36 36q79 77 184 77
q39 0 73.5 -12t60 -34t40.5 -54t15 -72v-344zM230 37q41 0 73 10.5t53.5 28t32.5 38.5t11 42v77q-28 4 -59.5 7t-60.5 3q-32 0 -61 -4.5t-52 -17t-36.5 -34.5t-13.5 -56q0 -21 10 -38.5t26 -30t36 -19t41 -6.5z" />
    <glyph glyph-name="b" unicode="b" horiz-adv-x="582" 
d="M132 0h-57v770h57v-313q29 26 66.5 42.5t81.5 16.5q52 0 97 -21.5t78.5 -58t52.5 -84.5t19 -102q0 -53 -19 -101t-52.5 -84.5t-78.5 -58t-97 -21.5q-44 0 -81.5 16t-66.5 42v-43zM273 37q42 0 78 17t62.5 46t41.5 67.5t15 82.5t-15 83t-41.5 68t-62.5 46t-78 17
t-77 -17.5t-64 -44.5v-302q29 -29 64.5 -46t76.5 -17z" />
    <glyph glyph-name="c" unicode="c" horiz-adv-x="531" 
d="M314 -15q-57 0 -104.5 21.5t-82 58.5t-53.5 85t-19 101q0 54 20 102.5t55 84.5t82.5 57t101.5 21q41 0 81 -11t75 -33l-27 -43q-29 19 -62.5 27t-66.5 8q-43 0 -80 -17t-64 -46t-42.5 -67.5t-15.5 -82.5q0 -43 16 -82t43 -68t64 -46.5t79 -17.5q33 0 68 10.5t68 34.5
l31 -41q-41 -29 -83.5 -42.5t-83.5 -13.5z" />
    <glyph glyph-name="d" unicode="d" horiz-adv-x="582" 
d="M450 43q-29 -26 -66.5 -42t-81.5 -16q-52 0 -97 21.5t-78.5 58t-52.5 84.5t-19 101q0 54 19 102t52.5 84.5t78.5 58t97 21.5q44 0 81.5 -16.5t66.5 -42.5v313h57v-770h-57v43zM309 37q41 0 76.5 17t64.5 46v302q-29 27 -64 44.5t-77 17.5t-78 -17t-62.5 -46t-41.5 -68
t-15 -83t15 -82.5t41.5 -67.5t62.5 -46t78 -17z" />
    <glyph glyph-name="e" unicode="e" horiz-adv-x="604" 
d="M319 -15q-54 0 -102 21t-84 57.5t-57 84.5t-21 102t19 102.5t53 85t80.5 57.5t101.5 21q48 0 92 -17.5t77.5 -50t54 -77.5t20.5 -100v-13h-441q0 -48 15.5 -88.5t43.5 -70t65.5 -46t82.5 -16.5q54 0 95 10.5t75 36.5l31 -41q-41 -31 -91 -44.5t-110 -13.5zM494 308
q-5 28 -19 56t-37.5 50.5t-56 36t-72.5 13.5q-37 0 -68 -12t-55.5 -33t-41.5 -49.5t-25 -61.5h375z" />
    <glyph glyph-name="f" unicode="f" horiz-adv-x="326" 
d="M333 702q-46 31 -81 31t-53 -14.5t-26.5 -37t-9.5 -50t-1 -53.5v-78h117v-50h-117v-450h-57v450h-65v50h65v78q0 40 4 77.5t19 66t44.5 46t79.5 17.5t109 -40z" />
    <glyph glyph-name="g" unicode="g" horiz-adv-x="562" 
d="M281 -265q-39 0 -81 9t-76.5 27.5t-56.5 47t-22 67.5q0 48 27.5 80t67.5 46q-16 9 -32 23.5t-16 45.5q0 18 7 31t18 23t24.5 16t26.5 10q-40 23 -65.5 67.5t-25.5 93.5q0 40 15.5 75t41.5 61.5t61.5 42t75.5 15.5q21 0 43 -5.5t42 -15.5h137v-50h-73q20 -25 32 -55
t12 -68q0 -40 -15 -74.5t-41.5 -60t-61.5 -40t-74 -14.5q-37 0 -61.5 -4t-38.5 -11t-20 -16.5t-6 -20.5q0 -14 10.5 -22.5t27.5 -13.5t38.5 -7t43.5 -2q128 0 189.5 -34.5t61.5 -115.5q0 -42 -23.5 -71t-59 -47t-77 -25.5t-76.5 -7.5zM271 464q-29 0 -53.5 -11.5t-43.5 -31
t-29.5 -45.5t-10.5 -54q0 -29 10.5 -53.5t29.5 -43.5t43.5 -29.5t53.5 -10.5q28 0 53 10.5t43.5 29.5t29 43.5t10.5 53.5q0 28 -10.5 54t-29 45.5t-43.5 31t-53 11.5zM267 -16q-29 0 -58.5 -3t-53 -13.5t-38.5 -30t-15 -51.5q0 -24 16.5 -42.5t42.5 -31t57.5 -19t62.5 -6.5
q25 0 56 5.5t58.5 17t46 30.5t18.5 46q0 31 -16 50t-42.5 29.5t-61.5 14.5t-73 4z" />
    <glyph glyph-name="h" unicode="h" horiz-adv-x="547" 
d="M472 0h-57v335q0 25 -9.5 48.5t-26 41.5t-39 28.5t-47.5 10.5q-44 0 -74.5 -17.5t-49.5 -46t-28 -63.5t-9 -70v-267h-57v770h57v-351q24 42 69.5 69.5t98.5 27.5q37 0 68.5 -14.5t54.5 -39.5t36 -57.5t13 -69.5v-335z" />
    <glyph glyph-name="i" unicode="i" horiz-adv-x="219" 
d="M81 0v500h57v-500h-57zM146 723q0 -16 -10 -26t-27 -10q-16 0 -26 10t-10 26q0 17 10 27t26 10q17 0 27 -10t10 -27z" />
    <glyph glyph-name="j" unicode="j" horiz-adv-x="251" 
d="M0 -213q40 10 62.5 26.5t34 36.5t14 42.5t2.5 44.5v563h57v-563q0 -76 -36 -130t-121 -72zM178 723q0 -16 -10 -26t-27 -10q-16 0 -26 10t-10 26q0 17 10 27t26 10q17 0 27 -10t10 -27z" />
    <glyph glyph-name="k" unicode="k" horiz-adv-x="525" 
d="M427 0l-295 247v-247h-57v770h57v-500l253 230h76l-269 -237l313 -263h-78z" />
    <glyph glyph-name="l" unicode="l" horiz-adv-x="207" 
d="M132 770v-770h-57v770h57z" />
    <glyph glyph-name="m" unicode="m" horiz-adv-x="861" 
d="M786 0h-57v335q0 26 -9 49.5t-25.5 41t-40 28t-53.5 10.5q-26 0 -51.5 -10.5t-45.5 -28t-32.5 -39.5t-12.5 -45v-341h-57v356q0 21 -9 40.5t-24 34.5t-35 24t-41 9q-44 0 -74.5 -17.5t-49.5 -46t-28 -63.5t-9 -70v-267h-57v500h57v-81q10 18 26.5 35t37.5 31t47.5 22.5
t56.5 8.5q44 0 82.5 -25.5t58.5 -62.5q24 37 67.5 62.5t92.5 25.5q41 0 75 -13.5t58.5 -37.5t38 -57.5t13.5 -72.5v-335z" />
    <glyph glyph-name="n" unicode="n" horiz-adv-x="547" 
d="M472 0h-57v335q0 25 -9.5 48.5t-26 41.5t-39 28.5t-47.5 10.5q-44 0 -74.5 -18t-49.5 -46t-28 -63.5t-9 -69.5v-267h-57v500h57v-81q24 42 69.5 69.5t98.5 27.5q37 0 68.5 -14.5t54.5 -39.5t36 -57.5t13 -69.5v-335z" />
    <glyph glyph-name="o" unicode="o" horiz-adv-x="640" 
d="M320 -15q-57 0 -105.5 21.5t-84 58t-55.5 85t-20 101.5q0 54 20.5 102t56.5 84t84.5 57.5t103.5 21.5q56 0 104.5 -21t84 -57.5t56 -84.5t20.5 -102q0 -53 -20 -101.5t-55 -85t-83.5 -58t-106.5 -21.5zM320 464q-43 0 -80.5 -17.5t-66 -46.5t-45 -67.5t-16.5 -81.5
t16.5 -82t45 -68t66 -46.5t80.5 -17.5t81 17.5t66 46.5t44.5 68t16.5 82t-16.5 81.5t-44.5 67.5t-66 46.5t-81 17.5z" />
    <glyph glyph-name="p" unicode="p" horiz-adv-x="582" 
d="M132 -250h-57v750h57v-43q29 26 66.5 42.5t81.5 16.5q52 0 97 -21.5t78.5 -58t52.5 -84.5t19 -102q0 -53 -19 -101t-52.5 -84.5t-78.5 -58t-97 -21.5q-44 0 -81.5 16t-66.5 42v-293zM273 37q42 0 78 17t62.5 46t41.5 67.5t15 82.5t-15 83t-41.5 68t-62.5 46t-78 17
t-77 -17.5t-64 -44.5v-302q29 -29 64.5 -46t76.5 -17z" />
    <glyph glyph-name="q" unicode="q" horiz-adv-x="582" 
d="M450 43q-29 -26 -66.5 -42t-81.5 -16q-52 0 -97 21.5t-78.5 58t-52.5 84.5t-19 101q0 54 19 102t52.5 84.5t78.5 58t97 21.5q44 0 81.5 -16.5t66.5 -42.5v43h57v-750h-57v293zM309 37q41 0 76.5 17t64.5 46v302q-29 27 -64 44.5t-77 17.5t-78 -17t-62.5 -46t-41.5 -68
t-15 -83t15 -82.5t41.5 -67.5t62.5 -46t78 -17z" />
    <glyph glyph-name="r" unicode="r" horiz-adv-x="409" 
d="M351 440q-22 17 -41.5 20.5t-35.5 3.5q-38 0 -65 -19.5t-44 -48.5t-25 -64t-8 -65v-267h-57v500h57v-80q9 20 25.5 37.5t36.5 30.5t42.5 20.5t44.5 7.5q27 0 47.5 -6.5t50.5 -26.5z" />
    <glyph glyph-name="s" unicode="s" horiz-adv-x="473" 
d="M232 -15q-44 0 -88 13.5t-79 38.5l30 43q29 -23 66 -33t72 -10q119 0 119 91q0 33 -21 52t-52 32.5t-67.5 25t-67.5 28t-52 43t-21 69.5q0 35 13.5 61t36.5 43t53 25.5t64 8.5q41 0 80 -12.5t76 -39.5l-29 -41q-33 24 -64 32.5t-63 8.5q-51 0 -81 -21t-30 -65
q0 -28 21 -45t52 -29.5t67.5 -25t67.5 -31t52 -46.5t21 -73q0 -75 -48 -109t-128 -34z" />
    <glyph glyph-name="t" unicode="t" horiz-adv-x="384" 
d="M312 450h-140v-257q0 -27 1.5 -55t9 -50.5t22.5 -36.5t42 -14q17 0 35 6.5t42 22.5l25 -41q-29 -20 -54.5 -30t-50.5 -10q-41 0 -66.5 16t-39.5 43.5t-18.5 65.5t-4.5 83v257h-85v50h85v171h57v-171h140v-50z" />
    <glyph glyph-name="u" unicode="u" horiz-adv-x="547" 
d="M75 500h57v-334q0 -26 9.5 -49t26 -41t38.5 -28.5t48 -10.5q43 0 74 17.5t50 46t28 63.5t9 70v266h57v-500h-57v82q-24 -42 -69.5 -69.5t-98.5 -27.5q-37 0 -68.5 14.5t-54.5 39t-36 57.5t-13 70v334z" />
    <glyph glyph-name="v" unicode="v" horiz-adv-x="529" 
d="M30 500h61l174 -403l173 403h61l-234 -524z" />
    <glyph glyph-name="w" unicode="w" horiz-adv-x="820" 
d="M585 -24l-175 397l-174 -397l-206 524h61l146 -397l173 397l174 -397l145 397h61z" />
    <glyph glyph-name="x" unicode="x" horiz-adv-x="516" 
d="M94 0h-64l198 264l-176 236h64l142 -191l142 191h64l-176 -236l198 -264h-64l-164 219z" />
    <glyph glyph-name="y" unicode="y" horiz-adv-x="513" 
d="M128 -250h-60l153 323l-191 427h61l159 -370l174 370h59z" />
    <glyph glyph-name="z" unicode="z" horiz-adv-x="527" 
d="M40 0l340 448h-307v52h414l-339 -448h331v-52h-439z" />
    <glyph glyph-name="braceleft" unicode="{" horiz-adv-x="338" 
d="M298 -77q-71 0 -112.5 37.5t-41.5 99.5v237q0 17 -2.5 29.5t-9.5 20.5t-19 12t-33 4v55q22 1 35 6t19.5 13t8 20t1.5 28v236q1 31 13.5 56t33 43t48 27.5t59.5 9.5v-52q-44 0 -73.5 -24t-29.5 -60v-236q0 -27 -8.5 -52.5t-31.5 -42.5q23 -19 31.5 -45t8.5 -48v-237
q0 -36 29.5 -60.5t73.5 -24.5v-52z" />
    <glyph glyph-name="bar" unicode="|" horiz-adv-x="225" 
d="M135 870v-970h-45v970h45z" />
    <glyph glyph-name="braceright" unicode="}" horiz-adv-x="338" 
d="M40 -25q44 0 73.5 24.5t29.5 60.5v237q0 22 8.5 48t31.5 45q-23 17 -31.5 42.5t-8.5 52.5v236q0 36 -29.5 60t-73.5 24v52q32 0 59.5 -9.5t48 -27.5t32.5 -43t14 -56v-236q0 -16 1.5 -28t8 -20t19 -13t35.5 -6v-55q-21 0 -33.5 -4t-19 -12t-9 -20.5t-2.5 -29.5v-237
q0 -62 -41.5 -99.5t-112.5 -37.5v52z" />
    <glyph glyph-name="asciitilde" unicode="~" horiz-adv-x="720" 
d="M74 239q0 35 10.5 67t29.5 56.5t46.5 39t60.5 14.5q30 0 68.5 -19t77 -42.5t73.5 -42.5t58 -19q22 0 39.5 11t28.5 28.5t17 39.5t6 45h56q0 -35 -11 -66.5t-30.5 -56.5t-46.5 -39.5t-59 -14.5q-30 0 -68.5 19t-77 42.5t-73 42.5t-58.5 19q-23 0 -40 -11t-28.5 -28.5
t-17 -40t-5.5 -44.5h-56z" />
    <glyph glyph-name="exclamdown" unicode="&#xa1;" horiz-adv-x="265" 
d="M161 19v-269h-50v269v281h43zM175 458q0 -18 -12.5 -30.5t-30.5 -12.5t-30 12.5t-12 30.5t12 30t30 12t30.5 -12t12.5 -30z" />
    <glyph glyph-name="cent" unicode="&#xa2;" horiz-adv-x="531" 
d="M321 770v-122q39 -2 77.5 -13t71.5 -31l-27 -43q-28 17 -59 25.5t-63 9.5v-427q32 1 64.5 11.5t64.5 33.5l31 -41q-39 -28 -80 -41.5t-80 -14.5v-117h-42v119q-50 7 -91 30.5t-70.5 59.5t-46 80.5t-16.5 93.5q0 50 17 94.5t47 80t71 58.5t89 29v125h42zM112 383
q0 -39 12.5 -74t35 -63.5t53 -47.5t66.5 -26v420q-36 -6 -67 -25t-53 -47t-34.5 -63t-12.5 -74z" />
    <glyph glyph-name="sterling" unicode="&#xa3;" horiz-adv-x="620" 
d="M418 337h-253v-284h373v-53h-463v53h33v284h-33v53h33v197q0 54 19.5 91.5t50.5 61t68 34.5t72 11q62 0 116 -16.5t111 -53.5l-28 -45q-51 35 -100 48t-99 13q-33 0 -61.5 -10t-48.5 -29t-31.5 -45.5t-11.5 -59.5v-197h253v-53z" />
    <glyph glyph-name="currency" unicode="&#xa4;" horiz-adv-x="680" 
d="M75 161l64 64q-31 35 -47.5 80t-16.5 94t17 93t48 79l-65 65l28 27l64 -65q35 30 79 47.5t94 17.5q51 0 94.5 -17.5t78.5 -46.5l64 64l28 -27l-65 -65q31 -35 48 -79t17 -93q0 -50 -17 -94.5t-47 -79.5l64 -64l-27 -28l-64 64q-35 -30 -79 -47t-95 -17t-95 17t-79 47
l-64 -64zM340 611q-43 0 -80.5 -17t-66 -46t-45 -67.5t-16.5 -81.5t16.5 -82t45 -68t66 -46.5t80.5 -17.5t81 17.5t66 46.5t44.5 68t16.5 82t-16.5 81.5t-44.5 67.5t-66 46t-81 17z" />
    <glyph glyph-name="yen" unicode="&#xa5;" horiz-adv-x="710" 
d="M493 298h-108v-48h108v-39h-108v-211h-60v211h-108v39h108v48h-108v39h106l-293 433h67l258 -381l258 381h67l-293 -433h106v-39z" />
    <glyph glyph-name="brokenbar" unicode="&#xa6;" horiz-adv-x="225" 
d="M135 326v-426h-45v426h45zM135 870v-426h-45v426h45z" />
    <glyph glyph-name="section" unicode="&#xa7;" horiz-adv-x="473" 
d="M232 -15q-44 0 -88 13.5t-79 38.5l30 43q29 -23 66 -33t72 -10q119 0 119 91q0 33 -21 52t-52 32.5t-67.5 25t-67.5 28t-52 43t-21 69.5q0 60 36.5 93t90.5 42q-23 8 -46 19.5t-41 28t-29 38t-11 50.5q0 35 13.5 61t36.5 43t53 25.5t64 8.5q41 0 80 -12.5t76 -39.5
l-29 -41q-33 24 -64 32.5t-63 8.5q-51 0 -81 -21t-30 -65q0 -28 21 -45t52 -29.5t67.5 -25t67.5 -31t52 -46.5t21 -73q0 -57 -28 -89.5t-76 -45.5q21 -9 40 -21t33 -28.5t22.5 -37.5t8.5 -49q0 -75 -48 -109t-128 -34zM240 472q-51 0 -82 -25t-31 -69q0 -14 7.5 -28
t21 -25.5t31.5 -19t38 -7.5q63 0 95 27t32 74q0 25 -9.5 39.5t-25.5 22t-36 9.5t-41 2z" />
    <glyph glyph-name="dieresis" unicode="&#xa8;" horiz-adv-x="460" 
d="M185 727q0 -17 -12.5 -29.5t-30.5 -12.5q-17 0 -29.5 12.5t-12.5 29.5q0 18 12.5 30.5t29.5 12.5q18 0 30.5 -12.5t12.5 -30.5zM360 727q0 -17 -12.5 -29.5t-30.5 -12.5q-17 0 -29.5 12.5t-12.5 29.5q0 18 12.5 30.5t29.5 12.5q18 0 30.5 -12.5t12.5 -30.5z" />
    <glyph glyph-name="copyright" unicode="&#xa9;" 
d="M476 135q-56 0 -103.5 21t-82 56t-54 81t-19.5 96q0 51 20.5 97.5t55.5 81.5t82 55.5t101 20.5q37 0 79.5 -12t77.5 -36l-28 -42q-29 20 -64.5 29.5t-64.5 9.5q-43 0 -80.5 -16.5t-65.5 -44t-44.5 -64.5t-16.5 -79t16.5 -79t44.5 -64.5t65.5 -43.5t80.5 -16
q32 0 69.5 11.5t69.5 35.5l27 -42q-38 -28 -83 -42t-83 -14zM466 -10q-82 0 -154 31t-126 85t-85 126t-31 154q0 81 31 152.5t85 125.5t126 85t154 31t153.5 -31.5t125 -85.5t84 -125.5t30.5 -151.5q0 -82 -31 -154t-84.5 -126t-125 -85t-152.5 -31zM467 749
q-76 0 -142.5 -28.5t-116 -77.5t-78.5 -115t-29 -141q0 -76 29 -143t78.5 -116.5t116 -78t142.5 -28.5q75 0 140.5 28.5t114.5 78t77.5 116.5t28.5 143q0 75 -28.5 141t-77.5 115t-114.5 77.5t-140.5 28.5z" />
    <glyph glyph-name="ordfeminine" unicode="&#xaa;" horiz-adv-x="456" 
d="M391 356h-48v56q-18 -24 -53 -46.5t-91 -22.5q-28 0 -54 8.5t-46 24.5t-32 39t-12 52q0 40 14.5 66t40 42t60 22.5t74.5 6.5q27 0 53 -3t46 -6v52q0 27 -10.5 46t-26.5 31.5t-36 18.5t-39 6q-34 0 -65.5 -12t-59.5 -40l-31 31q67 65 156 65q33 0 62 -10t51 -29t34.5 -46
t12.5 -61v-291zM199 387q35 0 62 9t45 23.5t27.5 32.5t9.5 36v65q-23 3 -50 6t-52 3q-27 0 -51.5 -4t-44 -14.5t-31 -29t-11.5 -47.5q0 -18 8.5 -33t22 -25.5t30.5 -16t35 -5.5z" />
    <glyph glyph-name="guillemotleft" unicode="&#xab;" horiz-adv-x="470" 
d="M225 0l-200 250l200 250h61l-200 -250l200 -250h-61zM359 0l-200 250l200 250h61l-200 -250l200 -250h-61z" />
    <glyph glyph-name="logicalnot" unicode="&#xac;" horiz-adv-x="660" 
d="M546 271v182h-476v44h520v-226h-44z" />
    <glyph glyph-name="registered" unicode="&#xae;" 
d="M371 156h-52v491h147q35 0 66 -10.5t54 -29.5t36.5 -46t13.5 -59q0 -24 -9 -46t-25 -39t-37.5 -29t-45.5 -17l157 -215h-59l-152 210h-94v-210zM371 419h100q21 0 41.5 5t36.5 15.5t26 26t10 36.5q0 24 -10.5 42t-27.5 29t-38 16.5t-43 5.5h-95v-176zM465 -10
q-82 0 -154 31t-125.5 85t-84.5 126t-31 154q0 81 31 152.5t84.5 125.5t125.5 85t154 31t154 -31.5t125.5 -85.5t84 -125.5t30.5 -151.5q0 -82 -31 -154t-84.5 -126t-125.5 -85t-153 -31zM465 749q-75 0 -141.5 -28.5t-116 -77.5t-78 -115.5t-28.5 -141.5q0 -76 28.5 -142.5
t78 -116t116 -78t141.5 -28.5t141.5 28.5t115.5 78t77.5 116t28.5 142.5q0 75 -28.5 141.5t-77.5 115.5t-115.5 77.5t-141.5 28.5z" />
    <glyph glyph-name="macron" unicode="&#xaf;" horiz-adv-x="534" 
d="M434 731h-334v39h334v-39z" />
    <glyph glyph-name="degree" unicode="&#xb0;" horiz-adv-x="315" 
d="M158 598q-41 0 -69.5 28.5t-28.5 69.5t28.5 69t69.5 28t69 -28t28 -69t-28 -69.5t-69 -28.5zM157 761q-26 0 -45.5 -19.5t-19.5 -46.5q0 -26 19.5 -45.5t45.5 -19.5q27 0 46.5 19.5t19.5 45.5q0 27 -19.5 46.5t-46.5 19.5z" />
    <glyph glyph-name="plusminus" unicode="&#xb1;" horiz-adv-x="660" 
d="M590 87h-520v44h520v-44zM590 405h-238v-238h-44v238h-238v44h238v238h44v-238h238v-44z" />
    <glyph glyph-name="uni00B2" unicode="&#xb2;" horiz-adv-x="390" 
d="M60 396q40 51 78 98q16 20 33 40.5t33 40t30 37t25 29.5q14 17 20 33.5t6 32.5q0 38 -23.5 58.5t-58.5 20.5q-27 0 -51 -8.5t-50 -26.5l-19 26q32 23 60 33t60 10q19 0 40 -6t38.5 -19.5t28.5 -35t11 -52.5q0 -22 -8.5 -44.5t-26.5 -44.5q-17 -20 -43 -52t-51 -62
q-29 -36 -60 -74h198v-34h-270z" />
    <glyph glyph-name="uni00B3" unicode="&#xb3;" horiz-adv-x="374" 
d="M182 386q-32 0 -61.5 10t-60.5 33l19 27q27 -19 51.5 -27.5t51.5 -8.5q40 0 67.5 27t27.5 70q0 28 -11 47.5t-27.5 31t-36 16.5t-36.5 5h-33l115 160h-155v33h221l-119 -162q50 -7 84.5 -40.5t34.5 -90.5q0 -28 -9.5 -52t-27 -41.5t-42 -27.5t-53.5 -10z" />
    <glyph glyph-name="acute" unicode="&#xb4;" horiz-adv-x="396" 
d="M296 770l-158 -170h-38l140 170h56z" />
    <glyph glyph-name="mu" unicode="&#xb5;" horiz-adv-x="547" 
d="M75 500h57v-334q0 -26 9.5 -49t26 -41t38.5 -28.5t48 -10.5q43 0 73.5 17.5t49.5 46t28 63.5t10 70v266h57v-500h-57v82q-24 -42 -69.5 -69.5t-98.5 -27.5q-37 0 -68.5 14.5t-54.5 39.5v-289h-49v750z" />
    <glyph glyph-name="paragraph" unicode="&#xb6;" horiz-adv-x="662" 
d="M393 360h-73q-47 0 -91.5 13t-78.5 38.5t-54.5 62t-20.5 84.5q0 51 20.5 90.5t55.5 66.5t81.5 41t97.5 14h257v-44h-61v-726h-45v726h-43v-726h-45v360z" />
    <glyph glyph-name="periodcentered" unicode="&#xb7;" horiz-adv-x="193" 
d="M143 374q0 -19 -13.5 -32.5t-33.5 -13.5q-19 0 -32.5 13.5t-13.5 32.5q0 20 13.5 33.5t32.5 13.5q20 0 33.5 -13.5t13.5 -33.5z" />
    <glyph glyph-name="cedilla" unicode="&#xb8;" horiz-adv-x="306" 
d="M100 -150q28 0 51.5 13t23.5 42q0 19 -12.5 46t-32.5 49h30l7.5 -9t16 -23t15.5 -30.5t7 -32.5q0 -45 -31 -70t-75 -25v40z" />
    <glyph glyph-name="uni00B9" unicode="&#xb9;" horiz-adv-x="176" 
d="M70 396v414h36v-414h-36z" />
    <glyph glyph-name="ordmasculine" unicode="&#xba;" horiz-adv-x="560" 
d="M280 342q-48 0 -89.5 18.5t-71.5 49.5t-47 72t-17 86t17.5 86t48 72t71.5 49t88 18q48 0 89 -18t71 -49t47.5 -71.5t17.5 -86.5q0 -45 -16.5 -86t-46.5 -72t-71.5 -49.5t-90.5 -18.5zM280 749q-36 0 -68.5 -14.5t-56.5 -39.5t-38 -58t-14 -69q0 -37 14 -70t38 -58
t56.5 -39.5t68.5 -14.5q37 0 69 14.5t56 39.5t38 58t14 70q0 36 -14 69t-38 58t-56 39.5t-69 14.5z" />
    <glyph glyph-name="guillemotright" unicode="&#xbb;" horiz-adv-x="470" 
d="M184 0l200 250l-200 250h61l200 -250l-200 -250h-61zM50 0l200 250l-200 250h61l200 -250l-200 -250h-61z" />
    <glyph glyph-name="onequarter" unicode="&#xbc;" horiz-adv-x="631" 
d="M70 356v414h36v-414h-36zM467 0v124h-206l242 300v-266h58v-34h-58v-124h-36zM467 158v170l-137 -170h137zM113 0h-36l283 770h36z" />
    <glyph glyph-name="onehalf" unicode="&#xbd;" horiz-adv-x="644" 
d="M70 356v414h36v-414h-36zM113 0h-36l283 770h36zM304 0q40 51 78 98q16 20 33 40.5t33 40t30 37t25 29.5q14 17 20 33.5t6 32.5q0 38 -23.5 58.5t-58.5 20.5q-27 0 -51 -8.5t-50 -26.5l-19 26q32 23 60 33t60 10q19 0 40 -6t38.5 -19.5t28.5 -35t11 -52.5
q0 -22 -8.5 -44.5t-26.5 -44.5q-17 -20 -43 -52t-51 -62q-29 -36 -60 -74h198v-34h-270z" />
    <glyph glyph-name="threequarters" unicode="&#xbe;" horiz-adv-x="798" 
d="M634 0v124h-206l242 300v-266h58v-34h-58v-124h-36zM634 158v170l-137 -170h137zM280 0h-36l283 770h36zM192 346q-32 0 -61.5 10t-60.5 33l19 27q27 -19 51.5 -27.5t51.5 -8.5q40 0 67.5 27t27.5 70q0 28 -11 47.5t-27.5 31t-36 16.5t-36.5 5h-33l115 160h-155v33h221
l-119 -162q50 -7 84.5 -40.5t34.5 -90.5q0 -28 -9.5 -52t-27 -41.5t-42 -27.5t-53.5 -10z" />
    <glyph glyph-name="questiondown" unicode="&#xbf;" horiz-adv-x="609" 
d="M363 300q-1 -39 -5.5 -63t-16 -41.5t-31 -32t-49.5 -35.5q-19 -13 -39.5 -28t-37 -35t-27.5 -46t-11 -61q0 -40 14.5 -69t36.5 -48t49 -28t53 -9q50 0 95 14t95 50l30 -41q-55 -40 -106.5 -58t-113.5 -18q-33 0 -70 11t-68 35.5t-51 64t-20 96.5q0 42 10 73t28.5 56
t44.5 46t57 42q18 12 32.5 20.5t24.5 20t15 30.5t5 54h56zM292 458q0 18 12.5 30t30.5 12t30 -12t12 -30t-12 -30.5t-30 -12.5t-30.5 12.5t-12.5 30.5z" />
    <glyph glyph-name="Agrave" unicode="&#xc0;" horiz-adv-x="771" 
d="M97 0h-67l356 793l355 -793h-67l-107 248h-362zM228 301h314l-156 359zM306 1000l140 -170h-38l-158 170h56z" />
    <glyph glyph-name="Aacute" unicode="&#xc1;" horiz-adv-x="771" 
d="M97 0h-67l356 793l355 -793h-67l-107 248h-362zM228 301h314l-156 359zM523 1000l-158 -170h-38l140 170h56z" />
    <glyph glyph-name="Acircumflex" unicode="&#xc2;" horiz-adv-x="771" 
d="M97 0h-67l356 793l355 -793h-67l-107 248h-362zM228 301h314l-156 359zM414 1000l130 -170h-38l-120 134l-120 -134h-38l130 170h56z" />
    <glyph glyph-name="Atilde" unicode="&#xc3;" horiz-adv-x="771" 
d="M97 0h-67l356 793l355 -793h-67l-107 248h-362zM228 301h314l-156 359zM479 847q-18 0 -43.5 11.5t-51.5 25.5t-49.5 25.5t-37.5 11.5q-32 0 -48.5 -22t-16.5 -50h-30q0 51 26.5 82.5t68.5 31.5q18 0 40 -9.5t58 -30.5q26 -16 47 -25t35 -9q32 0 48.5 22t16.5 50h30
q0 -49 -26 -81.5t-67 -32.5z" />
    <glyph glyph-name="Adieresis" unicode="&#xc4;" horiz-adv-x="771" 
d="M97 0h-67l356 793l355 -793h-67l-107 248h-362zM228 301h314l-156 359zM342 887q0 -17 -12.5 -29.5t-30.5 -12.5q-17 0 -29.5 12.5t-12.5 29.5q0 18 12.5 30.5t29.5 12.5q18 0 30.5 -12.5t12.5 -30.5zM517 887q0 -17 -12.5 -29.5t-30.5 -12.5q-17 0 -29.5 12.5
t-12.5 29.5q0 18 12.5 30.5t29.5 12.5q18 0 30.5 -12.5t12.5 -30.5z" />
    <glyph glyph-name="Aring" unicode="&#xc5;" horiz-adv-x="771" 
d="M97 0h-67l336 748q-33 7 -55 33.5t-22 61.5q0 20 7.5 37.5t21 31t31 21t37.5 7.5t37.5 -7.5t31 -21t21 -31t7.5 -37.5q0 -35 -22.5 -61.5t-55.5 -33.5l336 -748h-67l-115 264h-347zM235 317h300l-149 343zM386 910q-27 0 -46.5 -19.5t-19.5 -47.5q0 -27 19.5 -46.5
t46.5 -19.5q28 0 47.5 19.5t19.5 46.5q0 28 -19.5 47.5t-47.5 19.5z" />
    <glyph glyph-name="AE" unicode="&#xc6;" horiz-adv-x="1054" 
d="M90 0h-65l514 770h430v-53h-368v-305h328v-53h-328v-306h378v-53h-438v359h-214zM541 412v263l-175 -263h175z" />
    <glyph glyph-name="Ccedilla" unicode="&#xc7;" horiz-adv-x="801" 
d="M408 -150q28 0 51.5 13t23.5 42q0 17 -10.5 41.5t-27.5 45.5q-77 6 -144.5 39t-117.5 86t-79 122t-29 146q0 81 31.5 153t86 125.5t127.5 85t155 31.5q63 0 124 -18.5t113 -53.5l-29 -45q-46 30 -100 46t-108 16q-71 0 -132.5 -27.5t-108 -74t-73 -108t-26.5 -130.5
t26.5 -131t73 -108.5t108 -73.5t132.5 -27q58 0 117 21t109 57l30 -45q-53 -41 -121 -64t-134 -24q5 -6 11.5 -16t12.5 -21.5t10 -23.5t4 -24q0 -45 -31 -70t-75 -25v40z" />
    <glyph glyph-name="Egrave" unicode="&#xc8;" horiz-adv-x="604" 
d="M479 359h-329v-306h379v-53h-439v770h429v-53h-369v-305h329v-53zM267 1000l140 -170h-38l-158 170h56z" />
    <glyph glyph-name="Eacute" unicode="&#xc9;" horiz-adv-x="604" 
d="M479 359h-329v-306h379v-53h-439v770h429v-53h-369v-305h329v-53zM408 1000l-158 -170h-38l140 170h56z" />
    <glyph glyph-name="Ecircumflex" unicode="&#xca;" horiz-adv-x="604" 
d="M479 359h-329v-306h379v-53h-439v770h429v-53h-369v-305h329v-53zM337 1000l130 -170h-38l-120 134l-120 -134h-38l130 170h56z" />
    <glyph glyph-name="Edieresis" unicode="&#xcb;" horiz-adv-x="604" 
d="M479 359h-329v-306h379v-53h-439v770h429v-53h-369v-305h329v-53zM253 887q0 -17 -12.5 -29.5t-30.5 -12.5q-17 0 -29.5 12.5t-12.5 29.5q0 18 12.5 30.5t29.5 12.5q18 0 30.5 -12.5t12.5 -30.5zM428 887q0 -17 -12.5 -29.5t-30.5 -12.5q-17 0 -29.5 12.5t-12.5 29.5
q0 18 12.5 30.5t29.5 12.5q18 0 30.5 -12.5t12.5 -30.5z" />
    <glyph glyph-name="Igrave" unicode="&#xcc;" horiz-adv-x="231" 
d="M140 770v-770h-60v770h60zM41 1000l140 -170h-38l-158 170h56z" />
    <glyph glyph-name="Iacute" unicode="&#xcd;" horiz-adv-x="231" 
d="M155 770v-770h-60v770h60zM246 1000l-158 -170h-38l140 170h56z" />
    <glyph glyph-name="Icircumflex" unicode="&#xce;" horiz-adv-x="246" 
d="M154 770v-770h-60v770h60zM151 1000l130 -170h-38l-120 134l-120 -134h-38l130 170h56z" />
    <glyph glyph-name="Idieresis" unicode="&#xcf;" horiz-adv-x="230" 
d="M145 770v-770h-60v770h60zM70 887q0 -17 -12.5 -29.5t-30.5 -12.5q-17 0 -29.5 12.5t-12.5 29.5q0 18 12.5 30.5t29.5 12.5q18 0 30.5 -12.5t12.5 -30.5zM245 887q0 -17 -12.5 -29.5t-30.5 -12.5q-17 0 -29.5 12.5t-12.5 29.5q0 18 12.5 30.5t29.5 12.5q18 0 30.5 -12.5
t12.5 -30.5z" />
    <glyph glyph-name="Eth" unicode="&#xd0;" horiz-adv-x="780" 
d="M84 0v250h-49v39h49v481h230q85 0 157 -30t124 -82t81 -122t29 -150q0 -81 -29 -151t-81 -122.5t-124 -82.5t-157 -30h-230zM369 250h-225v-197h170q71 0 132 26t105.5 71t69.5 105.5t25 130.5q0 69 -25 129.5t-69.5 105.5t-105.5 70.5t-132 25.5h-170v-428h225v-39z" />
    <glyph glyph-name="Ntilde" unicode="&#xd1;" horiz-adv-x="816" 
d="M150 633v-633h-60v793l576 -665v642h60v-801zM496 848q-18 0 -43.5 11.5t-51.5 25.5t-49.5 25.5t-37.5 11.5q-32 0 -48.5 -22t-16.5 -50h-30q0 51 26.5 82.5t68.5 31.5q18 0 40 -9.5t58 -30.5q26 -16 47 -25t35 -9q32 0 48.5 22t16.5 50h30q0 -49 -26 -81.5t-67 -32.5z
" />
    <glyph glyph-name="Ograve" unicode="&#xd2;" 
d="M466 -10q-82 0 -154 31t-126 85t-85 126t-31 154q0 81 31 152.5t85 125.5t126 85t154 31t154 -31.5t125 -85.5t83.5 -125.5t30.5 -151.5q0 -82 -31 -154t-84 -126t-125 -85t-153 -31zM466 725q-69 0 -130.5 -27t-107 -73.5t-72 -108t-26.5 -130.5t26.5 -131t72 -108.5
t107 -74t130.5 -27.5t129.5 27.5t106 74t71.5 108.5t26 131t-26 130.5t-71.5 108t-106 73.5t-129.5 27zM386 1000l140 -170h-38l-158 170h56z" />
    <glyph glyph-name="Oacute" unicode="&#xd3;" 
d="M466 -10q-82 0 -154 31t-126 85t-85 126t-31 154q0 81 31 152.5t85 125.5t126 85t154 31t154 -31.5t125 -85.5t83.5 -125.5t30.5 -151.5q0 -82 -31 -154t-84 -126t-125 -85t-153 -31zM466 725q-69 0 -130.5 -27t-107 -73.5t-72 -108t-26.5 -130.5t26.5 -131t72 -108.5
t107 -74t130.5 -27.5t129.5 27.5t106 74t71.5 108.5t26 131t-26 130.5t-71.5 108t-106 73.5t-129.5 27zM600 1000l-158 -170h-38l140 170h56z" />
    <glyph glyph-name="Ocircumflex" unicode="&#xd4;" 
d="M466 -10q-82 0 -154 31t-126 85t-85 126t-31 154q0 81 31 152.5t85 125.5t126 85t154 31t154 -31.5t125 -85.5t83.5 -125.5t30.5 -151.5q0 -82 -31 -154t-84 -126t-125 -85t-153 -31zM466 725q-69 0 -130.5 -27t-107 -73.5t-72 -108t-26.5 -130.5t26.5 -131t72 -108.5
t107 -74t130.5 -27.5t129.5 27.5t106 74t71.5 108.5t26 131t-26 130.5t-71.5 108t-106 73.5t-129.5 27zM492 1000l130 -170h-38l-120 134l-120 -134h-38l130 170h56z" />
    <glyph glyph-name="Otilde" unicode="&#xd5;" 
d="M466 -10q-82 0 -154 31t-126 85t-85 126t-31 154q0 81 31 152.5t85 125.5t126 85t154 31t154 -31.5t125 -85.5t83.5 -125.5t30.5 -151.5q0 -82 -31 -154t-84 -126t-125 -85t-153 -31zM466 725q-69 0 -130.5 -27t-107 -73.5t-72 -108t-26.5 -130.5t26.5 -131t72 -108.5
t107 -74t130.5 -27.5t129.5 27.5t106 74t71.5 108.5t26 131t-26 130.5t-71.5 108t-106 73.5t-129.5 27zM556 848q-18 0 -43.5 11.5t-51.5 25.5t-49.5 25.5t-37.5 11.5q-32 0 -48.5 -22t-16.5 -50h-30q0 51 26.5 82.5t68.5 31.5q18 0 40 -9.5t58 -30.5q26 -16 47 -25t35 -9
q32 0 48.5 22t16.5 50h30q0 -49 -26 -81.5t-67 -32.5z" />
    <glyph glyph-name="Odieresis" unicode="&#xd6;" 
d="M466 -10q-82 0 -154 31t-126 85t-85 126t-31 154q0 81 31 152.5t85 125.5t126 85t154 31t154 -31.5t125 -85.5t83.5 -125.5t30.5 -151.5q0 -82 -31 -154t-84 -126t-125 -85t-153 -31zM466 725q-69 0 -130.5 -27t-107 -73.5t-72 -108t-26.5 -130.5t26.5 -131t72 -108.5
t107 -74t130.5 -27.5t129.5 27.5t106 74t71.5 108.5t26 131t-26 130.5t-71.5 108t-106 73.5t-129.5 27zM419 887q0 -17 -12.5 -29.5t-30.5 -12.5q-17 0 -29.5 12.5t-12.5 29.5q0 18 12.5 30.5t29.5 12.5q18 0 30.5 -12.5t12.5 -30.5zM594 887q0 -17 -12.5 -29.5t-30.5 -12.5
q-17 0 -29.5 12.5t-12.5 29.5q0 18 12.5 30.5t29.5 12.5q18 0 30.5 -12.5t12.5 -30.5z" />
    <glyph glyph-name="multiply" unicode="&#xd7;" horiz-adv-x="538" 
d="M468 553l-168 -168l168 -168l-31 -31l-168 168l-168 -168l-31 31l168 168l-168 168l31 31l168 -168l168 168z" />
    <glyph glyph-name="Oslash" unicode="&#xd8;" 
d="M859 770l-108 -113q51 -54 79.5 -123.5t28.5 -147.5q0 -82 -31 -154t-84 -126t-125 -85t-153 -31q-75 0 -141 25.5t-118 70.5l-82 -86h-55l108 114q-51 54 -79.5 123t-28.5 149q0 81 31 152.5t85 125.5t126 85t154 31q74 0 139.5 -25.5t116.5 -70.5l82 86h55zM466 725
q-69 0 -130.5 -27t-107 -73.5t-72 -108t-26.5 -130.5q0 -66 23.5 -125t65.5 -105l463 486q-44 39 -98.5 61t-117.5 22zM466 45q69 0 129.5 27.5t106 74t71.5 108.5t26 131q0 66 -23.5 124.5t-64.5 103.5l-464 -486q45 -39 100.5 -61t118.5 -22z" />
    <glyph glyph-name="Ugrave" unicode="&#xd9;" horiz-adv-x="798" 
d="M399 -10q-62 0 -117.5 24.5t-98 66t-67.5 96.5t-25 116v10v467h60v-467q0 -52 19 -99t52 -82t78.5 -56t98.5 -21t98.5 21t79 56t52.5 82t19 99v467h59v-466v-10q0 -61 -25 -116t-67.5 -97t-98.5 -66.5t-117 -24.5zM322 1000l140 -170h-38l-158 170h56z" />
    <glyph glyph-name="Uacute" unicode="&#xda;" horiz-adv-x="798" 
d="M399 -10q-62 0 -117.5 24.5t-98 66t-67.5 96.5t-25 116v10v467h60v-467q0 -52 19 -99t52 -82t78.5 -56t98.5 -21t98.5 21t79 56t52.5 82t19 99v467h59v-466v-10q0 -61 -25 -116t-67.5 -97t-98.5 -66.5t-117 -24.5zM540 1000l-158 -170h-38l140 170h56z" />
    <glyph glyph-name="Ucircumflex" unicode="&#xdb;" horiz-adv-x="798" 
d="M399 -10q-62 0 -117.5 24.5t-98 66t-67.5 96.5t-25 116v10v467h60v-467q0 -52 19 -99t52 -82t78.5 -56t98.5 -21t98.5 21t79 56t52.5 82t19 99v467h59v-466v-10q0 -61 -25 -116t-67.5 -97t-98.5 -66.5t-117 -24.5zM428 1000l130 -170h-38l-120 134l-120 -134h-38l130 170
h56z" />
    <glyph glyph-name="Udieresis" unicode="&#xdc;" horiz-adv-x="792" 
d="M399 -10q-62 0 -117.5 24.5t-98 66t-67.5 96.5t-25 116v10v467h60v-467q0 -52 19 -99t52 -82t78.5 -56t98.5 -21t98.5 21t79 56t52.5 82t19 99v467h59v-466v-10q0 -61 -25 -116t-67.5 -97t-98.5 -66.5t-117 -24.5zM353 887q0 -17 -12.5 -29.5t-30.5 -12.5
q-17 0 -29.5 12.5t-12.5 29.5q0 18 12.5 30.5t29.5 12.5q18 0 30.5 -12.5t12.5 -30.5zM528 887q0 -17 -12.5 -29.5t-30.5 -12.5q-17 0 -29.5 12.5t-12.5 29.5q0 18 12.5 30.5t29.5 12.5q18 0 30.5 -12.5t12.5 -30.5z" />
    <glyph glyph-name="Yacute" unicode="&#xdd;" horiz-adv-x="710" 
d="M385 0h-60v334l-295 436h67l258 -381l258 381h67l-295 -436v-334zM482 1000l-158 -170h-38l140 170h56z" />
    <glyph glyph-name="Thorn" unicode="&#xde;" horiz-adv-x="587" 
d="M150 770v-150h107q52 0 99 -13.5t83 -40t57 -66.5t21 -93q0 -50 -21 -86.5t-56 -61.5t-80.5 -37t-93.5 -12h-116v-210h-60v770h60zM150 263h116q38 0 72.5 9t61 27t42 45t15.5 63q0 42 -16 72t-43 49.5t-63.5 29t-77.5 9.5h-107v-304z" />
    <glyph glyph-name="germandbls" unicode="&#xdf;" horiz-adv-x="556" 
d="M263 50q96 0 138.5 42t42.5 118t-44.5 124t-135.5 48v48q30 10 55.5 22.5t45 29t30.5 39.5t11 54q0 36 -11 65t-29 49t-42.5 31t-51.5 11q-47 0 -75 -18t-42.5 -43t-18.5 -51.5t-4 -43.5v-575h-57v575q0 46 13 84.5t38 66t61.5 42.5t84.5 15q35 0 69 -12.5t61 -38
t44 -64.5t17 -93t-28.5 -96t-73.5 -63q31 -9 57 -30t44.5 -48.5t28.5 -60.5t10 -67q0 -49 -13 -83.5t-33 -58t-45.5 -37.5t-50 -21t-46.5 -9t-35 -2h-11q-3 0 -4 1v50z" />
    <glyph glyph-name="agrave" unicode="&#xe0;" horiz-adv-x="532" 
d="M457 0h-57v66q-11 -14 -26.5 -28.5t-36.5 -26t-47.5 -19t-59.5 -7.5t-63.5 10t-54 29t-38 46t-14.5 61q0 46 17 77.5t46.5 50t69.5 26.5t87 8q32 0 63.5 -3.5t56.5 -7.5v62q0 31 -12 53.5t-31.5 37.5t-43 22t-45.5 7q-40 0 -77.5 -14.5t-70.5 -46.5l-36 36q79 77 184 77
q39 0 73.5 -12t60 -34t40.5 -54t15 -72v-344zM230 37q41 0 73 10.5t53.5 28t32.5 38.5t11 42v77q-28 4 -59.5 7t-60.5 3q-32 0 -61 -4.5t-52 -17t-36.5 -34.5t-13.5 -56q0 -21 10 -38.5t26 -30t36 -19t41 -6.5zM203 770l140 -170h-38l-158 170h56z" />
    <glyph glyph-name="aacute" unicode="&#xe1;" horiz-adv-x="532" 
d="M457 0h-57v66q-11 -14 -26.5 -28.5t-36.5 -26t-47.5 -19t-59.5 -7.5t-63.5 10t-54 29t-38 46t-14.5 61q0 46 17 77.5t46.5 50t69.5 26.5t87 8q32 0 63.5 -3.5t56.5 -7.5v62q0 31 -12 53.5t-31.5 37.5t-43 22t-45.5 7q-40 0 -77.5 -14.5t-70.5 -46.5l-36 36q79 77 184 77
q39 0 73.5 -12t60 -34t40.5 -54t15 -72v-344zM230 37q41 0 73 10.5t53.5 28t32.5 38.5t11 42v77q-28 4 -59.5 7t-60.5 3q-32 0 -61 -4.5t-52 -17t-36.5 -34.5t-13.5 -56q0 -21 10 -38.5t26 -30t36 -19t41 -6.5zM391 770l-158 -170h-38l140 170h56z" />
    <glyph glyph-name="acircumflex" unicode="&#xe2;" horiz-adv-x="532" 
d="M457 0h-57v66q-11 -14 -26.5 -28.5t-36.5 -26t-47.5 -19t-59.5 -7.5t-63.5 10t-54 29t-38 46t-14.5 61q0 46 17 77.5t46.5 50t69.5 26.5t87 8q32 0 63.5 -3.5t56.5 -7.5v62q0 31 -12 53.5t-31.5 37.5t-43 22t-45.5 7q-40 0 -77.5 -14.5t-70.5 -46.5l-36 36q79 77 184 77
q39 0 73.5 -12t60 -34t40.5 -54t15 -72v-344zM230 37q41 0 73 10.5t53.5 28t32.5 38.5t11 42v77q-28 4 -59.5 7t-60.5 3q-32 0 -61 -4.5t-52 -17t-36.5 -34.5t-13.5 -56q0 -21 10 -38.5t26 -30t36 -19t41 -6.5zM295 770l130 -170h-38l-120 134l-120 -134h-38l130 170h56z
" />
    <glyph glyph-name="atilde" unicode="&#xe3;" horiz-adv-x="532" 
d="M457 0h-57v66q-11 -14 -26.5 -28.5t-36.5 -26t-47.5 -19t-59.5 -7.5t-63.5 10t-54 29t-38 46t-14.5 61q0 46 17 77.5t46.5 50t69.5 26.5t87 8q32 0 63.5 -3.5t56.5 -7.5v62q0 31 -12 53.5t-31.5 37.5t-43 22t-45.5 7q-40 0 -77.5 -14.5t-70.5 -46.5l-36 36q79 77 184 77
q39 0 73.5 -12t60 -34t40.5 -54t15 -72v-344zM230 37q41 0 73 10.5t53.5 28t32.5 38.5t11 42v77q-28 4 -59.5 7t-60.5 3q-32 0 -61 -4.5t-52 -17t-36.5 -34.5t-13.5 -56q0 -21 10 -38.5t26 -30t36 -19t41 -6.5zM355 637q-18 0 -43.5 11.5t-51.5 25.5t-49.5 25.5t-37.5 11.5
q-32 0 -48.5 -22t-16.5 -50h-30q0 51 26.5 82.5t68.5 31.5q18 0 40 -9.5t58 -30.5q26 -16 47 -25t35 -9q32 0 48.5 22t16.5 50h30q0 -49 -26 -81.5t-67 -32.5z" />
    <glyph glyph-name="adieresis" unicode="&#xe4;" horiz-adv-x="532" 
d="M457 0h-57v66q-11 -14 -26.5 -28.5t-36.5 -26t-47.5 -19t-59.5 -7.5t-63.5 10t-54 29t-38 46t-14.5 61q0 46 17 77.5t46.5 50t69.5 26.5t87 8q32 0 63.5 -3.5t56.5 -7.5v62q0 31 -12 53.5t-31.5 37.5t-43 22t-45.5 7q-40 0 -77.5 -14.5t-70.5 -46.5l-36 36q79 77 184 77
q39 0 73.5 -12t60 -34t40.5 -54t15 -72v-344zM230 37q41 0 73 10.5t53.5 28t32.5 38.5t11 42v77q-28 4 -59.5 7t-60.5 3q-32 0 -61 -4.5t-52 -17t-36.5 -34.5t-13.5 -56q0 -21 10 -38.5t26 -30t36 -19t41 -6.5zM217 707q0 -17 -12.5 -29.5t-30.5 -12.5q-17 0 -29.5 12.5
t-12.5 29.5q0 18 12.5 30.5t29.5 12.5q18 0 30.5 -12.5t12.5 -30.5zM392 707q0 -17 -12.5 -29.5t-30.5 -12.5q-17 0 -29.5 12.5t-12.5 29.5q0 18 12.5 30.5t29.5 12.5q18 0 30.5 -12.5t12.5 -30.5z" />
    <glyph glyph-name="aring" unicode="&#xe5;" horiz-adv-x="532" 
d="M457 0h-57v66q-11 -14 -26.5 -28.5t-36.5 -26t-47.5 -19t-59.5 -7.5t-63.5 10t-54 29t-38 46t-14.5 61q0 46 17 77.5t46.5 50t69.5 26.5t87 8q32 0 63.5 -3.5t56.5 -7.5v62q0 31 -12 53.5t-31.5 37.5t-43 22t-45.5 7q-40 0 -77.5 -14.5t-70.5 -46.5l-36 36q79 77 184 77
q39 0 73.5 -12t60 -34t40.5 -54t15 -72v-344zM230 37q41 0 73 10.5t53.5 28t32.5 38.5t11 42v77q-28 4 -59.5 7t-60.5 3q-32 0 -61 -4.5t-52 -17t-36.5 -34.5t-13.5 -56q0 -21 10 -38.5t26 -30t36 -19t41 -6.5zM270 576q-20 0 -37.5 7.5t-31 21t-21 31t-7.5 37.5t7.5 37.5
t21 31t31 21t37.5 7.5t37.5 -7.5t31 -21t21 -31t7.5 -37.5t-7.5 -37.5t-21 -31t-31 -21t-37.5 -7.5zM270 740q-27 0 -46.5 -19.5t-19.5 -47.5q0 -27 19.5 -46.5t46.5 -19.5q28 0 47.5 19.5t19.5 46.5q0 28 -19.5 47.5t-47.5 19.5z" />
    <glyph glyph-name="ae" unicode="&#xe6;" horiz-adv-x="949" 
d="M664 -15q-63 0 -117 27.5t-90 74.5v-87h-57v66q-11 -14 -26.5 -28.5t-36.5 -26t-47.5 -19t-59.5 -7.5t-63.5 10t-54 29t-38 46t-14.5 61q0 46 17 77.5t46.5 50t69.5 26.5t87 8q32 0 63.5 -3.5t56.5 -7.5v62q0 31 -12 53.5t-31.5 37.5t-43 22t-45.5 7q-40 0 -77.5 -14.5
t-70.5 -46.5l-36 36q79 77 184 77q62 0 110 -29t68 -82q34 51 87.5 81t120.5 30q48 0 92 -17.5t77.5 -50t54 -77.5t20.5 -100v-13h-441q0 -51 16 -91.5t44 -69.5t66 -44.5t81 -15.5q54 0 95 10.5t75 36.5l31 -41q-41 -31 -91 -44.5t-110 -13.5zM230 37q41 0 73 10.5t53.5 28
t32.5 38.5t11 42v77q-28 4 -59.5 7t-60.5 3q-32 0 -61 -4.5t-52 -17t-36.5 -34.5t-13.5 -56q0 -21 10 -38.5t26 -30t36 -19t41 -6.5zM839 308q-5 28 -19 56t-37.5 50.5t-56 36t-72.5 13.5q-37 0 -68 -12t-55.5 -33t-41.5 -49.5t-25 -61.5h375z" />
    <glyph glyph-name="ccedilla" unicode="&#xe7;" horiz-adv-x="531" 
d="M245 -150q28 0 51.5 13t23.5 42q0 17 -9.5 39.5t-24.5 42.5q-51 5 -93.5 28.5t-73 59.5t-47.5 81t-17 95q0 54 20 102.5t55 84.5t82.5 57t101.5 21q41 0 81 -11t75 -33l-27 -43q-29 19 -62.5 27t-66.5 8q-43 0 -80 -17t-64 -46t-42.5 -67.5t-15.5 -82.5q0 -43 16 -82
t43 -68t64 -46.5t79 -17.5q33 0 68 10.5t68 34.5l31 -41q-40 -29 -82 -42t-82 -14q10 -14 22 -36t12 -44q0 -45 -31 -70t-75 -25v40z" />
    <glyph glyph-name="egrave" unicode="&#xe8;" horiz-adv-x="604" 
d="M319 -15q-54 0 -102 21t-84 57.5t-57 84.5t-21 102t19 102.5t53 85t80.5 57.5t101.5 21q48 0 92 -17.5t77.5 -50t54 -77.5t20.5 -100v-13h-441q0 -48 15.5 -88.5t43.5 -70t65.5 -46t82.5 -16.5q54 0 95 10.5t75 36.5l31 -41q-41 -31 -91 -44.5t-110 -13.5zM494 308
q-5 28 -19 56t-37.5 50.5t-56 36t-72.5 13.5q-37 0 -68 -12t-55.5 -33t-41.5 -49.5t-25 -61.5h375zM229 770l140 -170h-38l-158 170h56z" />
    <glyph glyph-name="eacute" unicode="&#xe9;" horiz-adv-x="604" 
d="M319 -15q-54 0 -102 21t-84 57.5t-57 84.5t-21 102t19 102.5t53 85t80.5 57.5t101.5 21q48 0 92 -17.5t77.5 -50t54 -77.5t20.5 -100v-13h-441q0 -48 15.5 -88.5t43.5 -70t65.5 -46t82.5 -16.5q54 0 95 10.5t75 36.5l31 -41q-41 -31 -91 -44.5t-110 -13.5zM494 308
q-5 28 -19 56t-37.5 50.5t-56 36t-72.5 13.5q-37 0 -68 -12t-55.5 -33t-41.5 -49.5t-25 -61.5h375zM444 770l-158 -170h-38l140 170h56z" />
    <glyph glyph-name="ecircumflex" unicode="&#xea;" horiz-adv-x="604" 
d="M319 -15q-54 0 -102 21t-84 57.5t-57 84.5t-21 102t19 102.5t53 85t80.5 57.5t101.5 21q48 0 92 -17.5t77.5 -50t54 -77.5t20.5 -100v-13h-441q0 -48 15.5 -88.5t43.5 -70t65.5 -46t82.5 -16.5q54 0 95 10.5t75 36.5l31 -41q-41 -31 -91 -44.5t-110 -13.5zM494 308
q-5 28 -19 56t-37.5 50.5t-56 36t-72.5 13.5q-37 0 -68 -12t-55.5 -33t-41.5 -49.5t-25 -61.5h375zM336 770l130 -170h-38l-120 134l-120 -134h-38l130 170h56z" />
    <glyph glyph-name="edieresis" unicode="&#xeb;" horiz-adv-x="604" 
d="M319 -15q-54 0 -102 21t-84 57.5t-57 84.5t-21 102t19 102.5t53 85t80.5 57.5t101.5 21q48 0 92 -17.5t77.5 -50t54 -77.5t20.5 -100v-13h-441q0 -48 15.5 -88.5t43.5 -70t65.5 -46t82.5 -16.5q54 0 95 10.5t75 36.5l31 -41q-41 -31 -91 -44.5t-110 -13.5zM494 308
q-5 28 -19 56t-37.5 50.5t-56 36t-72.5 13.5q-37 0 -68 -12t-55.5 -33t-41.5 -49.5t-25 -61.5h375zM263 707q0 -17 -12.5 -29.5t-30.5 -12.5q-17 0 -29.5 12.5t-12.5 29.5q0 18 12.5 30.5t29.5 12.5q18 0 30.5 -12.5t12.5 -30.5zM438 707q0 -17 -12.5 -29.5t-30.5 -12.5
q-17 0 -29.5 12.5t-12.5 29.5q0 18 12.5 30.5t29.5 12.5q18 0 30.5 -12.5t12.5 -30.5z" />
    <glyph glyph-name="igrave" unicode="&#xec;" horiz-adv-x="206" 
d="M78 0v500h57v-500h-57zM36 770l140 -170h-38l-158 170h56z" />
    <glyph glyph-name="iacute" unicode="&#xed;" horiz-adv-x="206" 
d="M79 0v500h57v-500h-57zM226 770l-158 -170h-38l140 170h56z" />
    <glyph glyph-name="icircumflex" unicode="&#xee;" horiz-adv-x="236" 
d="M90 0v500h57v-500h-57zM146 770l130 -170h-38l-120 134l-120 -134h-38l130 170h56z" />
    <glyph glyph-name="idieresis" unicode="&#xef;" horiz-adv-x="200" 
d="M72 0v500h57v-500h-57zM55 707q0 -17 -12.5 -29.5t-30.5 -12.5q-17 0 -29.5 12.5t-12.5 29.5q0 18 12.5 30.5t29.5 12.5q18 0 30.5 -12.5t12.5 -30.5zM230 707q0 -17 -12.5 -29.5t-30.5 -12.5q-17 0 -29.5 12.5t-12.5 29.5q0 18 12.5 30.5t29.5 12.5q18 0 30.5 -12.5
t12.5 -30.5z" />
    <glyph glyph-name="eth" unicode="&#xf0;" horiz-adv-x="594" 
d="M481 679l-114 -65q33 -39 63.5 -82.5t53.5 -92.5t36.5 -102t13.5 -111q0 -48 -18.5 -91t-51 -75.5t-75.5 -51t-92 -18.5t-92 18.5t-75.5 51t-51 75.5t-18.5 91q0 49 18.5 92t51 75t75.5 50.5t92 18.5q37 0 73.5 -11.5t65.5 -35.5q-23 46 -53 88t-56 74l-8 9l-127 -72
l-20 33l120 69q-27 28 -51.5 49.5t-43.5 36.5q-22 18 -41 30l29 46q22 -16 48 -36q22 -17 49.5 -42t57.5 -57l122 70zM297 408q-37 0 -69.5 -14.5t-57 -39.5t-38.5 -58t-14 -70t14 -70t38.5 -58t57 -39.5t69.5 -14.5t69.5 14.5t57 39.5t38.5 58t14 70q0 38 -14.5 71.5
t-39 58t-57 38.5t-68.5 14z" />
    <glyph glyph-name="ntilde" unicode="&#xf1;" horiz-adv-x="547" 
d="M472 0h-57v335q0 25 -9.5 48.5t-26 41.5t-39 28.5t-47.5 10.5q-44 0 -74.5 -18t-49.5 -46t-28 -63.5t-9 -69.5v-267h-57v500h57v-81q24 42 69.5 69.5t98.5 27.5q37 0 68.5 -14.5t54.5 -39.5t36 -57.5t13 -69.5v-335zM364 637q-18 0 -43.5 11.5t-51.5 25.5t-49.5 25.5
t-37.5 11.5q-32 0 -48.5 -22t-16.5 -50h-30q0 51 26.5 82.5t68.5 31.5q18 0 40 -9.5t58 -30.5q26 -16 47 -25t35 -9q32 0 48.5 22t16.5 50h30q0 -49 -26 -81.5t-67 -32.5z" />
    <glyph glyph-name="ograve" unicode="&#xf2;" horiz-adv-x="640" 
d="M320 -15q-57 0 -105.5 21.5t-84 58t-55.5 85t-20 101.5q0 54 20.5 102t56.5 84t84.5 57.5t103.5 21.5q56 0 104.5 -21t84 -57.5t56 -84.5t20.5 -102q0 -53 -20 -101.5t-55 -85t-83.5 -58t-106.5 -21.5zM320 464q-43 0 -80.5 -17.5t-66 -46.5t-45 -67.5t-16.5 -81.5
t16.5 -82t45 -68t66 -46.5t80.5 -17.5t81 17.5t66 46.5t44.5 68t16.5 82t-16.5 81.5t-44.5 67.5t-66 46.5t-81 17.5zM246 770l140 -170h-38l-158 170h56z" />
    <glyph glyph-name="oacute" unicode="&#xf3;" horiz-adv-x="640" 
d="M320 -15q-57 0 -105.5 21.5t-84 58t-55.5 85t-20 101.5q0 54 20.5 102t56.5 84t84.5 57.5t103.5 21.5q56 0 104.5 -21t84 -57.5t56 -84.5t20.5 -102q0 -53 -20 -101.5t-55 -85t-83.5 -58t-106.5 -21.5zM320 464q-43 0 -80.5 -17.5t-66 -46.5t-45 -67.5t-16.5 -81.5
t16.5 -82t45 -68t66 -46.5t80.5 -17.5t81 17.5t66 46.5t44.5 68t16.5 82t-16.5 81.5t-44.5 67.5t-66 46.5t-81 17.5zM462 770l-158 -170h-38l140 170h56z" />
    <glyph glyph-name="ocircumflex" unicode="&#xf4;" horiz-adv-x="640" 
d="M320 -15q-57 0 -105.5 21.5t-84 58t-55.5 85t-20 101.5q0 54 20.5 102t56.5 84t84.5 57.5t103.5 21.5q56 0 104.5 -21t84 -57.5t56 -84.5t20.5 -102q0 -53 -20 -101.5t-55 -85t-83.5 -58t-106.5 -21.5zM320 464q-43 0 -80.5 -17.5t-66 -46.5t-45 -67.5t-16.5 -81.5
t16.5 -82t45 -68t66 -46.5t80.5 -17.5t81 17.5t66 46.5t44.5 68t16.5 82t-16.5 81.5t-44.5 67.5t-66 46.5t-81 17.5zM348 770l130 -170h-38l-120 134l-120 -134h-38l130 170h56z" />
    <glyph glyph-name="otilde" unicode="&#xf5;" horiz-adv-x="640" 
d="M320 -15q-57 0 -105.5 21.5t-84 58t-55.5 85t-20 101.5q0 54 20.5 102t56.5 84t84.5 57.5t103.5 21.5q56 0 104.5 -21t84 -57.5t56 -84.5t20.5 -102q0 -53 -20 -101.5t-55 -85t-83.5 -58t-106.5 -21.5zM320 464q-43 0 -80.5 -17.5t-66 -46.5t-45 -67.5t-16.5 -81.5
t16.5 -82t45 -68t66 -46.5t80.5 -17.5t81 17.5t66 46.5t44.5 68t16.5 82t-16.5 81.5t-44.5 67.5t-66 46.5t-81 17.5zM412 637q-18 0 -43.5 11.5t-51.5 25.5t-49.5 25.5t-37.5 11.5q-32 0 -48.5 -22t-16.5 -50h-30q0 51 26.5 82.5t68.5 31.5q18 0 40 -9.5t58 -30.5
q26 -16 47 -25t35 -9q32 0 48.5 22t16.5 50h30q0 -49 -26 -81.5t-67 -32.5z" />
    <glyph glyph-name="odieresis" unicode="&#xf6;" horiz-adv-x="640" 
d="M320 -15q-57 0 -105.5 21.5t-84 58t-55.5 85t-20 101.5q0 54 20.5 102t56.5 84t84.5 57.5t103.5 21.5q56 0 104.5 -21t84 -57.5t56 -84.5t20.5 -102q0 -53 -20 -101.5t-55 -85t-83.5 -58t-106.5 -21.5zM320 464q-43 0 -80.5 -17.5t-66 -46.5t-45 -67.5t-16.5 -81.5
t16.5 -82t45 -68t66 -46.5t80.5 -17.5t81 17.5t66 46.5t44.5 68t16.5 82t-16.5 81.5t-44.5 67.5t-66 46.5t-81 17.5zM275 707q0 -17 -12.5 -29.5t-30.5 -12.5q-17 0 -29.5 12.5t-12.5 29.5q0 18 12.5 30.5t29.5 12.5q18 0 30.5 -12.5t12.5 -30.5zM450 707q0 -17 -12.5 -29.5
t-30.5 -12.5q-17 0 -29.5 12.5t-12.5 29.5q0 18 12.5 30.5t29.5 12.5q18 0 30.5 -12.5t12.5 -30.5z" />
    <glyph glyph-name="divide" unicode="&#xf7;" horiz-adv-x="660" 
d="M590 363h-520v44h520v-44zM366 609q0 -16 -10 -26t-26 -10t-26 10t-10 26t10 26t26 10t26 -10t10 -26zM366 161q0 -16 -10 -26t-26 -10t-26 10t-10 26t10 26t26 10t26 -10t10 -26z" />
    <glyph glyph-name="oslash" unicode="&#xf8;" horiz-adv-x="640" 
d="M320 -15q-49 0 -91.5 15.5t-76.5 43.5l-42 -44h-55l68 72q-32 36 -50 82t-18 97q0 54 20.5 102t56.5 84t84.5 57.5t103.5 21.5q48 0 90.5 -16t77.5 -44l42 44h55l-68 -72q32 -36 50 -81t18 -96q0 -53 -20 -101.5t-55 -85t-83.5 -58t-106.5 -21.5zM320 464
q-43 0 -80.5 -17.5t-66 -46.5t-45 -67.5t-16.5 -81.5q0 -39 13.5 -74.5t36.5 -63.5l288 303q-26 23 -59.5 35.5t-70.5 12.5zM320 37q43 0 81 17.5t66 46.5t44.5 68t16.5 82q0 38 -13.5 73t-36.5 63l-288 -303q27 -22 60 -34.5t70 -12.5z" />
    <glyph glyph-name="ugrave" unicode="&#xf9;" horiz-adv-x="547" 
d="M75 500h57v-334q0 -26 9.5 -49t26 -41t38.5 -28.5t48 -10.5q43 0 74 17.5t50 46t28 63.5t9 70v266h57v-500h-57v82q-24 -42 -69.5 -69.5t-98.5 -27.5q-37 0 -68.5 14.5t-54.5 39t-36 57.5t-13 70v334zM199 770l140 -170h-38l-158 170h56z" />
    <glyph glyph-name="uacute" unicode="&#xfa;" horiz-adv-x="547" 
d="M75 500h57v-334q0 -26 9.5 -49t26 -41t38.5 -28.5t48 -10.5q43 0 74 17.5t50 46t28 63.5t9 70v266h57v-500h-57v82q-24 -42 -69.5 -69.5t-98.5 -27.5q-37 0 -68.5 14.5t-54.5 39t-36 57.5t-13 70v334zM413 770l-158 -170h-38l140 170h56z" />
    <glyph glyph-name="ucircumflex" unicode="&#xfb;" horiz-adv-x="547" 
d="M75 500h57v-334q0 -26 9.5 -49t26 -41t38.5 -28.5t48 -10.5q43 0 74 17.5t50 46t28 63.5t9 70v266h57v-500h-57v82q-24 -42 -69.5 -69.5t-98.5 -27.5q-37 0 -68.5 14.5t-54.5 39t-36 57.5t-13 70v334zM302 770l130 -170h-38l-120 134l-120 -134h-38l130 170h56z" />
    <glyph glyph-name="udieresis" unicode="&#xfc;" horiz-adv-x="547" 
d="M75 500h57v-334q0 -26 9.5 -49t26 -41t38.5 -28.5t48 -10.5q43 0 74 17.5t50 46t28 63.5t9 70v266h57v-500h-57v82q-24 -42 -69.5 -69.5t-98.5 -27.5q-37 0 -68.5 14.5t-54.5 39t-36 57.5t-13 70v334zM228 707q0 -17 -12.5 -29.5t-30.5 -12.5q-17 0 -29.5 12.5
t-12.5 29.5q0 18 12.5 30.5t29.5 12.5q18 0 30.5 -12.5t12.5 -30.5zM403 707q0 -17 -12.5 -29.5t-30.5 -12.5q-17 0 -29.5 12.5t-12.5 29.5q0 18 12.5 30.5t29.5 12.5q18 0 30.5 -12.5t12.5 -30.5z" />
    <glyph glyph-name="yacute" unicode="&#xfd;" horiz-adv-x="513" 
d="M128 -250h-60l153 323l-191 427h61l159 -370l174 370h59zM390 770l-158 -170h-38l140 170h56z" />
    <glyph glyph-name="thorn" unicode="&#xfe;" horiz-adv-x="582" 
d="M132 -250h-57v1020h57v-313q29 26 66.5 42.5t81.5 16.5q52 0 97 -21.5t78.5 -58t52.5 -84.5t19 -102q0 -53 -19 -101t-52.5 -84.5t-78.5 -58t-97 -21.5q-44 0 -81.5 16t-66.5 42v-293zM273 37q42 0 78 17t62.5 46t41.5 67.5t15 82.5t-15 83t-41.5 68t-62.5 46t-78 17
t-77 -17.5t-64 -44.5v-302q29 -29 64.5 -46t76.5 -17z" />
    <glyph glyph-name="ydieresis" unicode="&#xff;" horiz-adv-x="513" 
d="M128 -250h-60l153 323l-191 427h61l159 -370l174 370h59zM205 707q0 -17 -12.5 -29.5t-30.5 -12.5q-17 0 -29.5 12.5t-12.5 29.5q0 18 12.5 30.5t29.5 12.5q18 0 30.5 -12.5t12.5 -30.5zM380 707q0 -17 -12.5 -29.5t-30.5 -12.5q-17 0 -29.5 12.5t-12.5 29.5
q0 18 12.5 30.5t29.5 12.5q18 0 30.5 -12.5t12.5 -30.5z" />
    <glyph glyph-name="dotlessi" unicode="&#x131;" horiz-adv-x="207" 
d="M75 0v500h57v-500h-57z" />
    <glyph glyph-name="OE" unicode="&#x152;" horiz-adv-x="1027" 
d="M461 0q-86 0 -157.5 30t-123.5 82.5t-81 122.5t-29 151q0 80 29 150t81 122t124 82t157 30h481v-53h-369v-305h329v-53h-329v-306h379v-53h-491zM513 53v664h-52q-71 0 -132 -25.5t-105.5 -70.5t-69.5 -105.5t-25 -129.5q0 -70 25 -130.5t69.5 -105.5t105.5 -71t132 -26
h52z" />
    <glyph glyph-name="oe" unicode="&#x153;" horiz-adv-x="1103" 
d="M320 -15q-57 0 -105.5 21.5t-84 58t-55.5 85t-20 101.5q0 54 20.5 102t56.5 84t84.5 57.5t103.5 21.5q43 0 82.5 -13t71.5 -36.5t56.5 -55.5t38.5 -70q13 38 35.5 70t53.5 55.5t69 36.5t81 13q48 0 92 -17.5t77.5 -50t54 -77.5t20.5 -100v-13h-441q0 -48 15.5 -88.5
t43.5 -70t65.5 -46t82.5 -16.5q54 0 95 10.5t75 36.5l31 -41q-41 -31 -91 -44.5t-110 -13.5q-43 0 -82 13t-71.5 36.5t-57 56t-38.5 70.5q-13 -38 -36.5 -70t-56 -55.5t-72 -37t-84.5 -13.5zM320 464q-43 0 -80.5 -17.5t-66 -46.5t-45 -67.5t-16.5 -81.5t16.5 -82t45 -68
t66 -46.5t80.5 -17.5t81 17.5t66 46.5t44.5 68t16.5 82t-16.5 81.5t-44.5 67.5t-66 46.5t-81 17.5zM993 308q-5 28 -19 56t-37.5 50.5t-56 36t-72.5 13.5q-37 0 -68 -12t-55.5 -33t-41.5 -49.5t-25 -61.5h375z" />
    <glyph glyph-name="Scaron" unicode="&#x160;" horiz-adv-x="616" 
d="M304 -10q-64 0 -117 18t-112 60l31 42q52 -37 98 -51t100 -14q91 0 134 40.5t43 115.5q0 41 -17 68.5t-44.5 46.5t-63 33t-72 27t-72 28.5t-63 37.5t-44.5 53.5t-17 77.5q0 57 20 96.5t51 64t69 36t74 11.5q64 0 116.5 -19t107.5 -60l-32 -42q-51 37 -96 51.5t-96 14.5
q-29 0 -57 -8.5t-49.5 -27t-34.5 -47.5t-13 -70q0 -47 29 -74.5t73 -47t94.5 -36.5t94.5 -42.5t73 -65.5t29 -106q0 -57 -19 -97t-51 -65.5t-75 -37t-92 -11.5zM280 830l-130 170h38l120 -134l120 134h38l-130 -170h-56z" />
    <glyph glyph-name="scaron" unicode="&#x161;" horiz-adv-x="473" 
d="M232 -15q-44 0 -88 13.5t-79 38.5l30 43q29 -23 66 -33t72 -10q119 0 119 91q0 33 -21 52t-52 32.5t-67.5 25t-67.5 28t-52 43t-21 69.5q0 35 13.5 61t36.5 43t53 25.5t64 8.5q41 0 80 -12.5t76 -39.5l-29 -41q-33 24 -64 32.5t-63 8.5q-51 0 -81 -21t-30 -65
q0 -28 21 -45t52 -29.5t67.5 -25t67.5 -31t52 -46.5t21 -73q0 -75 -48 -109t-128 -34zM208 600l-130 170h38l120 -134l120 134h38l-130 -170h-56z" />
    <glyph glyph-name="Ydieresis" unicode="&#x178;" horiz-adv-x="710" 
d="M385 0h-60v334l-295 436h67l258 -381l258 381h67l-295 -436v-334zM310 887q0 -17 -12.5 -29.5t-30.5 -12.5q-17 0 -29.5 12.5t-12.5 29.5q0 18 12.5 30.5t29.5 12.5q18 0 30.5 -12.5t12.5 -30.5zM485 887q0 -17 -12.5 -29.5t-30.5 -12.5q-17 0 -29.5 12.5t-12.5 29.5
q0 18 12.5 30.5t29.5 12.5q18 0 30.5 -12.5t12.5 -30.5z" />
    <glyph glyph-name="Zcaron" unicode="&#x17d;" horiz-adv-x="780" 
d="M60 0l543 717h-509v53h623l-544 -717h547v-53h-660zM363 830l-130 170h38l120 -134l120 134h38l-130 -170h-56z" />
    <glyph glyph-name="zcaron" unicode="&#x17e;" horiz-adv-x="527" 
d="M40 0l340 448h-307v52h414l-339 -448h331v-52h-439zM235 600l-130 170h38l120 -134l120 134h38l-130 -170h-56z" />
    <glyph glyph-name="florin" unicode="&#x192;" horiz-adv-x="587" 
d="M440 261h-118q-9 -63 -16 -123q-3 -26 -6.5 -53t-6.5 -53.5t-6 -50t-5 -42.5q-5 -41 -14.5 -78t-28.5 -65t-50 -44t-79 -16q-51 0 -110 41l30 43q21 -16 42 -23.5t38 -7.5q32 0 53 14t34 36.5t19.5 50.5t9.5 56l39 315h-61v52h67l34 268q5 40 15.5 77t30 65t50 44.5
t77.5 16.5q52 0 109 -42l-31 -42q-20 16 -40.5 23.5t-37.5 7.5q-33 0 -54 -14t-33.5 -36.5t-19 -50.5t-9.5 -56l-33 -261h111v-52z" />
    <glyph glyph-name="circumflex" unicode="&#x2c6;" horiz-adv-x="516" 
d="M286 770l130 -170h-38l-120 134l-120 -134h-38l130 170h56z" />
    <glyph glyph-name="tilde" unicode="&#x2dc;" horiz-adv-x="570" 
d="M377 657q-18 0 -43.5 11.5t-51.5 25.5t-49.5 25.5t-37.5 11.5q-32 0 -48.5 -22t-16.5 -50h-30q0 51 26.5 82.5t68.5 31.5q18 0 40 -9.5t58 -30.5q26 -16 47 -25t35 -9q32 0 48.5 22t16.5 50h30q0 -49 -26 -81.5t-67 -32.5z" />
    <glyph glyph-name="endash" unicode="&#x2013;" horiz-adv-x="459" 
d="M409 255h-359v45h359v-45z" />
    <glyph glyph-name="emdash" unicode="&#x2014;" horiz-adv-x="499" 
d="M449 255h-399v45h399v-45z" />
    <glyph glyph-name="quoteleft" unicode="&#x2018;" horiz-adv-x="197" 
d="M147 776q-29 -23 -50.5 -60.5t-21.5 -75.5q2 1 6 2q3 1 6.5 2t8.5 1q20 0 33.5 -13.5t13.5 -33.5q0 -19 -13.5 -32.5t-33.5 -13.5q-19 0 -32.5 13.5t-13.5 32.5q0 40 7 71.5t19 54.5t27.5 40t32.5 29z" />
    <glyph glyph-name="quoteright" unicode="&#x2019;" horiz-adv-x="197" 
d="M50 569q29 23 50.5 60.5t21.5 75.5q-2 -2 -6 -3q-8 -2 -15 -2q-20 0 -33.5 13.5t-13.5 33.5q0 19 13.5 32.5t33.5 13.5q19 0 32.5 -13.5t13.5 -32.5q0 -41 -7.5 -72t-19.5 -54t-27.5 -40t-31.5 -29z" />
    <glyph glyph-name="quotesinglbase" unicode="&#x201a;" horiz-adv-x="197" 
d="M50 -131q29 23 50.5 60.5t21.5 75.5q-2 -2 -6 -3q-8 -2 -15 -2q-20 0 -33.5 13.5t-13.5 33.5q0 19 13.5 32.5t33.5 13.5q19 0 32.5 -13.5t13.5 -32.5q0 -41 -7.5 -72t-19.5 -54t-27.5 -40t-31.5 -29z" />
    <glyph glyph-name="quotedblleft" unicode="&#x201c;" horiz-adv-x="342" 
d="M292 776q-29 -23 -50.5 -60.5t-21.5 -75.5q2 1 6 2q3 1 6.5 2t8.5 1q20 0 33.5 -13.5t13.5 -33.5q0 -19 -13.5 -32.5t-33.5 -13.5q-19 0 -32.5 13.5t-13.5 32.5q0 40 7 71.5t19 54.5t27.5 40t32.5 29zM147 776q-29 -23 -50.5 -60.5t-21.5 -75.5q2 1 6 2q3 1 6.5 2t8.5 1
q20 0 33.5 -13.5t13.5 -33.5q0 -19 -13.5 -32.5t-33.5 -13.5q-19 0 -32.5 13.5t-13.5 32.5q0 40 7 71.5t19 54.5t27.5 40t32.5 29z" />
    <glyph glyph-name="quotedblright" unicode="&#x201d;" horiz-adv-x="342" 
d="M50 569q29 23 50.5 60.5t21.5 75.5q-2 -2 -6 -3q-8 -2 -15 -2q-20 0 -33.5 13.5t-13.5 33.5q0 19 13.5 32.5t33.5 13.5q19 0 32.5 -13.5t13.5 -32.5q0 -41 -7.5 -72t-19.5 -54t-27.5 -40t-31.5 -29zM195 569q29 23 50.5 60.5t21.5 75.5q-2 -2 -6 -3q-8 -2 -15 -2
q-20 0 -33.5 13.5t-13.5 33.5q0 19 13.5 32.5t33.5 13.5q19 0 32.5 -13.5t13.5 -32.5q0 -41 -7.5 -72t-19.5 -54t-27.5 -40t-31.5 -29z" />
    <glyph glyph-name="quotedblbase" unicode="&#x201e;" horiz-adv-x="342" 
d="M50 -131q29 23 50.5 60.5t21.5 75.5q-2 -2 -6 -3q-8 -2 -15 -2q-20 0 -33.5 13.5t-13.5 33.5q0 19 13.5 32.5t33.5 13.5q19 0 32.5 -13.5t13.5 -32.5q0 -41 -7.5 -72t-19.5 -54t-27.5 -40t-31.5 -29zM195 -131q29 23 50.5 60.5t21.5 75.5q-2 -2 -6 -3q-8 -2 -15 -2
q-20 0 -33.5 13.5t-13.5 33.5q0 19 13.5 32.5t33.5 13.5q19 0 32.5 -13.5t13.5 -32.5q0 -41 -7.5 -72t-19.5 -54t-27.5 -40t-31.5 -29z" />
    <glyph glyph-name="dagger" unicode="&#x2020;" horiz-adv-x="473" 
d="M257 870v-340h136v-44h-136v-586h-45v586h-132v44h132v340h45z" />
    <glyph glyph-name="daggerdbl" unicode="&#x2021;" horiz-adv-x="473" 
d="M212 -100v340h-132v44h132v202h-132v44h132v340h45v-340h136v-44h-136v-202h136v-44h-136v-340h-45z" />
    <glyph glyph-name="bullet" unicode="&#x2022;" horiz-adv-x="312" 
d="M212 319q0 -23 -16.5 -39.5t-39.5 -16.5t-39.5 16.5t-16.5 39.5t16.5 39.5t39.5 16.5t39.5 -16.5t16.5 -39.5z" />
    <glyph glyph-name="ellipsis" unicode="&#x2026;" horiz-adv-x="580" 
d="M143 46q0 -19 -13.5 -32.5t-33.5 -13.5q-19 0 -32.5 13.5t-13.5 32.5q0 20 13.5 33.5t32.5 13.5q20 0 33.5 -13.5t13.5 -33.5zM337 46q0 -19 -13.5 -32.5t-33.5 -13.5q-19 0 -32.5 13.5t-13.5 32.5q0 20 13.5 33.5t32.5 13.5q20 0 33.5 -13.5t13.5 -33.5zM530 46
q0 -19 -13.5 -32.5t-33.5 -13.5q-19 0 -32.5 13.5t-13.5 32.5q0 20 13.5 33.5t32.5 13.5q20 0 33.5 -13.5t13.5 -33.5z" />
    <glyph glyph-name="perthousand" unicode="&#x2030;" horiz-adv-x="1337" 
d="M280 410q-38 0 -72 14.5t-59 39.5t-39.5 59t-14.5 72t14.5 72t39.5 59t59 39.5t72 14.5t72 -14.5t59 -39.5t39.5 -59t14.5 -72t-14.5 -72t-39.5 -59t-59 -39.5t-72 -14.5zM280 725q-27 0 -50.5 -10.5t-41 -28t-28 -41t-10.5 -50.5t10.5 -50.5t28 -41t41 -28t50.5 -10.5
t50.5 10.5t41 28t28 41t10.5 50.5t-10.5 50.5t-28 41t-41 28t-50.5 10.5zM159 0h-69l679 770h69zM651 -10q-38 0 -72 14.5t-59 39.5t-39.5 59t-14.5 72t14.5 72t39.5 59t59 39.5t72 14.5t72 -14.5t59 -39.5t39.5 -59t14.5 -72t-14.5 -72t-39.5 -59t-59 -39.5t-72 -14.5z
M651 305q-27 0 -50.5 -10.5t-41 -28t-28 -41t-10.5 -50.5t10.5 -50.5t28 -41t41 -28t50.5 -10.5t50.5 10.5t41 28t28 41t10.5 50.5t-10.5 50.5t-28 41t-41 28t-50.5 10.5zM1062 -10q-38 0 -72 14.5t-59 39.5t-39.5 59t-14.5 72t14.5 72t39.5 59t59 39.5t72 14.5t72 -14.5
t59 -39.5t39.5 -59t14.5 -72t-14.5 -72t-39.5 -59t-59 -39.5t-72 -14.5zM1062 305q-27 0 -50.5 -10.5t-41 -28t-28 -41t-10.5 -50.5t10.5 -50.5t28 -41t41 -28t50.5 -10.5t50.5 10.5t41 28t28 41t10.5 50.5t-10.5 50.5t-28 41t-41 28t-50.5 10.5z" />
    <glyph glyph-name="guilsinglleft" unicode="&#x2039;" horiz-adv-x="336" 
d="M225 0l-200 250l200 250h61l-200 -250l200 -250h-61z" />
    <glyph glyph-name="guilsinglright" unicode="&#x203a;" horiz-adv-x="336" 
d="M50 0l200 250l-200 250h61l200 -250l-200 -250h-61z" />
    <glyph glyph-name="Euro" unicode="&#x20ac;" horiz-adv-x="751" 
d="M384 436h-233q-3 -26 -3 -51q0 -27 3 -51h233v-39h-226q12 -53 39 -99t65.5 -79.5t88.5 -52.5t109 -19q58 0 109.5 21t101.5 57l30 -45q-53 -41 -114 -64.5t-127 -23.5q-71 0 -131.5 23.5t-107.5 64.5t-79 96.5t-45 120.5h-47v39h41q-3 25 -3 51q0 25 3 51h-41v39h47
q13 65 45 120.5t79.5 96.5t107.5 64.5t131 23.5q63 0 116.5 -18.5t105.5 -53.5l-29 -45q-46 30 -92.5 46t-100.5 16q-59 0 -109 -19t-88.5 -52.5t-65.5 -79.5t-39 -99h226v-39z" />
    <glyph glyph-name="trademark" unicode="&#x2122;" horiz-adv-x="844" 
d="M770 369v303l-137 -155l-139 154v-302h-43v418l182 -202l181 203v-419h-44zM395 728h-161v-359h-43v359h-161v42h365v-42z" />
    </font>
</defs>
</svg>
