<?xml version="1.0" encoding="UTF-8"?>
<svg id="Capa_1" data-name="Capa 1" xmlns="http://www.w3.org/2000/svg" viewBox="0 0 46.81 46.78">
  <g id="Group_183" data-name="Group 183">
    <g id="Group_182" data-name="Group 182">
      <g id="Group_181" data-name="Group 181">
        <path id="Path_166" data-name="Path 166" d="M23.39,0C10.47,0,0,10.47,0,23.39s10.47,23.39,23.39,23.39,23.39-10.47,23.39-23.39S36.31,0,23.39,0h0Zm0,39.51c-8.9,0-16.12-7.22-16.12-16.12S14.49,7.27,23.39,7.27s16.12,7.22,16.12,16.12-7.22,16.12-16.12,16.12h0Z" style="fill: #73bcb9;"/>
      </g>
      <path id="Path_167" data-name="Path 167" d="M18.31,23.39c0-2.81,2.27-5.09,5.08-5.09s5.09,2.27,5.09,5.08-2.27,5.09-5.08,5.09h0c-2.81,0-5.09-2.27-5.09-5.08" style="fill: #535c5d;"/>
      <rect id="Rectangle_119" data-name="Rectangle 119" x="33.38" y="27.07" width="7.45" height="20.01" transform="translate(-15.34 37.1) rotate(-45)" style="fill: #b5add1;"/>
    </g>
  </g>
</svg>