<?xml version="1.0" encoding="UTF-8"?>
<svg id="Capa_1" data-name="Capa 1" xmlns="http://www.w3.org/2000/svg" viewBox="0 0 258.96 46.78">
  <g id="Group_185" data-name="Group 185">
    <g id="Group_183" data-name="Group 183">
      <g id="Group_182" data-name="Group 182">
        <g id="Group_181" data-name="Group 181">
          <path id="Path_166" data-name="Path 166" d="M23.39,0C10.47,0,0,10.47,0,23.39s10.47,23.39,23.39,23.39,23.39-10.47,23.39-23.39S36.31,0,23.39,0h0Zm0,39.51c-8.9,0-16.12-7.22-16.12-16.12S14.49,7.27,23.39,7.27s16.12,7.22,16.12,16.12-7.22,16.12-16.12,16.12h0Z" style="fill: #73bcb9;"/>
        </g>
        <path id="Path_167" data-name="Path 167" d="M18.31,23.39c0-2.81,2.27-5.09,5.08-5.09s5.09,2.27,5.09,5.08-2.27,5.09-5.08,5.09h0c-2.81,0-5.09-2.27-5.09-5.08" style="fill: #535c5d;"/>
        <rect id="Rectangle_119" data-name="Rectangle 119" x="33.38" y="27.07" width="7.45" height="20.01" transform="translate(-15.34 37.1) rotate(-45)" style="fill: #b5add1;"/>
      </g>
    </g>
    <g id="Group_184" data-name="Group 184">
      <path id="Path_168" data-name="Path 168" d="M62.4,12.28h4.55v21.18h-4.55V12.28Z" style="fill: #535c5d;"/>
      <path id="Path_169" data-name="Path 169" d="M92.44,33.47h-12.15c-1.52,.02-3.04-.23-4.48-.72-1.31-.44-2.52-1.15-3.54-2.08-1.01-.93-1.8-2.07-2.34-3.33-.59-1.41-.87-2.93-.85-4.46-.02-1.47,.28-2.94,.86-4.29,.55-1.27,1.35-2.41,2.35-3.36,1.01-.95,2.2-1.69,3.5-2.17,1.38-.52,2.84-.79,4.32-.77,1.48,0,2.94,.26,4.32,.79,1.3,.5,2.49,1.24,3.5,2.19,1,.94,1.8,2.08,2.35,3.34,.58,1.35,.88,2.81,.86,4.27,0,.73-.08,1.45-.25,2.16-.16,.69-.41,1.36-.75,1.98-.33,.63-.77,1.19-1.28,1.68-.54,.5-1.16,.91-1.84,1.21v.06h5.41v3.5h0Zm-18.63-10.59c-.01,1.7,.65,3.33,1.85,4.54,.57,.57,1.25,1.04,2,1.36,1.57,.66,3.33,.66,4.9,0,.75-.32,1.42-.78,2-1.36,2.49-2.51,2.49-6.56,0-9.07-.57-.57-1.25-1.04-2-1.36-1.57-.66-3.33-.66-4.9,0-.75,.32-1.42,.78-2,1.36-1.2,1.21-1.86,2.84-1.85,4.54h0Z" style="fill: #535c5d;"/>
      <path id="Path_170" data-name="Path 170" d="M100.37,13.4h5.13c.96,0,1.92,.06,2.87,.17,.89,.09,1.76,.34,2.57,.74,.75,.38,1.39,.95,1.84,1.66,.51,.9,.76,1.93,.71,2.96,.06,1.32-.42,2.61-1.33,3.57-1.01,.96-2.3,1.57-3.68,1.73l5.7,9.24h-2.92l-5.44-9.01h-3.06v9.01h-2.38V13.4h-.01Zm2.38,8.84h2.13c.66,0,1.35-.02,2.05-.06,.67-.03,1.33-.15,1.96-.37,.57-.19,1.08-.53,1.47-.98,.42-.55,.63-1.23,.58-1.91,.03-.61-.12-1.21-.43-1.73-.28-.43-.66-.78-1.12-1.01-.49-.24-1.02-.4-1.56-.47-.58-.08-1.16-.12-1.74-.11h-3.35v6.64h0Z" style="fill: #535c5d;"/>
      <path id="Path_171" data-name="Path 171" d="M151.76,12.93h2.44V31.2h8.7v2.26h-11.14V12.93Z" style="fill: #535c5d;"/>
      <path id="Path_172" data-name="Path 172" d="M196.01,17.21c-.36-.59-.89-1.06-1.52-1.34-.62-.28-1.29-.42-1.98-.42-.5,0-1,.07-1.49,.2-.47,.12-.91,.31-1.31,.57-.39,.25-.71,.6-.94,1.01-.24,.45-.36,.95-.35,1.46,0,.39,.06,.78,.2,1.15,.15,.35,.38,.66,.66,.91,.38,.31,.8,.57,1.25,.76,.63,.27,1.27,.51,1.92,.7,.74,.24,1.46,.49,2.15,.76,.66,.25,1.28,.6,1.84,1.03,.53,.42,.97,.95,1.27,1.56,1.12,2.29,.45,5.05-1.6,6.58-.65,.47-1.38,.82-2.15,1.03-.82,.23-1.67,.34-2.52,.34-.56,0-1.12-.05-1.68-.15-.55-.1-1.09-.25-1.61-.46-.51-.21-1-.48-1.45-.81-.46-.34-.85-.76-1.17-1.23l1.95-1.6c.4,.69,1.01,1.25,1.73,1.6,1.19,.59,2.56,.7,3.83,.32,.48-.14,.93-.35,1.34-.64,.39-.28,.73-.63,.98-1.04,.26-.43,.39-.93,.38-1.44,.02-.5-.08-1-.3-1.45-.22-.39-.54-.72-.92-.96-.49-.31-1.02-.55-1.57-.73-.63-.22-1.37-.47-2.22-.76-.65-.2-1.28-.45-1.9-.74-.55-.26-1.06-.61-1.5-1.03-.43-.41-.77-.91-1.01-1.46-.94-2.19-.27-4.74,1.64-6.17,.63-.47,1.33-.82,2.09-1.04,1.77-.52,3.66-.46,5.4,.15,.94,.36,1.76,.97,2.4,1.75l-1.86,1.6h.02Z" style="fill: #535c5d;"/>
      <path id="Path_173" data-name="Path 173" d="M243.44,15.76h-6.79v17.87h-2.44V15.76h-6.79v-2.26h16.01v2.26h0Z" style="fill: #535c5d;"/>
      <path id="Path_174" data-name="Path 174" d="M215.45,15.62h-6.79v17.87h-2.44V15.62h-6.79v-2.26h16.01v2.26h0Z" style="fill: #535c5d;"/>
      <path id="Path_175" data-name="Path 175" d="M245.53,13.36h13.43v2.26h-10.99v6.65h8.78v2.26h-8.78v6.65h10.99v2.26h-13.43V13.36Z" style="fill: #535c5d;"/>
      <path id="Path_176" data-name="Path 176" d="M169.73,13.36h13.43v2.26h-10.99v6.65h8.77v2.26h-8.78v6.65h10.99v2.26h-13.43V13.36Z" style="fill: #535c5d;"/>
      <path id="Path_177" data-name="Path 177" d="M116.11,13.36h13.43v2.26h-10.99v6.65h8.78v2.26h-8.78v6.65h10.99v2.26h-13.43V13.36Z" style="fill: #535c5d;"/>
      <path id="Path_178" data-name="Path 178" d="M228.12,33.49h2.84l-8.55-20.11h-2.66l-8.87,20.11h2.76l1.88-4.46h10.78l1.82,4.46Zm-11.64-6.73l4.5-10.67h.06l4.34,10.67s-8.9,0-8.9,0Z" style="fill: #535c5d;"/>
      <path id="Path_179" data-name="Path 179" d="M147.82,33.47h2.84l-8.55-20.11h-2.65l-8.87,20.11h2.76l1.88-4.46h10.78l1.82,4.46h-.01Zm-11.64-6.73l4.5-10.67h.06l4.34,10.67s-8.9,0-8.9,0Z" style="fill: #535c5d;"/>
    </g>
  </g>
</svg>