<?xml version="1.0" encoding="UTF-8"?><svg id="Layer_1" xmlns="http://www.w3.org/2000/svg" viewBox="0 0 300 300"><defs><style>.cls-1{fill:#74bdb9;stroke-width:0px;}</style></defs><g id="Group_106"><path id="Path_79" class="cls-1" d="m41.17,56.78h217.01l.41.83c-2.15,2.02-4.36,3.98-6.42,6.08-29.13,29.55-58.26,59.1-87.4,88.67-2.74,2.86-5.67,5.52-8.8,7.95-3.39,3.31-8.8,3.31-12.18,0-2.6-1.98-5.07-4.15-7.35-6.48-31.14-31.58-62.26-63.18-93.38-94.8-.45-.56-.94-1.16-1.9-2.24Z"/><path id="Path_80" class="cls-1" d="m41.8,235.99l75.51-76.43c3.83,3.74,7.53,7.26,11.14,10.9,10.48,11.88,28.61,13.02,40.49,2.55.85-.75,1.67-1.56,2.42-2.4,3.65-3.64,7.39-7.16,11.27-10.98l75.3,76.22c-2.29,1.38-212.85,1.56-216.13.15Z"/><path id="Path_81" class="cls-1" d="m28.62,224.42V69.17l76.62,77.63L28.62,224.42Z"/><path id="Path_82" class="cls-1" d="m194.71,146.8l76.68-77.66v155.32l-76.68-77.66Z"/></g></svg>