<?xml version="1.0" encoding="UTF-8"?><svg id="Layer_1" xmlns="http://www.w3.org/2000/svg" viewBox="0 0 300 300"><defs><style>.cls-1{fill:#74bdb9;stroke-width:0px;}</style></defs><path id="Path_77" class="cls-1" d="m141.07,272.33c-7.24-7.86-14.21-15.07-20.75-22.62-23.37-25.74-43.75-54.04-60.76-84.37-18.82-31.56-15.66-71.56,7.88-99.77,25.93-32.21,69.66-44.06,108.31-29.36,38.47,14.96,62.45,53.5,58.88,94.62-1.91,11.87-5.84,23.32-11.63,33.85-18.42,33.86-41.36,65.05-68.2,92.71-4.24,4.65-8.54,9.27-13.74,14.93Zm.52-189.82c-22.96-.11-41.67,18.41-41.79,41.38-.12,22.96,18.42,41.67,41.38,41.78,22.64.11,41.2-17.91,41.77-40.54.8-22.72-16.96-41.79-39.67-42.6-.57-.02-1.12-.03-1.69-.03Z"/></svg>