<?xml version="1.0" encoding="UTF-8"?><svg id="Layer_1" xmlns="http://www.w3.org/2000/svg" viewBox="0 0 300 300"><defs><style>.cls-1{fill:#74bdb9;stroke-width:0px;}</style></defs><path id="Path_78" class="cls-1" d="m173.57,205.19c.67-2.91,1.58-5.75,2.76-8.49,2.53-4.64,5.5-9.04,8.43-13.43.73-.72,1.75-1.04,2.76-.87,22.52,5.09,45.05,10.27,67.57,15.39,1.26.14,2.3,1.06,2.59,2.29,6.77,22.89-6.3,46.93-29.18,53.71-1.99.59-4.01,1.03-6.05,1.33-11.04.99-22.15.41-33.03-1.72-38.23-5.92-73.3-24.75-99.35-53.36-24.17-25.72-39.6-58.43-44.06-93.45-1.15-8.36-1.69-16.8-1.58-25.24.62-23.7,20.34-42.4,44.02-41.78,3.79.1,7.54.7,11.18,1.78,1.47.31,2.59,1.53,2.78,3.04,4.92,22.25,9.92,44.46,15.03,66.62.47,1.44-.06,3.02-1.3,3.89-5.65,5.01-12.51,8.46-19.9,10-.48.11-.96.25-1.91.51,13.04,37.18,42.16,66.5,79.25,79.8Z"/></svg>