<?xml version="1.0" encoding="UTF-8"?>
<svg id="Capa_1" data-name="Capa 1" xmlns="http://www.w3.org/2000/svg" xmlns:xlink="http://www.w3.org/1999/xlink" viewBox="0 0 99.59 84.52">
  <defs>
    <clipPath id="clippath">
      <rect width="99.59" height="84.52" style="fill: none;"/>
    </clipPath>
  </defs>
  <g id="Group_340" data-name="Group 340" style="opacity: .44;">
    <g style="clip-path: url(#clippath);">
      <g id="Group_339" data-name="Group 339">
        <path id="Path_290" data-name="Path 290" d="M5.17,53.31l-.97-.04c-2.16,.15-4.02-1.48-4.17-3.64,0-.14-.01-.28,0-.41-.24-4.02,1.43-5.6,5.62-5.4,3.1,.15,3.11,.03,4.05-2.74,.71-2.08,1.39-4.18,2.11-6.26,1.69-5.16,6.62-8.55,12.04-8.28,9.11-.01,18.22-.01,27.34,0,5.43-.27,10.35,3.15,12.01,8.32,.94,2.74,1.89,5.49,2.79,8.24,.08,.51,.56,.85,1.07,.77h0c1.33-.04,2.66-.03,3.98,0,2.26-.07,4.15,1.71,4.22,3.97,0,.38,0,.77,0,1.15,.2,2.11-1.36,3.98-3.47,4.18-.3,.03-.59,.02-.89-.02h-.8c.29,2.16,.68,4.24,.83,6.34,.18,2.5,.18,5.01,.2,7.51,.03,4.49,0,8.98,0,13.48,0,2.63-1.51,4.04-4.32,4.04-1.92,0-3.84,0-5.75,0-2.07,.18-3.89-1.35-4.08-3.41,0-.15-.02-.3,0-.45-.02-1.67,0-3.34-.02-5.01,0-.1-.04-.19-.07-.29H18.29v3.81c0,.7,.02,1.4-.05,2.09-.19,1.87-1.78,3.29-3.66,3.26-2.25,.04-4.5,.04-6.75,0-1.84,0-3.4-1.35-3.65-3.17-.03-.17-.04-.35-.05-.52,.04-6.96,.02-13.93,.16-20.89,.16-2.22,.45-4.43,.86-6.61m32.19-4.74h20.69c1.39,0,1.59-.25,1.17-1.49-1.12-3.31-2.23-6.62-3.37-9.93-.56-2.12-2.59-3.52-4.77-3.28-9.04,0-18.08,0-27.11,0-2.22-.24-4.27,1.18-4.84,3.34-1.11,3.24-2.22,6.48-3.31,9.73-.48,1.43-.32,1.64,1.3,1.64h20.25m17.86,16.86h3.76c1.25,.09,2.34-.85,2.44-2.1v-.39c-.03-.94,0-1.88,0-2.82-.02-1.97-1.11-2.85-3.19-2.55-1.53,.22-3.05,.53-4.58,.7-4.29,.47-3.83,1.22-4.52,4.23-.37,1.2,.31,2.48,1.52,2.84,.31,.09,.63,.12,.94,.08,1.22,.03,2.43,0,3.65,0m-35.49-.14c1.29,0,2.58,.05,3.86-.02,.58,0,1.14-.2,1.61-.53,1.46-1.26,.37-2.73,.19-4.1-.03-1-.73-1.86-1.71-2.07-.07-.02-.14-.03-.22-.04-2.43-.37-4.86-.77-7.3-1.09-1.18-.24-2.34,.52-2.58,1.71-.03,.14-.04,.29-.04,.43-.04,1.15-.04,2.29,0,3.44-.02,1.25,.98,2.27,2.22,2.29h.23c1.25,.03,2.5,0,3.75,0" style="fill: #f7f7f7;"/>
        <path id="Path_291" data-name="Path 291" d="M82.17,27.41h-8.45c-2.17,0-3.08-.88-3.08-2.93V2.85c0-2.01,.9-2.85,3.03-2.85h23.02c1.99,0,2.87,.78,2.87,2.64,0,7.31,0,14.63,0,21.94,0,1.97-.96,2.82-3.09,2.82h-8.24v54.97c0,2.03-.1,2.12-2.26,2.12h-2.55c-.62,.07-1.18-.38-1.25-1v-.17c-.02-.35,0-.7,0-1.04V27.4h0Zm.22-9.93c1.05,0,1.94,.07,2.81-.01,3.24-.07,5.86-2.65,5.99-5.88,0-3.34-2.58-6.12-5.91-6.35-1.57-.15-3.17-.09-4.75-.1-1.37,0-1.61,.23-1.61,1.52,0,4.42,0,8.84,0,13.27,0,2.51-.38,2.22,2.44,2.26,.77,0,1.06-.27,1.04-.99-.04-1.18,0-2.35,0-3.72" style="fill: #f7f7f7;"/>
        <path id="Path_292" data-name="Path 292" d="M82.44,14.34v-5.91c1.75-.01,3.54-.42,4.78,1.18,.77,.92,.84,2.24,.18,3.25-1.12,1.87-3.07,1.43-4.96,1.49" style="fill: #f7f7f7;"/>
      </g>
    </g>
  </g>
</svg>