<?xml version="1.0" encoding="UTF-8"?>
<svg id="Capa_1" data-name="Capa 1" xmlns="http://www.w3.org/2000/svg" xmlns:xlink="http://www.w3.org/1999/xlink" viewBox="0 0 84.27 84.26">
  <defs>
    <clipPath id="clippath">
      <rect width="84.27" height="84.26" style="fill: none;"/>
    </clipPath>
  </defs>
  <g id="Group_354" data-name="Group 354" style="opacity: .44;">
    <g style="clip-path: url(#clippath);">
      <g id="Group_353" data-name="Group 353">
        <path id="Path_304" data-name="Path 304" d="M44.96,16.86h35.74c2.63,0,3.57,.96,3.57,3.61v60.14c0,2.69-.95,3.64-3.65,3.64H3.58C.96,84.25,0,83.27,0,80.64V3.62C0,.97,.96,0,3.58,0H41.44C43.94,0,44.97,1.01,44.97,3.49v13.37h-.01Zm-5.71,61.7V5.72H5.69V78.55h6.96v-30.1c0-2.54,.97-3.5,3.48-3.5h12.62c2.6,0,3.55,.94,3.55,3.52v30.09h6.95Zm5.77-56.06v56.06h6.95v-30.47c-.2-1.53,.88-2.93,2.41-3.13,.22-.03,.43-.03,.65,0,4.53,0,9.05,0,13.58,0,1.52-.13,2.86,.99,2.99,2.51,0,.14,0,.28,0,.43,0,.32,0,.63,0,.95v29.7h6.93V22.52H45.01v-.02Zm-26.7,28.04v28.01h8.38v-26.86c0-.19,.06-.41-.02-.56-.12-.22-.34-.57-.52-.57-2.59-.04-5.17-.02-7.84-.02m47.67,0c-2.54,0-4.97,.04-7.39-.02-.88-.02-1.03,.29-1.03,1.08,.03,8.66,.02,17.32,.02,25.97v.95h8.41v-27.98h-.01Z" style="fill: #fff;"/>
      </g>
    </g>
  </g>
</svg>