<?xml version="1.0" encoding="UTF-8"?>
<svg id="Capa_1" data-name="Capa 1" xmlns="http://www.w3.org/2000/svg" xmlns:xlink="http://www.w3.org/1999/xlink" viewBox="0 0 93.55 74.57">
  <defs>
    <clipPath id="clippath">
      <rect y=".03" width="93.5" height="74.52" style="fill: none;"/>
    </clipPath>
  </defs>
  <g id="Group_346" data-name="Group 346" style="opacity: .44;">
    <g style="clip-path: url(#clippath);">
      <g id="Group_345" data-name="Group 345">
        <path id="Path_296" data-name="Path 296" d="M93.06,14.45c-.96-3.84-2.04-7.66-3.07-11.48-.75-2.76-.99-2.93-3.91-2.93H26.56C19.92,.04,13.27,.06,6.62,.03c-1.28-.2-2.5,.62-2.79,1.89C2.65,6.32,1.37,10.7,.34,15.14c-1.62,7.05,2.78,14.09,9.83,15.71,.56,.13,1.13,.22,1.7,.28,4.76,.5,9.42-1.6,12.2-5.49,3.55,6.5,11.7,8.9,18.2,5.35,1.91-1.04,3.54-2.54,4.75-4.35,2.69,3.64,7.05,5.65,11.56,5.33,4.44-.29,8.46-2.76,10.7-6.61l.57,.7c4.43,5.8,12.71,6.91,18.51,2.48,4.3-3.28,6.16-8.86,4.7-14.07" style="fill: #f4f4f6;"/>
        <path id="Path_297" data-name="Path 297" d="M69.46,31.11c-.19,.14-.32,.22-.44,.32-5.85,5.3-14.6,5.81-21.02,1.23-.75-.49-1.15-.34-1.78,.14-4.1,3.27-9.52,4.41-14.59,3.07-2.98-.78-5.7-2.33-7.9-4.48-5.74,4.39-13.6,4.77-19.74,.95-.04,.63-.09,1.06-.09,1.49v33.18c0,.4,0,.79,.04,1.19,.2,3.6,3.2,6.39,6.8,6.33,1.98,.04,3.97,0,5.95,0,2.7,0,3.34-.63,3.34-3.32v-26.34c0-.57,.06-1.14,.1-1.71h20.76v28.21c0,2.51,.66,3.16,3.18,3.16h38.1c3.7,.39,7.02-2.29,7.42-5.99,.05-.45,.05-.91,0-1.36,0-11.11,0-22.22,0-33.33,0-.46-.06-.92-.1-1.48-6.27,3.89-14.31,3.38-20.04-1.26" style="fill: #f4f4f6;"/>
      </g>
    </g>
  </g>
</svg>