<?xml version="1.0" encoding="UTF-8"?>
<svg id="Capa_1" data-name="Capa 1" xmlns="http://www.w3.org/2000/svg" xmlns:xlink="http://www.w3.org/1999/xlink" viewBox="0 0 71.89 71.87">
  <defs>
    <clipPath id="clippath">
      <rect y=".02" width="71.88" height="71.83" style="fill: none;"/>
    </clipPath>
  </defs>
  <g id="Group_338" data-name="Group 338" style="opacity: .44;">
    <g style="clip-path: url(#clippath);">
      <g id="Group_337" data-name="Group 337">
        <path id="Path_286" data-name="Path 286" d="M18.56,71.84H4.81c-.99,.14-1.94-.41-2.32-1.33-.34-.9-.05-1.92,.71-2.52C24.82,46.39,46.43,24.78,68.04,3.16c.6-.76,1.62-1.04,2.52-.7,.91,.39,1.45,1.34,1.31,2.32v13.74h-2.28c-1.33,0-2.67-.02-4,0-1.16-.04-2.13,.87-2.16,2.03-.04,1.16,.87,2.13,2.03,2.16h.14c2.06,.02,4.11,0,6.23,0v5.62h-1.16c-1.45,0-2.9,0-4.35,0-1.16-.05-2.14,.86-2.18,2.01-.05,1.16,.86,2.14,2.01,2.18h.19c1.82,.02,3.64,0,5.49,0v5.62h-5.43c-1.16-.08-2.16,.79-2.24,1.95s.79,2.16,1.95,2.24h.27c1.8,0,3.59,0,5.43,0v5.62h-5.12c-.3,0-.61,0-.91,.06-1.13,.25-1.84,1.36-1.6,2.49,.21,.95,1.05,1.64,2.02,1.65,1.85,.03,3.69,0,5.59,0v5.62h-5.36c-1.16-.1-2.18,.76-2.28,1.92s.76,2.18,1.92,2.28c.11,0,.22,0,.33,0h5.45v4.11c0,1.19,.02,2.38,0,3.58,.03,1.14-.86,2.08-1.99,2.12h0c-2.57,.04-5.14,0-7.82,0v-5.46c.08-1.16-.8-2.16-1.96-2.24s-2.16,.8-2.24,1.96v5.74h-5.62v-5.65c-.03-1.13-.94-2.04-2.07-2.06-1.15-.02-2.1,.91-2.12,2.06v.02c-.03,1.84,0,3.69,0,5.59h-5.63v-5.37c.1-1.16-.76-2.18-1.92-2.28s-2.18,.76-2.28,1.92c0,.11,0,.22,0,.33v5.4c-.11,.02-.22,.03-.33,.04h-5.29v-5.47c.07-1.16-.8-2.16-1.96-2.24s-2.16,.8-2.24,1.96v5.74h-5.62v-5.17c0-.28,0-.56-.04-.84-.18-1.14-1.25-1.92-2.39-1.74-1.04,.16-1.79,1.07-1.77,2.12-.02,1.84,0,3.69,0,5.63m40.68-25.78c0-3.58,0-7.15,0-10.73,.14-.98-.4-1.94-1.31-2.32-.92-.36-1.97-.07-2.58,.72-7.21,7.23-14.43,14.46-21.66,21.68-.8,.59-1.08,1.66-.69,2.57,.4,.88,1.32,1.4,2.28,1.28,7.17,0,14.35,0,21.52,0,1.18,.16,2.28-.66,2.44-1.85,.03-.21,.03-.41,0-.62v-10.73" style="fill: #fff;"/>
        <path id="Path_287" data-name="Path 287" d="M9.75,37.74L40.2,7.3c.07,4.68,3.92,8.41,8.6,8.34,.13,0,.25,0,.38-.01l-30.78,30.76-8.64-8.64" style="fill: #fff;"/>
        <path id="Path_288" data-name="Path 288" d="M6.5,40.93l8.87,8.86-4.2,4.21c-.51,.51-1.01,1.04-1.53,1.53-.78,.84-2.09,.89-2.93,.11l-.09-.09c-2.01-1.96-4-3.95-5.96-5.95-.8-.71-.87-1.93-.16-2.74,1.97-2.04,4.04-4,6-5.93" style="fill: #fff;"/>
        <path id="Path_289" data-name="Path 289" d="M49.04,11.53c-2.55,.06-4.67-1.96-4.73-4.51,0-.57,.08-1.13,.27-1.67,.09-.76,.59-1.41,1.3-1.7,2.39-1.05,4.73-2.22,7.08-3.33,.85-.53,1.94-.4,2.65,.31,.69,.72,.8,1.81,.28,2.65-1.07,2.28-2.14,4.55-3.25,6.82-.16,.32-.44,.57-.78,.7-.92,.3-1.88,.49-2.82,.73" style="fill: #fff;"/>
      </g>
    </g>
  </g>
</svg>