<?xml version="1.0" encoding="UTF-8"?>
<svg id="Capa_1" data-name="Capa 1" xmlns="http://www.w3.org/2000/svg" xmlns:xlink="http://www.w3.org/1999/xlink" viewBox="0 0 59.19 58.72">
  <defs>
    <clipPath id="clippath">
      <rect x="0" y="0" width="59.18" height="58.71" style="fill: none;"/>
    </clipPath>
  </defs>
  <g id="Group_348" data-name="Group 348" style="opacity: .44;">
    <g style="clip-path: url(#clippath);">
      <g id="Group_347" data-name="Group 347">
        <path id="Path_298" data-name="Path 298" d="M46.43,25.47c-2.65,0-5.3,0-7.95,0-2.45,.17-4.57-1.67-4.74-4.11,0-.21,0-.42,0-.62,0-5.33,0-10.66,0-15.98-.15-2.46,1.72-4.58,4.18-4.73,.2-.01,.4-.01,.59,0h15.9c2.45-.19,4.58,1.64,4.77,4.09,.02,.23,.02,.47,0,.7v15.9c.2,2.42-1.6,4.55-4.02,4.75-.23,.02-.46,.02-.68,0-2.68,.02-5.36,0-8.04,0" style="fill: #fff;"/>
        <path id="Path_299" data-name="Path 299" d="M0,12.81V4.67C-.13,2.24,1.73,.15,4.16,0H20.82c2.44-.12,4.52,1.77,4.64,4.22v.38c.03,5.42,.03,10.85,0,16.27,.11,2.43-1.77,4.48-4.2,4.59h-.4c-5.42,.02-10.85,.02-16.27,0C2.19,25.59,.14,23.75,0,21.34V12.81" style="fill: #fff;"/>
        <path id="Path_300" data-name="Path 300" d="M0,45.54v-8.04c-.15-2.4,1.68-4.47,4.09-4.61,.19,0,.37,0,.56,0,5.36,0,10.72,0,16.08,0,2.43-.17,4.55,1.66,4.72,4.1,.02,.22,0,.44,0,.66,0,5.3,0,10.6,0,15.9,.19,2.45-1.65,4.59-4.1,4.78-.2,.02-.41,.02-.61,0-5.36,.04-10.72,.04-16.08,0-2.43,.14-4.51-1.71-4.65-4.14-.01-.2,0-.4,0-.6v-8.04" style="fill: #fff;"/>
        <path id="Path_301" data-name="Path 301" d="M46.45,33.28c7.03,0,12.73,5.69,12.73,12.71s-5.69,12.73-12.71,12.73-12.73-5.69-12.73-12.71h0c-.04-7,5.61-12.7,12.6-12.73h.11" style="fill: #fff;"/>
      </g>
    </g>
  </g>
</svg>