<?xml version="1.0" encoding="UTF-8"?>
<svg id="Capa_1" data-name="Capa 1" xmlns="http://www.w3.org/2000/svg" xmlns:xlink="http://www.w3.org/1999/xlink" viewBox="0 0 71.9 77.28">
  <defs>
    <clipPath id="clippath">
      <rect x="0" width="71.88" height="77.25" style="fill: none;"/>
    </clipPath>
  </defs>
  <g id="Group_352" data-name="Group 352" style="opacity: .44;">
    <g style="clip-path: url(#clippath);">
      <g id="Group_351" data-name="Group 351">
        <path id="Path_303" data-name="Path 303" d="M.04,50.27C.04,43.46,.1,36.64,0,29.83c-.11-2.33,.95-4.56,2.82-5.94C11.76,16.67,20.69,9.47,29.46,2.06c3.89-2.73,9.07-2.74,12.97-.03,8.92,7.51,18.02,14.83,27.06,22.19,1.58,1.21,2.48,3.11,2.41,5.1-.03,13.97-.03,27.94-.02,41.9,.29,3.04-1.93,5.73-4.97,6.03-.35,.03-.71,.03-1.07,0h-12.88c-1.54,.22-2.98-.85-3.2-2.4-.04-.27-.04-.55,0-.82,0-7.93-.07-15.87,.04-23.8,.18-3.21-2.28-5.96-5.49-6.15-.23,0-.46,0-.69,0-5.13,.13-10.27,.03-15.4,.03-3.04-.32-5.77,1.89-6.09,4.93-.04,.38-.04,.76,0,1.14v23.8c.25,1.55-.81,3.01-2.36,3.26-.29,.05-.59,.05-.88,0H5.92c-3.01,.24-5.65-2.02-5.88-5.03-.02-.29-.02-.58,0-.86-.01-7.03-.01-14.06,0-21.09" style="fill: #fff;"/>
      </g>
    </g>
  </g>
</svg>