<?xml version="1.0" encoding="UTF-8"?>
<svg id="Capa_1" data-name="Capa 1" xmlns="http://www.w3.org/2000/svg" xmlns:xlink="http://www.w3.org/1999/xlink" viewBox="0 0 73.13 73.11">
  <defs>
    <clipPath id="clippath">
      <rect y=".02" width="73.09" height="73.09" style="fill: none;"/>
    </clipPath>
  </defs>
  <g id="Group_350" data-name="Group 350" style="opacity: .44;">
    <g style="clip-path: url(#clippath);">
      <g id="Group_349" data-name="Group 349">
        <path id="Path_302" data-name="Path 302" d="M42.25,.02c1.36,.33,3.54,.83,5.71,1.39,4.32,1.13,8.64,2.29,12.95,3.46,3.67,.85,6.54,3.73,7.38,7.41,1.47,5.47,2.93,10.95,4.39,16.42,1.14,3.7,.05,7.72-2.79,10.34-7.95,7.94-15.89,15.88-23.83,23.82-2.31,2.31-4.63,4.62-6.94,6.94-3.68,4.09-9.97,4.42-14.06,.74-.26-.23-.51-.48-.74-.74-7.01-7.01-14.01-14.01-21.02-21.01-4.07-3.65-4.42-9.91-.77-13.98,.23-.26,.48-.51,.73-.74C13.5,23.8,23.73,13.52,33.96,3.25,36.13,1.03,39.15-.15,42.25,.02m11.12,23.95c2.33,.02,4.24-1.86,4.25-4.19s-1.86-4.24-4.19-4.25c-2.33-.02-4.23,1.85-4.25,4.18-.02,2.34,1.86,4.24,4.19,4.27" style="fill: #fff;"/>
      </g>
    </g>
  </g>
</svg>