<?xml version="1.0" encoding="UTF-8"?>
<svg id="Capa_1" data-name="Capa 1" xmlns="http://www.w3.org/2000/svg" viewBox="0 0 90.64 74.69">
  <path id="Path_295" data-name="Path 295" d="M6.91,47.89h0Zm10.37-7.26h0Zm10.37-7.26h0Zm10.37-7.26h0Zm10.37-7.26h0Zm10.37-7.26h0Zm10.37-7.26h0Zm6.18-4.33l-6.18,4.33,3.02,4.3-1.53,1.07-3.02-4.3-8.84,6.2,3.02,4.3-1.52,1.07-3.02-4.3-8.84,6.2,3.02,4.3-1.52,1.07-3.02-4.3-8.84,6.2,3.02,4.3-1.52,1.07-3.02-4.3-8.84,6.2,3.02,4.3-1.52,1.07-3.02-4.3-8.84,6.2,3.02,4.3-1.52,1.07-3.02-4.3-8.84,6.2,3.02,4.3-1.52,1.07-3.02-4.3-5.44,3.81,15.32,21.86,5.17-3.62-5.83-8.32,1.52-1.07,5.83,8.32,7.75-5.43-3.02-4.3,1.52-1.07,3.02,4.3,7.75-5.43-5.83-8.32,1.52-1.07,5.83,8.32,7.75-5.43-3.02-4.3,1.52-1.07,3.02,4.3,7.75-5.43-5.83-8.32,1.52-1.06,5.83,8.32,7.75-5.43-3.02-4.3,1.52-1.07,3.02,4.3,7.75-5.43-5.83-8.32,1.52-1.07,5.83,8.32,7.75-5.43-3.02-4.3,1.52-1.07,3.02,4.3,3.74-2.62L75.32,.03v-.03Z" style="fill: #fff; isolation: isolate; opacity: .44;"/>
</svg>