<svg width="799" height="420" viewBox="0 0 799 420" fill="none" xmlns="http://www.w3.org/2000/svg">
<path d="M701.252 349.319V349.483L701.273 349.645C702.752 360.885 704.228 375.97 704.228 392.077V415.186C704.122 415.652 703.791 416.214 703.2 416.702C702.554 417.235 701.81 417.5 701.214 417.5H5.42639C4.36092 417.5 3.66285 417.16 3.24389 416.752C2.8309 416.349 2.50011 415.697 2.50011 414.699L2.5 48.4156C2.5 23.2095 21.7553 2.5 47.6895 2.5H749C774.994 2.5 795.774 24.3307 795.774 48.7717L795.774 291.709C795.774 311.879 788.405 325.35 777.706 333.839C766.917 342.401 752.469 346.107 738.06 346.107C727.539 346.107 715.353 345.405 707.143 344.021L706.937 343.986H706.728C705.336 343.986 703.919 344.394 702.832 345.422C701.728 346.467 701.252 347.882 701.252 349.319Z" stroke="#0586FC" stroke-width="5"/>
</svg>
