<?xml version="1.0" encoding="UTF-8"?>
<svg id="Capa_1" data-name="Capa 1" xmlns="http://www.w3.org/2000/svg" viewBox="0 0 1920 160.06">
  <defs>
    <style>
      .cls-1 {
        fill: #e94088;
      }

      .cls-2 {
        fill: #a3cc84;
      }

      .cls-3 {
        fill: #97295b;
      }

      .cls-4 {
        fill: #383544;
      }

      .cls-5 {
        fill: #4c7e5b;
      }
    </style>
  </defs>
  <path class="cls-2" d="M160.01,0H0V160.06H160.01V0Z"/>
  <path class="cls-4" d="M320.01,0H160.01V160.06h160.01V0Z"/>
  <path class="cls-2" d="M479.99,0h-160.01V160.06h160.01V0Z"/>
  <path class="cls-4" d="M319.99,0h160.01V81.98c0,43.1-34.97,78.08-78.05,78.08h-81.96V0Z"/>
  <path class="cls-5" d="M640,0h-160.01V160.06h160.01V0Z"/>
  <path class="cls-2" d="M800.01,0h-160.01V160.06h160.01V0Z"/>
  <path class="cls-4" d="M800.01,160.06L640,0h160.01V160.06Z"/>
  <path class="cls-4" d="M960.01,0h-160.01V160.06h160.01V0Z"/>
  <path class="cls-3" d="M959.99,160.06h-159.99V0l159.99,160.06Z"/>
  <path class="cls-4" d="M1120,0h-160.01V160.06h160.01V0Z"/>
  <path class="cls-1" d="M1120,160.06L959.99,0h160.01V160.06Z"/>
  <path class="cls-2" d="M1280,0h-160V160.06h160V0Z"/>
  <path class="cls-4" d="M1200,115.74c-19.72,0-35.7-15.99-35.7-35.71s15.98-35.71,35.7-35.71,35.69,15.99,35.69,35.71-15.98,35.71-35.69,35.71Z"/>
  <path class="cls-4" d="M1440,0h-160V160.06h160V0Z"/>
  <path class="cls-2" d="M1600.01,0h-160.01V160.06h160.01V0Z"/>
  <path class="cls-4" d="M1760,0h-160.01V160.06h160.01V0Z"/>
  <path class="cls-4" d="M80,130.69c-27.98,0-50.66-22.69-50.66-50.68S52.02,29.33,80,29.33s50.66,22.69,50.66,50.68-22.68,50.68-50.66,50.68Z"/>
  <path class="cls-4" d="M1920,0h-160V160.06h160V0Z"/>
  <path class="cls-3" d="M1760,0h81.95c43.08,0,78.05,34.98,78.05,78.08v81.98h-160V0Z"/>
  <path class="cls-2" d="M560,136.59c-31.22,0-56.54-25.33-56.54-56.56s25.32-56.56,56.54-56.56,56.54,25.33,56.54,56.56-25.32,56.56-56.54,56.56Z"/>
  <path class="cls-3" d="M560,102.62c-12.48,0-22.58-10.11-22.58-22.59s10.11-22.59,22.58-22.59,22.58,10.11,22.58,22.59-10.11,22.59-22.58,22.59Z"/>
</svg>