<svg width="250" height="188" viewBox="0 0 250 188" fill="none" xmlns="http://www.w3.org/2000/svg">
<g id="Layer 1">
<g id="Group">
<path id="Vector" d="M98.51 32.68C100.71 31.47 102.37 30.13 103.5 28.66C105.52 26.04 106.53 22.58 106.53 18.28C106.53 13.98 105.53 10.51 103.53 7.51C100.21 2.63 94.56 0.13 86.59 0H55V70.53H84.46C87.78 70.53 90.86 70.21 93.7 69.57C96.54 68.93 99 67.75 101.09 66.03C102.94 64.53 104.48 62.68 105.72 60.48C107.66 57.16 108.63 53.41 108.63 49.23C108.63 45.05 107.78 41.73 106.08 38.89C104.38 36.05 101.86 33.98 98.53 32.67L98.51 32.68ZM68.03 12.25H82.25C85.38 12.25 87.96 12.62 89.97 13.35C92.31 14.4 93.48 16.57 93.48 19.86C93.48 22.83 92.59 24.89 90.82 26.06C89.05 27.22 86.75 27.81 83.91 27.81H68.02V12.25H68.03ZM90.52 57.04C88.94 57.87 86.73 58.28 83.9 58.28H68.03V39.47H84.12C86.93 39.5 89.1 39.9 90.65 40.67C93.43 42.04 94.82 44.56 94.82 48.23C94.82 52.57 93.39 55.5 90.52 57.03V57.04Z" fill="#383544"/>
<path id="Vector_2" d="M200.26 60.5799C198.67 61.3799 196.53 61.7799 193.84 61.7799C189.26 61.7799 186.12 60.8699 184.42 59.0499C183.46 58.0299 182.83 56.3099 182.54 55.2299H168.71C168.71 59.2399 170.67 63.6499 174.58 67.1199C178.5 70.5799 184.56 72.3099 192.78 72.3099C201 72.3099 206.79 70.6699 210.64 67.4099C214.49 64.1399 216.42 59.9199 216.42 54.7499C216.42 50.8299 215.08 47.5599 212.4 44.9399C209.69 42.3599 205.62 40.4299 200.18 39.1499C192.03 37.3599 187.28 36.0999 185.94 35.3699C184.6 34.6699 183.92 33.5399 183.92 31.9699C183.92 30.7299 184.55 29.6399 185.82 28.7199C187.08 27.7999 189.2 27.3299 192.18 27.3299C195.79 27.3299 198.35 28.2599 199.86 30.1099C200.66 31.1299 201.15 32.5199 201.35 34.2699H214.99C214.38 27.8899 212.02 23.3999 207.92 20.7999C203.81 18.1999 198.5 16.8999 191.98 16.8999C185.11 16.8999 179.78 18.6299 175.99 22.0899C172.2 25.5499 170.31 29.6899 170.31 34.5099C170.31 38.5899 171.52 41.7199 173.95 43.8899C176.37 46.0899 180.55 47.9299 186.48 49.3899C194.71 51.3399 199.47 52.7099 200.75 53.5099C202.03 54.3099 202.67 55.4699 202.67 56.9999C202.67 58.5299 201.88 59.7899 200.29 60.5899L200.26 60.5799Z" fill="#383544"/>
<path id="Vector_3" d="M225.19 60.6801C225.19 63.9301 225.96 66.3401 227.49 67.9101C229.85 70.3701 234.25 71.4801 240.7 71.2601L247.16 71.0201V60.8301C246.71 60.8601 246.26 60.8901 245.8 60.9001C245.34 60.9201 244.9 60.9201 244.48 60.9201C241.7 60.9201 240.05 60.6601 239.5 60.1301C238.96 59.6001 238.69 58.2701 238.69 56.1301V28.5701H247.16V18.8601H238.69V4.31006H225.2V18.8601H217.93V28.5701H225.2V60.6801H225.19Z" fill="#383544"/>
<path id="Vector_4" d="M141.09 74.6699C136.55 74.6699 132.46 75.4799 128.82 77.1099C125.18 78.7399 122.18 81.3099 119.81 84.8299C117.67 87.9299 116.29 91.5199 115.65 95.6099C115.28 98.0099 115.13 101.46 115.2 105.96H153.19C152.98 111.19 151.16 114.86 147.74 116.97C145.66 118.28 143.15 118.93 140.22 118.93C137.11 118.93 134.59 118.13 132.65 116.54C131.59 115.68 130.66 114.48 129.84 112.95H115.92C116.29 116.04 117.97 119.19 120.98 122.38C125.65 127.45 132.19 129.99 140.6 129.99C147.54 129.99 153.67 127.85 158.97 123.57C164.28 119.29 166.93 112.33 166.93 102.69C166.93 93.6499 164.54 86.7299 159.74 81.9099C154.95 77.0899 148.73 74.6799 141.09 74.6799V74.6699ZM129.36 96.9699C129.61 93.3499 130.82 90.5999 132.99 88.7299C135.16 86.8599 137.86 85.9199 141.08 85.9199C144.58 85.9199 147.29 86.9099 149.22 88.8999C151.15 90.8899 152.36 93.5799 152.85 96.9699H129.35H129.36Z" fill="#383544"/>
<path id="Vector_5" d="M105.07 140.91C103.15 138.61 100.69 136.9 97.7002 135.79C94.7102 134.67 91.3802 134.11 87.7102 134.11C84.4402 134.11 81.3302 134.71 78.3802 135.9C75.4202 137.1 72.8202 139.21 70.5702 142.24V117.36H54.9902V187.66H70.5702V159.39C70.5702 154.92 71.6302 151.48 73.7402 149.07C75.8602 146.66 78.9602 145.45 83.0502 145.45C87.1402 145.45 89.6702 146.66 91.0802 149.09C92.1602 150.81 92.7102 153.08 92.7102 155.89V187.65H108.62V157C108.62 152.34 108.44 148.98 108.07 146.92C107.71 144.86 106.71 142.86 105.08 140.91H105.07Z" fill="#383544"/>
<path id="Vector_6" d="M161.2 142.57C158.83 139.06 155.82 136.48 152.19 134.85C148.55 133.22 144.46 132.41 139.92 132.41C132.28 132.41 126.06 134.82 121.27 139.64C116.48 144.46 114.08 151.39 114.08 160.42C114.08 170.06 116.73 177.02 122.04 181.3C127.35 185.58 133.47 187.72 140.41 187.72C148.82 187.72 155.36 185.18 160.03 180.11C163.03 176.92 164.72 173.78 165.09 170.68H151.17C150.36 172.21 149.42 173.41 148.36 174.27C146.42 175.87 143.89 176.66 140.79 176.66C137.86 176.66 135.35 176.01 133.27 174.7C129.85 172.59 128.03 168.93 127.82 163.69H165.81C165.88 159.18 165.73 155.73 165.36 153.34C164.73 149.25 163.34 145.66 161.2 142.56V142.57ZM128.15 154.71C128.64 151.31 129.86 148.62 131.78 146.64C133.71 144.65 136.42 143.66 139.92 143.66C143.14 143.66 145.83 144.6 148.01 146.47C150.18 148.34 151.39 151.09 151.64 154.71H128.14H128.15Z" fill="#383544"/>
<path id="Vector_7" d="M215.43 128.22H230.69L247.15 76.0601H231.68L222.82 107.39L214.17 76.0601H199.12L190.94 107.24L182.08 76.0601H166.14L178.44 116.32C181.6 113.71 186.31 112.64 193.38 112.8H194.03C194.7 112.83 195.31 112.84 195.88 112.88C196.64 112.93 197.68 113.01 198.5 113.12L201 113.44L206.5 90.2301L215.41 128.23L215.43 128.22Z" fill="#383544"/>
<path id="Vector_8" d="M245.43 160.28C242.72 157.7 238.64 155.77 233.21 154.49C225.06 152.7 220.31 151.44 218.97 150.71C217.63 150.01 216.95 148.88 216.95 147.31C216.95 146.07 217.58 144.98 218.85 144.06C220.11 143.14 222.23 142.67 225.21 142.67C228.82 142.67 231.38 143.6 232.89 145.45C233.69 146.47 234.18 147.86 234.38 149.61H248.02C247.41 143.23 245.05 138.74 240.95 136.14C236.84 133.54 231.53 132.24 225.01 132.24C218.14 132.24 212.8 133.97 209.02 137.43C205.23 140.89 203.34 145.03 203.34 149.85C203.34 153.93 204.55 157.06 206.98 159.23C209.41 161.43 213.58 163.27 219.51 164.73C227.74 166.68 232.5 168.05 233.78 168.85C235.06 169.65 235.7 170.81 235.7 172.34C235.7 173.87 234.91 175.13 233.32 175.93C231.73 176.73 229.59 177.13 226.9 177.13C222.32 177.13 219.17 176.22 217.48 174.4C216.52 173.38 215.89 171.66 215.61 169.23H201.78C201.78 174.59 203.74 179 207.65 182.46C211.57 185.92 217.63 187.65 225.85 187.65C234.07 187.65 239.86 186.01 243.71 182.75C247.56 179.48 249.49 175.26 249.49 170.09C249.49 166.17 248.15 162.9 245.47 160.28H245.43Z" fill="#383544"/>
<path id="Vector_9" d="M102.78 79.0399C98.89 76.1299 93.89 74.6799 87.78 74.6799C82.9 74.6799 78.86 75.7599 75.68 77.9299C73.91 79.1499 72.03 81.1299 70.04 83.8999V76.0599H55V113.74H70.53V100.61C70.53 97.2899 71.03 94.5599 72.04 92.4299C73.99 88.3899 77.58 86.3699 82.8 86.3699C87.06 86.3699 89.94 87.7499 91.46 90.5099C92.29 92.0199 92.7 94.1899 92.7 97.0199V129.71H108.61V93.5199C108.61 86.7799 106.67 81.9599 102.78 79.0499V79.0399Z" fill="#383544"/>
<path id="Vector_10" d="M121.02 65.8399C126.33 70.1199 132.45 72.2599 139.39 72.2599C147.8 72.2599 154.34 69.7199 159.01 64.6499C162.01 61.4599 163.7 58.3199 164.07 55.2199H150.15C149.34 56.7499 148.4 57.9499 147.34 58.8099C145.4 60.4099 142.87 61.1999 139.77 61.1999C136.84 61.1999 134.33 60.5499 132.25 59.2399C128.83 57.1299 127.01 53.4699 126.8 48.2299H164.79C164.86 43.7199 164.71 40.2699 164.34 37.8799C163.71 33.7899 162.32 30.1999 160.18 27.0999C157.81 23.5899 154.8 21.0099 151.17 19.3799C147.53 17.7499 143.44 16.9399 138.9 16.9399C131.26 16.9399 125.04 19.3499 120.25 24.1699C115.46 28.9899 113.06 35.9199 113.06 44.9499C113.06 54.5899 115.71 61.5499 121.02 65.8299V65.8399ZM130.76 31.1699C132.69 29.1799 135.4 28.1899 138.9 28.1899C142.12 28.1899 144.81 29.1299 146.99 30.9999C149.16 32.8699 150.37 35.6199 150.62 39.2399H127.12C127.61 35.8399 128.83 33.1499 130.75 31.1699H130.76Z" fill="#383544"/>
<path id="Vector_11" d="M26.27 144.01C29.65 144.01 32.15 145.06 33.76 147.17C34.87 148.73 35.55 150.49 35.82 152.43H50.46C49.66 145 47.07 139.81 42.7 136.88C38.33 133.95 32.72 132.48 25.86 132.48C17.79 132.48 11.47 134.97 6.88 139.95C2.3 144.93 0 151.89 0 160.84C0 168.77 2.08 175.22 6.22 180.2C10.37 185.18 16.85 187.67 25.65 187.67C34.45 187.67 41.09 184.69 45.58 178.72C48.39 175.02 49.96 171.1 50.3 166.95H35.71C35.41 169.69 34.55 171.93 33.15 173.65C31.74 175.37 29.36 176.23 26.01 176.23C21.28 176.23 18.07 174.06 16.36 169.72C15.42 167.4 14.95 164.33 14.95 160.51C14.95 156.5 15.42 153.29 16.36 150.87C18.14 146.31 21.44 144.03 26.26 144.03L26.27 144.01Z" fill="#383544"/>
<path id="Vector_12" d="M189.91 131.57C189.91 130.55 190.25 129.62 190.94 128.77C191.63 127.92 192.87 127.53 194.67 127.57C196.47 127.62 197.76 127.69 198.06 127.79V116.69C197.31 116.59 196.35 116.52 195.65 116.47C194.95 116.42 194.17 116.42 193.31 116.4C184.53 116.19 180.98 117.96 179 121.09C177.12 123.2 176.18 127.04 176.18 132.62V135.97H168.71V145.59H176.37V187.65H189.91V145.59H198.86V135.97H189.91V131.57Z" fill="#383544"/>
</g>
</g>
</svg>
