<?xml version="1.0" encoding="UTF-8"?>
<svg id="Capa_1" data-name="Capa 1" xmlns="http://www.w3.org/2000/svg" viewBox="0 0 435.95 261.57">
  <path d="M87.19,0H0V87.19H87.19V0Z" style="fill: #383544;"/>
  <path d="M87.19,87.19H0V0L87.19,87.19Z" style="fill: #9de788;"/>
  <path d="M174.38,0H87.19V87.19h87.19V0Z" style="fill: #383544;"/>
  <path d="M130.78,65.57c-12.14,0-21.98-9.84-21.98-21.98s9.84-21.98,21.98-21.98,21.98,9.84,21.98,21.98-9.84,21.98-21.98,21.98Z" style="fill: #95285a;"/>
  <path d="M261.57,0h-87.19V87.19h87.19V0Z" style="fill: #95285a;"/>
  <path d="M174.38,0h87.19V46.41c0,22.51-18.27,40.78-40.78,40.78h-46.41V0Z" style="fill: #9de788;"/>
  <path d="M348.76,0h-87.19V87.19h87.19V0Z" style="fill: #f93a89;"/>
  <path d="M261.57,0h87.19V46.41c0,22.51-18.27,40.78-40.78,40.78h-46.41V0Z" style="fill: #383544;"/>
  <path d="M87.19,87.19H0v87.19H87.19V87.19Z" style="fill: #95285a;"/>
  <path d="M174.38,87.19H87.19v87.19h87.19V87.19Z" style="fill: #fdfbdf;"/>
  <path d="M130.78,161.59c-17.02,0-30.81-13.79-30.81-30.81s13.79-30.81,30.81-30.81,30.81,13.79,30.81,30.81-13.79,30.81-30.81,30.81Z" style="fill: #9de788;"/>
  <path d="M130.78,143.1c-6.8,0-12.31-5.51-12.31-12.31s5.51-12.31,12.31-12.31,12.31,5.51,12.31,12.31-5.51,12.31-12.31,12.31Z" style="fill: #95285a;"/>
  <path d="M261.57,87.19h-87.19v87.19h87.19V87.19Z" style="fill: #95285a;"/>
  <path d="M348.76,87.19h-87.19v87.19h87.19V87.19Z" style="fill: #383544;"/>
  <path d="M261.57,87.19h87.19v46.41c0,22.51-18.27,40.78-40.78,40.78h-46.41V87.19Z" style="fill: #9de788;"/>
  <path d="M87.19,174.38H0v87.19H87.19v-87.19Z" style="fill: #9de788;"/>
  <path d="M43.6,237.43c-10.74,0-19.45-8.71-19.45-19.45s8.71-19.45,19.45-19.45,19.45,8.71,19.45,19.45-8.71,19.45-19.45,19.45Z" style="fill: #383544;"/>
  <path d="M174.38,174.38H87.19v87.19h87.19v-87.19Z" style="fill: #383544;"/>
  <path d="M261.57,174.38h-87.19v87.19h87.19v-87.19Z" style="fill: #9de788;"/>
  <path d="M348.76,174.38h-87.19v87.19h87.19v-87.19Z" style="fill: #383544;"/>
  <path d="M435.95,0h-87.19V87.19h87.19V0Z" style="fill: #f93a89;"/>
  <path d="M392.35,71.2c-15.24,0-27.6-12.36-27.6-27.6s12.36-27.6,27.6-27.6,27.6,12.36,27.6,27.6-12.36,27.6-27.6,27.6Z" style="fill: #9de788;"/>
  <path d="M435.95,87.19h-87.19v87.19h87.19V87.19Z" style="fill: #383544;"/>
  <path d="M435.95,174.38h-87.19v87.19h87.19v-87.19Z" style="fill: #383544;"/>
  <path d="M348.76,174.38h46.41c22.51,0,40.78,18.27,40.78,40.78v46.41h-87.19v-87.19Z" style="fill: #fdfbdf;"/>
</svg>